<svg width="3945" height="1450" xmlns="http://www.w3.org/2000/svg" xmlns:xlink="http://www.w3.org/1999/xlink" overflow="hidden"><defs><clipPath id="clip0"><rect x="157" y="567" width="3945" height="1450"/></clipPath><clipPath id="clip1"><rect x="239" y="778" width="160" height="159"/></clipPath><clipPath id="clip2"><rect x="239" y="778" width="160" height="159"/></clipPath><clipPath id="clip3"><rect x="239" y="778" width="160" height="159"/></clipPath><clipPath id="clip4"><rect x="985" y="778" width="159" height="159"/></clipPath><clipPath id="clip5"><rect x="985" y="778" width="159" height="159"/></clipPath><clipPath id="clip6"><rect x="985" y="778" width="159" height="159"/></clipPath><clipPath id="clip7"><rect x="2471" y="778" width="160" height="159"/></clipPath><clipPath id="clip8"><rect x="2471" y="778" width="160" height="159"/></clipPath><clipPath id="clip9"><rect x="2471" y="778" width="160" height="159"/></clipPath><clipPath id="clip10"><rect x="985" y="972" width="159" height="158"/></clipPath><clipPath id="clip11"><rect x="985" y="972" width="159" height="158"/></clipPath><clipPath id="clip12"><rect x="985" y="972" width="159" height="158"/></clipPath><clipPath id="clip13"><rect x="985" y="1168" width="159" height="158"/></clipPath><clipPath id="clip14"><rect x="985" y="1168" width="159" height="158"/></clipPath><clipPath id="clip15"><rect x="985" y="1168" width="159" height="158"/></clipPath><clipPath id="clip16"><rect x="1732" y="778" width="158" height="159"/></clipPath><clipPath id="clip17"><rect x="1732" y="778" width="158" height="159"/></clipPath><clipPath id="clip18"><rect x="1732" y="778" width="158" height="159"/></clipPath><clipPath id="clip19"><rect x="1732" y="973" width="158" height="159"/></clipPath><clipPath id="clip20"><rect x="1732" y="973" width="158" height="159"/></clipPath><clipPath id="clip21"><rect x="1732" y="973" width="158" height="159"/></clipPath><clipPath id="clip22"><rect x="1732" y="1168" width="158" height="158"/></clipPath><clipPath id="clip23"><rect x="1732" y="1168" width="158" height="158"/></clipPath><clipPath id="clip24"><rect x="1732" y="1168" width="158" height="158"/></clipPath><clipPath id="clip25"><rect x="2471" y="972" width="160" height="158"/></clipPath><clipPath id="clip26"><rect x="2471" y="972" width="160" height="158"/></clipPath><clipPath id="clip27"><rect x="2471" y="972" width="160" height="158"/></clipPath><clipPath id="clip28"><rect x="2471" y="1168" width="160" height="158"/></clipPath><clipPath id="clip29"><rect x="2471" y="1168" width="160" height="158"/></clipPath><clipPath id="clip30"><rect x="2471" y="1168" width="160" height="158"/></clipPath><clipPath id="clip31"><rect x="2471" y="1361" width="160" height="159"/></clipPath><clipPath id="clip32"><rect x="2471" y="1361" width="160" height="159"/></clipPath><clipPath id="clip33"><rect x="2471" y="1361" width="160" height="159"/></clipPath><clipPath id="clip34"><rect x="3404" y="786" width="89" height="90"/></clipPath><clipPath id="clip35"><rect x="3404" y="786" width="89" height="90"/></clipPath><clipPath id="clip36"><rect x="3404" y="786" width="89" height="90"/></clipPath><clipPath id="clip37"><rect x="3404" y="1311" width="89" height="90"/></clipPath><clipPath id="clip38"><rect x="3404" y="1311" width="89" height="90"/></clipPath><clipPath id="clip39"><rect x="3404" y="1311" width="89" height="90"/></clipPath><clipPath id="clip40"><rect x="3404" y="1419" width="89" height="90"/></clipPath><clipPath id="clip41"><rect x="3404" y="1419" width="89" height="90"/></clipPath><clipPath id="clip42"><rect x="3404" y="1419" width="89" height="90"/></clipPath><clipPath id="clip43"><rect x="3404" y="1526" width="89" height="89"/></clipPath><clipPath id="clip44"><rect x="3404" y="1526" width="89" height="89"/></clipPath><clipPath id="clip45"><rect x="3404" y="1526" width="89" height="89"/></clipPath><clipPath id="clip46"><rect x="3404" y="940" width="89" height="89"/></clipPath><clipPath id="clip47"><rect x="3404" y="940" width="89" height="89"/></clipPath><clipPath id="clip48"><rect x="3404" y="940" width="89" height="89"/></clipPath><clipPath id="clip49"><rect x="3404" y="1045" width="89" height="88"/></clipPath><clipPath id="clip50"><rect x="3404" y="1045" width="89" height="88"/></clipPath><clipPath id="clip51"><rect x="3404" y="1045" width="89" height="88"/></clipPath><clipPath id="clip52"><rect x="3404" y="1149" width="89" height="89"/></clipPath><clipPath id="clip53"><rect x="3404" y="1149" width="89" height="89"/></clipPath><clipPath id="clip54"><rect x="3404" y="1149" width="89" height="89"/></clipPath></defs><g clip-path="url(#clip0)" transform="translate(-157 -567)"><path d="M160.5 579.5 877.001 579.5 942.5 645 877.001 710.5 160.5 710.5Z" stroke="#FEFEFE" stroke-width="6.875" stroke-miterlimit="8" fill="#BEBEBE" fill-rule="evenodd"/><text fill="#FEFEFE" font-family="Poppins,Poppins_MSFontService,sans-serif" font-weight="400" font-size="83" transform="matrix(1 0 0 1 379.056 671)">Sprint 0</text><path d="M917.5 579.5 1609 579.5 1674.5 645 1609 710.5 917.5 710.5 983 645Z" stroke="#FEFEFE" stroke-width="6.875" stroke-miterlimit="8" fill="#BEBEBE" fill-rule="evenodd"/><text fill="#FEFEFE" font-family="Poppins,Poppins_MSFontService,sans-serif" font-weight="400" font-size="83" transform="matrix(1 0 0 1 1152.84 671)">Sprint 1</text><path d="M1651.5 579.5 2342 579.5 2407.5 645 2342 710.5 1651.5 710.5 1717 645Z" stroke="#FEFEFE" stroke-width="6.875" stroke-miterlimit="8" fill="#BEBEBE" fill-rule="evenodd"/><text fill="#FEFEFE" font-family="Poppins,Poppins_MSFontService,sans-serif" font-weight="400" font-size="83" transform="matrix(1 0 0 1 1875.4 671)">Sprint 2</text><path d="M2383.5 581.5 3075 581.5 3140.5 647 3075 712.5 2383.5 712.5 2449 647Z" stroke="#FEFEFE" stroke-width="6.875" stroke-miterlimit="8" fill="#BEBEBE" fill-rule="evenodd"/><text fill="#FEFEFE" font-family="Poppins,Poppins_MSFontService,sans-serif" font-weight="400" font-size="83" transform="matrix(1 0 0 1 2607.49 673)">Sprint 3<tspan fill="#0090CE" font-weight="700" font-size="64" x="-2176.71" y="206">Infra_v1.0</tspan><tspan fill="#0090CE" font-weight="700" font-size="64" x="-1430.56" y="204">Infra_v1.1</tspan></text><g clip-path="url(#clip1)"><g clip-path="url(#clip2)"><g clip-path="url(#clip3)"><path d="" stroke="#000000" stroke-width="9.81251" stroke-linecap="round" stroke-linejoin="round" stroke-miterlimit="10" fill="none" transform="matrix(1.00637 0 0 1 240 779)"/><path d="" stroke="#000000" stroke-width="9.81251" stroke-linecap="round" stroke-linejoin="round" stroke-miterlimit="10" fill="none" transform="matrix(1.00637 0 0 1 240 779)"/><path d="M72.6555 72.7073 2.12809 43.0116C1.11771 42.586 -8.17057e-16 43.328 -8.17057e-16 44.4246L-8.17057e-16 123.814C-8.17057e-16 125.82 1.22135 127.624 3.08419 128.369L71.4912 155.732C72.4982 156.134 73.5938 155.393 73.5938 154.308L73.5938 74.1203C73.5938 73.5033 73.224 72.9468 72.6555 72.7073Z" fill="#0090CE" transform="matrix(1.00637 0 0 1 240 779)"/><path d="M79.0949 64.2707 147.266 35.5673C148.491 35.0515 148.524 33.327 147.319 32.7649L80.5748 1.61753C79.2596 1.00394 77.7405 1.00394 76.4253 1.61753L9.68096 32.7649C8.47616 33.327 8.50898 35.0515 9.73431 35.5673L77.9052 64.2707C78.2854 64.4311 78.7147 64.4311 79.0949 64.2707Z" fill="#0090CE" transform="matrix(1.00637 0 0 1 240 779)"/><path d="M83.4063 74.1203 83.4063 154.308C83.4063 155.393 84.5019 156.134 85.5089 155.732L153.916 128.369C155.778 127.624 157 125.82 157 123.814L157 44.4246C157 43.328 155.882 42.586 154.872 43.0116L84.3446 72.7073C83.7761 72.9468 83.4063 73.5033 83.4063 74.1203Z" fill="#0090CE" transform="matrix(1.00637 0 0 1 240 779)"/></g></g></g><g clip-path="url(#clip4)"><g clip-path="url(#clip5)"><g clip-path="url(#clip6)"><path d="" stroke="#000000" stroke-width="9.81251" stroke-linecap="round" stroke-linejoin="round" stroke-miterlimit="10" fill="none" transform="matrix(1.00637 0 0 1 986 779)"/><path d="" stroke="#000000" stroke-width="9.81251" stroke-linecap="round" stroke-linejoin="round" stroke-miterlimit="10" fill="none" transform="matrix(1.00637 0 0 1 986 779)"/><path d="M72.6555 72.7073 2.12809 43.0116C1.11771 42.586 -8.17057e-16 43.328 -8.17057e-16 44.4246L-8.17057e-16 123.814C-8.17057e-16 125.82 1.22135 127.624 3.08419 128.369L71.4912 155.732C72.4982 156.134 73.5938 155.393 73.5938 154.308L73.5938 74.1203C73.5938 73.5033 73.224 72.9468 72.6555 72.7073Z" fill="#0090CE" transform="matrix(1.00637 0 0 1 986 779)"/><path d="M79.0949 64.2707 147.266 35.5673C148.491 35.0515 148.524 33.327 147.319 32.7649L80.5748 1.61753C79.2596 1.00394 77.7405 1.00394 76.4253 1.61753L9.68096 32.7649C8.47616 33.327 8.50898 35.0515 9.73431 35.5673L77.9052 64.2707C78.2854 64.4311 78.7147 64.4311 79.0949 64.2707Z" fill="#0090CE" transform="matrix(1.00637 0 0 1 986 779)"/><path d="M83.4063 74.1203 83.4063 154.308C83.4063 155.393 84.5019 156.134 85.5089 155.732L153.916 128.369C155.778 127.624 157 125.82 157 123.814L157 44.4246C157 43.328 155.882 42.586 154.872 43.0116L84.3446 72.7073C83.7761 72.9468 83.4063 73.5033 83.4063 74.1203Z" fill="#0090CE" transform="matrix(1.00637 0 0 1 986 779)"/></g></g></g><text fill="#0090CE" font-family="Poppins,Poppins_MSFontService,sans-serif" font-weight="700" font-size="64" transform="matrix(1 0 0 1 2662.65 877)">Infra_v1.2</text><g clip-path="url(#clip7)"><g clip-path="url(#clip8)"><g clip-path="url(#clip9)"><path d="" stroke="#000000" stroke-width="9.81251" stroke-linecap="round" stroke-linejoin="round" stroke-miterlimit="10" fill="none" transform="matrix(1.00637 0 0 1 2472 779)"/><path d="" stroke="#000000" stroke-width="9.81251" stroke-linecap="round" stroke-linejoin="round" stroke-miterlimit="10" fill="none" transform="matrix(1.00637 0 0 1 2472 779)"/><path d="M72.6555 72.7073 2.12809 43.0116C1.11771 42.586 -8.17057e-16 43.328 -8.17057e-16 44.4246L-8.17057e-16 123.814C-8.17057e-16 125.82 1.22135 127.624 3.08419 128.369L71.4912 155.732C72.4982 156.134 73.5938 155.393 73.5938 154.308L73.5938 74.1203C73.5938 73.5033 73.224 72.9468 72.6555 72.7073Z" fill="#0090CE" transform="matrix(1.00637 0 0 1 2472 779)"/><path d="M79.0949 64.2707 147.266 35.5673C148.491 35.0515 148.524 33.327 147.319 32.7649L80.5748 1.61753C79.2596 1.00394 77.7405 1.00394 76.4253 1.61753L9.68096 32.7649C8.47616 33.327 8.50898 35.0515 9.73431 35.5673L77.9052 64.2707C78.2854 64.4311 78.7147 64.4311 79.0949 64.2707Z" fill="#0090CE" transform="matrix(1.00637 0 0 1 2472 779)"/><path d="M83.4063 74.1203 83.4063 154.308C83.4063 155.393 84.5019 156.134 85.5089 155.732L153.916 128.369C155.778 127.624 157 125.82 157 123.814L157 44.4246C157 43.328 155.882 42.586 154.872 43.0116L84.3446 72.7073C83.7761 72.9468 83.4063 73.5033 83.4063 74.1203Z" fill="#0090CE" transform="matrix(1.00637 0 0 1 2472 779)"/></g></g></g><g clip-path="url(#clip10)"><g clip-path="url(#clip11)"><g clip-path="url(#clip12)"><path d="" stroke="#000000" stroke-width="9.87501" stroke-linecap="round" stroke-linejoin="round" stroke-miterlimit="10" fill="none"/><path d="" stroke="#000000" stroke-width="9.87501" stroke-linecap="round" stroke-linejoin="round" stroke-miterlimit="10" fill="none"/><path d="M1059.12 1045.17 988.142 1015.29C987.125 1014.86 986 1015.6 986 1016.71L986 1096.6C986 1098.62 987.229 1100.44 989.104 1101.19L1057.95 1128.72C1058.96 1129.13 1060.06 1128.38 1060.06 1127.29L1060.06 1046.59C1060.06 1045.97 1059.69 1045.41 1059.12 1045.17Z" fill="#F18618"/><path d="M1065.6 1036.68 1134.2 1007.79C1135.44 1007.27 1135.47 1005.54 1134.26 1004.97L1067.09 973.628C1065.76 973.01 1064.24 973.01 1062.91 973.628L995.742 1004.97C994.53 1005.54 994.563 1007.27 995.796 1007.79L1064.4 1036.68C1064.78 1036.84 1065.22 1036.84 1065.6 1036.68Z" fill="#F18618"/><path d="M1069.94 1046.59 1069.94 1127.29C1069.94 1128.38 1071.04 1129.13 1072.05 1128.72L1140.9 1101.19C1142.77 1100.44 1144 1098.62 1144 1096.6L1144 1016.71C1144 1015.6 1142.88 1014.86 1141.86 1015.29L1070.88 1045.17C1070.31 1045.41 1069.94 1045.97 1069.94 1046.59Z" fill="#F18618"/></g></g></g><g clip-path="url(#clip13)"><g clip-path="url(#clip14)"><g clip-path="url(#clip15)"><path d="" stroke="#000000" stroke-width="9.87501" stroke-linecap="round" stroke-linejoin="round" stroke-miterlimit="10" fill="none"/><path d="" stroke="#000000" stroke-width="9.87501" stroke-linecap="round" stroke-linejoin="round" stroke-miterlimit="10" fill="none"/><path d="M1059.12 1241.17 988.142 1211.29C987.125 1210.86 986 1211.6 986 1212.71L986 1292.6C986 1294.62 987.229 1296.44 989.104 1297.19L1057.95 1324.72C1058.96 1325.13 1060.06 1324.38 1060.06 1323.29L1060.06 1242.59C1060.06 1241.97 1059.69 1241.41 1059.12 1241.17Z" fill="#F18618"/><path d="M1065.6 1232.68 1134.2 1203.79C1135.44 1203.27 1135.47 1201.54 1134.26 1200.97L1067.09 1169.63C1065.76 1169.01 1064.24 1169.01 1062.91 1169.63L995.742 1200.97C994.53 1201.54 994.563 1203.27 995.796 1203.79L1064.4 1232.68C1064.78 1232.84 1065.22 1232.84 1065.6 1232.68Z" fill="#F18618"/><path d="M1069.94 1242.59 1069.94 1323.29C1069.94 1324.38 1071.04 1325.13 1072.05 1324.72L1140.9 1297.19C1142.77 1296.44 1144 1294.62 1144 1292.6L1144 1212.71C1144 1211.6 1142.88 1210.86 1141.86 1211.29L1070.88 1241.17C1070.31 1241.41 1069.94 1241.97 1069.94 1242.59Z" fill="#F18618"/></g></g></g><text fill="#F18618" font-family="Poppins,Poppins_MSFontService,sans-serif" font-weight="700" font-size="64" transform="matrix(1 0 0 1 1176.94 1071)">Web1_v1.0<tspan font-size="64" x="0" y="196">Web2_v1.0</tspan></text><g clip-path="url(#clip16)"><g clip-path="url(#clip17)"><g clip-path="url(#clip18)"><path d="" stroke="#000000" stroke-width="9.81251" stroke-linecap="round" stroke-linejoin="round" stroke-miterlimit="10" fill="none" transform="matrix(1.00637 0 0 1 1732 779)"/><path d="" stroke="#000000" stroke-width="9.81251" stroke-linecap="round" stroke-linejoin="round" stroke-miterlimit="10" fill="none" transform="matrix(1.00637 0 0 1 1732 779)"/><path d="M72.6555 72.7073 2.12809 43.0116C1.11771 42.586 -8.17057e-16 43.328 -8.17057e-16 44.4246L-8.17057e-16 123.814C-8.17057e-16 125.82 1.22135 127.624 3.08419 128.369L71.4912 155.732C72.4982 156.134 73.5938 155.393 73.5938 154.308L73.5938 74.1203C73.5938 73.5033 73.224 72.9468 72.6555 72.7073Z" fill="#F18618" transform="matrix(1.00637 0 0 1 1732 779)"/><path d="M79.0949 64.2707 147.266 35.5673C148.491 35.0515 148.524 33.327 147.319 32.7649L80.5748 1.61753C79.2596 1.00394 77.7405 1.00394 76.4253 1.61753L9.68096 32.7649C8.47616 33.327 8.50898 35.0515 9.73431 35.5673L77.9052 64.2707C78.2854 64.4311 78.7147 64.4311 79.0949 64.2707Z" fill="#F18618" transform="matrix(1.00637 0 0 1 1732 779)"/><path d="M83.4063 74.1203 83.4063 154.308C83.4063 155.393 84.5019 156.134 85.5089 155.732L153.916 128.369C155.778 127.624 157 125.82 157 123.814L157 44.4246C157 43.328 155.882 42.586 154.872 43.0116L84.3446 72.7073C83.7761 72.9468 83.4063 73.5033 83.4063 74.1203Z" fill="#F18618" transform="matrix(1.00637 0 0 1 1732 779)"/></g></g></g><g clip-path="url(#clip19)"><g clip-path="url(#clip20)"><g clip-path="url(#clip21)"><path d="" stroke="#000000" stroke-width="9.87499" stroke-linecap="round" stroke-linejoin="round" stroke-miterlimit="10" fill="none"/><path d="" stroke="#000000" stroke-width="9.87499" stroke-linecap="round" stroke-linejoin="round" stroke-miterlimit="10" fill="none"/><path d="M1805.12 1047.17 1734.14 1017.29C1733.12 1016.86 1732 1017.6 1732 1018.71L1732 1098.6C1732 1100.62 1733.23 1102.44 1735.1 1103.19L1803.95 1130.72C1804.96 1131.13 1806.06 1130.38 1806.06 1129.29L1806.06 1048.59C1806.06 1047.97 1805.69 1047.41 1805.12 1047.17Z" fill="#855FA5"/><path d="M1811.6 1038.68 1880.2 1009.79C1881.44 1009.27 1881.47 1007.54 1880.26 1006.97L1813.09 975.628C1811.76 975.01 1810.24 975.01 1808.91 975.628L1741.74 1006.97C1740.53 1007.54 1740.56 1009.27 1741.8 1009.79L1810.4 1038.68C1810.78 1038.84 1811.22 1038.84 1811.6 1038.68Z" fill="#855FA5"/><path d="M1815.94 1048.59 1815.94 1129.29C1815.94 1130.38 1817.04 1131.13 1818.05 1130.72L1886.9 1103.19C1888.77 1102.44 1890 1100.62 1890 1098.6L1890 1018.71C1890 1017.6 1888.88 1016.86 1887.86 1017.29L1816.88 1047.17C1816.31 1047.41 1815.94 1047.97 1815.94 1048.59Z" fill="#855FA5"/></g></g></g><text fill="#F18618" font-family="Poppins,Poppins_MSFontService,sans-serif" font-weight="700" font-size="64" transform="matrix(1 0 0 1 1923.08 877)">Web1_v1.1<tspan fill="#855FA5" font-size="64" x="0" y="196">Lib1_v1.0</tspan></text><g clip-path="url(#clip22)"><g clip-path="url(#clip23)"><g clip-path="url(#clip24)"><path d="" stroke="#000000" stroke-width="9.87499" stroke-linecap="round" stroke-linejoin="round" stroke-miterlimit="10" fill="none"/><path d="" stroke="#000000" stroke-width="9.87499" stroke-linecap="round" stroke-linejoin="round" stroke-miterlimit="10" fill="none"/><path d="M1805.12 1241.17 1734.14 1211.29C1733.12 1210.86 1732 1211.6 1732 1212.71L1732 1292.6C1732 1294.62 1733.23 1296.44 1735.1 1297.19L1803.95 1324.72C1804.96 1325.13 1806.06 1324.38 1806.06 1323.29L1806.06 1242.59C1806.06 1241.97 1805.69 1241.41 1805.12 1241.17Z" fill="#F18618"/><path d="M1811.6 1232.68 1880.2 1203.79C1881.44 1203.27 1881.47 1201.54 1880.26 1200.97L1813.09 1169.63C1811.76 1169.01 1810.24 1169.01 1808.91 1169.63L1741.74 1200.97C1740.53 1201.54 1740.56 1203.27 1741.8 1203.79L1810.4 1232.68C1810.78 1232.84 1811.22 1232.84 1811.6 1232.68Z" fill="#F18618"/><path d="M1815.94 1242.59 1815.94 1323.29C1815.94 1324.38 1817.04 1325.13 1818.05 1324.72L1886.9 1297.19C1888.77 1296.44 1890 1294.62 1890 1292.6L1890 1212.71C1890 1211.6 1888.88 1210.86 1887.86 1211.29L1816.88 1241.17C1816.31 1241.41 1815.94 1241.97 1815.94 1242.59Z" fill="#F18618"/></g></g></g><text fill="#F18618" font-family="Poppins,Poppins_MSFontService,sans-serif" font-weight="700" font-size="64" transform="matrix(1 0 0 1 1923.08 1267)">Batch1_v1.0</text><path d="M271.5 901.5C271.5 894.873 276.873 889.5 283.5 889.5L424.5 889.5C431.127 889.5 436.5 894.873 436.5 901.5L436.5 949.5C436.5 956.127 431.127 961.5 424.5 961.5L283.5 961.5C276.873 961.5 271.5 956.127 271.5 949.5Z" stroke="#00B050" stroke-width="4.58333" stroke-miterlimit="8" fill="#00B050" fill-rule="evenodd"/><text fill="#FEFEFE" font-family="Poppins,Poppins_MSFontService,sans-serif" font-weight="700" font-size="37" transform="matrix(1 0 0 1 310.543 937)">NEW</text><path d="M1037.5 1094.5C1037.5 1087.87 1042.87 1082.5 1049.5 1082.5L1190.5 1082.5C1197.13 1082.5 1202.5 1087.87 1202.5 1094.5L1202.5 1142.5C1202.5 1149.13 1197.13 1154.5 1190.5 1154.5L1049.5 1154.5C1042.87 1154.5 1037.5 1149.13 1037.5 1142.5Z" stroke="#00B050" stroke-width="4.58333" stroke-miterlimit="8" fill="#00B050" fill-rule="evenodd"/><text fill="#FEFEFE" font-family="Poppins,Poppins_MSFontService,sans-serif" font-weight="700" font-size="37" transform="matrix(1 0 0 1 1076.64 1130)">NEW</text><path d="M1037.5 1301.5C1037.5 1294.87 1042.87 1289.5 1049.5 1289.5L1190.5 1289.5C1197.13 1289.5 1202.5 1294.87 1202.5 1301.5L1202.5 1349.5C1202.5 1356.13 1197.13 1361.5 1190.5 1361.5L1049.5 1361.5C1042.87 1361.5 1037.5 1356.13 1037.5 1349.5Z" stroke="#00B050" stroke-width="4.58333" stroke-miterlimit="8" fill="#00B050" fill-rule="evenodd"/><text fill="#FEFEFE" font-family="Poppins,Poppins_MSFontService,sans-serif" font-weight="700" font-size="37" transform="matrix(1 0 0 1 1076.64 1337)">NEW</text><path d="M1774.5 1094.5C1774.5 1087.87 1779.87 1082.5 1786.5 1082.5L1926.5 1082.5C1933.13 1082.5 1938.5 1087.87 1938.5 1094.5L1938.5 1142.5C1938.5 1149.13 1933.13 1154.5 1926.5 1154.5L1786.5 1154.5C1779.87 1154.5 1774.5 1149.13 1774.5 1142.5Z" stroke="#00B050" stroke-width="4.58333" stroke-miterlimit="8" fill="#00B050" fill-rule="evenodd"/><text fill="#FEFEFE" font-family="Poppins,Poppins_MSFontService,sans-serif" font-weight="700" font-size="37" transform="matrix(1 0 0 1 1812.93 1130)">NEW</text><path d="M1774.5 1301.5C1774.5 1294.87 1779.87 1289.5 1786.5 1289.5L1926.5 1289.5C1933.13 1289.5 1938.5 1294.87 1938.5 1301.5L1938.5 1349.5C1938.5 1356.13 1933.13 1361.5 1926.5 1361.5L1786.5 1361.5C1779.87 1361.5 1774.5 1356.13 1774.5 1349.5Z" stroke="#00B050" stroke-width="4.58333" stroke-miterlimit="8" fill="#00B050" fill-rule="evenodd"/><text fill="#FEFEFE" font-family="Poppins,Poppins_MSFontService,sans-serif" font-weight="700" font-size="37" transform="matrix(1 0 0 1 1812.93 1337)">NEW</text><g clip-path="url(#clip25)"><g clip-path="url(#clip26)"><g clip-path="url(#clip27)"><path d="" stroke="#000000" stroke-width="9.87501" stroke-linecap="round" stroke-linejoin="round" stroke-miterlimit="10" fill="none"/><path d="" stroke="#000000" stroke-width="9.87501" stroke-linecap="round" stroke-linejoin="round" stroke-miterlimit="10" fill="none"/><path d="M2545.12 1045.17 2474.14 1015.29C2473.12 1014.86 2472 1015.6 2472 1016.71L2472 1096.6C2472 1098.62 2473.23 1100.44 2475.1 1101.19L2543.95 1128.72C2544.96 1129.13 2546.06 1128.38 2546.06 1127.29L2546.06 1046.59C2546.06 1045.97 2545.69 1045.41 2545.12 1045.17Z" fill="#F18618"/><path d="M2551.6 1036.68 2620.2 1007.79C2621.44 1007.27 2621.47 1005.54 2620.26 1004.97L2553.09 973.628C2551.76 973.01 2550.24 973.01 2548.91 973.628L2481.74 1004.97C2480.53 1005.54 2480.56 1007.27 2481.8 1007.79L2550.4 1036.68C2550.78 1036.84 2551.22 1036.84 2551.6 1036.68Z" fill="#F18618"/><path d="M2555.94 1046.59 2555.94 1127.29C2555.94 1128.38 2557.04 1129.13 2558.05 1128.72L2626.9 1101.19C2628.77 1100.44 2630 1098.62 2630 1096.6L2630 1016.71C2630 1015.6 2628.88 1014.86 2627.86 1015.29L2556.88 1045.17C2556.31 1045.41 2555.94 1045.97 2555.94 1046.59Z" fill="#F18618"/></g></g></g><g clip-path="url(#clip28)"><g clip-path="url(#clip29)"><g clip-path="url(#clip30)"><path d="" stroke="#000000" stroke-width="9.87501" stroke-linecap="round" stroke-linejoin="round" stroke-miterlimit="10" fill="none"/><path d="" stroke="#000000" stroke-width="9.87501" stroke-linecap="round" stroke-linejoin="round" stroke-miterlimit="10" fill="none"/><path d="M2545.12 1241.17 2474.14 1211.29C2473.12 1210.86 2472 1211.6 2472 1212.71L2472 1292.6C2472 1294.62 2473.23 1296.44 2475.1 1297.19L2543.95 1324.72C2544.96 1325.13 2546.06 1324.38 2546.06 1323.29L2546.06 1242.59C2546.06 1241.97 2545.69 1241.41 2545.12 1241.17Z" fill="#F18618"/><path d="M2551.6 1232.68 2620.2 1203.79C2621.44 1203.27 2621.47 1201.54 2620.26 1200.97L2553.09 1169.63C2551.76 1169.01 2550.24 1169.01 2548.91 1169.63L2481.74 1200.97C2480.53 1201.54 2480.56 1203.27 2481.8 1203.79L2550.4 1232.68C2550.78 1232.84 2551.22 1232.84 2551.6 1232.68Z" fill="#F18618"/><path d="M2555.94 1242.59 2555.94 1323.29C2555.94 1324.38 2557.04 1325.13 2558.05 1324.72L2626.9 1297.19C2628.77 1296.44 2630 1294.62 2630 1292.6L2630 1212.71C2630 1211.6 2628.88 1210.86 2627.86 1211.29L2556.88 1241.17C2556.31 1241.41 2555.94 1241.97 2555.94 1242.59Z" fill="#F18618"/></g></g></g><text fill="#F18618" font-family="Poppins,Poppins_MSFontService,sans-serif" font-weight="700" font-size="64" transform="matrix(1 0 0 1 2662.65 1071)">Web1_v1.2<tspan font-size="64" x="0" y="196">Web2_v1.0</tspan></text><g clip-path="url(#clip31)"><g clip-path="url(#clip32)"><g clip-path="url(#clip33)"><path d="" stroke="#000000" stroke-width="9.81251" stroke-linecap="round" stroke-linejoin="round" stroke-miterlimit="10" fill="none" transform="matrix(1.00637 0 0 1 2472 1362)"/><path d="" stroke="#000000" stroke-width="9.81251" stroke-linecap="round" stroke-linejoin="round" stroke-miterlimit="10" fill="none" transform="matrix(1.00637 0 0 1 2472 1362)"/><path d="M72.6555 72.7073 2.12809 43.0116C1.11771 42.586 -8.17057e-16 43.328 -8.17057e-16 44.4246L-8.17057e-16 123.814C-8.17057e-16 125.82 1.22135 127.624 3.08419 128.369L71.4912 155.732C72.4982 156.134 73.5938 155.393 73.5938 154.308L73.5938 74.1203C73.5938 73.5033 73.224 72.9468 72.6555 72.7073Z" fill="#F18618" transform="matrix(1.00637 0 0 1 2472 1362)"/><path d="M79.0949 64.2707 147.266 35.5673C148.491 35.0515 148.524 33.327 147.319 32.7649L80.5748 1.61753C79.2596 1.00394 77.7405 1.00394 76.4253 1.61753L9.68096 32.7649C8.47616 33.327 8.50898 35.0515 9.73431 35.5673L77.9052 64.2707C78.2854 64.4311 78.7147 64.4311 79.0949 64.2707Z" fill="#F18618" transform="matrix(1.00637 0 0 1 2472 1362)"/><path d="M83.4063 74.1203 83.4063 154.308C83.4063 155.393 84.5019 156.134 85.5089 155.732L153.916 128.369C155.778 127.624 157 125.82 157 123.814L157 44.4246C157 43.328 155.882 42.586 154.872 43.0116L84.3446 72.7073C83.7761 72.9468 83.4063 73.5033 83.4063 74.1203Z" fill="#F18618" transform="matrix(1.00637 0 0 1 2472 1362)"/></g></g></g><text fill="#F18618" font-family="Poppins,Poppins_MSFontService,sans-serif" font-weight="700" font-size="64" transform="matrix(1 0 0 1 2662.65 1460)">Batch2_v1.0</text><path d="M2513.5 1288.5C2513.5 1281.87 2518.87 1276.5 2525.5 1276.5L2737.5 1276.5C2744.13 1276.5 2749.5 1281.87 2749.5 1288.5L2749.5 1336.5C2749.5 1343.13 2744.13 1348.5 2737.5 1348.5L2525.5 1348.5C2518.87 1348.5 2513.5 1343.13 2513.5 1336.5Z" stroke="#C00000" stroke-width="4.58333" stroke-miterlimit="8" fill="#C00000" fill-rule="evenodd"/><text fill="#FEFEFE" font-family="Poppins,Poppins_MSFontService,sans-serif" font-weight="700" font-size="37" transform="matrix(1 0 0 1 2557.37 1324)">DECOM.</text><path d="M2513.5 1494.67C2513.5 1487.95 2518.95 1482.5 2525.67 1482.5L2666.33 1482.5C2673.05 1482.5 2678.5 1487.95 2678.5 1494.67L2678.5 1543.33C2678.5 1550.05 2673.05 1555.5 2666.33 1555.5L2525.67 1555.5C2518.95 1555.5 2513.5 1550.05 2513.5 1543.33Z" stroke="#00B050" stroke-width="4.58333" stroke-miterlimit="8" fill="#00B050" fill-rule="evenodd"/><text fill="#FEFEFE" font-family="Poppins,Poppins_MSFontService,sans-serif" font-weight="700" font-size="37" transform="matrix(1 0 0 1 2552.49 1531)">NEW</text><rect x="3140.5" y="579.5" width="137" height="144" stroke="#FEFEFE" stroke-width="6.875" stroke-miterlimit="8" fill="none"/><text fill="#BEBEBE" font-family="Poppins,Poppins_MSFontService,sans-serif" font-weight="700" font-size="92" transform="matrix(1 0 0 1 3173.05 679)">…</text><path d="M3299.5 579.5 3991 579.5 4056.5 645 3991 710.5 3299.5 710.5 3365 645Z" stroke="#FEFEFE" stroke-width="6.875" stroke-miterlimit="8" fill="#BEBEBE" fill-rule="evenodd"/><text fill="#FEFEFE" font-family="Poppins,Poppins_MSFontService,sans-serif" font-weight="400" font-size="83" transform="matrix(1 0 0 1 3497.51 671)">Sprint <tspan font-size="83" x="259.531" y="0">6</tspan><tspan font-size="83" x="311.667" y="0">3</tspan><tspan fill="#0090CE" font-weight="700" font-size="41" x="18.5544" y="174">Infra_v1.35</tspan></text><g clip-path="url(#clip34)"><g clip-path="url(#clip35)"><g clip-path="url(#clip36)"><path d="" stroke="#000000" stroke-width="5.56248" stroke-linecap="round" stroke-linejoin="round" stroke-miterlimit="10" fill="none"/><path d="" stroke="#000000" stroke-width="5.56248" stroke-linecap="round" stroke-linejoin="round" stroke-miterlimit="10" fill="none"/><path d="M3445.19 828.216 3405.21 811.382C3404.63 811.141 3404 811.562 3404 812.183L3404 857.187C3404 858.324 3404.69 859.347 3405.75 859.769L3444.53 875.281C3445.1 875.509 3445.72 875.089 3445.72 874.474L3445.72 829.017C3445.72 828.667 3445.51 828.352 3445.19 828.216Z" fill="#0090CE"/><path d="M3448.84 823.434 3487.48 807.162C3488.18 806.87 3488.2 805.892 3487.51 805.574L3449.68 787.917C3448.93 787.569 3448.07 787.569 3447.32 787.917L3409.49 805.574C3408.81 805.892 3408.82 806.87 3409.52 807.162L3448.16 823.434C3448.38 823.524 3448.62 823.524 3448.84 823.434Z" fill="#0090CE"/><path d="M3451.28 829.017 3451.28 874.474C3451.28 875.089 3451.9 875.509 3452.47 875.281L3491.25 859.769C3492.31 859.347 3493 858.324 3493 857.187L3493 812.183C3493 811.562 3492.37 811.141 3491.79 811.382L3451.81 828.216C3451.49 828.352 3451.28 828.667 3451.28 829.017Z" fill="#0090CE"/></g></g></g><g clip-path="url(#clip37)"><g clip-path="url(#clip38)"><g clip-path="url(#clip39)"><path d="" stroke="#000000" stroke-width="5.56248" stroke-linecap="round" stroke-linejoin="round" stroke-miterlimit="10" fill="none"/><path d="" stroke="#000000" stroke-width="5.56248" stroke-linecap="round" stroke-linejoin="round" stroke-miterlimit="10" fill="none"/><path d="M3445.19 1352.22 3405.21 1335.38C3404.63 1335.14 3404 1335.56 3404 1336.18L3404 1381.19C3404 1382.32 3404.69 1383.35 3405.75 1383.77L3444.53 1399.28C3445.1 1399.51 3445.72 1399.09 3445.72 1398.47L3445.72 1353.02C3445.72 1352.67 3445.51 1352.35 3445.19 1352.22Z" fill="#F18618"/><path d="M3448.84 1347.43 3487.48 1331.16C3488.18 1330.87 3488.2 1329.89 3487.51 1329.57L3449.68 1311.92C3448.93 1311.57 3448.07 1311.57 3447.32 1311.92L3409.49 1329.57C3408.81 1329.89 3408.82 1330.87 3409.52 1331.16L3448.16 1347.43C3448.38 1347.52 3448.62 1347.52 3448.84 1347.43Z" fill="#F18618"/><path d="M3451.28 1353.02 3451.28 1398.47C3451.28 1399.09 3451.9 1399.51 3452.47 1399.28L3491.25 1383.77C3492.31 1383.35 3493 1382.32 3493 1381.19L3493 1336.18C3493 1335.56 3492.37 1335.14 3491.79 1335.38L3451.81 1352.22C3451.49 1352.35 3451.28 1352.67 3451.28 1353.02Z" fill="#F18618"/></g></g></g><text fill="#F18618" font-family="Poppins,Poppins_MSFontService,sans-serif" font-weight="700" font-size="41" transform="matrix(1 0 0 1 3512.98 1370)">Web1_v1.50</text><g clip-path="url(#clip40)"><g clip-path="url(#clip41)"><g clip-path="url(#clip42)"><path d="" stroke="#000000" stroke-width="5.56248" stroke-linecap="round" stroke-linejoin="round" stroke-miterlimit="10" fill="none"/><path d="" stroke="#000000" stroke-width="5.56248" stroke-linecap="round" stroke-linejoin="round" stroke-miterlimit="10" fill="none"/><path d="M3445.19 1460.22 3405.21 1443.38C3404.63 1443.14 3404 1443.56 3404 1444.18L3404 1489.19C3404 1490.32 3404.69 1491.35 3405.75 1491.77L3444.53 1507.28C3445.1 1507.51 3445.72 1507.09 3445.72 1506.47L3445.72 1461.02C3445.72 1460.67 3445.51 1460.35 3445.19 1460.22Z" fill="#F18618"/><path d="M3448.84 1455.43 3487.48 1439.16C3488.18 1438.87 3488.2 1437.89 3487.51 1437.57L3449.68 1419.92C3448.93 1419.57 3448.07 1419.57 3447.32 1419.92L3409.49 1437.57C3408.81 1437.89 3408.82 1438.87 3409.52 1439.16L3448.16 1455.43C3448.38 1455.52 3448.62 1455.52 3448.84 1455.43Z" fill="#F18618"/><path d="M3451.28 1461.02 3451.28 1506.47C3451.28 1507.09 3451.9 1507.51 3452.47 1507.28L3491.25 1491.77C3492.31 1491.35 3493 1490.32 3493 1489.19L3493 1444.18C3493 1443.56 3492.37 1443.14 3491.79 1443.38L3451.81 1460.22C3451.49 1460.35 3451.28 1460.67 3451.28 1461.02Z" fill="#F18618"/></g></g></g><text fill="#F18618" font-family="Poppins,Poppins_MSFontService,sans-serif" font-weight="700" font-size="41" transform="matrix(1 0 0 1 3518.26 1480)">Web3_v1.12</text><g clip-path="url(#clip43)"><g clip-path="url(#clip44)"><g clip-path="url(#clip45)"><path d="" stroke="#000000" stroke-width="5.5" stroke-linecap="round" stroke-linejoin="round" stroke-miterlimit="10" fill="none" transform="matrix(1.01136 0 0 1 3404 1527)"/><path d="" stroke="#000000" stroke-width="5.5" stroke-linecap="round" stroke-linejoin="round" stroke-miterlimit="10" fill="none" transform="matrix(1.01136 0 0 1 3404 1527)"/><path d="M40.7241 40.7531 1.19281 24.1084C0.626484 23.8698 -4.57968e-16 24.2858 -4.57968e-16 24.9004L-4.57968e-16 69.3987C-4.57968e-16 70.5231 0.684578 71.5344 1.72872 71.9519L40.0715 87.289C40.6359 87.5148 41.25 87.099 41.25 86.4911L41.25 41.5451C41.25 41.1993 41.0427 40.8873 40.7241 40.7531Z" fill="#F18618" transform="matrix(1.01136 0 0 1 3404 1527)"/><path d="M44.3334 36.0243 82.5438 19.9358C83.2306 19.6467 83.249 18.6801 82.5737 18.365L45.1629 0.906641C44.4257 0.562719 43.5743 0.562719 42.8371 0.906641L5.42627 18.365C4.75097 18.6801 4.76936 19.6467 5.45617 19.9358L43.6666 36.0243C43.8797 36.1142 44.1203 36.1142 44.3334 36.0243Z" fill="#F18618" transform="matrix(1.01136 0 0 1 3404 1527)"/><path d="M46.75 41.5451 46.75 86.4911C46.75 87.099 47.3641 87.5148 47.9285 87.289L86.2713 71.9519C87.3152 71.5342 88 70.5231 88 69.3987L88 24.9004C88 24.2858 87.3735 23.8698 86.8072 24.1084L47.2759 40.7531C46.9573 40.8873 46.75 41.1993 46.75 41.5451Z" fill="#F18618" transform="matrix(1.01136 0 0 1 3404 1527)"/></g></g></g><text fill="#F18618" font-family="Poppins,Poppins_MSFontService,sans-serif" font-weight="700" font-size="41" transform="matrix(1 0 0 1 3512.98 1588)">Batch1_v1.0</text><g clip-path="url(#clip46)"><g clip-path="url(#clip47)"><g clip-path="url(#clip48)"><path d="" stroke="#000000" stroke-width="5.5" stroke-linecap="round" stroke-linejoin="round" stroke-miterlimit="10" fill="none" transform="matrix(1.01136 0 0 1 3404 941)"/><path d="" stroke="#000000" stroke-width="5.5" stroke-linecap="round" stroke-linejoin="round" stroke-miterlimit="10" fill="none" transform="matrix(1.01136 0 0 1 3404 941)"/><path d="M40.7241 40.7531 1.19281 24.1084C0.626484 23.8698 -4.57968e-16 24.2858 -4.57968e-16 24.9004L-4.57968e-16 69.3987C-4.57968e-16 70.5231 0.684578 71.5344 1.72872 71.9519L40.0715 87.289C40.6359 87.5148 41.25 87.099 41.25 86.4911L41.25 41.5451C41.25 41.1993 41.0427 40.8873 40.7241 40.7531Z" fill="#855FA5" transform="matrix(1.01136 0 0 1 3404 941)"/><path d="M44.3334 36.0243 82.5438 19.9358C83.2306 19.6467 83.249 18.6801 82.5737 18.365L45.1629 0.906641C44.4257 0.562719 43.5743 0.562719 42.8371 0.906641L5.42627 18.365C4.75097 18.6801 4.76936 19.6467 5.45617 19.9358L43.6666 36.0243C43.8797 36.1142 44.1203 36.1142 44.3334 36.0243Z" fill="#855FA5" transform="matrix(1.01136 0 0 1 3404 941)"/><path d="M46.75 41.5451 46.75 86.4911C46.75 87.099 47.3641 87.5148 47.9285 87.289L86.2713 71.9519C87.3152 71.5342 88 70.5231 88 69.3987L88 24.9004C88 24.2858 87.3735 23.8698 86.8072 24.1084L47.2759 40.7531C46.9573 40.8873 46.75 41.1993 46.75 41.5451Z" fill="#855FA5" transform="matrix(1.01136 0 0 1 3404 941)"/></g></g></g><text fill="#855FA5" font-family="Poppins,Poppins_MSFontService,sans-serif" font-weight="700" font-size="41" transform="matrix(1 0 0 1 3516.06 1000)">Lib1_v1.12</text><g clip-path="url(#clip49)"><g clip-path="url(#clip50)"><g clip-path="url(#clip51)"><path d="" stroke="#000000" stroke-width="5.5" stroke-linecap="round" stroke-linejoin="round" stroke-miterlimit="10" fill="none" transform="matrix(1.01136 0 0 1 3404 1045)"/><path d="" stroke="#000000" stroke-width="5.5" stroke-linecap="round" stroke-linejoin="round" stroke-miterlimit="10" fill="none" transform="matrix(1.01136 0 0 1 3404 1045)"/><path d="M40.7241 40.7531 1.19281 24.1084C0.626484 23.8698 -4.57968e-16 24.2858 -4.57968e-16 24.9004L-4.57968e-16 69.3987C-4.57968e-16 70.5231 0.684578 71.5344 1.72872 71.9519L40.0715 87.289C40.6359 87.5148 41.25 87.099 41.25 86.4911L41.25 41.5451C41.25 41.1993 41.0427 40.8873 40.7241 40.7531Z" fill="#855FA5" transform="matrix(1.01136 0 0 1 3404 1045)"/><path d="M44.3334 36.0243 82.5438 19.9358C83.2306 19.6467 83.249 18.6801 82.5737 18.365L45.1629 0.906641C44.4257 0.562719 43.5743 0.562719 42.8371 0.906641L5.42627 18.365C4.75097 18.6801 4.76936 19.6467 5.45617 19.9358L43.6666 36.0243C43.8797 36.1142 44.1203 36.1142 44.3334 36.0243Z" fill="#855FA5" transform="matrix(1.01136 0 0 1 3404 1045)"/><path d="M46.75 41.5451 46.75 86.4911C46.75 87.099 47.3641 87.5148 47.9285 87.289L86.2713 71.9519C87.3152 71.5342 88 70.5231 88 69.3987L88 24.9004C88 24.2858 87.3735 23.8698 86.8072 24.1084L47.2759 40.7531C46.9573 40.8873 46.75 41.1993 46.75 41.5451Z" fill="#855FA5" transform="matrix(1.01136 0 0 1 3404 1045)"/></g></g></g><text fill="#855FA5" font-family="Poppins,Poppins_MSFontService,sans-serif" font-weight="700" font-size="41" transform="matrix(1 0 0 1 3516.06 1104)">Lib2_v1.24</text><g clip-path="url(#clip52)"><g clip-path="url(#clip53)"><g clip-path="url(#clip54)"><path d="" stroke="#000000" stroke-width="5.5" stroke-linecap="round" stroke-linejoin="round" stroke-miterlimit="10" fill="none" transform="matrix(1.01136 0 0 1 3404 1149)"/><path d="" stroke="#000000" stroke-width="5.5" stroke-linecap="round" stroke-linejoin="round" stroke-miterlimit="10" fill="none" transform="matrix(1.01136 0 0 1 3404 1149)"/><path d="M40.7241 40.7531 1.19281 24.1084C0.626484 23.8698 -4.57968e-16 24.2858 -4.57968e-16 24.9004L-4.57968e-16 69.3987C-4.57968e-16 70.5231 0.684578 71.5344 1.72872 71.9519L40.0715 87.289C40.6359 87.5148 41.25 87.099 41.25 86.4911L41.25 41.5451C41.25 41.1993 41.0427 40.8873 40.7241 40.7531Z" fill="#855FA5" transform="matrix(1.01136 0 0 1 3404 1149)"/><path d="M44.3334 36.0243 82.5438 19.9358C83.2306 19.6467 83.249 18.6801 82.5737 18.365L45.1629 0.906641C44.4257 0.562719 43.5743 0.562719 42.8371 0.906641L5.42627 18.365C4.75097 18.6801 4.76936 19.6467 5.45617 19.9358L43.6666 36.0243C43.8797 36.1142 44.1203 36.1142 44.3334 36.0243Z" fill="#855FA5" transform="matrix(1.01136 0 0 1 3404 1149)"/><path d="M46.75 41.5451 46.75 86.4911C46.75 87.099 47.3641 87.5148 47.9285 87.289L86.2713 71.9519C87.3152 71.5342 88 70.5231 88 69.3987L88 24.9004C88 24.2858 87.3735 23.8698 86.8072 24.1084L47.2759 40.7531C46.9573 40.8873 46.75 41.1993 46.75 41.5451Z" fill="#855FA5" transform="matrix(1.01136 0 0 1 3404 1149)"/></g></g></g><text fill="#855FA5" font-family="Poppins,Poppins_MSFontService,sans-serif" font-weight="700" font-size="41" transform="matrix(1 0 0 1 3516.06 1208)">Lib3_v1.4</text><path d="M3775.5 941.5C3783.23 941.5 3789.5 942.545 3789.5 943.833L3789.5 1101.67C3789.5 1102.96 3795.77 1104 3803.5 1104 3795.77 1104 3789.5 1105.04 3789.5 1106.33L3789.5 1264.17C3789.5 1265.46 3783.23 1266.5 3775.5 1266.5" stroke="#855FA5" stroke-width="4.58333" stroke-miterlimit="8" fill="none" fill-rule="evenodd"/><text fill="#855FA5" font-family="Poppins,Poppins_MSFontService,sans-serif" font-weight="700" font-size="110" transform="matrix(1 0 0 1 3832.65 1132)">x10</text><path d="M3775.5 1310.5C3783.23 1310.5 3789.5 1311.54 3789.5 1312.83L3789.5 1470.67C3789.5 1471.96 3795.77 1473 3803.5 1473 3795.77 1473 3789.5 1474.04 3789.5 1475.33L3789.5 1633.17C3789.5 1634.46 3783.23 1635.5 3775.5 1635.5" stroke="#F18618" stroke-width="4.58333" stroke-miterlimit="8" fill="none" fill-rule="evenodd"/><text fill="#F18618" font-family="Poppins,Poppins_MSFontService,sans-serif" font-weight="700" font-size="110" transform="matrix(1 0 0 1 3832.58 1501)">x35</text><path d="M339 1736.5 3616 1736.5 3616 1643 3803 1830 3616 2017 3616 1923.5 339 1923.5Z" fill="#002060" fill-rule="evenodd"/><text fill="#FEFEFE" font-family="Poppins,Poppins_MSFontService,sans-serif" font-weight="400" font-size="83" transform="matrix(1 0 0 1 1518.43 1857)">L’ENTROPIE DES SYSTÈMES</text></g></svg>