<svg width="2989" height="400" xmlns="http://www.w3.org/2000/svg" xmlns:xlink="http://www.w3.org/1999/xlink" overflow="hidden"><defs><clipPath id="clip0"><rect x="157" y="570" width="2989" height="400"/></clipPath><clipPath id="clip1"><rect x="239" y="778" width="160" height="159"/></clipPath><clipPath id="clip2"><rect x="239" y="778" width="160" height="159"/></clipPath><clipPath id="clip3"><rect x="239" y="778" width="160" height="159"/></clipPath></defs><g clip-path="url(#clip0)" transform="translate(-157 -570)"><path d="M160.5 579.5 877.001 579.5 942.5 645 877.001 710.5 160.5 710.5Z" stroke="#FEFEFE" stroke-width="6.875" stroke-miterlimit="8" fill="#BEBEBE" fill-rule="evenodd"/><text fill="#FEFEFE" font-family="Poppins,Poppins_MSFontService,sans-serif" font-weight="400" font-size="83" transform="matrix(1 0 0 1 379.056 671)">Sprint 0<tspan fill="#0090CE" font-weight="700" font-size="64" x="51.7301" y="208">Infra_v1.0</tspan></text><g clip-path="url(#clip1)"><g clip-path="url(#clip2)"><g clip-path="url(#clip3)"><path d="" stroke="#000000" stroke-width="9.81251" stroke-linecap="round" stroke-linejoin="round" stroke-miterlimit="10" fill="none" transform="matrix(1.00637 0 0 1 240 779)"/><path d="" stroke="#000000" stroke-width="9.81251" stroke-linecap="round" stroke-linejoin="round" stroke-miterlimit="10" fill="none" transform="matrix(1.00637 0 0 1 240 779)"/><path d="M72.6555 72.7073 2.12809 43.0116C1.11771 42.586 -8.17057e-16 43.328 -8.17057e-16 44.4246L-8.17057e-16 123.814C-8.17057e-16 125.82 1.22135 127.624 3.08419 128.369L71.4912 155.732C72.4982 156.134 73.5938 155.393 73.5938 154.308L73.5938 74.1203C73.5938 73.5033 73.224 72.9468 72.6555 72.7073Z" fill="#0090CE" transform="matrix(1.00637 0 0 1 240 779)"/><path d="M79.0949 64.2707 147.266 35.5673C148.491 35.0515 148.524 33.327 147.319 32.7649L80.5748 1.61753C79.2596 1.00394 77.7405 1.00394 76.4253 1.61753L9.68096 32.7649C8.47616 33.327 8.50898 35.0515 9.73431 35.5673L77.9052 64.2707C78.2854 64.4311 78.7147 64.4311 79.0949 64.2707Z" fill="#0090CE" transform="matrix(1.00637 0 0 1 240 779)"/><path d="M83.4063 74.1203 83.4063 154.308C83.4063 155.393 84.5019 156.134 85.5089 155.732L153.916 128.369C155.778 127.624 157 125.82 157 123.814L157 44.4246C157 43.328 155.882 42.586 154.872 43.0116L84.3446 72.7073C83.7761 72.9468 83.4063 73.5033 83.4063 74.1203Z" fill="#0090CE" transform="matrix(1.00637 0 0 1 240 779)"/></g></g></g><path d="M271.5 901.5C271.5 894.873 276.873 889.5 283.5 889.5L424.5 889.5C431.127 889.5 436.5 894.873 436.5 901.5L436.5 949.5C436.5 956.127 431.127 961.5 424.5 961.5L283.5 961.5C276.873 961.5 271.5 956.127 271.5 949.5Z" stroke="#00B050" stroke-width="4.58333" stroke-miterlimit="8" fill="#00B050" fill-rule="evenodd"/><text fill="#FEFEFE" font-family="Poppins,Poppins_MSFontService,sans-serif" font-weight="700" font-size="37" transform="matrix(1 0 0 1 310.543 937)">NEW</text><path d="M917.5 579.5 1609 579.5 1674.5 645 1609 710.5 917.5 710.5 983 645Z" stroke="#FEFEFE" stroke-width="6.875" stroke-miterlimit="8" fill="#BEBEBE" fill-rule="evenodd"/><text fill="#FEFEFE" font-family="Poppins,Poppins_MSFontService,sans-serif" font-weight="400" font-size="83" transform="matrix(1 0 0 1 1152.84 671)">Sprint 1</text><path d="M1651.5 579.5 2342 579.5 2407.5 645 2342 710.5 1651.5 710.5 1717 645Z" stroke="#FEFEFE" stroke-width="6.875" stroke-miterlimit="8" fill="#BEBEBE" fill-rule="evenodd"/><text fill="#FEFEFE" font-family="Poppins,Poppins_MSFontService,sans-serif" font-weight="400" font-size="83" transform="matrix(1 0 0 1 1875.4 671)">Sprint 2</text><path d="M2383.5 581.5 3075 581.5 3140.5 647 3075 712.5 2383.5 712.5 2449 647Z" stroke="#FEFEFE" stroke-width="6.875" stroke-miterlimit="8" fill="#BEBEBE" fill-rule="evenodd"/><text fill="#FEFEFE" font-family="Poppins,Poppins_MSFontService,sans-serif" font-weight="400" font-size="83" transform="matrix(1 0 0 1 2607.49 673)">Sprint 3</text></g></svg>