<svg width="3175" height="965" xmlns="http://www.w3.org/2000/svg" xmlns:xlink="http://www.w3.org/1999/xlink" overflow="hidden"><defs><clipPath id="clip0"><rect x="709" y="432" width="3175" height="965"/></clipPath></defs><g clip-path="url(#clip0)" transform="translate(-709 -432)"><rect x="714" y="701" width="3165" height="691" stroke="#68BD9F" stroke-width="10.3125" stroke-miterlimit="8" stroke-dasharray="41.25 30.9375" fill="none"/><path d="M781.5 935.5C781.5 913.409 799.408 895.5 821.5 895.5L1133.5 895.5C1155.59 895.5 1173.5 913.409 1173.5 935.5L1173.5 1095.5C1173.5 1117.59 1155.59 1135.5 1133.5 1135.5L821.5 1135.5C799.408 1135.5 781.5 1117.59 781.5 1095.5Z" stroke="#4A8A74" stroke-width="4.58333" stroke-miterlimit="8" fill="#68BD9F" fill-rule="evenodd"/><text fill="#FEFEFE" font-family="Poppins,Poppins_MSFontService,sans-serif" font-weight="700" font-size="46" transform="matrix(1 0 0 1 873.212 975)">Vérifie la <tspan font-size="46" x="-28.3479" y="55">branche lié </tspan><tspan font-size="46" x="-25.2083" y="110">au commit</tspan></text><path d="M1271.5 1015.5 1562 895.5 1852.5 1015.5 1562 1135.5Z" stroke="#4A8A74" stroke-width="4.58333" stroke-miterlimit="8" fill="#68BD9F" fill-rule="evenodd"/><text fill="#FEFEFE" font-family="Poppins,Poppins_MSFontService,sans-serif" font-weight="700" font-size="46" transform="matrix(1 0 0 1 1534.74 975)">La <tspan font-size="46" x="-73.0354" y="55">branche </tspan><tspan font-size="46" x="-61.302" y="110">existe ?</tspan></text><path d="M1173 1008.13 1236.51 1008.13 1236.51 1021.88 1173 1021.88ZM1229.63 994.375 1270.88 1015 1229.63 1035.63Z" fill="#F18618"/><path d="M1930.5 795.333C1930.5 779.962 1942.96 767.5 1958.33 767.5L2443.67 767.5C2459.04 767.5 2471.5 779.962 2471.5 795.333L2471.5 906.667C2471.5 922.039 2459.04 934.5 2443.67 934.5L1958.33 934.5C1942.96 934.5 1930.5 922.039 1930.5 906.667Z" stroke="#4A8A74" stroke-width="4.58333" stroke-miterlimit="8" fill="#68BD9F" fill-rule="evenodd"/><text fill="#FEFEFE" font-family="Poppins,Poppins_MSFontService,sans-serif" font-weight="700" font-size="46" transform="matrix(1 0 0 1 2013.97 865)">Crée la branche</text><path d="M1554.12 895.919 1554.12 844.125 1895.85 844.125 1895.85 857.875 1561 857.875 1567.88 851 1567.88 895.919ZM1888.97 830.375 1930.22 851 1888.97 871.625Z" fill="#F18618"/><text fill="#F18618" font-family="Poppins,Poppins_MSFontService,sans-serif" font-weight="700" font-size="64" transform="matrix(1 0 0 1 1606.34 824)">NON</text><path d="M3390.5 1140.17C3390.5 1117.71 3408.71 1099.5 3431.17 1099.5L3783.83 1099.5C3806.29 1099.5 3824.5 1117.71 3824.5 1140.17L3824.5 1302.83C3824.5 1325.29 3806.29 1343.5 3783.83 1343.5L3431.17 1343.5C3408.71 1343.5 3390.5 1325.29 3390.5 1302.83Z" stroke="#4A8A74" stroke-width="4.58333" stroke-miterlimit="8" fill="#68BD9F" fill-rule="evenodd"/><text fill="#FEFEFE" font-family="Poppins,Poppins_MSFontService,sans-serif" font-weight="700" font-size="46" transform="matrix(1 0 0 1 3457.26 1153)">Déclenche <tspan font-size="46" x="257.813" y="0">le </tspan><tspan font-size="46" x="-5.4541" y="55">pipeline pour </tspan><tspan font-size="46" x="2.8645" y="110">le commit et </tspan><tspan font-size="46" x="37.2395" y="165">la </tspan><tspan font-size="46" x="91.6668" y="165">branch</tspan></text><path d="M0-6.875 97.0865-6.875 97.0865 0.000360892 90.2115-6.87464 146.048-6.87464 146.048 6.87536 83.3365 6.87536 83.3365 0 90.2115 6.875 0 6.875ZM139.173-20.6246 180.423 0.000360892 139.173 20.6254Z" fill="#F18618" transform="matrix(-1.83697e-16 -1 -1 1.83697e-16 2845 1121.42)"/><path d="M0-6.875 152.167-6.875 152.167 0.483235 145.292-6.39177 256.21-6.39177 256.21 7.35823 138.417 7.35823 138.417 0 145.292 6.875 0 6.875ZM249.335-20.1418 290.585 0.483235 249.335 21.1082Z" fill="#F18618" transform="matrix(1 0 0 -1 3100 1221.48)"/><path d="M0-6.875 93.2542-6.875 93.2542 334.847 79.5042 334.847 79.5042 0 86.3792 6.875 0 6.875ZM107.004 327.972 86.3792 369.222 65.7542 327.972Z" fill="#F18618" transform="matrix(1.83697e-16 1 1 -1.83697e-16 1561 1135)"/><text fill="#F18618" font-family="Poppins,Poppins_MSFontService,sans-serif" font-weight="700" font-size="64" transform="matrix(1 0 0 1 1618.08 1190)">OUI</text><path d="M1930.5 1158.17C1930.5 1140.68 1944.68 1126.5 1962.17 1126.5L2439.83 1126.5C2457.32 1126.5 2471.5 1140.68 2471.5 1158.17L2471.5 1284.83C2471.5 1302.32 2457.32 1316.5 2439.83 1316.5L1962.17 1316.5C1944.68 1316.5 1930.5 1302.32 1930.5 1284.83Z" stroke="#4A8A74" stroke-width="4.58333" stroke-miterlimit="8" fill="#68BD9F" fill-rule="evenodd"/><text fill="#FEFEFE" font-family="Poppins,Poppins_MSFontService,sans-serif" font-weight="700" font-size="46" transform="matrix(1 0 0 1 1985.04 1208)">Vérifie le tag lié au <tspan font-size="46" x="122.604" y="55">commit</tspan></text><path d="M2591.5 1221.5 2846 1121.5 3100.5 1221.5 2846 1321.5Z" stroke="#4A8A74" stroke-width="4.58333" stroke-miterlimit="8" fill="#68BD9F" fill-rule="evenodd"/><text fill="#FEFEFE" font-family="Poppins,Poppins_MSFontService,sans-serif" font-weight="700" font-size="46" transform="matrix(1 0 0 1 2775.58 1208)">Le <tspan font-size="46" x="59.5833" y="0">t</tspan><tspan font-size="46" x="77.9168" y="0">ag </tspan><tspan font-size="46" x="-17.7605" y="55">existe ?</tspan></text><path d="M2471 1214.12 2556.58 1214.13 2556.58 1227.88 2471 1227.88ZM2549.71 1200.38 2590.96 1221 2549.71 1241.63Z" fill="#F18618"/><path d="M0-6.875 103.03-6.875 103.03 0.00216535 96.1547-6.87283 157.934-6.87283 157.934 6.87717 89.2797 6.87717 89.2797 0 96.1547 6.875 0 6.875ZM151.059-20.6228 192.309 0.00216535 151.059 20.6272Z" fill="#F18618" transform="matrix(1.83697e-16 1 1 -1.83697e-16 2201 934)"/><path d="M781.5 462.333C781.5 446.961 793.961 434.5 809.333 434.5L1135.67 434.5C1151.04 434.5 1163.5 446.961 1163.5 462.333L1163.5 573.667C1163.5 589.039 1151.04 601.5 1135.67 601.5L809.333 601.5C793.961 601.5 781.5 589.039 781.5 573.667Z" stroke="#4A8A74" stroke-width="4.58333" stroke-miterlimit="8" fill="#68BD9F" fill-rule="evenodd"/><text fill="#FEFEFE" font-family="Poppins,Poppins_MSFontService,sans-serif" font-weight="700" font-size="46" transform="matrix(1 0 0 1 822.452 504)">Déclenche le <tspan font-size="46" x="89.65" y="55">build</tspan></text><path d="M922.5 666 950.25 666 950.25 601.5 1005.75 601.5 1005.75 666 1033.5 666 978 721.5Z" stroke="#4A8A74" stroke-width="4.58333" stroke-miterlimit="8" fill="#68BD9F" fill-rule="evenodd"/><path d="M2575.5 802.333C2575.5 786.961 2587.96 774.5 2603.33 774.5L3088.67 774.5C3104.04 774.5 3116.5 786.961 3116.5 802.333L3116.5 913.667C3116.5 929.039 3104.04 941.5 3088.67 941.5L2603.33 941.5C2587.96 941.5 2575.5 929.039 2575.5 913.667Z" stroke="#4A8A74" stroke-width="4.58333" stroke-miterlimit="8" fill="#68BD9F" fill-rule="evenodd"/><text fill="#FEFEFE" font-family="Poppins,Poppins_MSFontService,sans-serif" font-weight="700" font-size="46" transform="matrix(1 0 0 1 2719.43 872)">Crée le tag<tspan fill="#F18618" font-size="64" x="-57.5462" y="217">NON</tspan><tspan fill="#F18618" font-size="64" x="379.822" y="318">OUI</tspan></text><path d="M3116 850.125 3303.08 850.125 3303.08 1220.54 3296.21 1213.67 3356.15 1213.67 3356.15 1227.42 3289.33 1227.42 3289.33 857 3296.21 863.875 3116 863.875ZM3349.28 1199.92 3390.53 1220.54 3349.28 1241.17Z" fill="#F18618"/></g></svg>