<svg width="3935" height="1062" xmlns="http://www.w3.org/2000/svg" xmlns:xlink="http://www.w3.org/1999/xlink" overflow="hidden"><defs><clipPath id="clip0"><rect x="138" y="1050" width="3935" height="1062"/></clipPath></defs><g clip-path="url(#clip0)" transform="translate(-138 -1050)"><path d="M244.5 1080.33C244.5 1064.96 256.961 1052.5 272.333 1052.5L884.667 1052.5C900.039 1052.5 912.5 1064.96 912.5 1080.33L912.5 1191.67C912.5 1207.04 900.039 1219.5 884.667 1219.5L272.333 1219.5C256.961 1219.5 244.5 1207.04 244.5 1191.67Z" stroke="#4A8A74" stroke-width="4.58333" stroke-miterlimit="8" fill="#68BD9F" fill-rule="evenodd"/><text fill="#FEFEFE" font-family="Poppins,Poppins_MSFontService,sans-serif" font-weight="700" font-size="46" transform="matrix(1 0 0 1 308.838 1122)">Parcours du référentiel <tspan font-size="46" x="84.2188" y="55">de déploiement</tspan></text><rect x="143" y="1315" width="3925" height="792" stroke="#68BD9F" stroke-width="10.3125" stroke-miterlimit="8" stroke-dasharray="41.25 30.9375" fill="none"/><text fill="#68BD9F" font-family="Poppins,Poppins_MSFontService,sans-serif" font-weight="700" font-size="55" transform="matrix(1 0 0 1 176.409 1383)">Pour chaque composant</text><path d="M861.5 1564.83C861.5 1546.42 876.424 1531.5 894.833 1531.5L1283.17 1531.5C1301.58 1531.5 1316.5 1546.42 1316.5 1564.83L1316.5 1698.17C1316.5 1716.58 1301.58 1731.5 1283.17 1731.5L894.833 1731.5C876.424 1731.5 861.5 1716.58 861.5 1698.17Z" stroke="#4A8A74" stroke-width="4.58333" stroke-miterlimit="8" fill="#68BD9F" fill-rule="evenodd"/><text fill="#FEFEFE" font-family="Poppins,Poppins_MSFontService,sans-serif" font-weight="700" font-size="46" transform="matrix(1 0 0 1 909.728 1591)">Vérifie l’état du <tspan font-size="46" x="-4.01038" y="55">déploiement lié </tspan><tspan font-size="46" x="83.0729" y="110">au </tspan><tspan font-size="46" x="154.688" y="110">build</tspan></text><path d="M1414.5 1631.5 1669 1531.5 1923.5 1631.5 1669 1731.5Z" stroke="#4A8A74" stroke-width="4.58333" stroke-miterlimit="8" fill="#68BD9F" fill-rule="evenodd"/><text fill="#FEFEFE" font-family="Poppins,Poppins_MSFontService,sans-serif" font-weight="700" font-size="46" transform="matrix(1 0 0 1 1584.38 1618)">Succès <tspan font-size="46" x="71.6145" y="55">?</tspan></text><path d="M584.875 1219 584.875 1284.86 571.125 1284.86 571.125 1219ZM598.625 1277.98 578 1319.23 557.375 1277.98Z" fill="#F18618"/><path d="M1316.01 1624.13 1379.16 1624.2 1379.15 1637.95 1315.99 1637.88ZM1372.31 1610.45 1413.53 1631.12 1372.26 1651.7Z" fill="#F18618"/><path d="M1975.5 1410.33C1975.5 1394.96 1987.96 1382.5 2003.33 1382.5L2359.67 1382.5C2375.04 1382.5 2387.5 1394.96 2387.5 1410.33L2387.5 1521.67C2387.5 1537.04 2375.04 1549.5 2359.67 1549.5L2003.33 1549.5C1987.96 1549.5 1975.5 1537.04 1975.5 1521.67Z" stroke="#4A8A74" stroke-width="4.58333" stroke-miterlimit="8" fill="#68BD9F" fill-rule="evenodd"/><text fill="#FEFEFE" font-family="Poppins,Poppins_MSFontService,sans-serif" font-weight="700" font-size="46" transform="matrix(1 0 0 1 2031.56 1452)">Déclenche le <tspan font-size="46" x="-0.572876" y="55">déploiement</tspan></text><path d="M1661.12 1530.65 1661.12 1458.13 1940.69 1458.13 1940.69 1471.88 1668 1471.88 1674.87 1465 1674.87 1530.65ZM1933.82 1444.38 1975.07 1465 1933.82 1485.63Z" fill="#F18618"/><text fill="#F18618" font-family="Poppins,Poppins_MSFontService,sans-serif" font-weight="700" font-size="64" transform="matrix(1 0 0 1 1723.87 1439)">NON</text><path d="M3359.5 1676.33C3359.5 1660.96 3371.96 1648.5 3387.33 1648.5L3928.67 1648.5C3944.04 1648.5 3956.5 1660.96 3956.5 1676.33L3956.5 1787.67C3956.5 1803.04 3944.04 1815.5 3928.67 1815.5L3387.33 1815.5C3371.96 1815.5 3359.5 1803.04 3359.5 1787.67Z" stroke="#4A8A74" stroke-width="4.58333" stroke-miterlimit="8" fill="#68BD9F" fill-rule="evenodd"/><text fill="#FEFEFE" font-family="Poppins,Poppins_MSFontService,sans-serif" font-weight="700" font-size="46" transform="matrix(1 0 0 1 3423.02 1718)">Stop le déploiement <tspan font-size="46" x="25.5064" y="55">des dépendances</tspan></text><path d="M2636.5 1731.5 2907 1643.5 3177.5 1731.5 2907 1819.5Z" stroke="#4A8A74" stroke-width="4.58333" stroke-miterlimit="8" fill="#68BD9F" fill-rule="evenodd"/><text fill="#FEFEFE" font-family="Poppins,Poppins_MSFontService,sans-serif" font-weight="700" font-size="46" transform="matrix(1 0 0 1 2805 1746)">Succès ?</text><path d="M2545.5 1410.33C2545.5 1394.96 2557.96 1382.5 2573.33 1382.5L3240.67 1382.5C3256.04 1382.5 3268.5 1394.96 3268.5 1410.33L3268.5 1521.67C3268.5 1537.04 3256.04 1549.5 3240.67 1549.5L2573.33 1549.5C2557.96 1549.5 2545.5 1537.04 2545.5 1521.67Z" stroke="#4A8A74" stroke-width="4.58333" stroke-miterlimit="8" fill="#68BD9F" fill-rule="evenodd"/><text fill="#FEFEFE" font-family="Poppins,Poppins_MSFontService,sans-serif" font-weight="700" font-size="46" transform="matrix(1 0 0 1 2727.73 1452)">Vérifie l’état du <tspan font-size="46" x="-104.844" y="55">déploiement lié au </tspan><tspan font-size="46" x="342.604" y="55">build</tspan></text><path d="M0-6.875 85.748-6.875 85.748 0.12126 78.873-6.75374 123.371-6.75374 123.371 6.99626 71.998 6.99626 71.998 0 78.873 6.875 0 6.875ZM116.496-20.5037 157.746 0.12126 116.496 20.7463Z" fill="#F18618" transform="matrix(1 0 0 -1 2387 1465.12)"/><path d="M2913.52 1549 2913.52 1603.12 2906 1603.12 2912.88 1596.24 2912.88 1609.11 2899.13 1609.11 2899.13 1589.37 2906.65 1589.37 2899.77 1596.24 2899.77 1549ZM2926.63 1602.23 2906 1643.48 2885.38 1602.23Z" fill="#F18618"/><path d="M0-6.875 98.1104-6.875 98.1104 0.0158793 91.2354-6.85912 148.096-6.85912 148.096 6.89088 84.3604 6.89088 84.3604 0 91.2354 6.875 0 6.875ZM141.221-20.6091 182.471 0.0158793 141.221 20.6409Z" fill="#F18618" transform="matrix(1 0 0 -1 3177 1731.02)"/><path d="M3595.5 2011C3595.5 1979.24 3623.48 1953.5 3658 1953.5 3692.52 1953.5 3720.5 1979.24 3720.5 2011 3720.5 2042.76 3692.52 2068.5 3658 2068.5 3623.48 2068.5 3595.5 2042.76 3595.5 2011Z" stroke="#4A8A74" stroke-width="4.58333" stroke-miterlimit="8" fill="#68BD9F" fill-rule="evenodd"/><path d="M3663.88 1815 3663.88 1890.76 3657 1890.76 3663.88 1883.89 3663.88 1918.4 3650.13 1918.4 3650.13 1877.01 3657 1877.01 3650.13 1883.89 3650.13 1815ZM3677.63 1911.53 3657 1952.78 3636.38 1911.53Z" fill="#F18618"/><path d="M0-6.875 197.656-6.875 197.656 654.116 183.906 654.116 183.906 0 190.781 6.875 0 6.875ZM211.406 647.24 190.781 688.49 170.156 647.24Z" fill="#F18618" transform="matrix(1.83697e-16 1 1 -1.83697e-16 2906 1819)"/><path d="M0-6.875 285.719-6.875 285.719 1891.92 271.969 1891.92 271.969 0 278.844 6.875 0 6.875ZM299.469 1885.05 278.844 1926.3 258.219 1885.05Z" fill="#F18618" transform="matrix(1.83697e-16 1 1 -1.83697e-16 1668 1731)"/><text fill="#F18618" font-family="Poppins,Poppins_MSFontService,sans-serif" font-weight="700" font-size="64" transform="matrix(1 0 0 1 3158.59 1696)">NON<tspan font-size="64" x="-1457.27" y="208">OUI</tspan><tspan font-size="64" x="-219.464" y="221">OUI</tspan></text><path d="M239.5 1565C239.5 1546.5 254.499 1531.5 273 1531.5L715 1531.5C733.502 1531.5 748.5 1546.5 748.5 1565L748.5 1699C748.5 1717.5 733.501 1732.5 715 1732.5L273 1732.5C254.499 1732.5 239.5 1717.5 239.5 1699Z" stroke="#4A8A74" stroke-width="4.58333" stroke-miterlimit="8" fill="#68BD9F" fill-rule="evenodd"/><text fill="#FEFEFE" font-family="Poppins,Poppins_MSFontService,sans-serif" font-weight="700" font-size="46" transform="matrix(1 0 0 1 332.613 1591)">Recherche du <tspan font-size="46" x="5.43124" y="55">build</tspan><tspan font-size="46" x="135.483" y="55">associé </tspan><tspan font-size="46" x="-35.5208" y="110">dans le </tspan>manifest</text><path d="M0.0304376-6.87493 78.7981-6.5262 78.7372 7.22366-0.0304376 6.87493ZM71.984-20.3065 113.142 0.500919 71.8014 20.9431Z" fill="#F18618" transform="matrix(1 0 0 -1 748 1631.5)"/></g></svg>