<svg width="2579" height="1358" xmlns="http://www.w3.org/2000/svg" xmlns:xlink="http://www.w3.org/1999/xlink" overflow="hidden"><defs><clipPath id="clip0"><rect x="749" y="276" width="2579" height="1358"/></clipPath><clipPath id="clip1"><rect x="749" y="276" width="280" height="280"/></clipPath><clipPath id="clip2"><rect x="749" y="276" width="280" height="280"/></clipPath><clipPath id="clip3"><rect x="749" y="276" width="280" height="280"/></clipPath><linearGradient x1="139.5" y1="263.035" x2="139.5" y2="15.965" gradientUnits="userSpaceOnUse" spreadMethod="pad" id="fill4"><stop offset="0" stop-color="#0078D4"/><stop offset="0.16" stop-color="#1380DA"/><stop offset="0.53" stop-color="#3C91E5"/><stop offset="0.82" stop-color="#559CEC"/><stop offset="1" stop-color="#5EA0EF"/></linearGradient></defs><g clip-path="url(#clip0)" transform="translate(-749 -276)"><rect x="872.5" y="495.5" width="2453" height="1136" stroke="#0090CE" stroke-width="4.58333" stroke-miterlimit="8" stroke-dasharray="36.6667 13.75" fill="none"/><g clip-path="url(#clip1)"><g clip-path="url(#clip2)"><g clip-path="url(#clip3)"><path d="M263.5 62 263.5 212.97 201.5 263.81 105.4 228.78 105.4 263.5 50.995 192.355 209.56 204.755 209.56 68.82ZM210.645 69.595 121.675 15.5 121.675 50.995 39.99 75.02 15.5 106.485 15.5 177.94 50.53 193.44 50.53 101.835Z" fill="url(#fill4)" transform="matrix(1.00358 0 0 1 749 276)"/></g></g></g><path d="M1029.5 589.5C1135.78 589.417 1195.53 590.653 1298.97 589.5 1402.42 588.348 1489.17 597.322 1568.44 589.5 1647.72 581.678 1746.51 590.596 1815.67 589.5 1884.82 588.404 1929.06 586.318 2018.39 589.5 2107.72 592.682 2168.52 590.096 2221.11 589.5 2273.7 588.904 2414.91 587.082 2490.58 589.5 2566.26 591.918 2713.72 576.109 2782.31 589.5 2850.89 602.891 2902.73 594.916 2962.78 589.5 3022.83 584.084 3169.51 576.346 3254.5 589.5 3251.03 695.998 3249.28 729.606 3254.5 806.85 3259.72 884.094 3263.38 937.867 3254.5 1043.1 3245.62 1148.33 3249.14 1158.26 3254.5 1260.45 3259.86 1362.64 3265.19 1406.84 3254.5 1534.5 3165.29 1542.07 3061.75 1524.24 3007.28 1534.5 2952.8 1544.76 2897.74 1529.45 2804.56 1534.5 2711.38 1539.55 2661.41 1543.95 2601.83 1534.5 2542.26 1525.05 2467.35 1535.23 2421.36 1534.5 2375.37 1533.77 2321.87 1540.85 2240.89 1534.5 2159.91 1528.15 2034.59 1526.67 1949.17 1534.5 1863.75 1542.33 1844.28 1533.35 1768.69 1534.5 1693.1 1535.65 1564.24 1525.09 1476.97 1534.5 1389.71 1543.91 1134.63 1544.34 1029.5 1534.5 1028.64 1485.47 1027.09 1414.22 1029.5 1307.7 1031.91 1201.18 1030.41 1167.37 1029.5 1052.55 1028.59 937.728 1039.29 907.015 1029.5 816.3 1019.71 725.585 1024.05 672.876 1029.5 589.5Z" stroke="#7F7F7F" stroke-width="4.58333" stroke-miterlimit="8" fill="none" fill-rule="evenodd"/><path d="M1075.5 767.5C1130.87 772.718 1275.77 762.836 1333.59 767.5 1391.4 772.164 1483.04 773.24 1591.68 767.5 1700.31 761.76 1734.82 771.95 1828.45 767.5 1922.08 763.05 1927.93 769.631 2022.61 767.5 2117.3 765.37 2145.3 776.293 2216.77 767.5 2288.24 758.708 2352.74 773.447 2474.86 767.5 2596.97 761.553 2626.6 780.06 2754.25 767.5 2881.91 754.94 2871.62 760.979 2927.1 767.5 2982.58 774.021 3076.04 768.045 3206.5 767.5 3208.55 789.637 3203.7 829.293 3206.5 847.5 3110.51 839.11 3078.4 844.815 2969.72 847.5 2861.04 850.185 2829.98 841.016 2690.32 847.5 2550.66 853.984 2559.56 848.803 2432.24 847.5 2304.92 846.197 2321.74 857.751 2216.77 847.5 2111.79 837.249 2105.18 844.426 2022.61 847.5 1940.04 850.574 1892.47 842.272 1828.45 847.5 1764.44 852.728 1733.11 841.17 1655.61 847.5 1578.1 853.83 1545.22 844.667 1482.76 847.5 1420.29 850.332 1170.18 847.052 1075.5 847.5 1079.36 820.007 1073.29 795.551 1075.5 767.5Z" fill="#E5E5E5" fill-rule="evenodd"/><path d="M1075.5 767.5C1177.4 756.21 1279.84 761.39 1333.59 767.5 1387.33 773.61 1492.07 759.289 1549.06 767.5 1606.04 775.711 1713.83 767.53 1764.52 767.5 1815.22 767.47 1899.09 759.316 1979.99 767.5 2060.9 775.684 2183.33 779.388 2238.08 767.5 2292.83 755.613 2439.72 779.769 2517.48 767.5 2595.23 755.231 2685.46 771.116 2775.56 767.5 2865.67 763.884 3106.99 783.369 3206.5 767.5 3208.37 784.543 3206.55 810.989 3206.5 847.5 3161.94 848.004 3067.92 843.493 2991.03 847.5 2914.14 851.507 2872.46 856.214 2796.87 847.5 2721.29 838.785 2608.84 855.417 2560.1 847.5 2511.35 839.583 2361.08 846.417 2302.01 847.5 2242.94 848.583 2192.58 852.088 2086.54 847.5 1980.51 842.912 1995.92 852.66 1913.69 847.5 1831.47 842.34 1794.88 848.48 1698.23 847.5 1601.57 846.52 1603.29 848.504 1525.38 847.5 1447.46 846.496 1395.82 851.414 1331.22 847.5 1266.62 843.586 1164.65 839.746 1075.5 847.5 1074.54 830.451 1075.73 788.857 1075.5 767.5Z" stroke="#7F7F7F" stroke-width="4.58333" stroke-miterlimit="8" fill="none" fill-rule="evenodd"/><text fill="#7F7F7F" font-family="Ink Free,Ink Free_MSFontService,sans-serif" font-weight="700" font-size="50" transform="matrix(1 0 0 1 1207.77 821)">repository<tspan font-size="50" x="-21.4384" y="235">Nom du repo 2</tspan></text><path d="M1094.5 1015.5C1108.48 1014.81 1141.07 1022.25 1153.5 1015.5 1153.76 1028.75 1153.41 1045.97 1153.5 1074.5 1124.62 1075.81 1109.89 1071.9 1094.5 1074.5 1088.98 1062.03 1100.87 1027.51 1094.5 1015.5Z" stroke="#7F7F7F" stroke-width="4.58333" stroke-miterlimit="8" fill="none" fill-rule="evenodd"/><path d="M1911.5 1013.5C1948.46 1003.57 1980 1027.2 2029.1 1013.5 2078.2 999.804 2100.34 1024.55 2156.5 1013.5 2159.91 1032.51 2150.72 1060.08 2156.5 1072.5 2128.66 1074.21 2077.4 1060.13 2034 1072.5 1990.6 1084.87 1953.8 1058.1 1911.5 1072.5 1907.43 1051.78 1913.73 1027.92 1911.5 1013.5Z" stroke="#7F7F7F" stroke-width="4.58333" stroke-miterlimit="8" fill="#E5E5E5" fill-rule="evenodd"/><text fill="#7F7F7F" font-family="Ink Free,Ink Free_MSFontService,sans-serif" font-weight="700" font-size="50" transform="matrix(1 0 0 1 1617.6 1056)">1.5.0<tspan font-size="50" x="620.454" y="-1">Requires</tspan><tspan font-size="50" x="816.964" y="-1">upgrade</tspan></text><path d="M2691.5 1018.83C2691.71 1012.15 2698.37 1007.93 2703.93 1006.5 2792.86 1005.15 2827.09 1008.72 2888.07 1006.5 2894.67 1006.58 2902.22 1011.95 2900.5 1018.83 2903.1 1033.39 2899.97 1055.97 2900.5 1068.17 2900.48 1075.71 2896.96 1080.73 2888.07 1080.5 2840.82 1093.63 2785.02 1079.02 2703.93 1080.5 2696.19 1080.87 2691.58 1073.04 2691.5 1068.17 2685.8 1050.82 2692.82 1037.31 2691.5 1018.83Z" fill="#7F7F7F" fill-rule="evenodd"/><path d="M2691.5 1018.83C2692.88 1012.47 2695.69 1006.65 2703.93 1006.5 2786.17 1004.29 2806.74 1021.45 2888.07 1006.5 2893.67 1006.99 2900.35 1011.76 2900.5 1018.83 2904.94 1030.91 2900.39 1044.53 2900.5 1068.17 2899.12 1076.24 2894.12 1081.8 2888.07 1080.5 2841.25 1102.13 2753.87 1065.13 2703.93 1080.5 2698.11 1080.23 2692.95 1076.23 2691.5 1068.17 2690.41 1057.22 2697.14 1031.41 2691.5 1018.83Z" stroke="#BEBEBE" stroke-width="4.58333" stroke-miterlimit="8" fill="none" fill-rule="evenodd"/><text fill="#FEFEFE" font-family="Ink Free,Ink Free_MSFontService,sans-serif" font-weight="700" font-size="37" transform="matrix(1 0 0 1 2731.89 1053)">commits<tspan fill="#7F7F7F" font-size="50" x="-1543.08" y="122">Nom du repo 3</tspan></text><path d="M1097.5 1134.5C1111.48 1133.81 1144.07 1141.25 1156.5 1134.5 1156.76 1147.75 1156.41 1164.97 1156.5 1193.5 1127.62 1194.81 1112.89 1190.9 1097.5 1193.5 1091.98 1181.03 1103.87 1146.51 1097.5 1134.5Z" stroke="#7F7F7F" stroke-width="4.58333" stroke-miterlimit="8" fill="none" fill-rule="evenodd"/><path d="M1914.5 1133.5C1951.46 1123.57 1983 1147.2 2032.1 1133.5 2081.2 1119.8 2103.34 1144.55 2159.5 1133.5 2162.91 1152.51 2153.72 1180.08 2159.5 1192.5 2131.66 1194.21 2080.4 1180.13 2037 1192.5 1993.6 1204.87 1956.8 1178.1 1914.5 1192.5 1910.43 1171.78 1916.73 1147.92 1914.5 1133.5Z" stroke="#7F7F7F" stroke-width="4.58333" stroke-miterlimit="8" fill="#E5E5E5" fill-rule="evenodd"/><text fill="#7F7F7F" font-family="Ink Free,Ink Free_MSFontService,sans-serif" font-weight="700" font-size="50" transform="matrix(1 0 0 1 1620.06 1175)">1.5.0<tspan font-size="50" x="620.454" y="-1">Up to date</tspan></text><path d="M2694.5 1138C2694.71 1131.23 2701.34 1126.95 2706.87 1125.5 2795.37 1124.14 2829.44 1127.75 2890.13 1125.5 2896.7 1125.58 2904.22 1131.02 2902.5 1138 2905.09 1152.75 2901.97 1175.64 2902.5 1188 2902.48 1195.64 2898.97 1200.73 2890.13 1200.5 2843.1 1213.81 2787.58 1199 2706.87 1200.5 2699.17 1200.87 2694.57 1192.94 2694.5 1188 2688.82 1170.42 2695.82 1156.73 2694.5 1138Z" fill="#7F7F7F" fill-rule="evenodd"/><path d="M2694.5 1138C2695.88 1131.55 2698.67 1125.66 2706.87 1125.5 2788.72 1123.26 2809.19 1140.65 2890.13 1125.5 2895.7 1126 2902.35 1130.84 2902.5 1138 2906.91 1150.24 2902.39 1164.05 2902.5 1188 2901.13 1196.18 2896.15 1201.82 2890.13 1200.5 2843.53 1222.42 2756.57 1184.92 2706.87 1200.5 2701.07 1200.22 2695.94 1196.17 2694.5 1188 2693.42 1176.91 2700.11 1150.75 2694.5 1138Z" stroke="#BEBEBE" stroke-width="4.58333" stroke-miterlimit="8" fill="none" fill-rule="evenodd"/><text fill="#FEFEFE" font-family="Ink Free,Ink Free_MSFontService,sans-serif" font-weight="700" font-size="37" transform="matrix(1 0 0 1 2734.35 1172)">commits<tspan fill="#7F7F7F" font-size="50" x="-1548.02" y="-238">Nom du repo 1</tspan></text><path d="M1094.5 893.5C1108.48 892.813 1141.07 900.248 1153.5 893.5 1153.76 906.753 1153.41 923.973 1153.5 952.5 1124.62 953.81 1109.89 949.899 1094.5 952.5 1088.98 940.027 1100.87 905.505 1094.5 893.5Z" stroke="#7F7F7F" stroke-width="4.58333" stroke-miterlimit="8" fill="none" fill-rule="evenodd"/><path d="M1911.5 891.5C1948.46 881.567 1980 905.196 2029.1 891.5 2078.2 877.804 2100.34 902.555 2156.5 891.5 2159.91 910.514 2150.72 938.078 2156.5 950.5 2128.66 952.214 2077.4 938.126 2034 950.5 1990.6 962.874 1953.8 936.099 1911.5 950.5 1907.43 929.781 1913.73 905.923 1911.5 891.5Z" stroke="#7F7F7F" stroke-width="4.58333" stroke-miterlimit="8" fill="none" fill-rule="evenodd"/><text fill="#7F7F7F" font-family="Ink Free,Ink Free_MSFontService,sans-serif" font-weight="700" font-size="50" transform="matrix(1 0 0 1 1617.6 934)">1.1.0</text><path d="M1106 919 1116.18 940.643" stroke="#7F7F7F" stroke-width="13.75" stroke-linecap="round" stroke-miterlimit="8" fill="none" fill-rule="evenodd"/><path d="M0 0 26.0994 34.375" stroke="#7F7F7F" stroke-width="13.75" stroke-linecap="round" stroke-miterlimit="8" fill="none" fill-rule="evenodd" transform="matrix(1 0 0 -1 1117 940.375)"/><text fill="#7F7F7F" font-family="Ink Free,Ink Free_MSFontService,sans-serif" font-weight="700" font-size="50" transform="matrix(1 0 0 1 2238.05 933)">Requires<tspan font-size="50" x="196.511" y="0">upgrade</tspan></text><path d="M2691.5 896.834C2691.71 890.152 2698.37 885.934 2703.93 884.5 2792.86 883.154 2827.09 886.715 2888.07 884.5 2894.67 884.581 2902.22 889.947 2900.5 896.834 2903.1 911.389 2899.97 933.974 2900.5 946.166 2900.48 953.706 2896.96 958.728 2888.07 958.5 2840.82 971.629 2785.02 957.016 2703.93 958.5 2696.19 958.868 2691.58 951.044 2691.5 946.166 2685.8 928.819 2692.82 915.311 2691.5 896.834Z" fill="#7F7F7F" fill-rule="evenodd"/><path d="M2691.5 896.834C2692.88 890.467 2695.69 884.654 2703.93 884.5 2786.17 882.286 2806.74 899.453 2888.07 884.5 2893.67 884.989 2900.35 889.765 2900.5 896.834 2904.94 908.913 2900.39 922.534 2900.5 946.166 2899.12 954.242 2894.12 959.798 2888.07 958.5 2841.25 980.131 2753.87 943.13 2703.93 958.5 2698.11 958.227 2692.95 954.226 2691.5 946.166 2690.41 935.22 2697.14 909.412 2691.5 896.834Z" stroke="#BEBEBE" stroke-width="4.58333" stroke-miterlimit="8" fill="none" fill-rule="evenodd"/><text fill="#FEFEFE" font-family="Ink Free,Ink Free_MSFontService,sans-serif" font-weight="700" font-size="37" transform="matrix(1 0 0 1 2731.89 931)">commits<tspan fill="#7F7F7F" font-size="50" x="-805.832" y="6">1.2.0</tspan><tspan fill="#7F7F7F" font-size="50" x="-1545.55" y="364">Nom du repo 4</tspan></text><path d="M1094.5 1253.5C1108.48 1252.81 1141.07 1260.25 1153.5 1253.5 1153.76 1266.75 1153.41 1283.97 1153.5 1312.5 1124.62 1313.81 1109.89 1309.9 1094.5 1312.5 1088.98 1300.03 1100.87 1265.51 1094.5 1253.5Z" stroke="#7F7F7F" stroke-width="4.58333" stroke-miterlimit="8" fill="none" fill-rule="evenodd"/><path d="M1911.5 1252.5C1948.46 1242.57 1980 1266.2 2029.1 1252.5 2078.2 1238.8 2100.34 1263.55 2156.5 1252.5 2159.91 1271.51 2150.72 1299.08 2156.5 1311.5 2128.66 1313.21 2077.4 1299.13 2034 1311.5 1990.6 1323.87 1953.8 1297.1 1911.5 1311.5 1907.43 1290.78 1913.73 1266.92 1911.5 1252.5Z" stroke="#7F7F7F" stroke-width="4.58333" stroke-miterlimit="8" fill="none" fill-rule="evenodd"/><text fill="#7F7F7F" font-family="Ink Free,Ink Free_MSFontService,sans-serif" font-weight="700" font-size="50" transform="matrix(1 0 0 1 1617.6 1295)">1.6.0</text><path d="M1106 1279 1116.18 1300.64" stroke="#7F7F7F" stroke-width="13.75" stroke-linecap="round" stroke-miterlimit="8" fill="none" fill-rule="evenodd"/><path d="M0 0 26.0994 34.375" stroke="#7F7F7F" stroke-width="13.75" stroke-linecap="round" stroke-miterlimit="8" fill="none" fill-rule="evenodd" transform="matrix(1 0 0 -1 1117 1301.38)"/><text fill="#7F7F7F" font-family="Ink Free,Ink Free_MSFontService,sans-serif" font-weight="700" font-size="50" transform="matrix(1 0 0 1 2238.05 1293)">Requires<tspan font-size="50" x="196.511" y="0">upgrade</tspan></text><path d="M2691.5 1257.83C2691.71 1251.15 2698.37 1246.93 2703.93 1245.5 2792.86 1244.15 2827.09 1247.72 2888.07 1245.5 2894.67 1245.58 2902.22 1250.95 2900.5 1257.83 2903.1 1272.39 2899.97 1294.97 2900.5 1307.17 2900.48 1314.71 2896.96 1319.73 2888.07 1319.5 2840.82 1332.63 2785.02 1318.02 2703.93 1319.5 2696.19 1319.87 2691.58 1312.04 2691.5 1307.17 2685.8 1289.82 2692.82 1276.31 2691.5 1257.83Z" fill="#7F7F7F" fill-rule="evenodd"/><path d="M2691.5 1257.83C2692.88 1251.47 2695.69 1245.65 2703.93 1245.5 2786.17 1243.29 2806.74 1260.45 2888.07 1245.5 2893.67 1245.99 2900.35 1250.76 2900.5 1257.83 2904.94 1269.91 2900.39 1283.53 2900.5 1307.17 2899.12 1315.24 2894.12 1320.8 2888.07 1319.5 2841.25 1341.13 2753.87 1304.13 2703.93 1319.5 2698.11 1319.23 2692.95 1315.23 2691.5 1307.17 2690.41 1296.22 2697.14 1270.41 2691.5 1257.83Z" stroke="#BEBEBE" stroke-width="4.58333" stroke-miterlimit="8" fill="none" fill-rule="evenodd"/><text fill="#FEFEFE" font-family="Ink Free,Ink Free_MSFontService,sans-serif" font-weight="700" font-size="37" transform="matrix(1 0 0 1 2731.89 1292)">commits<tspan fill="#7F7F7F" font-size="50" x="-805.832" y="5">1.7.0</tspan></text><path d="M2717.5 644.834C2717.71 638.152 2724.36 633.934 2729.91 632.5 2763.95 625.002 2858.72 648.96 2894.27 632.5 2929.82 616.04 2987.21 643.311 3049.33 632.5 3111.46 621.689 3145.76 647.687 3195.09 632.5 3201.05 631.936 3206.3 638.371 3207.5 644.834 3207.73 657.641 3203.8 673.078 3207.5 694.166 3208.3 701.075 3203.26 706.76 3195.09 706.5 3148.28 720.924 3114.53 705.363 3044.68 706.5 2974.84 707.637 2939.66 701.793 2898.92 706.5 2858.19 711.207 2775.49 690.057 2729.91 706.5 2723.33 706.457 2718.1 701.934 2717.5 694.166 2716.44 672.483 2721.1 657.603 2717.5 644.834Z" fill="#7F7F7F" fill-rule="evenodd"/><path d="M2717.5 644.834C2716.78 639.631 2723.66 631.335 2729.91 632.5 2788.58 620.415 2853.14 650.848 2884.97 632.5 2916.8 614.152 2977.49 651.072 3044.68 632.5 3111.87 613.928 3155.94 639.699 3195.09 632.5 3202.99 632.227 3208.95 639.27 3207.5 644.834 3208.59 655.78 3201.87 681.588 3207.5 694.166 3205.99 700.663 3200.48 706.505 3195.09 706.5 3153.09 719.931 3093.39 706.377 3030.73 706.5 2968.07 706.623 2925.76 696.293 2884.97 706.5 2844.17 716.706 2796.91 697.44 2729.91 706.5 2723.7 707.026 2716.94 700.842 2717.5 694.166 2716.13 669.984 2719.17 666.355 2717.5 644.834Z" stroke="#BEBEBE" stroke-width="4.58333" stroke-miterlimit="8" fill="none" fill-rule="evenodd"/><text fill="#FEFEFE" font-family="Ink Free,Ink Free_MSFontService,sans-serif" font-weight="700" font-size="37" transform="matrix(1 0 0 1 2771.88 679)">Update<tspan font-size="37" x="125.469" y="0">Build</tspan><tspan font-size="37" x="211.979" y="0">referentia</tspan><tspan font-size="37" x="372.969" y="0">l</tspan></text><path d="M2717.5 1419C2717.71 1412.23 2724.36 1407.95 2729.91 1406.5 2763.95 1398.9 2858.72 1423.18 2894.27 1406.5 2929.82 1389.82 2987.21 1417.46 3049.33 1406.5 3111.46 1395.54 3145.76 1421.89 3195.09 1406.5 3201.05 1405.93 3206.3 1412.45 3207.5 1419 3207.73 1431.98 3203.8 1447.63 3207.5 1469 3208.3 1476 3203.26 1481.76 3195.09 1481.5 3148.28 1496.12 3114.53 1480.35 3044.68 1481.5 2974.84 1482.65 2939.66 1476.73 2898.92 1481.5 2858.19 1486.27 2775.49 1464.83 2729.91 1481.5 2723.33 1481.46 2718.1 1476.87 2717.5 1469 2716.44 1447.02 2721.1 1431.94 2717.5 1419Z" fill="#7F7F7F" fill-rule="evenodd"/><path d="M2717.5 1419C2716.78 1413.73 2723.66 1405.32 2729.91 1406.5 2788.58 1394.25 2853.14 1425.1 2884.97 1406.5 2916.8 1387.9 2977.49 1425.32 3044.68 1406.5 3111.87 1387.68 3155.94 1413.8 3195.09 1406.5 3202.99 1406.22 3208.95 1413.36 3207.5 1419 3208.59 1430.09 3201.87 1456.25 3207.5 1469 3205.99 1475.58 3200.48 1481.51 3195.09 1481.5 3153.09 1495.11 3093.39 1481.38 3030.73 1481.5 2968.07 1481.62 2925.76 1471.16 2884.97 1481.5 2844.17 1491.84 2796.91 1472.32 2729.91 1481.5 2723.7 1482.03 2716.94 1475.77 2717.5 1469 2716.13 1444.49 2719.17 1440.81 2717.5 1419Z" stroke="#BEBEBE" stroke-width="4.58333" stroke-miterlimit="8" fill="none" fill-rule="evenodd"/><text fill="#FEFEFE" font-family="Ink Free,Ink Free_MSFontService,sans-serif" font-weight="700" font-size="37" transform="matrix(1 0 0 1 2771.88 1454)">Update<tspan font-size="37" x="125.469" y="0">Build</tspan><tspan font-size="37" x="211.979" y="0">referentia</tspan><tspan font-size="37" x="372.969" y="0">l</tspan><tspan fill="#7F7F7F" font-size="73" x="-1687.29" y="-743">Overview</tspan><tspan fill="#7F7F7F" font-size="73" x="-1367.03" y="-743">of repositories</tspan></text><path d="M1084.59 715.68 1276.59 715.68 1468.59 715.68 1660.59 715.68 1852.59 715.68 1852.59 719.68 1660.59 719.68 1468.59 719.68 1276.59 719.68 1084.59 719.68Z" fill="#7F7F7F" fill-rule="evenodd"/><path d="M2936.5 893.834C2936.71 887.152 2943.36 882.934 2948.91 881.5 2993.48 866.584 3025.48 888.522 3076.4 881.5 3127.33 874.478 3145.39 890.876 3194.09 881.5 3200.8 881.45 3207.22 886.987 3206.5 893.834 3210.26 913.862 3204.43 930.699 3206.5 943.166 3206.64 950.069 3200.93 956.342 3194.09 955.5 3168.36 958.404 3131.03 946.11 3073.95 955.5 3016.88 964.89 2987.26 947.728 2948.91 955.5 2943.4 957.009 2935.66 950.417 2936.5 943.166 2935.18 929.2 2940.82 910.448 2936.5 893.834Z" fill="#7F7F7F" fill-rule="evenodd"/><path d="M2936.5 893.834C2936.64 887.052 2942.21 881.945 2948.91 881.5 3001.27 875.486 3011.49 883.407 3064.14 881.5 3116.79 879.593 3130.16 892.876 3194.09 881.5 3199.57 882.764 3205.69 888.32 3206.5 893.834 3209.4 906.156 3202.74 930.17 3206.5 943.166 3207.54 949.705 3202.39 956.748 3194.09 955.5 3146.99 956.181 3117.58 947.448 3073.95 955.5 3030.32 963.553 2999.03 947.378 2948.91 955.5 2940.11 955.834 2936.2 950.152 2936.5 943.166 2933 927.022 2939.18 917.202 2936.5 893.834Z" stroke="#BEBEBE" stroke-width="4.58333" stroke-miterlimit="8" fill="none" fill-rule="evenodd"/><text fill="#FEFEFE" font-family="Ink Free,Ink Free_MSFontService,sans-serif" font-weight="700" font-size="37" transform="matrix(1 0 0 1 2973.58 928)">dependencies</text><path d="M2935.5 1018.83C2935.71 1012.15 2942.36 1007.93 2947.91 1006.5 2992.48 991.584 3024.48 1013.52 3075.4 1006.5 3126.33 999.478 3144.39 1015.88 3193.09 1006.5 3199.8 1006.45 3206.22 1011.99 3205.5 1018.83 3209.26 1038.86 3203.43 1055.7 3205.5 1068.17 3205.64 1075.07 3199.93 1081.34 3193.09 1080.5 3167.36 1083.4 3130.03 1071.11 3072.95 1080.5 3015.88 1089.89 2986.26 1072.73 2947.91 1080.5 2942.4 1082.01 2934.66 1075.42 2935.5 1068.17 2934.18 1054.2 2939.82 1035.45 2935.5 1018.83Z" fill="#7F7F7F" fill-rule="evenodd"/><path d="M2935.5 1018.83C2935.64 1012.05 2941.21 1006.95 2947.91 1006.5 3000.27 1000.49 3010.49 1008.41 3063.14 1006.5 3115.79 1004.59 3129.16 1017.88 3193.09 1006.5 3198.57 1007.76 3204.69 1013.32 3205.5 1018.83 3208.4 1031.16 3201.74 1055.17 3205.5 1068.17 3206.54 1074.71 3201.39 1081.75 3193.09 1080.5 3145.99 1081.18 3116.58 1072.45 3072.95 1080.5 3029.32 1088.55 2998.03 1072.38 2947.91 1080.5 2939.11 1080.83 2935.2 1075.15 2935.5 1068.17 2932 1052.02 2938.18 1042.2 2935.5 1018.83Z" stroke="#BEBEBE" stroke-width="4.58333" stroke-miterlimit="8" fill="none" fill-rule="evenodd"/><text fill="#FEFEFE" font-family="Ink Free,Ink Free_MSFontService,sans-serif" font-weight="700" font-size="37" transform="matrix(1 0 0 1 2972.86 1053)">dependencies</text><path d="M2935.5 1139C2935.71 1132.23 2942.36 1127.95 2947.91 1126.5 2992.48 1111.38 3024.48 1133.62 3075.4 1126.5 3126.33 1119.38 3144.39 1136 3193.09 1126.5 3199.8 1126.45 3206.22 1132.06 3205.5 1139 3209.26 1159.3 3203.43 1176.36 3205.5 1189 3205.64 1196 3199.93 1202.35 3193.09 1201.5 3167.36 1204.44 3130.03 1191.98 3072.95 1201.5 3015.88 1211.02 2986.26 1193.62 2947.91 1201.5 2942.4 1203.03 2934.66 1196.35 2935.5 1189 2934.18 1174.84 2939.82 1155.84 2935.5 1139Z" fill="#7F7F7F" fill-rule="evenodd"/><path d="M2935.5 1139C2935.64 1132.13 2941.21 1126.95 2947.91 1126.5 3000.27 1120.4 3010.49 1128.43 3063.14 1126.5 3115.79 1124.57 3129.16 1138.03 3193.09 1126.5 3198.57 1127.78 3204.69 1133.41 3205.5 1139 3208.4 1151.49 3201.74 1175.83 3205.5 1189 3206.54 1195.63 3201.39 1202.77 3193.09 1201.5 3145.99 1202.19 3116.58 1193.34 3072.95 1201.5 3029.32 1209.66 2998.03 1193.27 2947.91 1201.5 2939.11 1201.84 2935.2 1196.08 2935.5 1189 2932 1172.64 2938.18 1162.68 2935.5 1139Z" stroke="#BEBEBE" stroke-width="4.58333" stroke-miterlimit="8" fill="none" fill-rule="evenodd"/><text fill="#FEFEFE" font-family="Ink Free,Ink Free_MSFontService,sans-serif" font-weight="700" font-size="37" transform="matrix(1 0 0 1 2972.86 1174)">dependencies</text><path d="M2935.5 1260.83C2935.71 1254.15 2942.36 1249.93 2947.91 1248.5 2992.48 1233.58 3024.48 1255.52 3075.4 1248.5 3126.33 1241.48 3144.39 1257.88 3193.09 1248.5 3199.8 1248.45 3206.22 1253.99 3205.5 1260.83 3209.26 1280.86 3203.43 1297.7 3205.5 1310.17 3205.64 1317.07 3199.93 1323.34 3193.09 1322.5 3167.36 1325.4 3130.03 1313.11 3072.95 1322.5 3015.88 1331.89 2986.26 1314.73 2947.91 1322.5 2942.4 1324.01 2934.66 1317.42 2935.5 1310.17 2934.18 1296.2 2939.82 1277.45 2935.5 1260.83Z" fill="#7F7F7F" fill-rule="evenodd"/><path d="M2935.5 1260.83C2935.64 1254.05 2941.21 1248.95 2947.91 1248.5 3000.27 1242.49 3010.49 1250.41 3063.14 1248.5 3115.79 1246.59 3129.16 1259.88 3193.09 1248.5 3198.57 1249.76 3204.69 1255.32 3205.5 1260.83 3208.4 1273.16 3201.74 1297.17 3205.5 1310.17 3206.54 1316.71 3201.39 1323.75 3193.09 1322.5 3145.99 1323.18 3116.58 1314.45 3072.95 1322.5 3029.32 1330.55 2998.03 1314.38 2947.91 1322.5 2939.11 1322.83 2935.2 1317.15 2935.5 1310.17 2932 1294.02 2938.18 1284.2 2935.5 1260.83Z" stroke="#BEBEBE" stroke-width="4.58333" stroke-miterlimit="8" fill="none" fill-rule="evenodd"/><text fill="#FEFEFE" font-family="Ink Free,Ink Free_MSFontService,sans-serif" font-weight="700" font-size="37" transform="matrix(1 0 0 1 2972.86 1295)">dependencies<tspan fill="#7F7F7F" font-size="50" x="-1063.02" y="-475">new version</tspan><tspan fill="#7F7F7F" font-size="50" x="-620.112" y="-473">state</tspan><tspan fill="#7F7F7F" font-size="50" x="-141.917" y="-471">details</tspan><tspan fill="#7F7F7F" font-size="50" x="-1463.07" y="-473">current</tspan><tspan fill="#7F7F7F" font-size="50" x="-1290.05" y="-473">version</tspan></text></g></svg>