<svg width="2356" height="1892" xmlns="http://www.w3.org/2000/svg" xmlns:xlink="http://www.w3.org/1999/xlink" overflow="hidden"><defs><clipPath id="clip0"><rect x="749" y="276" width="2356" height="1892"/></clipPath><clipPath id="clip1"><rect x="749" y="276" width="280" height="280"/></clipPath><clipPath id="clip2"><rect x="749" y="276" width="280" height="280"/></clipPath><clipPath id="clip3"><rect x="749" y="276" width="280" height="280"/></clipPath><linearGradient x1="139.5" y1="263.035" x2="139.5" y2="15.965" gradientUnits="userSpaceOnUse" spreadMethod="pad" id="fill4"><stop offset="0" stop-color="#0078D4"/><stop offset="0.16" stop-color="#1380DA"/><stop offset="0.53" stop-color="#3C91E5"/><stop offset="0.82" stop-color="#559CEC"/><stop offset="1" stop-color="#5EA0EF"/></linearGradient></defs><g clip-path="url(#clip0)" transform="translate(-749 -276)"><rect x="872.5" y="495.5" width="2230" height="1670" stroke="#0090CE" stroke-width="4.58333" stroke-miterlimit="8" stroke-dasharray="36.6667 13.75" fill="none"/><g clip-path="url(#clip1)"><g clip-path="url(#clip2)"><g clip-path="url(#clip3)"><path d="M263.5 62 263.5 212.97 201.5 263.81 105.4 228.78 105.4 263.5 50.995 192.355 209.56 204.755 209.56 68.82ZM210.645 69.595 121.675 15.5 121.675 50.995 39.99 75.02 15.5 106.485 15.5 177.94 50.53 193.44 50.53 101.835Z" fill="url(#fill4)" transform="matrix(1.00358 0 0 1 749 276)"/></g></g></g><path d="M1029.5 589.5C1117.67 587.1 1238.16 588.808 1300.44 589.5 1362.73 590.192 1495.82 602.019 1571.39 589.5 1646.96 576.981 1727.04 582.655 1822.26 589.5 1917.49 596.346 1977.23 583.835 2033 589.5 2088.77 595.165 2176.03 590.687 2243.73 589.5 2311.44 588.313 2425.04 587.435 2514.68 589.5 2604.32 591.565 2735.7 584.617 2805.69 589.5 2875.69 594.383 2985.54 595.141 3036.5 589.5 3045.29 689.314 3040.11 748.553 3036.5 810.82 3032.89 873.088 3029.62 914.132 3036.5 1017.05 3043.38 1119.97 3032.05 1205.73 3036.5 1268.55 3040.95 1331.37 3026.86 1425.97 3036.5 1489.87 3046.14 1553.77 3033.04 1666 3036.5 1711.19 3039.96 1756.38 3053.46 1908.22 3036.5 2098.5 2973.81 2107.6 2884.81 2109.42 2805.69 2098.5 2726.58 2087.58 2644.07 2108.85 2594.96 2098.5 2545.85 2088.15 2459.16 2092.43 2404.29 2098.5 2349.43 2104.57 2282.07 2090.93 2213.63 2098.5 2145.19 2106.07 2000.37 2095.75 1922.61 2098.5 1844.86 2101.25 1785.25 2090.43 1731.95 2098.5 1678.65 2106.57 1528.99 2089.09 1440.94 2098.5 1352.88 2107.91 1119.62 2113.41 1029.5 2098.5 1040.58 1998.54 1030.79 1947.45 1029.5 1862.09 1028.21 1776.73 1020.02 1660.88 1029.5 1580.41 1038.98 1499.94 1034.19 1403.68 1029.5 1328.91 1024.81 1254.14 1030.18 1156.62 1029.5 1077.41 1028.82 998.199 1023.9 943.256 1029.5 841 1035.1 738.744 1035.34 693.42 1029.5 589.5Z" stroke="#7F7F7F" stroke-width="4.58333" stroke-miterlimit="8" fill="none" fill-rule="evenodd"/><path d="M2764.5 1996C2764.71 1989.23 2771.39 1984.95 2776.96 1983.5 2835.88 1972.66 2867.28 1985.44 2946.04 1983.5 2952.65 1983.58 2960.23 1989.02 2958.5 1996 2961.11 2010.75 2957.97 2033.64 2958.5 2046 2958.48 2053.64 2954.95 2058.73 2946.04 2058.5 2883.65 2065.77 2819.27 2045.87 2776.96 2058.5 2769.2 2058.87 2764.58 2050.94 2764.5 2046 2758.78 2028.42 2765.82 2014.73 2764.5 1996Z" fill="#7F7F7F" fill-rule="evenodd"/><path d="M2764.5 1996C2765.89 1989.55 2768.7 1983.66 2776.96 1983.5 2824.32 1963.39 2873.77 1992.1 2946.04 1983.5 2951.65 1984 2958.35 1988.84 2958.5 1996 2962.95 2008.24 2958.39 2022.05 2958.5 2046 2957.12 2054.18 2952.11 2059.82 2946.04 2058.5 2870.01 2072.24 2841.35 2046.08 2776.96 2058.5 2771.12 2058.22 2765.95 2054.17 2764.5 2046 2763.41 2034.91 2770.15 2008.75 2764.5 1996Z" stroke="#BEBEBE" stroke-width="4.58333" stroke-miterlimit="8" fill="none" fill-rule="evenodd"/><text fill="#FEFEFE" font-family="Ink Free,Ink Free_MSFontService,sans-serif" font-weight="700" font-size="37" transform="matrix(1 0 0 1 2823.05 2030)">S<tspan font-size="37" x="20.052" y="0">ave</tspan><tspan fill="#7F7F7F" font-size="73" x="-1738.47" y="-1319">Settings</tspan></text><path d="M1084.59 715.68 1152.09 715.68 1219.59 715.68 1287.09 715.68 1354.59 715.68 1354.59 719.68 1287.09 719.68 1219.59 719.68 1152.09 719.68 1084.59 719.68Z" fill="#7F7F7F" fill-rule="evenodd"/><text fill="#7F7F7F" font-family="Ink Free,Ink Free_MSFontService,sans-serif" font-weight="700" font-size="50" transform="matrix(1 0 0 1 1084.59 802)">Metapipeline<tspan font-size="50" x="285.886" y="0">repository</tspan></text><path d="M1608.5 760.5C1684.49 743.857 1749.13 766.979 1787.73 760.5 1826.32 754.021 1899.02 773.817 1984.11 760.5 2069.2 747.182 2135.24 763.385 2180.5 760.5 2186.09 779.408 2174.29 794.322 2180.5 819.5 2087.99 833.73 2040.27 809.927 1989.83 819.5 1939.39 829.073 1849.91 818.975 1804.89 819.5 1759.86 820.025 1696.57 819.432 1608.5 819.5 1604.96 799.973 1613.61 783.822 1608.5 760.5Z" stroke="#7F7F7F" stroke-width="4.58333" stroke-miterlimit="8" fill="none" fill-rule="evenodd"/><text fill="#7F7F7F" font-family="Ink Free,Ink Free_MSFontService,sans-serif" font-weight="700" font-size="50" transform="matrix(1 0 0 1 1641.32 802)">meta</text><path d="M1089.5 1261.5C1103.48 1260.81 1136.07 1268.25 1148.5 1261.5 1148.76 1274.75 1148.41 1291.97 1148.5 1320.5 1119.62 1321.81 1104.89 1317.9 1089.5 1320.5 1083.98 1308.03 1095.87 1273.51 1089.5 1261.5Z" stroke="#7F7F7F" stroke-width="4.58333" stroke-miterlimit="8" fill="none" fill-rule="evenodd"/><path d="M2117 778 2134.1 803.122" stroke="#7F7F7F" stroke-width="13.75" stroke-linecap="round" stroke-miterlimit="8" fill="none" fill-rule="evenodd"/><path d="M0 0 18.8198 25.1217" stroke="#7F7F7F" stroke-width="13.75" stroke-linecap="round" stroke-miterlimit="8" fill="none" fill-rule="evenodd" transform="matrix(1 0 0 -1 2134 803.122)"/><path d="M1100 1286 1110.19 1307.64" stroke="#7F7F7F" stroke-width="13.75" stroke-linecap="round" stroke-miterlimit="8" fill="none" fill-rule="evenodd"/><path d="M0 0 26.0994 34.375" stroke="#7F7F7F" stroke-width="13.75" stroke-linecap="round" stroke-miterlimit="8" fill="none" fill-rule="evenodd" transform="matrix(1 0 0 -1 1111 1307.37)"/><text fill="#7F7F7F" font-family="Ink Free,Ink Free_MSFontService,sans-serif" font-weight="700" font-size="50" transform="matrix(1 0 0 1 1170.52 915)">Repository <tspan font-size="50" x="240.052" y="0">branch</tspan></text><path d="M1747.5 872.5C1823.49 855.857 1888.13 878.979 1926.73 872.5 1965.32 866.021 2038.02 885.817 2123.11 872.5 2208.2 859.182 2274.24 875.385 2319.5 872.5 2325.09 891.408 2313.29 906.322 2319.5 931.5 2226.99 945.73 2179.27 921.927 2128.83 931.5 2078.39 941.073 1988.91 930.975 1943.89 931.5 1898.86 932.025 1835.57 931.432 1747.5 931.5 1743.96 911.973 1752.61 895.822 1747.5 872.5Z" stroke="#7F7F7F" stroke-width="4.58333" stroke-miterlimit="8" fill="none" fill-rule="evenodd"/><text fill="#7F7F7F" font-family="Ink Free,Ink Free_MSFontService,sans-serif" font-weight="700" font-size="50" transform="matrix(1 0 0 1 1780.54 915)">main</text><path d="M2256 890 2273.1 915.122" stroke="#7F7F7F" stroke-width="13.75" stroke-linecap="round" stroke-miterlimit="8" fill="none" fill-rule="evenodd"/><path d="M0 0 18.8198 25.1217" stroke="#7F7F7F" stroke-width="13.75" stroke-linecap="round" stroke-miterlimit="8" fill="none" fill-rule="evenodd" transform="matrix(1 0 0 -1 2274 915.122)"/><text fill="#7F7F7F" font-family="Ink Free,Ink Free_MSFontService,sans-serif" font-weight="700" font-size="50" transform="matrix(1 0 0 1 1170.52 1009)">Path to <tspan font-size="50" x="183.906" y="0">build</tspan><tspan font-size="50" x="294.479" y="0">referential</tspan></text><path d="M1747.5 966.5C1823.49 949.857 1888.13 972.979 1926.73 966.5 1965.32 960.021 2038.02 979.817 2123.11 966.5 2208.2 953.183 2274.24 969.385 2319.5 966.5 2325.09 985.408 2313.29 1000.32 2319.5 1025.5 2226.99 1039.73 2179.27 1015.93 2128.83 1025.5 2078.39 1035.07 1988.91 1024.97 1943.89 1025.5 1898.86 1026.03 1835.57 1025.43 1747.5 1025.5 1743.96 1005.97 1752.61 989.822 1747.5 966.5Z" stroke="#7F7F7F" stroke-width="4.58333" stroke-miterlimit="8" fill="none" fill-rule="evenodd"/><text fill="#7F7F7F" font-family="Ink Free,Ink Free_MSFontService,sans-serif" font-weight="700" font-size="50" transform="matrix(1 0 0 1 1780.54 1009)">b<tspan font-size="50" x="25.7813" y="0">uild.yaml</tspan><tspan font-size="50" x="-610.016" y="90">Path to </tspan>deploy<tspan font-size="50" x="-284.6" y="90">referential</tspan></text><path d="M1747.5 1056.5C1823.49 1039.86 1888.13 1062.98 1926.73 1056.5 1965.32 1050.02 2038.02 1069.82 2123.11 1056.5 2208.2 1043.18 2274.24 1059.39 2319.5 1056.5 2325.09 1075.41 2313.29 1090.32 2319.5 1115.5 2226.99 1129.73 2179.27 1105.93 2128.83 1115.5 2078.39 1125.07 1988.91 1114.97 1943.89 1115.5 1898.86 1116.03 1835.57 1115.43 1747.5 1115.5 1743.96 1095.97 1752.61 1079.82 1747.5 1056.5Z" stroke="#7F7F7F" stroke-width="4.58333" stroke-miterlimit="8" fill="none" fill-rule="evenodd"/><text fill="#7F7F7F" font-family="Ink Free,Ink Free_MSFontService,sans-serif" font-weight="700" font-size="50" transform="matrix(1 0 0 1 1780.54 1099)">deploy.yaml<tspan font-size="50" x="-695.954" y="116">Pick commit </tspan><tspan font-size="50" x="-432.412" y="116">from</tspan></text><path d="M1608.5 1173.5C1684.49 1156.57 1749.13 1180.09 1787.73 1173.5 1826.32 1166.91 1899.02 1187.04 1984.11 1173.5 2069.2 1159.96 2135.24 1176.43 2180.5 1173.5 2186.09 1192.73 2174.29 1207.9 2180.5 1233.5 2087.99 1247.97 2040.27 1223.76 1989.83 1233.5 1939.39 1243.24 1849.91 1232.97 1804.89 1233.5 1759.86 1234.03 1696.57 1233.43 1608.5 1233.5 1604.96 1213.64 1613.61 1197.22 1608.5 1173.5Z" stroke="#7F7F7F" stroke-width="4.58333" stroke-miterlimit="8" fill="none" fill-rule="evenodd"/><text fill="#7F7F7F" font-family="Ink Free,Ink Free_MSFontService,sans-serif" font-weight="700" font-size="50" transform="matrix(1 0 0 1 1641.32 1216)">main<tspan font-size="50" x="-459.872" y="93">Find</tspan><tspan font-size="50" x="-357.32" y="93">cherrypick</tspan></text><path d="M1087.5 1364.5C1101.48 1363.81 1134.07 1371.25 1146.5 1364.5 1146.76 1377.75 1146.41 1394.97 1146.5 1423.5 1117.62 1424.81 1102.89 1420.9 1087.5 1423.5 1081.98 1411.03 1093.87 1376.51 1087.5 1364.5Z" stroke="#7F7F7F" stroke-width="4.58333" stroke-miterlimit="8" fill="none" fill-rule="evenodd"/><path d="M1098 1389 1108.18 1410.64" stroke="#7F7F7F" stroke-width="13.75" stroke-linecap="round" stroke-miterlimit="8" fill="none" fill-rule="evenodd"/><path d="M0 0 26.0994 34.375" stroke="#7F7F7F" stroke-width="13.75" stroke-linecap="round" stroke-miterlimit="8" fill="none" fill-rule="evenodd" transform="matrix(1 0 0 -1 1109 1410.38)"/><text fill="#7F7F7F" font-family="Ink Free,Ink Free_MSFontService,sans-serif" font-weight="700" font-size="50" transform="matrix(1 0 0 1 1179.12 1412)">Automatically<tspan font-size="50" x="306.51" y="0">create</tspan><tspan font-size="50" x="460.052" y="0">a new tag</tspan><tspan font-size="50" x="-8.59473" y="107">Tag label</tspan></text><path d="M1456.5 1477.5C1532.62 1460.86 1597.38 1483.98 1636.04 1477.5 1674.7 1471.02 1747.53 1490.82 1832.77 1477.5 1918.01 1464.18 1984.16 1480.39 2029.5 1477.5 2035.1 1496.41 2023.28 1511.32 2029.5 1536.5 1936.83 1550.73 1889.03 1526.93 1838.5 1536.5 1787.97 1546.07 1698.33 1535.97 1653.23 1536.5 1608.13 1537.03 1544.72 1536.43 1456.5 1536.5 1452.95 1516.97 1461.62 1500.82 1456.5 1477.5Z" stroke="#7F7F7F" stroke-width="4.58333" stroke-miterlimit="8" fill="none" fill-rule="evenodd"/><text fill="#7F7F7F" font-family="Ink Free,Ink Free_MSFontService,sans-serif" font-weight="700" font-size="50" transform="matrix(1 0 0 1 1490.07 1519)">{v}</text><path d="M1087.5 1569.5C1101.48 1568.81 1134.07 1576.25 1146.5 1569.5 1146.76 1582.75 1146.41 1599.97 1146.5 1628.5 1117.62 1629.81 1102.89 1625.9 1087.5 1628.5 1081.98 1616.03 1093.87 1581.51 1087.5 1569.5Z" stroke="#7F7F7F" stroke-width="4.58333" stroke-miterlimit="8" fill="none" fill-rule="evenodd"/><path d="M1098 1594 1108.18 1615.64" stroke="#7F7F7F" stroke-width="13.75" stroke-linecap="round" stroke-miterlimit="8" fill="none" fill-rule="evenodd"/><path d="M0 0 26.0994 34.375" stroke="#7F7F7F" stroke-width="13.75" stroke-linecap="round" stroke-miterlimit="8" fill="none" fill-rule="evenodd" transform="matrix(1 0 0 -1 1109 1615.37)"/><text fill="#7F7F7F" font-family="Ink Free,Ink Free_MSFontService,sans-serif" font-weight="700" font-size="50" transform="matrix(1 0 0 1 1179.12 1617)">Automatically<tspan font-size="50" x="306.51" y="0">create</tspan><tspan font-size="50" x="460.052" y="0">a new </tspan><tspan font-size="50" x="598.698" y="0">branch</tspan><tspan font-size="50" x="-8.59473" y="108">B</tspan><tspan font-size="50" x="26.3533" y="108">ranch label</tspan></text><path d="M1456.5 1682.5C1532.62 1665.86 1597.38 1688.98 1636.04 1682.5 1674.7 1676.02 1747.53 1695.82 1832.77 1682.5 1918.01 1669.18 1984.16 1685.39 2029.5 1682.5 2035.1 1701.41 2023.28 1716.32 2029.5 1741.5 1936.83 1755.73 1889.03 1731.93 1838.5 1741.5 1787.97 1751.07 1698.33 1740.97 1653.23 1741.5 1608.13 1742.03 1544.72 1741.43 1456.5 1741.5 1452.95 1721.97 1461.62 1705.82 1456.5 1682.5Z" stroke="#7F7F7F" stroke-width="4.58333" stroke-miterlimit="8" fill="none" fill-rule="evenodd"/><text fill="#7F7F7F" font-family="Ink Free,Ink Free_MSFontService,sans-serif" font-weight="700" font-size="50" transform="matrix(1 0 0 1 1490.07 1725)">r<tspan font-size="50" x="21.198" y="0">elease/{v}</tspan></text><path d="M1089.5 1791.5C1103.48 1790.81 1136.07 1798.25 1148.5 1791.5 1148.76 1804.75 1148.41 1821.97 1148.5 1850.5 1119.62 1851.81 1104.89 1847.9 1089.5 1850.5 1083.98 1838.03 1095.87 1803.51 1089.5 1791.5Z" stroke="#7F7F7F" stroke-width="4.58333" stroke-miterlimit="8" fill="none" fill-rule="evenodd"/><path d="M1100 1816 1110.19 1837.64" stroke="#7F7F7F" stroke-width="13.75" stroke-linecap="round" stroke-miterlimit="8" fill="none" fill-rule="evenodd"/><path d="M0 0 26.0994 34.375" stroke="#7F7F7F" stroke-width="13.75" stroke-linecap="round" stroke-miterlimit="8" fill="none" fill-rule="evenodd" transform="matrix(1 0 0 -1 1111 1837.38)"/><text fill="#7F7F7F" font-family="Ink Free,Ink Free_MSFontService,sans-serif" font-weight="700" font-size="50" transform="matrix(1 0 0 1 1181.45 1839)">Automatically<tspan font-size="50" x="306.51" y="0">merge </tspan><tspan font-size="50" x="454.323" y="0">with</tspan><tspan font-size="50" x="568.906" y="0">branch</tspan><tspan font-size="50" x="-8.59473" y="107">B</tspan><tspan font-size="50" x="26.3532" y="107">ranch label</tspan></text><path d="M1459.5 1904.5C1535.49 1887.86 1600.13 1910.98 1638.73 1904.5 1677.32 1898.02 1750.02 1917.82 1835.11 1904.5 1920.2 1891.18 1986.24 1907.39 2031.5 1904.5 2037.09 1923.41 2025.29 1938.32 2031.5 1963.5 1938.99 1977.73 1891.27 1953.93 1840.83 1963.5 1790.39 1973.07 1700.91 1962.97 1655.89 1963.5 1610.86 1964.03 1547.57 1963.43 1459.5 1963.5 1455.96 1943.97 1464.61 1927.82 1459.5 1904.5Z" stroke="#7F7F7F" stroke-width="4.58333" stroke-miterlimit="8" fill="none" fill-rule="evenodd"/><text fill="#7F7F7F" font-family="Ink Free,Ink Free_MSFontService,sans-serif" font-weight="700" font-size="50" transform="matrix(1 0 0 1 1492.4 1946)">release</text><path d="M2193 792.5C2193 762.953 2217.18 739 2247 739 2276.82 739 2301 762.953 2301 792.5 2301 822.047 2276.82 846 2247 846 2217.18 846 2193 822.047 2193 792.5Z" fill="#0070C0" fill-rule="evenodd"/><text fill="#FEFEFE" font-family="Poppins,Poppins_MSFontService,sans-serif" font-weight="400" font-size="64" transform="matrix(1 0 0 1 2236.73 813)">1</text><path d="M2336 901.5C2336 871.953 2360.18 848 2390 848 2419.82 848 2444 871.953 2444 901.5 2444 931.047 2419.82 955 2390 955 2360.18 955 2336 931.047 2336 901.5Z" fill="#0070C0" fill-rule="evenodd"/><text fill="#FEFEFE" font-family="Poppins,Poppins_MSFontService,sans-serif" font-weight="400" font-size="64" transform="matrix(1 0 0 1 2371.92 922)">2</text><path d="M2336 995.5C2336 965.953 2360.18 942 2390 942 2419.82 942 2444 965.953 2444 995.5 2444 1025.05 2419.82 1049 2390 1049 2360.18 1049 2336 1025.05 2336 995.5Z" fill="#0070C0" fill-rule="evenodd"/><text fill="#FEFEFE" font-family="Poppins,Poppins_MSFontService,sans-serif" font-weight="400" font-size="64" transform="matrix(1 0 0 1 2371.34 1016)">3</text><path d="M2336 1089.5C2336 1059.95 2360.18 1036 2390 1036 2419.82 1036 2444 1059.95 2444 1089.5 2444 1119.05 2419.82 1143 2390 1143 2360.18 1143 2336 1119.05 2336 1089.5Z" fill="#0070C0" fill-rule="evenodd"/><text fill="#FEFEFE" font-family="Poppins,Poppins_MSFontService,sans-serif" font-weight="400" font-size="64" transform="matrix(1 0 0 1 2370.2 1110)">4</text><path d="M2208 1204.5C2208 1174.95 2231.95 1151 2261.5 1151 2291.05 1151 2315 1174.95 2315 1204.5 2315 1234.05 2291.05 1258 2261.5 1258 2231.95 1258 2208 1234.05 2208 1204.5Z" fill="#0070C0" fill-rule="evenodd"/><text fill="#FEFEFE" font-family="Poppins,Poppins_MSFontService,sans-serif" font-weight="400" font-size="64" transform="matrix(1 0 0 1 2241.61 1225)">5</text><path d="M1520 1296C1520 1266.18 1543.95 1242 1573.5 1242 1603.05 1242 1627 1266.18 1627 1296 1627 1325.82 1603.05 1350 1573.5 1350 1543.95 1350 1520 1325.82 1520 1296Z" fill="#0070C0" fill-rule="evenodd"/><text fill="#FEFEFE" font-family="Poppins,Poppins_MSFontService,sans-serif" font-weight="400" font-size="64" transform="matrix(1 0 0 1 1553.23 1317)">6</text><path d="M1876 1403.5C1876 1373.95 1900.18 1350 1930 1350 1959.82 1350 1984 1373.95 1984 1403.5 1984 1433.05 1959.82 1457 1930 1457 1900.18 1457 1876 1433.05 1876 1403.5Z" fill="#0070C0" fill-rule="evenodd"/><text fill="#FEFEFE" font-family="Poppins,Poppins_MSFontService,sans-serif" font-weight="400" font-size="64" transform="matrix(1 0 0 1 1912.71 1424)">7</text><path d="M1942 1603.5C1942 1573.95 1966.18 1550 1996 1550 2025.82 1550 2050 1573.95 2050 1603.5 2050 1633.05 2025.82 1657 1996 1657 1966.18 1657 1942 1633.05 1942 1603.5Z" fill="#0070C0" fill-rule="evenodd"/><text fill="#FEFEFE" font-family="Poppins,Poppins_MSFontService,sans-serif" font-weight="400" font-size="64" transform="matrix(1 0 0 1 1975.53 1624)">8</text><path d="M1919 1822C1919 1792.18 1943.18 1768 1973 1768 2002.82 1768 2027 1792.18 2027 1822 2027 1851.82 2002.82 1876 1973 1876 1943.18 1876 1919 1851.82 1919 1822Z" fill="#0070C0" fill-rule="evenodd"/><text fill="#FEFEFE" font-family="Poppins,Poppins_MSFontService,sans-serif" font-weight="400" font-size="64" transform="matrix(1 0 0 1 1952.89 1842)">9</text></g></svg>