<svg width="2210" height="1358" xmlns="http://www.w3.org/2000/svg" xmlns:xlink="http://www.w3.org/1999/xlink" overflow="hidden"><defs><clipPath id="clip0"><rect x="749" y="276" width="2210" height="1358"/></clipPath><clipPath id="clip1"><rect x="749" y="276" width="280" height="280"/></clipPath><clipPath id="clip2"><rect x="749" y="276" width="280" height="280"/></clipPath><clipPath id="clip3"><rect x="749" y="276" width="280" height="280"/></clipPath><linearGradient x1="139.5" y1="263.035" x2="139.5" y2="15.965" gradientUnits="userSpaceOnUse" spreadMethod="pad" id="fill4"><stop offset="0" stop-color="#0078D4"/><stop offset="0.16" stop-color="#1380DA"/><stop offset="0.53" stop-color="#3C91E5"/><stop offset="0.82" stop-color="#559CEC"/><stop offset="1" stop-color="#5EA0EF"/></linearGradient></defs><g clip-path="url(#clip0)" transform="translate(-749 -276)"><rect x="872.5" y="495.5" width="2084" height="1136" stroke="#0090CE" stroke-width="4.58333" stroke-miterlimit="8" stroke-dasharray="36.6667 13.75" fill="none"/><g clip-path="url(#clip1)"><g clip-path="url(#clip2)"><g clip-path="url(#clip3)"><path d="M263.5 62 263.5 212.97 201.5 263.81 105.4 228.78 105.4 263.5 50.995 192.355 209.56 204.755 209.56 68.82ZM210.645 69.595 121.675 15.5 121.675 50.995 39.99 75.02 15.5 106.485 15.5 177.94 50.53 193.44 50.53 101.835Z" fill="url(#fill4)" transform="matrix(1.00358 0 0 1 749 276)"/></g></g></g><path d="M1029.5 589.5C1119.05 585.108 1198.9 586.257 1280.47 589.5 1362.03 592.743 1432.35 586.512 1531.43 589.5 1630.51 592.488 1667.18 594.818 1763.81 589.5 1860.43 584.182 1881.94 583.724 1959 589.5 2036.06 595.276 2110.83 596.795 2154.19 589.5 2197.56 582.206 2343.18 589.406 2405.16 589.5 2467.14 589.594 2599.08 602.742 2674.72 589.5 2750.35 576.258 2804.52 581.613 2888.5 589.5 2897.02 696.933 2894.48 698.578 2888.5 806.85 2882.52 915.122 2888.69 956.333 2888.5 1014.75 2888.31 1073.17 2897.38 1145.77 2888.5 1251 2879.62 1356.23 2880.7 1454.36 2888.5 1534.5 2804.61 1535.22 2735.16 1532.16 2693.3 1534.5 2651.45 1536.84 2560.53 1524.03 2479.52 1534.5 2398.51 1544.97 2361.28 1529.06 2284.32 1534.5 2207.37 1539.94 2143.49 1539.38 2089.13 1534.5 2034.77 1529.62 1977.27 1527.75 1912.52 1534.5 1847.78 1541.25 1806.53 1543.04 1735.92 1534.5 1665.31 1525.96 1550.39 1523.65 1466.37 1534.5 1382.34 1545.35 1339.19 1538.6 1289.76 1534.5 1240.33 1530.4 1091.17 1544.04 1029.5 1534.5 1019.77 1411.54 1035.98 1347.72 1029.5 1279.35 1023.02 1210.98 1029.26 1157.57 1029.5 1052.55 1029.74 947.526 1029.36 914.356 1029.5 797.4 1029.64 680.444 1032.24 655.634 1029.5 589.5Z" stroke="#7F7F7F" stroke-width="4.58333" stroke-miterlimit="8" fill="none" fill-rule="evenodd"/><text fill="#7F7F7F" font-family="Ink Free,Ink Free_MSFontService,sans-serif" font-weight="700" font-size="50" transform="matrix(1 0 0 1 1309.18 927)">Nom du repo 2</text><path d="M1217.5 885.5C1231.48 884.802 1264.07 892.362 1276.5 885.5 1276.76 898.978 1276.41 916.49 1276.5 945.5 1247.62 946.833 1232.89 942.855 1217.5 945.5 1211.98 932.816 1223.87 897.709 1217.5 885.5Z" stroke="#7F7F7F" stroke-width="4.58333" stroke-miterlimit="8" fill="none" fill-rule="evenodd"/><text fill="#7F7F7F" font-family="Ink Free,Ink Free_MSFontService,sans-serif" font-weight="700" font-size="50" transform="matrix(1 0 0 1 1790.15 930)">Nom du repo 3</text><path d="M1698.5 889.5C1712.48 888.814 1745.07 896.248 1757.5 889.5 1757.76 902.753 1757.41 919.973 1757.5 948.5 1728.62 949.81 1713.89 945.899 1698.5 948.5 1692.98 936.027 1704.87 901.505 1698.5 889.5Z" stroke="#7F7F7F" stroke-width="4.58333" stroke-miterlimit="8" fill="none" fill-rule="evenodd"/><text fill="#7F7F7F" font-family="Ink Free,Ink Free_MSFontService,sans-serif" font-weight="700" font-size="50" transform="matrix(1 0 0 1 2292.09 927)">Nom du repo 4</text><path d="M2200.5 885.5C2214.48 884.802 2247.07 892.362 2259.5 885.5 2259.76 898.978 2259.41 916.49 2259.5 945.5 2230.62 946.833 2215.89 942.855 2200.5 945.5 2194.98 932.816 2206.87 897.709 2200.5 885.5Z" stroke="#7F7F7F" stroke-width="4.58333" stroke-miterlimit="8" fill="none" fill-rule="evenodd"/><path d="M2211 912 2221.19 933.643" stroke="#7F7F7F" stroke-width="13.75" stroke-linecap="round" stroke-miterlimit="8" fill="none" fill-rule="evenodd"/><path d="M0 0 26.0994 34.375" stroke="#7F7F7F" stroke-width="13.75" stroke-linecap="round" stroke-miterlimit="8" fill="none" fill-rule="evenodd" transform="matrix(1 0 0 -1 2223 933.375)"/><text fill="#7F7F7F" font-family="Ink Free,Ink Free_MSFontService,sans-serif" font-weight="700" font-size="73" transform="matrix(1 0 0 1 1084.59 711)">Dependencies<tspan font-size="73" x="423.958" y="0">of [Nom du repo 1]</tspan></text><path d="M1084.59 715.68 1336.09 715.68 1587.59 715.68 1839.09 715.68 2090.59 715.68 2090.59 719.68 1839.09 719.68 1587.59 719.68 1336.09 719.68 1084.59 719.68Z" fill="#7F7F7F" fill-rule="evenodd"/><path d="M2629.5 636C2629.71 629.229 2636.39 624.953 2641.96 623.5 2699.1 611.551 2730.28 643.668 2811.04 623.5 2817.65 623.582 2825.23 629.02 2823.5 636 2826.11 650.752 2822.97 673.643 2823.5 686 2823.48 693.641 2819.95 698.731 2811.04 698.5 2751.94 706.224 2687.08 687.391 2641.96 698.5 2634.2 698.874 2629.58 690.943 2629.5 686 2623.78 668.418 2630.82 654.727 2629.5 636Z" fill="#7F7F7F" fill-rule="evenodd"/><path d="M2629.5 636C2630.89 629.548 2633.7 623.656 2641.96 623.5 2688.46 623.157 2737.11 629.228 2811.04 623.5 2816.65 623.996 2823.35 628.836 2823.5 636 2827.95 648.243 2823.39 662.048 2823.5 686 2822.12 694.185 2817.11 699.816 2811.04 698.5 2737.94 715.102 2706.38 686.209 2641.96 698.5 2636.12 698.223 2630.95 694.169 2629.5 686 2628.41 674.905 2635.15 648.749 2629.5 636Z" stroke="#BEBEBE" stroke-width="4.58333" stroke-miterlimit="8" fill="none" fill-rule="evenodd"/><text fill="#FEFEFE" font-family="Ink Free,Ink Free_MSFontService,sans-serif" font-weight="700" font-size="37" transform="matrix(1 0 0 1 2687.87 670)">Sav<tspan font-size="37" x="59.0103" y="0">e</tspan></text><path d="M2642.5 1425C2642.71 1418.23 2649.39 1413.95 2654.96 1412.5 2712.1 1400.55 2743.28 1432.67 2824.04 1412.5 2830.65 1412.58 2838.23 1418.02 2836.5 1425 2839.11 1439.75 2835.97 1462.64 2836.5 1475 2836.48 1482.64 2832.95 1487.73 2824.04 1487.5 2764.94 1495.22 2700.08 1476.39 2654.96 1487.5 2647.2 1487.87 2642.58 1479.94 2642.5 1475 2636.78 1457.42 2643.82 1443.73 2642.5 1425Z" fill="#7F7F7F" fill-rule="evenodd"/><path d="M2642.5 1425C2643.89 1418.55 2646.7 1412.66 2654.96 1412.5 2701.46 1412.16 2750.11 1418.23 2824.04 1412.5 2829.65 1413 2836.35 1417.84 2836.5 1425 2840.95 1437.24 2836.39 1451.05 2836.5 1475 2835.12 1483.18 2830.11 1488.82 2824.04 1487.5 2750.94 1504.1 2719.38 1475.21 2654.96 1487.5 2649.12 1487.22 2643.95 1483.17 2642.5 1475 2641.41 1463.91 2648.15 1437.75 2642.5 1425Z" stroke="#BEBEBE" stroke-width="4.58333" stroke-miterlimit="8" fill="none" fill-rule="evenodd"/><text fill="#FEFEFE" font-family="Ink Free,Ink Free_MSFontService,sans-serif" font-weight="700" font-size="37" transform="matrix(1 0 0 1 2700.91 1460)">Sav<tspan font-size="37" x="59.0103" y="0">e</tspan><tspan fill="#7F7F7F" font-size="55" x="-1616.33" y="-624">Build</tspan><tspan fill="#7F7F7F" font-size="55" x="-1485.7" y="-624">dependencies</tspan></text><path d="M1084.59 839.987 1190.34 839.987 1296.09 839.987 1401.84 839.987 1507.59 839.987 1507.59 842.987 1401.84 842.987 1296.09 842.987 1190.34 842.987 1084.59 842.987Z" fill="#7F7F7F" fill-rule="evenodd"/><text fill="#7F7F7F" font-family="Ink Free,Ink Free_MSFontService,sans-serif" font-weight="700" font-size="50" transform="matrix(1 0 0 1 1410.02 1251)">Nom du repo 2</text><path d="M1318.5 1210.5C1332.48 1209.81 1365.07 1217.25 1377.5 1210.5 1377.76 1223.75 1377.41 1240.97 1377.5 1269.5 1348.62 1270.81 1333.89 1266.9 1318.5 1269.5 1312.98 1257.03 1324.87 1222.51 1318.5 1210.5Z" stroke="#7F7F7F" stroke-width="4.58333" stroke-miterlimit="8" fill="none" fill-rule="evenodd"/><text fill="#7F7F7F" font-family="Ink Free,Ink Free_MSFontService,sans-serif" font-weight="700" font-size="50" transform="matrix(1 0 0 1 1890.98 1255)">Nom du repo 3</text><path d="M1799.5 1213.5C1813.48 1212.81 1846.07 1220.25 1858.5 1213.5 1858.76 1226.75 1858.41 1243.97 1858.5 1272.5 1829.62 1273.81 1814.89 1269.9 1799.5 1272.5 1793.98 1260.03 1805.87 1225.51 1799.5 1213.5Z" stroke="#7F7F7F" stroke-width="4.58333" stroke-miterlimit="8" fill="none" fill-rule="evenodd"/><text fill="#7F7F7F" font-family="Ink Free,Ink Free_MSFontService,sans-serif" font-weight="700" font-size="50" transform="matrix(1 0 0 1 2392.92 1251)">Nom du repo 4</text><path d="M2301.5 1210.5C2315.48 1209.81 2348.07 1217.25 2360.5 1210.5 2360.76 1223.75 2360.41 1240.97 2360.5 1269.5 2331.62 1270.81 2316.89 1266.9 2301.5 1269.5 2295.98 1257.03 2307.87 1222.51 2301.5 1210.5Z" stroke="#7F7F7F" stroke-width="4.58333" stroke-miterlimit="8" fill="none" fill-rule="evenodd"/><text fill="#7F7F7F" font-family="Ink Free,Ink Free_MSFontService,sans-serif" font-weight="700" font-size="55" transform="matrix(1 0 0 1 1185.42 1160)">Deployment<tspan font-size="55" x="284.167" y="0">dependencies</tspan></text><path d="M1185.42 1164.41 1329.42 1164.41 1473.42 1164.41 1617.42 1164.41 1761.42 1164.41 1761.42 1167.41 1617.42 1167.41 1473.42 1167.41 1329.42 1167.41 1185.42 1167.41Z" fill="#7F7F7F" fill-rule="evenodd"/><path d="M1811 1239 1821.18 1260.64" stroke="#7F7F7F" stroke-width="13.75" stroke-linecap="round" stroke-miterlimit="8" fill="none" fill-rule="evenodd"/><path d="M0 0 26.0994 34.375" stroke="#7F7F7F" stroke-width="13.75" stroke-linecap="round" stroke-miterlimit="8" fill="none" fill-rule="evenodd" transform="matrix(1 0 0 -1 1822 1260.38)"/><path d="M1097.5 1025.5C1111.48 1024.81 1144.07 1032.25 1156.5 1025.5 1156.76 1038.75 1156.41 1055.97 1156.5 1084.5 1127.62 1085.81 1112.89 1081.9 1097.5 1084.5 1091.98 1072.03 1103.87 1037.51 1097.5 1025.5Z" stroke="#7F7F7F" stroke-width="4.58333" stroke-miterlimit="8" fill="none" fill-rule="evenodd"/><path d="M1108 1050 1118.18 1071.64" stroke="#7F7F7F" stroke-width="13.75" stroke-linecap="round" stroke-miterlimit="8" fill="none" fill-rule="evenodd"/><path d="M0 0 26.0994 34.375" stroke="#7F7F7F" stroke-width="13.75" stroke-linecap="round" stroke-miterlimit="8" fill="none" fill-rule="evenodd" transform="matrix(1 0 0 -1 1119 1071.38)"/><text fill="#7F7F7F" font-family="Ink Free,Ink Free_MSFontService,sans-serif" font-weight="700" font-size="50" transform="matrix(1 0 0 1 1188.74 1073)">Must <tspan font-size="50" x="127.76" y="0">be</tspan><tspan font-size="50" x="191.354" y="0">deploy</tspan></text></g></svg>