<svg width="1040" height="426" xmlns="http://www.w3.org/2000/svg" xmlns:xlink="http://www.w3.org/1999/xlink" xml:space="preserve" overflow="hidden"><defs><clipPath id="clip0"><rect x="669" y="1439" width="1040" height="426"/></clipPath><clipPath id="clip1"><rect x="867" y="1438" width="426" height="427"/></clipPath><clipPath id="clip2"><rect x="867" y="1438" width="426" height="427"/></clipPath><clipPath id="clip3"><rect x="867" y="1438" width="426" height="427"/></clipPath><clipPath id="clip4"><rect x="839" y="1536" width="168" height="171"/></clipPath><clipPath id="clip5"><rect x="839" y="1536" width="168" height="171"/></clipPath><clipPath id="clip6"><rect x="839" y="1536" width="168" height="171"/></clipPath><clipPath id="clip7"><rect x="1292" y="1475" width="111" height="112"/></clipPath><clipPath id="clip8"><rect x="1292" y="1475" width="111" height="112"/></clipPath><clipPath id="clip9"><rect x="1292" y="1475" width="111" height="112"/></clipPath><clipPath id="clip10"><rect x="1295" y="1603" width="112" height="112"/></clipPath><clipPath id="clip11"><rect x="1295" y="1603" width="112" height="112"/></clipPath><clipPath id="clip12"><rect x="1295" y="1603" width="112" height="112"/></clipPath><clipPath id="clip13"><rect x="1292" y="1727" width="111" height="112"/></clipPath><clipPath id="clip14"><rect x="1292" y="1727" width="111" height="112"/></clipPath><clipPath id="clip15"><rect x="1292" y="1727" width="111" height="112"/></clipPath></defs><g clip-path="url(#clip0)" transform="translate(-669 -1439)"><path d="M669 1469.95C669 1452.86 682.855 1439 699.946 1439L1678.05 1439C1695.15 1439 1709 1452.86 1709 1469.95L1709 1831.05C1709 1848.14 1695.15 1862 1678.05 1862L699.946 1862C682.855 1862 669 1848.14 669 1831.05Z" fill="#D6EEF9" fill-rule="evenodd"/><g clip-path="url(#clip1)"><g clip-path="url(#clip2)"><g clip-path="url(#clip3)"><path d="M400.445 94.2223 400.445 323.653 306.222 400.916 160.178 347.68 160.178 400.445 77.4978 292.325 318.471 311.169 318.471 104.587ZM320.12 105.764 184.911 23.5556 184.911 77.4978 60.7734 114.009 23.5556 161.827 23.5556 270.418 76.7911 293.973 76.7911 154.76Z" fill="#FEFEFE" transform="matrix(1 0 0 1.00236 868 1439)"/></g></g></g><g clip-path="url(#clip4)"><g clip-path="url(#clip5)"><g clip-path="url(#clip6)"><path d="M125.83 0.066964 40.4166 0.066964C37.1221 0.066964 34.4732 2.71599 34.4732 6.01028L34.4732 25.4704 131.774 25.4704 131.774 6.01028C131.774 2.71599 129.125 0.066964 125.83 0.066964Z" fill="#BC3200" transform="matrix(1 0 0 1.00595 839 1537)"/><path d="M135.888 11.9598 30.3691 11.9598C25.6144 11.9598 21.7767 15.7975 21.7767 20.5522L21.7767 27.3106 144.481 27.3106 144.481 20.5522C144.481 15.7975 140.643 11.9598 135.888 11.9598Z" fill="#D13600" transform="matrix(1 0 0 1.00595 839 1537)"/><path d="M148.251 24.1473 18.0075 24.1473C13.2528 24.1473 9.41515 27.985 9.41515 32.7396L9.41515 155.07C9.41515 159.825 13.2868 163.697 18.0415 163.697L148.217 163.697C152.972 163.697 156.844 159.825 156.844 155.07L156.844 32.7396C156.844 27.985 153.006 24.1473 148.251 24.1473Z" fill="#E15815" transform="matrix(1 0 0 1.00595 839 1537)"/><path d="M52.9185 36.7501C43.885 36.7501 36.5492 44.0855 36.5492 53.1195 36.5492 62.1534 43.885 69.4892 52.9185 69.4892 61.9525 69.4892 69.2882 62.1534 69.2882 53.1195 69.2882 44.0855 61.9525 36.7501 52.9185 36.7501ZM52.9185 63.7158C47.0434 63.7158 42.2886 58.9611 42.2886 53.0855 42.2886 47.2103 47.0434 42.4556 52.9185 42.4556 58.7941 42.4556 63.5488 47.2103 63.5488 53.0855 63.5488 58.9611 58.7941 63.7158 52.9185 63.7158Z" fill="#FFB290" transform="matrix(1 0 0 1.00595 839 1537)"/><path d="M59.0663 67.7142 46.9419 67.7142 46.9419 100.895 59.0663 100.895 59.0663 67.7142Z" fill="#FFB290" transform="matrix(1 0 0 1.00595 839 1537)"/><path d="M130.664 53.3471C130.664 44.3135 123.328 36.9778 114.294 36.9778 105.26 36.9778 97.9243 44.3135 97.9243 53.3471 97.9243 60.3095 102.271 66.2526 108.418 68.6299L108.418 79.8715 46.9477 100.181 46.8459 100.181 46.8459 120.999C40.8346 123.411 36.5893 129.32 36.5893 136.18 36.5893 145.214 43.9251 152.55 52.959 152.55 61.9926 152.55 69.3283 145.214 69.3283 136.18 69.3283 129.388 65.1849 123.546 59.3097 121.067L59.3097 108.162 120.441 87.9544 120.305 87.7164 120.441 87.7164 120.441 68.4942C126.418 66.0829 130.664 60.2077 130.664 53.3471ZM63.555 136.214C63.555 142.089 58.8003 146.844 52.9247 146.844 47.0495 146.844 42.2948 142.089 42.2948 136.214 42.2948 130.339 47.0495 125.584 52.9247 125.584 58.8003 125.584 63.555 130.339 63.555 136.214ZM114.294 63.9434C108.418 63.9434 103.664 59.1887 103.664 53.3132 103.664 47.438 108.418 42.6832 114.294 42.6832 120.169 42.6832 124.924 47.438 124.924 53.3132 124.924 59.1887 120.135 63.9434 114.294 63.9434Z" fill="#FFDBCA" transform="matrix(1 0 0 1.00595 839 1537)"/></g></g></g><text fill="#051922" font-family="Poppins,Poppins_MSFontService,sans-serif" font-weight="700" font-size="64" transform="matrix(1 0 0 1 743.826 1781)">Repository<tspan font-style="italic" font-size="64" x="691.854" y="-226">DEV</tspan><tspan font-style="italic" font-size="64" x="688.279" y="-98">UA</tspan><tspan font-style="italic" font-size="64" x="781.091" y="-98">T</tspan><tspan font-style="italic" font-size="64" x="688.278" y="27">PROD</tspan></text><g clip-path="url(#clip7)"><g clip-path="url(#clip8)"><g clip-path="url(#clip9)"><path d="M83.1378 0.044244 26.7038 0.044244C24.5271 0.044244 22.7769 1.79449 22.7769 3.97107L22.7769 16.8286 87.0647 16.8286 87.0647 3.97107C87.0647 1.79449 85.3146 0.044244 83.1378 0.044244Z" fill="#BC3200" transform="matrix(1 0 0 1 1292 1475)"/><path d="M89.7833 7.902 20.0653 7.902C16.9238 7.902 14.3882 10.4376 14.3882 13.5791L14.3882 18.0444 95.4604 18.0444 95.4604 13.5791C95.4604 10.4376 92.9248 7.902 89.7833 7.902Z" fill="#D13600" transform="matrix(1 0 0 1 1292 1475)"/><path d="M97.9515 15.9544 11.8978 15.9544C8.75633 15.9544 6.22072 18.4901 6.22072 21.6315L6.22072 102.457C6.22072 105.598 8.77878 108.156 11.9202 108.156L97.9291 108.156C101.071 108.156 103.629 105.598 103.629 102.457L103.629 21.6315C103.629 18.4901 101.093 15.9544 97.9515 15.9544Z" fill="#E15815" transform="matrix(1 0 0 1 1292 1475)"/><path d="M34.964 24.2813C28.9954 24.2813 24.1485 29.1279 24.1485 35.0967 24.1485 41.0656 28.9954 45.9124 34.964 45.9124 40.9328 45.9124 45.7797 41.0656 45.7797 35.0967 45.7797 29.1279 40.9328 24.2813 34.964 24.2813ZM34.964 42.0979C31.0822 42.0979 27.9407 38.9564 27.9407 35.0743 27.9407 31.1925 31.0822 28.051 34.964 28.051 38.846 28.051 41.9876 31.1925 41.9876 35.0743 41.9876 38.9564 38.846 42.0979 34.964 42.0979Z" fill="#FFB290" transform="matrix(1 0 0 1 1292 1475)"/><path d="M39.0259 44.7397 31.0151 44.7397 31.0151 66.6626 39.0259 66.6626 39.0259 44.7397Z" fill="#FFB290" transform="matrix(1 0 0 1 1292 1475)"/><path d="M86.3312 35.2472C86.3312 29.2785 81.4844 24.4317 75.5156 24.4317 69.5467 24.4317 64.6999 29.2785 64.6999 35.2472 64.6999 39.8473 67.5721 43.774 71.6335 45.3447L71.6335 52.7722 31.019 66.1907 30.9517 66.1907 30.9517 79.9458C26.9799 81.539 24.175 85.4432 24.175 89.9761 24.175 95.9447 29.0219 100.792 34.9907 100.792 40.9593 100.792 45.8062 95.9447 45.8062 89.9761 45.8062 85.4883 43.0686 81.6287 39.1867 79.9907L39.1867 71.4639 79.577 58.1126 79.4873 57.9554 79.577 57.9554 79.577 45.255C83.5263 43.6618 86.3312 39.78 86.3312 35.2472ZM41.9916 89.9985C41.9916 93.8803 38.8501 97.0219 34.9681 97.0219 31.0863 97.0219 27.9447 93.8803 27.9447 89.9985 27.9447 86.1165 31.0863 82.975 34.9681 82.975 38.8501 82.975 41.9916 86.1165 41.9916 89.9985ZM75.5156 42.2483C71.6335 42.2483 68.492 39.1068 68.492 35.2247 68.492 31.3429 71.6335 28.2014 75.5156 28.2014 79.3974 28.2014 82.5389 31.3429 82.5389 35.2247 82.5389 39.1068 79.375 42.2483 75.5156 42.2483Z" fill="#FFDBCA" transform="matrix(1 0 0 1 1292 1475)"/></g></g></g><g clip-path="url(#clip10)"><g clip-path="url(#clip11)"><g clip-path="url(#clip12)"><path d="M1379.14 1604.04 1322.7 1604.04C1320.53 1604.04 1318.78 1605.79 1318.78 1607.97L1318.78 1620.83 1383.06 1620.83 1383.06 1607.97C1383.06 1605.79 1381.31 1604.04 1379.14 1604.04Z" fill="#BC3200"/><path d="M1385.78 1611.9 1316.07 1611.9C1312.92 1611.9 1310.39 1614.44 1310.39 1617.58L1310.39 1622.04 1391.46 1622.04 1391.46 1617.58C1391.46 1614.44 1388.93 1611.9 1385.78 1611.9Z" fill="#D13600"/><path d="M1393.95 1619.95 1307.9 1619.95C1304.76 1619.95 1302.22 1622.49 1302.22 1625.63L1302.22 1706.46C1302.22 1709.6 1304.78 1712.16 1307.92 1712.16L1393.93 1712.16C1397.07 1712.16 1399.63 1709.6 1399.63 1706.46L1399.63 1625.63C1399.63 1622.49 1397.09 1619.95 1393.95 1619.95Z" fill="#E15815"/><path d="M1330.96 1628.28C1325 1628.28 1320.15 1633.13 1320.15 1639.1 1320.15 1645.07 1325 1649.91 1330.96 1649.91 1336.93 1649.91 1341.78 1645.07 1341.78 1639.1 1341.78 1633.13 1336.93 1628.28 1330.96 1628.28ZM1330.96 1646.1C1327.08 1646.1 1323.94 1642.96 1323.94 1639.07 1323.94 1635.19 1327.08 1632.05 1330.96 1632.05 1334.85 1632.05 1337.99 1635.19 1337.99 1639.07 1337.99 1642.96 1334.85 1646.1 1330.96 1646.1Z" fill="#FFB290"/><path d="M1335.03 1648.74 1327.02 1648.74 1327.02 1670.66 1335.03 1670.66 1335.03 1648.74Z" fill="#FFB290"/><path d="M1382.33 1639.25C1382.33 1633.28 1377.48 1628.43 1371.52 1628.43 1365.55 1628.43 1360.7 1633.28 1360.7 1639.25 1360.7 1643.85 1363.57 1647.77 1367.63 1649.34L1367.63 1656.77 1327.02 1670.19 1326.95 1670.19 1326.95 1683.95C1322.98 1685.54 1320.18 1689.44 1320.18 1693.98 1320.18 1699.94 1325.02 1704.79 1330.99 1704.79 1336.96 1704.79 1341.81 1699.94 1341.81 1693.98 1341.81 1689.49 1339.07 1685.63 1335.19 1683.99L1335.19 1675.46 1375.58 1662.11 1375.49 1661.96 1375.58 1661.96 1375.58 1649.26C1379.53 1647.66 1382.33 1643.78 1382.33 1639.25ZM1337.99 1694C1337.99 1697.88 1334.85 1701.02 1330.97 1701.02 1327.09 1701.02 1323.94 1697.88 1323.94 1694 1323.94 1690.12 1327.09 1686.98 1330.97 1686.98 1334.85 1686.98 1337.99 1690.12 1337.99 1694ZM1371.52 1646.25C1367.63 1646.25 1364.49 1643.11 1364.49 1639.22 1364.49 1635.34 1367.63 1632.2 1371.52 1632.2 1375.4 1632.2 1378.54 1635.34 1378.54 1639.22 1378.54 1643.11 1375.38 1646.25 1371.52 1646.25Z" fill="#FFDBCA"/></g></g></g><g clip-path="url(#clip13)"><g clip-path="url(#clip14)"><g clip-path="url(#clip15)"><path d="M83.1378 0.044244 26.7038 0.044244C24.5271 0.044244 22.7769 1.79449 22.7769 3.97107L22.7769 16.8286 87.0647 16.8286 87.0647 3.97107C87.0647 1.79449 85.3146 0.044244 83.1378 0.044244Z" fill="#BC3200" transform="matrix(1 0 0 1 1292 1727)"/><path d="M89.7833 7.902 20.0653 7.902C16.9238 7.902 14.3882 10.4376 14.3882 13.5791L14.3882 18.0444 95.4604 18.0444 95.4604 13.5791C95.4604 10.4376 92.9248 7.902 89.7833 7.902Z" fill="#D13600" transform="matrix(1 0 0 1 1292 1727)"/><path d="M97.9515 15.9544 11.8978 15.9544C8.75633 15.9544 6.22072 18.4901 6.22072 21.6315L6.22072 102.457C6.22072 105.598 8.77878 108.156 11.9202 108.156L97.9291 108.156C101.071 108.156 103.629 105.598 103.629 102.457L103.629 21.6315C103.629 18.4901 101.093 15.9544 97.9515 15.9544Z" fill="#E15815" transform="matrix(1 0 0 1 1292 1727)"/><path d="M34.964 24.2813C28.9954 24.2813 24.1485 29.1279 24.1485 35.0967 24.1485 41.0656 28.9954 45.9124 34.964 45.9124 40.9328 45.9124 45.7797 41.0656 45.7797 35.0967 45.7797 29.1279 40.9328 24.2813 34.964 24.2813ZM34.964 42.0979C31.0822 42.0979 27.9407 38.9564 27.9407 35.0743 27.9407 31.1925 31.0822 28.051 34.964 28.051 38.846 28.051 41.9876 31.1925 41.9876 35.0743 41.9876 38.9564 38.846 42.0979 34.964 42.0979Z" fill="#FFB290" transform="matrix(1 0 0 1 1292 1727)"/><path d="M39.0259 44.7397 31.0151 44.7397 31.0151 66.6626 39.0259 66.6626 39.0259 44.7397Z" fill="#FFB290" transform="matrix(1 0 0 1 1292 1727)"/><path d="M86.3312 35.2472C86.3312 29.2785 81.4844 24.4317 75.5156 24.4317 69.5467 24.4317 64.6999 29.2785 64.6999 35.2472 64.6999 39.8473 67.5721 43.774 71.6335 45.3447L71.6335 52.7722 31.019 66.1907 30.9517 66.1907 30.9517 79.9458C26.9799 81.539 24.175 85.4432 24.175 89.9761 24.175 95.9447 29.0219 100.792 34.9907 100.792 40.9593 100.792 45.8062 95.9447 45.8062 89.9761 45.8062 85.4883 43.0686 81.6287 39.1867 79.9907L39.1867 71.4639 79.577 58.1126 79.4873 57.9554 79.577 57.9554 79.577 45.255C83.5263 43.6618 86.3312 39.78 86.3312 35.2472ZM41.9916 89.9985C41.9916 93.8803 38.8501 97.0219 34.9681 97.0219 31.0863 97.0219 27.9447 93.8803 27.9447 89.9985 27.9447 86.1165 31.0863 82.975 34.9681 82.975 38.8501 82.975 41.9916 86.1165 41.9916 89.9985ZM75.5156 42.2483C71.6335 42.2483 68.492 39.1068 68.492 35.2247 68.492 31.3429 71.6335 28.2014 75.5156 28.2014 79.3974 28.2014 82.5389 31.3429 82.5389 35.2247 82.5389 39.1068 79.375 42.2483 75.5156 42.2483Z" fill="#FFDBCA" transform="matrix(1 0 0 1 1292 1727)"/></g></g></g><rect x="1141" y="1547" width="35.0001" height="205" fill="#0070C0"/><rect x="1056" y="1632" width="205" height="34" fill="#0070C0"/></g></svg>