<svg width="3004" height="938" xmlns="http://www.w3.org/2000/svg" xmlns:xlink="http://www.w3.org/1999/xlink" xml:space="preserve" overflow="hidden"><defs><clipPath id="clip0"><rect x="495" y="260" width="3004" height="938"/></clipPath></defs><g clip-path="url(#clip0)" transform="translate(-495 -260)"><path d="M1663.5 738.5 1854.25 738.5 1854.25 613.5 2235.75 613.5 2235.75 738.5 2426.5 738.5 2045 863.5Z" stroke="#FEFEFE" stroke-width="4.58333" stroke-miterlimit="8" fill="#E5E5E5" fill-rule="evenodd"/><path d="M497.5 283.5 849.5 283.5 1014.5 448.5 849.5 613.5 497.5 613.5Z" stroke="#6A9838" stroke-width="4.58333" stroke-miterlimit="8" fill="#92D050" fill-rule="evenodd"/><text fill="#FEFEFE" font-family="Poppins,Poppins_MSFontService,sans-serif" font-weight="700" font-size="128" transform="matrix(1 0 0 1 646.256 417)">CI</text><path d="M906.5 283.5 3329.5 283.5 3494.5 448.5 3329.5 613.5 906.5 613.5 1071.5 448.5Z" stroke="#0076A7" stroke-width="4.58333" stroke-miterlimit="8" fill="#009DDF" fill-rule="evenodd"/><text fill="#FEFEFE" font-family="Poppins,Poppins_MSFontService,sans-serif" font-weight="700" font-size="128" transform="matrix(1 0 0 1 2104.32 417)">CD</text><path d="M1108.5 447.5 1724.5 447.5 1791.5 514.5 1724.5 581.5 1108.5 581.5Z" stroke="#53CCFF" stroke-width="4.58333" stroke-miterlimit="8" fill="#0076A7" fill-rule="evenodd"/><text fill="#FEFEFE" font-family="Arial,Arial_MSFontService,sans-serif" font-weight="400" font-size="64" transform="matrix(1 0 0 1 1146.29 537)">Publish<tspan font-size="64" x="228.021" y="0">keyvault</tspan><tspan font-size="64" x="480.677" y="0">ref</tspan><tspan font-size="64" x="555.156" y="0">.</tspan></text><path d="M1757.5 447.5 2511.5 447.5 2578.5 514.5 2511.5 581.5 1757.5 581.5 1824.5 514.5Z" stroke="#53CCFF" stroke-width="4.58333" stroke-miterlimit="8" fill="#0076A7" fill-rule="evenodd"/><text fill="#FEFEFE" font-family="Arial,Arial_MSFontService,sans-serif" font-weight="400" font-size="64" transform="matrix(1 0 0 1 1861.44 537)">Publish<tspan font-size="64" x="228.021" y="0">features</tspan><tspan font-size="64" x="476.667" y="0">flags</tspan></text><path d="M2547.5 447.5 3301.5 447.5 3368.5 514.5 3301.5 581.5 2547.5 581.5 2614.5 514.5Z" stroke="#53CCFF" stroke-width="4.58333" stroke-miterlimit="8" fill="#0076A7" fill-rule="evenodd"/><text fill="#FEFEFE" font-family="Arial,Arial_MSFontService,sans-serif" font-weight="400" font-size="64" transform="matrix(1 0 0 1 2660.42 537)">Publish<tspan font-size="64" x="228.021" y="0">configuration</tspan></text><path d="M906.5 865.5 1697.5 865.5 1862.5 1030.5 1697.5 1195.5 906.5 1195.5 1071.5 1030.5Z" stroke="#0076A7" stroke-width="4.58333" stroke-miterlimit="8" fill="#009DDF" fill-rule="evenodd"/><text fill="#FEFEFE" font-family="Poppins,Poppins_MSFontService,sans-serif" font-weight="700" font-size="128" transform="matrix(1 0 0 1 1255.57 1000)">DEV</text><path d="M1101.5 1029.5 1250.5 1029.5 1317.5 1096.5 1250.5 1163.5 1101.5 1163.5Z" stroke="#53CCFF" stroke-width="4.58333" stroke-miterlimit="8" fill="#0076A7" fill-rule="evenodd"/><path d="M1268.5 1029.5 1461.5 1029.5 1528.5 1096.5 1461.5 1163.5 1268.5 1163.5 1335.5 1096.5Z" stroke="#53CCFF" stroke-width="4.58333" stroke-miterlimit="8" fill="#0076A7" fill-rule="evenodd"/><path d="M1482.5 1029.5 1675.5 1029.5 1742.5 1096.5 1675.5 1163.5 1482.5 1163.5 1549.5 1096.5Z" stroke="#53CCFF" stroke-width="4.58333" stroke-miterlimit="8" fill="#0076A7" fill-rule="evenodd"/><path d="M497.5 864.5 849.5 864.5 1014.5 1029.5 849.5 1194.5 497.5 1194.5Z" stroke="#6A9838" stroke-width="4.58333" stroke-miterlimit="8" fill="#92D050" fill-rule="evenodd"/><text fill="#FEFEFE" font-family="Poppins,Poppins_MSFontService,sans-serif" font-weight="700" font-size="128" transform="matrix(1 0 0 1 646.256 999)">CI</text><path d="M1738.5 864.5 2528.5 864.5 2693.5 1029.5 2528.5 1194.5 1738.5 1194.5 1903.5 1029.5Z" stroke="#0076A7" stroke-width="4.58333" stroke-miterlimit="8" fill="#009DDF" fill-rule="evenodd"/><text fill="#FEFEFE" font-family="Poppins,Poppins_MSFontService,sans-serif" font-weight="700" font-size="128" transform="matrix(1 0 0 1 2085.04 999)">UAT</text><path d="M1933.5 1028.5 2082.5 1028.5 2149.5 1095.5 2082.5 1162.5 1933.5 1162.5Z" stroke="#53CCFF" stroke-width="4.58333" stroke-miterlimit="8" fill="#0076A7" fill-rule="evenodd"/><path d="M2100.5 1028.5 2292.5 1028.5 2359.5 1095.5 2292.5 1162.5 2100.5 1162.5 2167.5 1095.5Z" stroke="#53CCFF" stroke-width="4.58333" stroke-miterlimit="8" fill="#0076A7" fill-rule="evenodd"/><path d="M2314.5 1028.5 2506.5 1028.5 2573.5 1095.5 2506.5 1162.5 2314.5 1162.5 2381.5 1095.5Z" stroke="#53CCFF" stroke-width="4.58333" stroke-miterlimit="8" fill="#0076A7" fill-rule="evenodd"/><path d="M2573.5 864.5 3329.5 864.5 3494.5 1029.5 3329.5 1194.5 2573.5 1194.5 2738.5 1029.5Z" stroke="#0076A7" stroke-width="4.58333" stroke-miterlimit="8" fill="#009DDF" fill-rule="evenodd"/><text fill="#FEFEFE" font-family="Poppins,Poppins_MSFontService,sans-serif" font-weight="700" font-size="128" transform="matrix(1 0 0 1 2854.6 999)">PROD</text><path d="M2761.5 1028.5 2910.5 1028.5 2977.5 1095.5 2910.5 1162.5 2761.5 1162.5Z" stroke="#53CCFF" stroke-width="4.58333" stroke-miterlimit="8" fill="#0076A7" fill-rule="evenodd"/><path d="M2927.5 1028.5 3120.5 1028.5 3187.5 1095.5 3120.5 1162.5 2927.5 1162.5 2994.5 1095.5Z" stroke="#53CCFF" stroke-width="4.58333" stroke-miterlimit="8" fill="#0076A7" fill-rule="evenodd"/><path d="M3142.5 1028.5 3334.5 1028.5 3401.5 1095.5 3334.5 1162.5 3142.5 1162.5 3209.5 1095.5Z" stroke="#53CCFF" stroke-width="4.58333" stroke-miterlimit="8" fill="#0076A7" fill-rule="evenodd"/></g></svg>