<svg width="4145" height="1602" xmlns="http://www.w3.org/2000/svg" xmlns:xlink="http://www.w3.org/1999/xlink" overflow="hidden"><defs><clipPath id="clip0"><rect x="131" y="574" width="4145" height="1602"/></clipPath></defs><g clip-path="url(#clip0)" transform="translate(-131 -574)"><path d="M814 1351.5C814 1167.31 1138.82 1018 1539.5 1018 1940.18 1018 2265 1167.31 2265 1351.5 2265 1535.69 1940.18 1685 1539.5 1685 1138.82 1685 814 1535.69 814 1351.5Z" fill="#0090CE" fill-rule="evenodd" fill-opacity="0.501961"/><text fill="#FEFEFE" font-family="Poppins,Poppins_MSFontService,sans-serif" font-weight="700" font-size="128" transform="matrix(1 0 0 1 1349.87 1316)">Lié au <tspan font-size="128" x="-232.329" y="154">déploiement</tspan><tspan fill="#3F3F3F" font-weight="400" font-size="110" x="-1053.33" y="-555">Clés d’accès interne</tspan><tspan fill="#3F3F3F" font-weight="400" font-size="110" x="-1152.4" y="-354">Endpoints</tspan><tspan fill="#3F3F3F" font-weight="400" font-size="110" x="-582.343" y="-354">internes</tspan><tspan fill="#3F3F3F" font-weight="400" font-size="110" x="-1086.31" y="397">Param. </tspan><tspan fill="#3F3F3F" font-weight="400" font-size="110" x="-666.933" y="397">Fonc</tspan><tspan fill="#3F3F3F" font-weight="400" font-size="110" x="-403.391" y="397">.</tspan><tspan fill="#3F3F3F" font-weight="400" font-size="110" x="-772.547" y="574">Param. Tech.</tspan><tspan fill="#3F3F3F" font-weight="400" font-size="110" x="1537.82" y="-608">Certificats</tspan><tspan fill="#3F3F3F" font-weight="400" font-size="110" x="1629.77" y="-359">Clés d’accès externes</tspan><tspan fill="#3F3F3F" font-weight="400" font-size="110" x="1823.62" y="460">Endpoints</tspan><tspan fill="#3F3F3F" font-weight="400" font-size="110" x="2393.67" y="460">externes</tspan><tspan fill="#3F3F3F" font-weight="400" font-size="110" x="1604.67" y="702">Feature</tspan><tspan fill="#3F3F3F" font-weight="400" font-size="110" x="2052.12" y="702">flags</tspan><tspan fill="#3F3F3F" font-weight="400" font-size="110" x="-507.338" y="762">Param. Perf.</tspan></text><path d="M1400 969.5C1400 785.313 1725.04 636 2126 636 2526.96 636 2852 785.313 2852 969.5 2852 1153.69 2526.96 1303 2126 1303 1725.04 1303 1400 1153.69 1400 969.5Z" fill="#0090CE" fill-rule="evenodd" fill-opacity="0.501961"/><text fill="#FEFEFE" font-family="Poppins,Poppins_MSFontService,sans-serif" font-weight="700" font-size="128" transform="matrix(1 0 0 1 1937.78 1011)">Dédié</text><path d="M1429 1758.5C1429 1574.31 1753.82 1425 2154.5 1425 2555.18 1425 2880 1574.31 2880 1758.5 2880 1942.69 2555.18 2092 2154.5 2092 1753.82 2092 1429 1942.69 1429 1758.5Z" fill="#BF0000" fill-rule="evenodd" fill-opacity="0.501961"/><text fill="#FEFEFE" font-family="Poppins,Poppins_MSFontService,sans-serif" font-weight="700" font-size="128" transform="matrix(1 0 0 1 1842.24 1800)">Commun</text><path d="M1987 1351.5C1987 1167.31 2311.82 1018 2712.5 1018 3113.18 1018 3438 1167.31 3438 1351.5 3438 1535.69 3113.18 1685 2712.5 1685 2311.82 1685 1987 1535.69 1987 1351.5Z" fill="#BF0000" fill-rule="evenodd" fill-opacity="0.501961"/><text fill="#FEFEFE" font-family="Poppins,Poppins_MSFontService,sans-serif" font-weight="700" font-size="128" transform="matrix(1 0 0 1 2389.36 1316)">Non lié au <tspan font-size="128" x="-98.2666" y="154">déploiement</tspan></text></g></svg>