<?xml version="1.0" encoding="UTF-8" standalone="no"?>
<!DOCTYPE svg PUBLIC "-//W3C//DTD SVG 1.1//EN" "http://www.w3.org/Graphics/SVG/1.1/DTD/svg11.dtd">
<!-- Généré par Microsoft Visio, SVG Export UmlDiagram.before.svg Page 1 -->
<svg xmlns="http://www.w3.org/2000/svg" xmlns:xlink="http://www.w3.org/1999/xlink" xmlns:ev="http://www.w3.org/2001/xml-events"
		xmlns:v="http://schemas.microsoft.com/visio/2003/SVGExtensions/" width="5.22093in" height="4.24883in"
		viewBox="0 0 375.907 305.916" xml:space="preserve" color-interpolation-filters="sRGB" class="st15">
	<v:documentProperties v:langID="1036" v:metric="true" v:viewMarkup="false"/>

	<style type="text/css">
	<![CDATA[
		.st1 {stroke:#b8b8b8;stroke-dasharray:4.5,9;stroke-linecap:round;stroke-linejoin:round;stroke-width:4.5}
		.st2 {fill:#3999c6;stroke:none;stroke-linecap:butt;stroke-width:9.5625}
		.st3 {fill:#fcd116;stroke:none;stroke-linecap:butt;stroke-width:9.5625}
		.st4 {fill:#ff8c00;fill-opacity:0.3;stroke:none;stroke-linecap:butt;stroke-width:9.5625}
		.st5 {fill:#59b4d9;stroke:none;stroke-linecap:butt;stroke-width:25.5202}
		.st6 {fill:#ffffff;fill-opacity:0.5;stroke:none;stroke-linecap:butt;stroke-width:25.5202}
		.st7 {fill:#b8d432;stroke:none;stroke-linecap:butt;stroke-width:25.5202}
		.st8 {fill:#000000;stroke:none;stroke-linecap:butt;stroke-width:25.5202}
		.st9 {fill:#eaeaea;stroke:#b8b8b8;stroke-linecap:round;stroke-linejoin:round;stroke-width:0.5}
		.st10 {marker-start:url(#mrkr1-35);stroke:#b8b8b8;stroke-linecap:round;stroke-linejoin:round;stroke-width:4.5}
		.st11 {fill:#b8b8b8;fill-opacity:1;stroke:#b8b8b8;stroke-opacity:1;stroke-width:0.64102564102564}
		.st12 {marker-start:url(#mrkr1-35);stroke:#b8b8b8;stroke-dasharray:4.5,9;stroke-linecap:round;stroke-linejoin:round;stroke-width:4.5}
		.st13 {fill:none;stroke:none;stroke-linecap:round;stroke-linejoin:round;stroke-width:0.5}
		.st14 {fill:#595959;font-family:Arial;font-size:1.00001em}
		.st15 {fill:none;fill-rule:evenodd;font-size:12px;overflow:visible;stroke-linecap:square;stroke-miterlimit:3}
	]]>
	</style>

	<defs id="Markers">
		<g id="lend1">
			<path d="M 1 -1 L 0 0 L 1 1 " style="stroke-linecap:round;stroke-linejoin:round;fill:none"/>
		</g>
		<marker id="mrkr1-35" class="st11" v:arrowType="1" v:arrowSize="2" orient="auto" markerUnits="strokeWidth"
				overflow="visible">
			<use xlink:href="#lend1" transform="scale(1.56) "/>
		</marker>
	</defs>
	<g v:mID="0" v:index="1" v:groupContext="foregroundPage">
		<title>Page 1</title>
		<v:pageProperties v:drawingScale="0.0393701" v:pageScale="0.0393701" v:drawingUnits="24" v:shadowOffsetX="8.50394"
				v:shadowOffsetY="-8.50394"/>
		<v:layer v:name="Lien" v:index="0"/>
		<g id="shape103-1" v:mID="103" v:groupContext="shape" v:layerMember="0" transform="translate(315.784,-19.9823)">
			<title>Lien dynamique.189</title>
			<path d="M7.09 305.92 L7.09 109.32" class="st1"/>
		</g>
		<g id="group106-4" transform="translate(11.4683,-215.51)" v:mID="106" v:groupContext="group">
			<title>Azure Functions</title>
			<g id="shape107-5" v:mID="107" v:groupContext="shape" transform="translate(48.1693,-12.6472)">
				<title>Feuille.107</title>
				<path d="M22 286.56 C22.65 285.9 22.54 284.69 22 284.03 L18.59 280.62 L3.41 265.88 C2.75 265.22 1.76 265.22 0.99
							 265.88 C0.33 266.54 0.11 267.75 0.99 268.41 L16.94 284.03 C17.6 284.69 17.6 285.9 16.94 286.56 L0.66
							 302.73 C0 303.39 0 304.6 0.66 305.26 C1.32 305.92 2.53 305.81 3.08 305.26 L18.15 290.3 C18.15 290.3
							 18.15 290.3 18.26 290.19 L22 286.56 Z" class="st2"/>
			</g>
			<g id="shape108-7" v:mID="108" v:groupContext="shape" transform="translate(0,-12.6472)">
				<title>Feuille.108</title>
				<path d="M0.66 286.56 C0 285.9 0.11 284.69 0.66 284.03 L4.07 280.62 L19.25 265.88 C19.91 265.22 20.9 265.22 21.67
							 265.88 C22.33 266.54 22.54 267.75 21.67 268.41 L6.05 284.03 C5.39 284.69 5.39 285.9 6.05 286.56 L22
							 302.73 C22.65 303.39 22.65 304.6 22 305.26 C21.34 305.92 20.13 305.81 19.58 305.26 L4.18 290.52 C4.18
							 290.52 4.18 290.52 4.07 290.41 L0.66 286.56 Z" class="st2"/>
			</g>
			<g id="shape109-9" v:mID="109" v:groupContext="shape" transform="translate(19.5756,0)">
				<title>Feuille.109</title>
				<path d="M32.99 241.03 L11.55 241.03 L0 273.58 L14.08 273.69 L3.08 305.92 L33.43 262.92 L18.7 262.92 L32.99 241.03
							 Z" class="st3"/>
			</g>
			<g id="shape110-11" v:mID="110" v:groupContext="shape" transform="translate(22.655,0)">
				<title>Feuille.110</title>
				<path d="M15.62 262.92 L29.91 241.03 L18.7 241.03 L6.82 268.08 L20.9 268.19 L0 305.92 L30.35 262.92 L15.62 262.92
							 Z" class="st4"/>
			</g>
		</g>
		<g id="group115-13" transform="translate(280.76,-217.568)" v:mID="115" v:groupContext="group">
			<title>Feuille.115</title>
			<g id="group116-14" v:mID="116" v:groupContext="group">
				<title> Cosmos_DB_2</title>
				<g id="shape117-15" v:mID="117" v:groupContext="shape" transform="translate(23.7364,-9.73199)">
					<title>Feuille.117</title>
					<path d="M33.95 280.81 A22.7894 22.7894 0 1 1 6.82 264.24 A22.7037 22.7037 0 0 1 33.95 280.81 Z" class="st5"/>
				</g>
				<g id="shape118-17" v:mID="118" v:groupContext="shape" transform="translate(13.7079,-9.70977)">
					<title>Feuille.118</title>
					<path d="M18.85 295.35 A6.03148 6.03148 -180 0 0 12.85 289.35 L11.71 289.35 A5.75447 5.75447 -180 0 0 7.43 282.21
								 L0 282.21 A22.2754 22.2754 -180 0 0 5.43 301.63 L12.85 301.63 A6.28279 6.28279 -180 0 0 18.85 295.35
								 ZM26.27 270.5 L26.27 271.65 L23.7 271.65 A6.28279 6.28279 -180 0 0 23.7 284.21 L44.55 284.21 A21.7727
								 21.7727 -180 0 0 32.84 266.51 L30.27 266.51 A3.9039 3.9039 -180 0 0 26.27 270.5 ZM44.55 288.5 L32.27
								 288.5 A5.12048 5.12048 -180 0 0 27.13 293.64 A8.33898 8.33898 -180 0 0 27.7 296.21 A5.17474 5.17474
								 -180 0 0 24.27 302.49 A4.65783 4.65783 -180 0 0 29.13 305.92 L32.56 305.92 A22.6952 22.6952 -180
								 0 0 44.55 288.5 Z" class="st6"/>
				</g>
				<g id="shape119-19" v:mID="119" v:groupContext="shape" transform="translate(1.14233,-44.5507)">
					<title>Feuille.119</title>
					<path d="M9.14 305.92 a0.614 0.614 0 0 1 -0.571163 -0.571163 A7.99628 7.99628 -180 0 0 0.57 297.35 C0.29 297.63
								 0 297.06 0 296.78 a0.614 0.614 0 0 1 0.571163 -0.571163 A7.99628 7.99628 -180 0 0 8.57 288.21 C8.57
								 287.64 8.85 287.64 9.14 287.64 C9.42 287.64 10 287.64 10 288.21 A7.99628 7.99628 -180 0 0 17.99
								 296.21 a0.571163 0.571163 0 0 1 0 1.14233 A7.99628 7.99628 -180 0 0 10 305.34 C10 305.63 9.71 305.92
								 9.14 305.92 Z" class="st7"/>
				</g>
				<g id="shape120-21" v:mID="120" v:groupContext="shape" transform="translate(53.6893,-1.13687E-13)">
					<title>Feuille.120</title>
					<path d="M5.43 305.92 C5.14 305.92 5.14 305.92 5.14 305.63 A4.75779 4.75779 -180 0 0 0.29 301.06 C0 301.06 0
								 301.06 0 300.78 C0 300.49 0 300.49 0.29 300.49 A4.95484 4.95484 -180 0 0 5.14 295.92 C5.14 295.63
								 5.14 295.63 5.43 295.63 C5.71 295.63 5.71 295.63 5.71 295.92 A4.75779 4.75779 -180 0 0 10.57 300.49
								 C10.85 300.49 10.85 300.49 10.85 300.78 C10.85 301.06 10.85 301.06 10.57 301.06 A4.95484 4.95484
								 -180 0 0 5.71 305.63 C6 305.92 5.71 305.92 5.43 305.92 Z" class="st5"/>
				</g>
				<g id="shape121-23" v:mID="121" v:groupContext="shape" transform="translate(0,-5.99721)">
					<title>Feuille.121</title>
					<path d="M68.83 262.22 C66.54 258.79 61.4 257.94 53.12 259.94 A56.4081 56.4081 -180 0 0 45.69 262.22 A22.381
								 22.381 0 0 1 49.98 265.08 C51.4 264.79 52.83 264.22 53.97 263.94 A25.9279 25.9279 0 0 1 60.54 263.08
								 C63.11 263.08 64.54 263.65 65.11 264.51 C65.97 265.93 65.11 269.36 60.54 274.79 A26.9246 26.9246
								 0 0 1 57.69 277.64 A97.3205 97.3205 0 0 1 40.55 290.78 A79.6772 79.6772 0 0 1 21.13 299.63 C12.85
								 302.2 7.14 302.2 6 300.2 C4.85 298.21 7.14 293.06 13.42 287.07 A31.4682 31.4682 0 0 1 12.85 281.93
								 C3.14 290.78 0 298.49 2.28 302.49 A10.0239 10.0239 -180 0 0 10.85 305.92 A42.9714 42.9714 -180 0
								 0 25.42 302.77 A96.0268 96.0268 -180 0 0 42.55 294.21 A119.57 119.57 -180 0 0 57.97 282.78 A48.6745
								 48.6745 -180 0 0 63.4 277.36 C69.11 270.79 70.82 265.65 68.83 262.22 Z" class="st8"/>
				</g>
			</g>
		</g>
		<g id="shape122-25" v:mID="122" v:groupContext="shape" v:layerMember="0" transform="translate(53.967,-16.7355)">
			<title>Lien dynamique.122</title>
			<path d="M-7.09 305.92 L-7.09 105.2" class="st1"/>
		</g>
		<g id="shape123-28" v:mID="123" v:groupContext="shape" transform="translate(37.2426,-37.6022)">
			<title>Feuille.123</title>
			<rect x="0" y="139.806" width="19.2756" height="166.11" class="st9"/>
		</g>
		<g id="shape124-30" v:mID="124" v:groupContext="shape" v:layerMember="0" transform="translate(305.167,-192.09)">
			<title>Lien dynamique.124</title>
			<path d="M0 298.83 L-241.82 298.83" class="st10"/>
		</g>
		<g id="shape125-36" v:mID="125" v:groupContext="shape" transform="translate(313.621,-162.327)">
			<title>Feuille.125</title>
			<rect x="0" y="269.065" width="19.2756" height="36.8504" class="st9"/>
		</g>
		<g id="shape126-38" v:mID="126" v:groupContext="shape" v:layerMember="0" transform="translate(61.6915,-155.24)">
			<title>Lien dynamique.126</title>
			<path d="M0 298.83 L246.26 298.83" class="st12"/>
		</g>
		<g id="shape127-43" v:mID="127" v:groupContext="shape" v:layerMember="0" transform="translate(304.833,-78.7045)">
			<title>Lien dynamique.127</title>
			<path d="M0 298.83 L-241.82 298.83" class="st10"/>
		</g>
		<g id="shape128-48" v:mID="128" v:groupContext="shape" transform="translate(313.621,-48.9408)">
			<title>Feuille.128</title>
			<rect x="0" y="269.065" width="19.2756" height="36.8504" class="st9"/>
		</g>
		<g id="shape129-50" v:mID="129" v:groupContext="shape" transform="translate(47.4474,-102.799)">
			<title>Feuille.129</title>
			<rect x="0" y="269.065" width="19.2756" height="36.8504" class="st9"/>
		</g>
		<g id="shape130-52" v:mID="130" v:groupContext="shape" transform="translate(109.484,-199.368)">
			<title>Feuille.130</title>
			<desc>Fetch Data</desc>
			<v:textBlock v:margins="rect(4,4,4,4)" v:tabSpace="42.5197"/>
			<v:textRect cx="76" cy="295.916" width="152" height="20"/>
			<rect x="0" y="285.916" width="152" height="20" class="st13"/>
			<text x="46.65" y="299.52" class="st14" v:langID="1036"><v:paragraph v:horizAlign="1"/><v:tabList/>Fetch Data</text>		</g>
		<g id="shape131-55" v:mID="131" v:groupContext="shape" transform="translate(104.109,-162.327)">
			<title>Feuille.131</title>
			<desc>data</desc>
			<v:textBlock v:margins="rect(4,4,4,4)" v:tabSpace="42.5197"/>
			<v:textRect cx="76" cy="295.916" width="152" height="20"/>
			<rect x="0" y="285.916" width="152" height="20" class="st13"/>
			<text x="64.32" y="299.52" class="st14" v:langID="1036"><v:paragraph v:horizAlign="1"/><v:tabList/>data</text>		</g>
		<g id="shape132-58" v:mID="132" v:groupContext="shape" transform="translate(68.1404,-111.224)">
			<title>Feuille.132</title>
			<desc>Merge data</desc>
			<v:textBlock v:margins="rect(4,4,4,4)" v:tabSpace="42.5197"/>
			<v:textRect cx="76" cy="295.916" width="152" height="20"/>
			<rect x="0" y="285.916" width="152" height="20" class="st13"/>
			<text x="4" y="299.52" class="st14" v:langID="1036"><v:paragraph/><v:tabList/>Merge data</text>		</g>
		<g id="shape133-61" v:mID="133" v:groupContext="shape" transform="translate(107.479,-85.6337)">
			<title>Feuille.133</title>
			<desc>Upsert data</desc>
			<v:textBlock v:margins="rect(4,4,4,4)" v:tabSpace="42.5197"/>
			<v:textRect cx="76" cy="295.916" width="152" height="20"/>
			<rect x="0" y="285.916" width="152" height="20" class="st13"/>
			<text x="44.98" y="299.52" class="st14" v:langID="1036"><v:paragraph v:horizAlign="1"/><v:tabList/>Upsert data</text>		</g>
		<g id="shape134-64" v:mID="134" v:groupContext="shape" v:layerMember="0" transform="translate(61.0538,-43.2715)">
			<title>Lien dynamique.134</title>
			<path d="M0 298.83 L246.26 298.83" class="st12"/>
		</g>
	</g>
</svg>
