<svg width="3862" height="1893" xmlns="http://www.w3.org/2000/svg" xmlns:xlink="http://www.w3.org/1999/xlink" overflow="hidden"><defs><clipPath id="clip0"><rect x="122" y="502" width="3862" height="1893"/></clipPath></defs><g clip-path="url(#clip0)" transform="translate(-122 -502)"><path d="M2781.94 1093.5 2781.94 1121 2775.06 1121 2775.06 1093.5ZM2781.94 1141.62 2781.94 1169.12 2775.06 1169.12 2775.06 1141.62ZM2781.94 1189.75 2781.94 1217.25 2775.06 1217.25 2775.06 1189.75ZM2781.94 1237.88 2781.94 1265.38 2775.06 1265.38 2775.06 1237.88ZM2781.94 1286 2781.94 1313.5 2775.06 1313.5 2775.06 1286ZM2781.94 1334.12 2781.94 1361.62 2775.06 1361.62 2775.06 1334.12ZM2781.94 1382.25 2781.94 1409.75 2775.06 1409.75 2775.06 1382.25ZM2781.94 1430.38 2781.94 1457.88 2775.06 1457.88 2775.06 1430.38ZM2781.94 1478.5 2781.94 1506 2775.06 1506 2775.06 1478.5ZM2781.94 1526.62 2781.94 1554.12 2775.06 1554.12 2775.06 1526.62ZM2781.94 1574.75 2781.94 1602.25 2775.06 1602.25 2775.06 1574.75ZM2781.94 1622.88 2781.94 1650.38 2775.06 1650.38 2775.06 1622.88ZM2781.94 1671 2781.94 1698.5 2775.06 1698.5 2775.06 1671ZM2781.94 1719.12 2781.94 1746.62 2775.06 1746.62 2775.06 1719.12ZM2781.94 1767.25 2781.94 1794.75 2775.06 1794.75 2775.06 1767.25ZM2792.25 1792.54 2778.5 1820.04 2764.75 1792.54Z" fill="#6C75B7"/><path d="M3119.94 1093.5 3119.94 1121 3113.06 1121 3113.06 1093.5ZM3119.94 1141.62 3119.94 1169.12 3113.06 1169.12 3113.06 1141.62ZM3119.94 1189.75 3119.94 1217.25 3113.06 1217.25 3113.06 1189.75ZM3119.94 1237.88 3119.94 1265.38 3113.06 1265.38 3113.06 1237.88ZM3119.94 1286 3119.94 1313.5 3113.06 1313.5 3113.06 1286ZM3119.94 1334.12 3119.94 1361.62 3113.06 1361.62 3113.06 1334.12ZM3119.94 1382.25 3119.94 1409.75 3113.06 1409.75 3113.06 1382.25ZM3119.94 1430.38 3119.94 1457.88 3113.06 1457.88 3113.06 1430.38ZM3119.94 1478.5 3119.94 1506 3113.06 1506 3113.06 1478.5ZM3119.94 1526.62 3119.94 1554.12 3113.06 1554.12 3113.06 1526.62ZM3119.94 1574.75 3119.94 1602.25 3113.06 1602.25 3113.06 1574.75ZM3119.94 1622.88 3119.94 1650.38 3113.06 1650.38 3113.06 1622.88ZM3119.94 1671 3119.94 1698.5 3113.06 1698.5 3113.06 1671ZM3119.94 1719.12 3119.94 1746.62 3113.06 1746.62 3113.06 1719.12ZM3119.94 1767.25 3119.94 1794.75 3113.06 1794.75 3113.06 1767.25ZM3130.25 1792.54 3116.5 1820.04 3102.75 1792.54Z" fill="#6C75B7"/><path d="M2742 1767 2740.97 1768.66 2739.83 1770.4 2738.69 1772.24 2737.45 1774.16 2736.09 1776.22 2734.69 1778.35 2733.18 1780.59 2731.57 1783.05 2729.84 1785.58 2728 1788.25 2726.06 1791.04 2724.04 1794.04 2721.83 1797.14 2719.56 1800.47 2718.75 1801.7 2718.16 1803 2706 1791.07 2706.07 1791 2706.29 1790.75 2706.66 1790.31 2707.1 1789.73 2707.73 1789.01 2708.42 1788.25 2709.27 1787.28 2710.22 1786.27 2711.29 1785.18 2712.39 1784.02 2713.64 1782.83 2714.96 1781.57 2716.4 1780.3 2717.9 1779 2719.44 1777.7 2721.06 1776.43 2722.79 1775.17 2724.51 1773.94 2726.35 1772.78 2728.15 1771.7 2730.06 1770.69 2731.97 1769.75 2733.96 1768.95 2735.94 1768.26 2737.96 1767.69 2739.98 1767.25 2742 1767Z" fill="#6C75B7" fill-rule="evenodd"/><path d="M2804 1828 2803.7 1830.02 2803.26 1832.08 2802.7 1834.07 2801.96 1836.09 2801.11 1838.04 2800.18 1839.99 2799.14 1841.86 2798.03 1843.7 2796.81 1845.54 2795.55 1847.27 2794.29 1848.96 2792.95 1850.58 2791.65 1852.16 2790.32 1853.67 2789.02 1855.06 2787.72 1856.35 2786.46 1857.6 2785.31 1858.78 2784.17 1859.84 2783.09 1860.76 2782.16 1861.61 2781.31 1862.31 2780.61 1862.9 2780.01 1863.38 2779.6 1863.74 2779.35 1863.96 2779.23 1864 2767 1851.87 2768.3 1851.28 2769.59 1850.5 2772.97 1848.19 2776.19 1846.02 2779.23 1843.92 2782.16 1842.01 2784.91 1840.21 2787.5 1838.48 2789.95 1836.86 2792.28 1835.35 2794.55 1833.96 2796.62 1832.6 2798.62 1831.38 2800.48 1830.17 2802.29 1829.07 2804 1828Z" fill="#6C75B7" fill-rule="evenodd"/><path d="M2724.04 1820 2725.35 1821.31 2724.26 1823.79 2723.24 1826.3 2722.26 1829.04 2721.39 1831.81 2720.66 1834.61 2719.64 1839.02 2718.84 1843.47 2718.19 1847.95 2717.75 1852.43 2717.64 1853.34 2721.39 1853.01 2725.14 1852.54 2729.54 1851.85 2733.87 1850.94 2738.19 1849.88 2742.45 1848.57 2744.56 1847.8 2746.63 1846.96 2748.67 1846.13 2749.65 1845.65 2751 1846.96 2749.44 1849.04 2747.73 1851.01 2745.83 1852.83 2743.87 1854.51 2741.76 1856.04 2739.54 1857.42 2737.21 1858.7 2734.88 1859.86 2732.48 1860.92 2730.05 1861.79 2727.61 1862.59 2723.86 1863.58 2720.04 1864.34 2716.19 1864.78 2712.33 1865 2711.49 1865 2710.66 1864.93 2709.86 1864.74 2708.91 1864.34 2708.07 1863.76 2707.31 1863.07 2706.76 1862.23 2706.29 1861.32 2706.04 1860.3 2706 1859.1 2706 1857.93 2706.22 1854.51 2706.65 1851.15 2707.27 1847.77 2708.07 1844.45 2709.09 1841.21 2710.18 1838.26 2711.46 1835.34 2712.91 1832.57 2714.55 1829.84 2716.37 1827.29 2718.04 1825.25 2719.9 1823.35 2721.93 1821.6 2724.04 1820Z" fill="#6C75B7" fill-rule="evenodd"/><path d="M2800.78 1753.37 2798.93 1753.48 2797.12 1753.78 2795.3 1754.26 2793.57 1755 2791.94 1755.89 2790.35 1757 2788.87 1758.3 2787.57 1759.78 2786.47 1761.33 2785.58 1763 2784.87 1764.74 2784.36 1766.52 2784.06 1768.37 2783.95 1770.19 2784.06 1772.07 2784.36 1773.85 2784.87 1775.63 2785.58 1777.41 2786.47 1779.07 2787.57 1780.67 2788.87 1782.15 2790.35 1783.44 2791.94 1784.56 2793.57 1785.44 2795.3 1786.15 2797.12 1786.63 2798.93 1786.96 2800.78 1787.04 2802.66 1786.96 2804.44 1786.63 2806.29 1786.15 2807.95 1785.44 2809.65 1784.56 2811.24 1783.44 2812.72 1782.15 2814.02 1780.67 2815.13 1779.07 2816.01 1777.41 2816.72 1775.63 2817.24 1773.85 2817.53 1772.07 2817.64 1770.19 2817.53 1768.37 2817.24 1766.52 2816.72 1764.74 2816.01 1763 2815.13 1761.33 2814.02 1759.78 2812.72 1758.3 2811.24 1757 2809.65 1755.89 2807.95 1755 2806.29 1754.26 2804.44 1753.78 2802.66 1753.48 2800.78 1753.37ZM2846.86 1719 2846.97 1719 2847.93 1719.07 2848.89 1719.37 2849.78 1719.85 2850.52 1720.48 2851.15 1721.22 2851.63 1722.19 2851.93 1723.11 2852 1724.15 2851.96 1726.19 2851.85 1728.48 2851.74 1730.96 2851.59 1733.63 2851.37 1736.44 2851.11 1739.44 2850.74 1742.52 2850.34 1745.74 2849.89 1749.04 2849.34 1752.44 2848.71 1755.93 2847.93 1759.41 2847.12 1762.96 2846.19 1766.52 2845.12 1770.11 2843.97 1773.63 2842.72 1777.11 2841.27 1780.59 2839.72 1784 2838.02 1787.33 2836.17 1790.56 2834.21 1793.63 2832.07 1796.56 2829.74 1799.44 2827.29 1802.07 2825.26 1804.04 2823.34 1805.89 2821.56 1807.52 2819.86 1809.04 2818.16 1810.44 2816.5 1811.74 2814.87 1813 2813.2 1814.22 2811.5 1815.41 2809.73 1816.59 2807.84 1817.81 2805.88 1819.07 2803.74 1820.41 2801.44 1821.85 2799.82 1822.85 2798.08 1823.93 2796.3 1825.11 2794.38 1826.3 2792.38 1827.56 2790.24 1828.96 2787.94 1830.37 2785.58 1831.93 2783.06 1833.59 2780.4 1835.37 2777.59 1837.26 2774.59 1839.26 2771.45 1841.37 2768.12 1843.67 2764.64 1846.07 2763.72 1846.59 2762.76 1846.89 2761.76 1847 2760.76 1846.93 2759.84 1846.59 2758.99 1846.15 2758.17 1845.48 2725.48 1812.85 2724.85 1812.04 2724.37 1811.15 2724.11 1810.22 2724 1809.22 2724.11 1808.19 2724.41 1807.26 2724.92 1806.37 2727.33 1802.89 2729.62 1799.56 2731.77 1796.41 2733.76 1793.44 2735.65 1790.63 2737.39 1787.93 2739.05 1785.44 2740.61 1783.04 2742.08 1780.78 2743.42 1778.63 2744.71 1776.63 2745.93 1774.7 2747.08 1772.93 2748.15 1771.19 2749.19 1769.56 2750.55 1767.26 2751.92 1765.15 2753.22 1763.19 2754.4 1761.3 2755.62 1759.52 2756.77 1757.81 2757.99 1756.11 2759.25 1754.44 2760.58 1752.85 2761.98 1751.15 2763.5 1749.44 2765.13 1747.63 2766.94 1745.74 2768.93 1743.7 2771.6 1741.26 2774.41 1738.93 2777.33 1736.78 2780.47 1734.81 2783.65 1733 2787.02 1731.3 2790.35 1729.74 2793.86 1728.33 2797.34 1727.04 2800.93 1725.89 2804.44 1724.81 2808.03 1723.85 2811.54 1723.07 2815.09 1722.3 2818.53 1721.67 2821.93 1721.11 2825.22 1720.67 2828.44 1720.26 2831.58 1719.89 2834.51 1719.63 2837.35 1719.41 2840.02 1719.22 2842.5 1719.11 2844.75 1719.04 2846.86 1719Z" fill="#6C75B7" fill-rule="evenodd"/><text fill="#6C75B7" font-family="Arial,Arial_MSFontService,sans-serif" font-weight="700" font-size="64" transform="matrix(1 0 0 1 2711.24 1960)">DEV</text><path d="M3081 1769 3079.97 1770.66 3078.83 1772.4 3077.69 1774.24 3076.45 1776.16 3075.09 1778.22 3073.69 1780.35 3072.18 1782.59 3070.57 1785.05 3068.84 1787.58 3067 1790.25 3065.06 1793.04 3063.04 1796.04 3060.83 1799.14 3058.56 1802.47 3057.75 1803.7 3057.16 1805 3045 1793.07 3045.07 1793 3045.29 1792.75 3045.66 1792.31 3046.1 1791.73 3046.73 1791.01 3047.42 1790.25 3048.27 1789.28 3049.22 1788.27 3050.29 1787.18 3051.39 1786.02 3052.64 1784.83 3053.96 1783.57 3055.4 1782.3 3056.9 1781 3058.44 1779.7 3060.06 1778.43 3061.79 1777.17 3063.51 1775.94 3065.35 1774.78 3067.15 1773.7 3069.06 1772.69 3070.97 1771.75 3072.96 1770.95 3074.94 1770.26 3076.96 1769.69 3078.98 1769.25 3081 1769Z" fill="#6C75B7" fill-rule="evenodd"/><path d="M3143 1830 3142.7 1832.08 3142.26 1834.2 3141.7 1836.24 3140.96 1838.31 3140.11 1840.32 3139.18 1842.32 3138.14 1844.25 3137.03 1846.14 3135.81 1848.03 3134.55 1849.8 3133.29 1851.54 3131.95 1853.21 3130.65 1854.83 3129.32 1856.38 3128.02 1857.82 3126.72 1859.14 3125.46 1860.42 3124.31 1861.63 3123.17 1862.73 3122.09 1863.67 3121.16 1864.54 3120.31 1865.26 3119.61 1865.87 3119.01 1866.36 3118.61 1866.74 3118.35 1866.96 3118.23 1867 3106 1854.53 3107.3 1853.92 3108.6 1853.13 3111.97 1850.75 3115.19 1848.52 3118.23 1846.36 3121.16 1844.4 3123.91 1842.55 3126.5 1840.77 3128.95 1839.11 3131.28 1837.56 3133.55 1836.12 3135.62 1834.72 3137.62 1833.48 3139.48 1832.23 3141.29 1831.1 3143 1830Z" fill="#6C75B7" fill-rule="evenodd"/><path d="M3063.04 1822 3064.35 1823.31 3063.26 1825.79 3062.24 1828.3 3061.26 1831.04 3060.39 1833.81 3059.66 1836.61 3058.64 1841.02 3057.84 1845.47 3057.19 1849.95 3056.75 1854.43 3056.64 1855.34 3060.39 1855.01 3064.14 1854.54 3068.54 1853.85 3072.87 1852.94 3077.19 1851.88 3081.45 1850.57 3083.56 1849.8 3085.63 1848.96 3087.67 1848.13 3088.65 1847.65 3090 1848.96 3088.44 1851.04 3086.73 1853.01 3084.83 1854.83 3082.87 1856.51 3080.76 1858.04 3078.54 1859.42 3076.21 1860.7 3073.88 1861.86 3071.48 1862.92 3069.05 1863.79 3066.61 1864.6 3062.86 1865.58 3059.04 1866.34 3055.19 1866.78 3051.33 1867 3050.49 1867 3049.66 1866.93 3048.86 1866.74 3047.91 1866.34 3047.07 1865.76 3046.31 1865.07 3045.76 1864.23 3045.29 1863.32 3045.04 1862.3 3045 1861.1 3045 1859.93 3045.22 1856.51 3045.65 1853.15 3046.27 1849.77 3047.07 1846.45 3048.09 1843.21 3049.18 1840.26 3050.46 1837.34 3051.91 1834.57 3053.55 1831.84 3055.37 1829.29 3057.04 1827.25 3058.9 1825.35 3060.93 1823.6 3063.04 1822Z" fill="#6C75B7" fill-rule="evenodd"/><path d="M3139.78 1755.37 3137.93 1755.48 3136.12 1755.78 3134.3 1756.26 3132.57 1757 3130.94 1757.89 3129.35 1759 3127.87 1760.3 3126.57 1761.78 3125.47 1763.33 3124.58 1765 3123.88 1766.74 3123.36 1768.52 3123.06 1770.37 3122.95 1772.19 3123.06 1774.07 3123.36 1775.85 3123.88 1777.63 3124.58 1779.41 3125.47 1781.07 3126.57 1782.67 3127.87 1784.15 3129.35 1785.44 3130.94 1786.56 3132.57 1787.44 3134.3 1788.15 3136.12 1788.63 3137.93 1788.96 3139.78 1789.04 3141.66 1788.96 3143.44 1788.63 3145.29 1788.15 3146.95 1787.44 3148.65 1786.56 3150.24 1785.44 3151.72 1784.15 3153.02 1782.67 3154.13 1781.07 3155.02 1779.41 3155.72 1777.63 3156.24 1775.85 3156.53 1774.07 3156.64 1772.19 3156.53 1770.37 3156.24 1768.52 3155.72 1766.74 3155.02 1765 3154.13 1763.33 3153.02 1761.78 3151.72 1760.3 3150.24 1759 3148.65 1757.89 3146.95 1757 3145.29 1756.26 3143.44 1755.78 3141.66 1755.48 3139.78 1755.37ZM3185.86 1721 3185.97 1721 3186.93 1721.07 3187.89 1721.37 3188.78 1721.85 3189.52 1722.48 3190.15 1723.22 3190.63 1724.19 3190.93 1725.11 3191 1726.15 3190.96 1728.19 3190.85 1730.48 3190.74 1732.96 3190.59 1735.63 3190.37 1738.44 3190.11 1741.44 3189.74 1744.52 3189.34 1747.74 3188.89 1751.04 3188.34 1754.44 3187.71 1757.93 3186.93 1761.41 3186.12 1764.96 3185.19 1768.52 3184.12 1772.11 3182.97 1775.63 3181.72 1779.11 3180.27 1782.59 3178.72 1786 3177.02 1789.33 3175.17 1792.56 3173.21 1795.63 3171.07 1798.56 3168.74 1801.44 3166.3 1804.07 3164.26 1806.04 3162.34 1807.89 3160.56 1809.52 3158.86 1811.04 3157.16 1812.44 3155.5 1813.74 3153.87 1815 3152.2 1816.22 3150.5 1817.41 3148.73 1818.59 3146.84 1819.81 3144.88 1821.07 3142.74 1822.41 3140.44 1823.85 3138.82 1824.85 3137.08 1825.93 3135.3 1827.11 3133.38 1828.3 3131.38 1829.56 3129.24 1830.96 3126.94 1832.37 3124.58 1833.93 3122.06 1835.59 3119.4 1837.37 3116.59 1839.26 3113.59 1841.26 3110.45 1843.37 3107.12 1845.67 3103.65 1848.07 3102.72 1848.59 3101.76 1848.89 3100.76 1849 3099.76 1848.93 3098.84 1848.59 3097.99 1848.15 3097.17 1847.48 3064.48 1814.85 3063.85 1814.04 3063.37 1813.15 3063.11 1812.22 3063 1811.22 3063.11 1810.19 3063.41 1809.26 3063.92 1808.37 3066.33 1804.89 3068.62 1801.56 3070.77 1798.41 3072.76 1795.44 3074.65 1792.63 3076.39 1789.93 3078.05 1787.44 3079.61 1785.04 3081.09 1782.78 3082.42 1780.63 3083.71 1778.63 3084.93 1776.7 3086.08 1774.93 3087.15 1773.19 3088.19 1771.56 3089.55 1769.26 3090.92 1767.15 3092.22 1765.19 3093.4 1763.3 3094.62 1761.52 3095.77 1759.81 3096.99 1758.11 3098.25 1756.44 3099.58 1754.85 3100.98 1753.15 3102.5 1751.44 3104.13 1749.63 3105.94 1747.74 3107.94 1745.7 3110.6 1743.26 3113.41 1740.93 3116.33 1738.78 3119.47 1736.81 3122.65 1735 3126.02 1733.3 3129.35 1731.74 3132.86 1730.33 3136.34 1729.04 3139.93 1727.89 3143.44 1726.81 3147.03 1725.85 3150.54 1725.07 3154.09 1724.3 3157.53 1723.67 3160.93 1723.11 3164.22 1722.67 3167.44 1722.26 3170.59 1721.89 3173.51 1721.63 3176.35 1721.41 3179.02 1721.22 3181.5 1721.11 3183.75 1721.04 3185.86 1721Z" fill="#6C75B7" fill-rule="evenodd"/><text fill="#6C75B7" font-family="Arial,Arial_MSFontService,sans-serif" font-weight="700" font-size="64" transform="matrix(1 0 0 1 3050.16 1962)">DEV</text><path d="M3228.94 767.5 3228.94 795 3222.06 795 3222.06 767.5ZM3228.94 815.625 3228.94 843.125 3222.06 843.125 3222.06 815.625ZM3228.94 863.75 3228.94 891.25 3222.06 891.25 3222.06 863.75ZM3228.94 911.875 3228.94 939.375 3222.06 939.375 3222.06 911.875ZM3228.94 960 3228.94 987.5 3222.06 987.5 3222.06 960ZM3228.94 1008.13 3228.94 1035.63 3222.06 1035.63 3222.06 1008.13ZM3228.94 1056.25 3228.94 1083.75 3222.06 1083.75 3222.06 1056.25ZM3228.94 1104.38 3228.94 1131.88 3222.06 1131.88 3222.06 1104.38ZM3228.94 1152.5 3228.94 1180 3222.06 1180 3222.06 1152.5ZM3228.94 1200.63 3228.94 1228.13 3222.06 1228.13 3222.06 1200.63ZM3228.94 1248.75 3228.94 1276.25 3222.06 1276.25 3222.06 1248.75ZM3228.94 1296.88 3228.94 1324.38 3222.06 1324.38 3222.06 1296.88ZM3228.94 1345 3228.94 1372.5 3222.06 1372.5 3222.06 1345ZM3228.94 1393.13 3228.94 1420.63 3222.06 1420.63 3222.06 1393.13ZM3228.94 1441.25 3228.94 1468.75 3222.06 1468.75 3222.06 1441.25ZM3228.94 1489.38 3228.94 1516.88 3222.06 1516.88 3222.06 1489.38ZM3228.94 1537.5 3228.94 1565 3222.06 1565 3222.06 1537.5ZM3228.94 1585.63 3228.94 1613.13 3222.06 1613.13 3222.06 1585.63ZM3228.94 1633.75 3228.94 1661.25 3222.06 1661.25 3222.06 1633.75ZM3228.94 1681.88 3228.94 1709.38 3222.06 1709.38 3222.06 1681.88ZM3228.94 1730 3228.94 1757.5 3222.06 1757.5 3222.06 1730ZM3228.94 1778.13 3228.94 1805.63 3222.06 1805.63 3222.06 1778.13ZM3228.94 1826.25 3228.94 1853.75 3222.06 1853.75 3222.06 1826.25ZM3228.94 1874.38 3228.94 1901.88 3222.06 1901.88 3222.06 1874.38ZM3228.94 1922.5 3228.94 1950 3222.06 1950 3222.06 1922.5ZM3228.94 1970.63 3228.94 1998.13 3222.06 1998.13 3222.06 1970.63ZM3228.94 2018.75 3228.94 2046.25 3222.06 2046.25 3222.06 2018.75ZM3228.94 2066.88 3228.94 2094.38 3222.06 2094.38 3222.06 2066.88ZM3228.94 2115 3228.94 2142.5 3222.06 2142.5 3222.06 2115ZM3228.94 2163.12 3228.94 2181.06 3222.06 2181.06 3222.06 2163.12ZM3239.25 2176.47 3225.5 2203.97 3211.75 2176.47Z" fill="#68BD9F"/><path d="M3189 2150 3187.97 2151.71 3186.83 2153.49 3185.69 2155.39 3184.44 2157.36 3183.09 2159.47 3181.69 2161.66 3180.18 2163.97 3178.57 2166.49 3176.84 2169.09 3175 2171.84 3173.06 2174.7 3171.04 2177.79 3168.83 2180.98 3166.55 2184.4 3165.75 2185.66 3165.16 2187 3153 2174.74 3153.07 2174.67 3153.29 2174.41 3153.66 2173.96 3154.1 2173.37 3154.73 2172.62 3155.42 2171.84 3156.27 2170.84 3157.22 2169.8 3158.29 2168.69 3159.39 2167.5 3160.64 2166.27 3161.96 2164.97 3163.4 2163.67 3164.9 2162.33 3166.44 2161 3168.06 2159.7 3169.79 2158.4 3171.51 2157.13 3173.35 2155.94 3175.15 2154.83 3177.06 2153.79 3178.97 2152.82 3180.95 2152.01 3182.94 2151.3 3184.96 2150.71 3186.98 2150.26 3189 2150Z" fill="#68BD9F" fill-rule="evenodd"/><path d="M3251 2212 3250.7 2214.02 3250.26 2216.08 3249.7 2218.07 3248.96 2220.09 3248.11 2222.04 3247.18 2223.99 3246.14 2225.86 3245.03 2227.7 3243.81 2229.54 3242.55 2231.27 3241.29 2232.96 3239.95 2234.58 3238.65 2236.16 3237.32 2237.67 3236.02 2239.06 3234.72 2240.35 3233.46 2241.6 3232.31 2242.78 3231.17 2243.84 3230.09 2244.76 3229.16 2245.61 3228.31 2246.31 3227.61 2246.9 3227.01 2247.38 3226.61 2247.74 3226.35 2247.96 3226.23 2248 3214 2235.87 3215.3 2235.28 3216.6 2234.5 3219.97 2232.19 3223.19 2230.02 3226.23 2227.92 3229.16 2226.01 3231.91 2224.21 3234.5 2222.48 3236.95 2220.86 3239.28 2219.35 3241.55 2217.96 3243.62 2216.6 3245.62 2215.38 3247.48 2214.17 3249.29 2213.07 3251 2212Z" fill="#68BD9F" fill-rule="evenodd"/><path d="M3171.04 2203 3172.35 2204.34 3171.26 2206.87 3170.24 2209.44 3169.26 2212.24 3168.39 2215.07 3167.66 2217.94 3166.64 2222.44 3165.84 2226.99 3165.19 2231.57 3164.75 2236.15 3164.64 2237.08 3168.39 2236.75 3172.13 2236.26 3176.54 2235.55 3180.87 2234.62 3185.19 2233.54 3189.45 2232.2 3191.56 2231.42 3193.63 2230.56 3195.67 2229.71 3196.65 2229.22 3198 2230.56 3196.44 2232.69 3194.73 2234.7 3192.83 2236.56 3190.87 2238.27 3188.76 2239.84 3186.54 2241.25 3184.21 2242.56 3181.88 2243.75 3179.48 2244.83 3177.05 2245.72 3174.61 2246.54 3170.86 2247.55 3167.04 2248.33 3163.19 2248.78 3159.33 2249 3158.49 2249 3157.66 2248.93 3156.86 2248.74 3155.91 2248.33 3155.07 2247.73 3154.31 2247.03 3153.76 2246.17 3153.29 2245.24 3153.04 2244.2 3153 2242.97 3153 2241.77 3153.22 2238.27 3153.65 2234.85 3154.27 2231.38 3155.07 2227.99 3156.09 2224.68 3157.18 2221.66 3158.46 2218.68 3159.91 2215.85 3161.55 2213.06 3163.37 2210.45 3165.04 2208.36 3166.9 2206.43 3168.93 2204.64 3171.04 2203Z" fill="#68BD9F" fill-rule="evenodd"/><path d="M3247.78 2137.1 3245.93 2137.21 3244.12 2137.51 3242.3 2137.98 3240.57 2138.72 3238.94 2139.6 3237.35 2140.7 3235.87 2141.99 3234.57 2143.46 3233.47 2145 3232.58 2146.66 3231.87 2148.38 3231.36 2150.15 3231.06 2151.98 3230.95 2153.79 3231.06 2155.66 3231.36 2157.42 3231.87 2159.19 3232.58 2160.95 3233.47 2162.6 3234.57 2164.18 3235.87 2165.65 3237.35 2166.94 3238.94 2168.04 3240.57 2168.93 3242.3 2169.62 3244.12 2170.1 3245.93 2170.43 3247.78 2170.51 3249.66 2170.43 3251.44 2170.1 3253.29 2169.62 3254.95 2168.93 3256.65 2168.04 3258.24 2166.94 3259.72 2165.65 3261.02 2164.18 3262.13 2162.6 3263.01 2160.95 3263.72 2159.19 3264.24 2157.42 3264.53 2155.66 3264.64 2153.79 3264.53 2151.98 3264.24 2150.15 3263.72 2148.38 3263.01 2146.66 3262.13 2145 3261.02 2143.46 3259.72 2141.99 3258.24 2140.7 3256.65 2139.6 3254.95 2138.72 3253.29 2137.98 3251.44 2137.51 3249.66 2137.21 3247.78 2137.1ZM3293.86 2103 3293.97 2103 3294.93 2103.07 3295.89 2103.37 3296.78 2103.85 3297.52 2104.47 3298.15 2105.2 3298.63 2106.16 3298.93 2107.08 3299 2108.11 3298.96 2110.13 3298.85 2112.41 3298.74 2114.87 3298.59 2117.52 3298.37 2120.31 3298.11 2123.28 3297.74 2126.33 3297.34 2129.53 3296.89 2132.8 3296.34 2136.18 3295.71 2139.64 3294.93 2143.09 3294.12 2146.62 3293.19 2150.15 3292.12 2153.71 3290.97 2157.2 3289.72 2160.66 3288.27 2164.11 3286.72 2167.49 3285.02 2170.8 3283.17 2174 3281.21 2177.05 3279.07 2179.95 3276.74 2182.82 3274.29 2185.43 3272.26 2187.37 3270.34 2189.21 3268.56 2190.83 3266.86 2192.33 3265.16 2193.73 3263.5 2195.02 3261.87 2196.27 3260.2 2197.48 3258.5 2198.65 3256.73 2199.83 3254.84 2201.04 3252.88 2202.29 3250.74 2203.61 3248.44 2205.05 3246.82 2206.04 3245.08 2207.11 3243.3 2208.28 3241.38 2209.46 3239.38 2210.71 3237.24 2212.1 3234.94 2213.5 3232.58 2215.04 3230.06 2216.7 3227.4 2218.46 3224.59 2220.34 3221.59 2222.32 3218.45 2224.41 3215.12 2226.69 3211.64 2229.08 3210.72 2229.6 3209.76 2229.89 3208.76 2230 3207.76 2229.93 3206.84 2229.6 3205.99 2229.15 3205.17 2228.49 3172.48 2196.12 3171.85 2195.31 3171.37 2194.43 3171.11 2193.51 3171 2192.52 3171.11 2191.49 3171.41 2190.57 3171.92 2189.69 3174.33 2186.23 3176.62 2182.93 3178.77 2179.8 3180.76 2176.86 3182.65 2174.07 3184.39 2171.39 3186.05 2168.93 3187.61 2166.54 3189.08 2164.3 3190.42 2162.16 3191.71 2160.18 3192.93 2158.27 3194.08 2156.5 3195.15 2154.78 3196.19 2153.16 3197.55 2150.88 3198.92 2148.79 3200.22 2146.84 3201.4 2144.97 3202.62 2143.2 3203.77 2141.51 3204.99 2139.82 3206.25 2138.17 3207.58 2136.59 3208.98 2134.9 3210.5 2133.21 3212.13 2131.41 3213.94 2129.53 3215.94 2127.51 3218.6 2125.09 3221.41 2122.77 3224.33 2120.64 3227.47 2118.69 3230.65 2116.89 3234.02 2115.2 3237.35 2113.66 3240.86 2112.26 3244.34 2110.97 3247.93 2109.83 3251.44 2108.77 3255.03 2107.81 3258.54 2107.04 3262.09 2106.27 3265.53 2105.65 3268.93 2105.09 3272.22 2104.65 3275.44 2104.25 3278.58 2103.88 3281.51 2103.62 3284.35 2103.4 3287.02 2103.22 3289.5 2103.11 3291.75 2103.04 3293.86 2103Z" fill="#68BD9F" fill-rule="evenodd"/><text fill="#68BD9F" font-family="Arial,Arial_MSFontService,sans-serif" font-weight="700" font-size="64" transform="matrix(1 0 0 1 3130.79 2341)">PROD</text><path d="M2878.94 762.5 2878.94 790 2872.06 790 2872.06 762.5ZM2878.94 810.625 2878.94 838.125 2872.06 838.125 2872.06 810.625ZM2878.94 858.75 2878.94 886.25 2872.06 886.25 2872.06 858.75ZM2878.94 906.875 2878.94 934.375 2872.06 934.375 2872.06 906.875ZM2878.94 955 2878.94 982.5 2872.06 982.5 2872.06 955ZM2878.94 1003.12 2878.94 1030.62 2872.06 1030.62 2872.06 1003.12ZM2878.94 1051.25 2878.94 1078.75 2872.06 1078.75 2872.06 1051.25ZM2878.94 1099.38 2878.94 1126.88 2872.06 1126.88 2872.06 1099.38ZM2878.94 1147.5 2878.94 1175 2872.06 1175 2872.06 1147.5ZM2878.94 1195.62 2878.94 1223.12 2872.06 1223.12 2872.06 1195.62ZM2878.94 1243.75 2878.94 1271.25 2872.06 1271.25 2872.06 1243.75ZM2878.94 1291.88 2878.94 1319.38 2872.06 1319.38 2872.06 1291.88ZM2878.94 1340 2878.94 1367.5 2872.06 1367.5 2872.06 1340ZM2878.94 1388.12 2878.94 1415.62 2872.06 1415.62 2872.06 1388.12ZM2878.94 1436.25 2878.94 1463.75 2872.06 1463.75 2872.06 1436.25ZM2878.94 1484.38 2878.94 1511.88 2872.06 1511.88 2872.06 1484.38ZM2878.94 1532.5 2878.94 1560 2872.06 1560 2872.06 1532.5ZM2878.94 1580.62 2878.94 1608.12 2872.06 1608.12 2872.06 1580.62ZM2878.94 1628.75 2878.94 1656.25 2872.06 1656.25 2872.06 1628.75ZM2878.94 1676.88 2878.94 1704.38 2872.06 1704.38 2872.06 1676.88ZM2878.94 1725 2878.94 1752.5 2872.06 1752.5 2872.06 1725ZM2878.94 1773.12 2878.94 1800.62 2872.06 1800.62 2872.06 1773.12ZM2878.94 1821.25 2878.94 1848.75 2872.06 1848.75 2872.06 1821.25ZM2878.94 1869.38 2878.94 1896.88 2872.06 1896.88 2872.06 1869.38ZM2878.94 1917.5 2878.94 1945 2872.06 1945 2872.06 1917.5ZM2878.94 1965.62 2878.94 1993.12 2872.06 1993.12 2872.06 1965.62ZM2878.94 2013.75 2878.94 2039.62 2872.06 2039.62 2872.06 2013.75ZM2889.25 2035.04 2875.5 2062.54 2861.75 2035.04Z" fill="#9E4694"/><path d="M2504.94 762.5 2504.94 790 2498.06 790 2498.06 762.5ZM2504.94 810.625 2504.94 838.125 2498.06 838.125 2498.06 810.625ZM2504.94 858.75 2504.94 886.25 2498.06 886.25 2498.06 858.75ZM2504.94 906.875 2504.94 934.375 2498.06 934.375 2498.06 906.875ZM2504.94 955 2504.94 982.5 2498.06 982.5 2498.06 955ZM2504.94 1003.12 2504.94 1030.62 2498.06 1030.62 2498.06 1003.12ZM2504.94 1051.25 2504.94 1078.75 2498.06 1078.75 2498.06 1051.25ZM2504.94 1099.38 2504.94 1126.88 2498.06 1126.88 2498.06 1099.38ZM2504.94 1147.5 2504.94 1175 2498.06 1175 2498.06 1147.5ZM2504.94 1195.62 2504.94 1223.12 2498.06 1223.12 2498.06 1195.62ZM2504.94 1243.75 2504.94 1271.25 2498.06 1271.25 2498.06 1243.75ZM2504.94 1291.88 2504.94 1319.38 2498.06 1319.38 2498.06 1291.88ZM2504.94 1340 2504.94 1367.5 2498.06 1367.5 2498.06 1340ZM2504.94 1388.12 2504.94 1415.62 2498.06 1415.62 2498.06 1388.12ZM2504.94 1436.25 2504.94 1463.75 2498.06 1463.75 2498.06 1436.25ZM2504.94 1484.38 2504.94 1511.88 2498.06 1511.88 2498.06 1484.38ZM2504.94 1532.5 2504.94 1560 2498.06 1560 2498.06 1532.5ZM2504.94 1580.62 2504.94 1608.12 2498.06 1608.12 2498.06 1580.62ZM2504.94 1628.75 2504.94 1656.25 2498.06 1656.25 2498.06 1628.75ZM2504.94 1676.88 2504.94 1704.38 2498.06 1704.38 2498.06 1676.88ZM2504.94 1725 2504.94 1752.5 2498.06 1752.5 2498.06 1725ZM2504.94 1773.12 2504.94 1800.62 2498.06 1800.62 2498.06 1773.12ZM2504.94 1821.25 2504.94 1848.75 2498.06 1848.75 2498.06 1821.25ZM2504.94 1869.38 2504.94 1896.88 2498.06 1896.88 2498.06 1869.38ZM2504.94 1917.5 2504.94 1945 2498.06 1945 2498.06 1917.5ZM2504.94 1965.62 2504.94 1993.12 2498.06 1993.12 2498.06 1965.62ZM2504.94 2013.75 2504.94 2039.62 2498.06 2039.62 2498.06 2013.75ZM2515.25 2035.04 2501.5 2062.54 2487.75 2035.04Z" fill="#9E4694"/><path d="M2042.94 1090.5 2042.94 1118 2036.06 1118 2036.06 1090.5ZM2042.94 1138.62 2042.94 1166.12 2036.06 1166.12 2036.06 1138.62ZM2042.94 1186.75 2042.94 1214.25 2036.06 1214.25 2036.06 1186.75ZM2042.94 1234.87 2042.94 1262.37 2036.06 1262.37 2036.06 1234.87ZM2042.94 1283 2042.94 1310.5 2036.06 1310.5 2036.06 1283ZM2042.94 1331.12 2042.94 1358.62 2036.06 1358.62 2036.06 1331.12ZM2042.94 1379.25 2042.94 1406.75 2036.06 1406.75 2036.06 1379.25ZM2042.94 1427.37 2042.94 1454.87 2036.06 1454.87 2036.06 1427.37ZM2042.94 1475.5 2042.94 1503 2036.06 1503 2036.06 1475.5ZM2042.94 1523.62 2042.94 1551.12 2036.06 1551.12 2036.06 1523.62ZM2042.94 1571.75 2042.94 1599.25 2036.06 1599.25 2036.06 1571.75ZM2042.94 1619.87 2042.94 1647.37 2036.06 1647.37 2036.06 1619.87ZM2042.94 1668 2042.94 1695.5 2036.06 1695.5 2036.06 1668ZM2042.94 1716.12 2042.94 1743.62 2036.06 1743.62 2036.06 1716.12ZM2042.94 1764.25 2042.94 1791.75 2036.06 1791.75 2036.06 1764.25ZM2053.25 1789.54 2039.5 1817.04 2025.75 1789.54Z" fill="#6C75B7"/><path d="M2380.94 1090.5 2380.94 1118 2374.06 1118 2374.06 1090.5ZM2380.94 1138.62 2380.94 1166.12 2374.06 1166.12 2374.06 1138.62ZM2380.94 1186.75 2380.94 1214.25 2374.06 1214.25 2374.06 1186.75ZM2380.94 1234.87 2380.94 1262.37 2374.06 1262.37 2374.06 1234.87ZM2380.94 1283 2380.94 1310.5 2374.06 1310.5 2374.06 1283ZM2380.94 1331.12 2380.94 1358.62 2374.06 1358.62 2374.06 1331.12ZM2380.94 1379.25 2380.94 1406.75 2374.06 1406.75 2374.06 1379.25ZM2380.94 1427.37 2380.94 1454.87 2374.06 1454.87 2374.06 1427.37ZM2380.94 1475.5 2380.94 1503 2374.06 1503 2374.06 1475.5ZM2380.94 1523.62 2380.94 1551.12 2374.06 1551.12 2374.06 1523.62ZM2380.94 1571.75 2380.94 1599.25 2374.06 1599.25 2374.06 1571.75ZM2380.94 1619.87 2380.94 1647.37 2374.06 1647.37 2374.06 1619.87ZM2380.94 1668 2380.94 1695.5 2374.06 1695.5 2374.06 1668ZM2380.94 1716.12 2380.94 1743.62 2374.06 1743.62 2374.06 1716.12ZM2380.94 1764.25 2380.94 1791.75 2374.06 1791.75 2374.06 1764.25ZM2391.25 1789.54 2377.5 1817.04 2363.75 1789.54Z" fill="#6C75B7"/><path d="M2840 2009 2838.94 2010.71 2837.77 2012.49 2836.6 2014.39 2835.32 2016.36 2833.92 2018.47 2832.49 2020.66 2830.94 2022.97 2829.28 2025.49 2827.5 2028.09 2825.62 2030.84 2823.61 2033.7 2821.54 2036.79 2819.27 2039.98 2816.93 2043.4 2816.1 2044.66 2815.5 2046 2803 2033.74 2803.08 2033.67 2803.3 2033.41 2803.68 2032.96 2804.13 2032.37 2804.77 2031.62 2805.49 2030.84 2806.36 2029.84 2807.34 2028.8 2808.44 2027.69 2809.57 2026.5 2810.85 2025.27 2812.21 2023.97 2813.68 2022.67 2815.23 2021.33 2816.82 2020 2818.48 2018.7 2820.25 2017.4 2822.03 2016.13 2823.92 2014.94 2825.77 2013.83 2827.73 2012.79 2829.69 2011.82 2831.73 2011.01 2833.77 2010.3 2835.85 2009.71 2837.92 2009.26 2840 2009Z" fill="#9E4694" fill-rule="evenodd"/><path d="M2901 2071 2900.71 2073.02 2900.28 2075.08 2899.74 2077.07 2899.02 2079.09 2898.19 2081.04 2897.28 2082.99 2896.27 2084.86 2895.19 2086.7 2894 2088.54 2892.78 2090.27 2891.55 2091.96 2890.25 2093.58 2888.99 2095.16 2887.69 2096.67 2886.43 2098.06 2885.16 2099.35 2883.94 2100.6 2882.82 2101.78 2881.7 2102.84 2880.66 2103.76 2879.75 2104.61 2878.92 2105.31 2878.24 2105.9 2877.66 2106.37 2877.26 2106.74 2877.01 2106.96 2876.9 2107 2865 2094.86 2866.26 2094.28 2867.53 2093.5 2870.81 2091.19 2873.95 2089.02 2876.9 2086.92 2879.75 2085.01 2882.42 2083.21 2884.95 2081.48 2887.33 2079.86 2889.6 2078.35 2891.8 2076.96 2893.82 2075.6 2895.77 2074.38 2897.57 2073.17 2899.34 2072.07 2901 2071Z" fill="#9E4694" fill-rule="evenodd"/><path d="M2821.04 2062 2822.35 2063.34 2821.26 2065.87 2820.24 2068.44 2819.26 2071.24 2818.39 2074.07 2817.66 2076.94 2816.64 2081.44 2815.84 2085.99 2815.19 2090.57 2814.75 2095.15 2814.64 2096.08 2818.39 2095.75 2822.14 2095.26 2826.54 2094.55 2830.87 2093.62 2835.19 2092.54 2839.45 2091.2 2841.56 2090.42 2843.63 2089.56 2845.67 2088.71 2846.65 2088.22 2848 2089.56 2846.44 2091.69 2844.73 2093.7 2842.83 2095.56 2840.87 2097.27 2838.76 2098.84 2836.54 2100.25 2834.21 2101.56 2831.88 2102.75 2829.48 2103.83 2827.05 2104.72 2824.61 2105.54 2820.86 2106.55 2817.04 2107.33 2813.19 2107.78 2809.33 2108 2808.49 2108 2807.66 2107.93 2806.86 2107.74 2805.91 2107.33 2805.07 2106.73 2804.31 2106.03 2803.76 2105.17 2803.29 2104.24 2803.04 2103.2 2803 2101.97 2803 2100.77 2803.22 2097.27 2803.65 2093.85 2804.27 2090.38 2805.07 2086.99 2806.09 2083.68 2807.18 2080.66 2808.46 2077.68 2809.91 2074.85 2811.55 2072.06 2813.37 2069.45 2815.04 2067.36 2816.9 2065.43 2818.93 2063.64 2821.04 2062Z" fill="#9E4694" fill-rule="evenodd"/><path d="M2897.78 1996.1 2895.93 1996.21 2894.12 1996.51 2892.3 1996.98 2890.57 1997.72 2888.94 1998.6 2887.35 1999.7 2885.87 2000.99 2884.57 2002.46 2883.47 2004 2882.58 2005.66 2881.88 2007.38 2881.36 2009.15 2881.06 2010.98 2880.95 2012.79 2881.06 2014.66 2881.36 2016.42 2881.88 2018.19 2882.58 2019.95 2883.47 2021.6 2884.57 2023.18 2885.87 2024.65 2887.35 2025.94 2888.94 2027.04 2890.57 2027.93 2892.3 2028.62 2894.12 2029.1 2895.93 2029.43 2897.78 2029.51 2899.66 2029.43 2901.44 2029.1 2903.29 2028.62 2904.95 2027.93 2906.65 2027.04 2908.24 2025.94 2909.72 2024.65 2911.02 2023.18 2912.13 2021.6 2913.02 2019.95 2913.72 2018.19 2914.24 2016.42 2914.53 2014.66 2914.64 2012.79 2914.53 2010.98 2914.24 2009.15 2913.72 2007.38 2913.02 2005.66 2912.13 2004 2911.02 2002.46 2909.72 2000.99 2908.24 1999.7 2906.65 1998.6 2904.95 1997.72 2903.29 1996.98 2901.44 1996.51 2899.66 1996.21 2897.78 1996.1ZM2943.86 1962 2943.97 1962 2944.93 1962.07 2945.89 1962.37 2946.78 1962.85 2947.52 1963.47 2948.15 1964.2 2948.63 1965.16 2948.93 1966.08 2949 1967.11 2948.96 1969.13 2948.85 1971.41 2948.74 1973.87 2948.59 1976.52 2948.37 1979.31 2948.11 1982.28 2947.74 1985.33 2947.34 1988.53 2946.89 1991.8 2946.34 1995.18 2945.71 1998.64 2944.93 2002.09 2944.12 2005.62 2943.19 2009.15 2942.12 2012.71 2940.97 2016.2 2939.72 2019.66 2938.27 2023.11 2936.72 2026.49 2935.02 2029.8 2933.17 2033 2931.21 2036.05 2929.07 2038.95 2926.74 2041.82 2924.3 2044.43 2922.26 2046.37 2920.34 2048.21 2918.56 2049.83 2916.86 2051.33 2915.16 2052.73 2913.5 2054.02 2911.87 2055.27 2910.2 2056.48 2908.5 2057.65 2906.73 2058.83 2904.84 2060.04 2902.88 2061.29 2900.74 2062.62 2898.44 2064.05 2896.82 2065.04 2895.08 2066.11 2893.3 2067.28 2891.38 2068.46 2889.38 2069.71 2887.24 2071.1 2884.94 2072.5 2882.58 2074.04 2880.06 2075.7 2877.4 2077.46 2874.59 2079.34 2871.59 2081.32 2868.45 2083.41 2865.12 2085.69 2861.65 2088.08 2860.72 2088.6 2859.76 2088.89 2858.76 2089 2857.76 2088.93 2856.84 2088.6 2855.99 2088.15 2855.17 2087.49 2822.48 2055.12 2821.85 2054.31 2821.37 2053.43 2821.11 2052.51 2821 2051.52 2821.11 2050.49 2821.41 2049.57 2821.92 2048.69 2824.33 2045.23 2826.62 2041.93 2828.77 2038.8 2830.76 2035.86 2832.65 2033.07 2834.39 2030.39 2836.05 2027.93 2837.61 2025.54 2839.09 2023.3 2840.42 2021.16 2841.71 2019.18 2842.93 2017.27 2844.08 2015.5 2845.15 2013.78 2846.19 2012.16 2847.55 2009.88 2848.92 2007.79 2850.22 2005.84 2851.4 2003.97 2852.62 2002.2 2853.77 2000.51 2854.99 1998.82 2856.25 1997.17 2857.58 1995.59 2858.98 1993.9 2860.5 1992.21 2862.13 1990.41 2863.94 1988.53 2865.94 1986.51 2868.6 1984.09 2871.41 1981.77 2874.33 1979.64 2877.47 1977.69 2880.65 1975.89 2884.02 1974.2 2887.35 1972.66 2890.86 1971.26 2894.34 1969.97 2897.93 1968.84 2901.44 1967.77 2905.03 1966.81 2908.54 1966.04 2912.09 1965.27 2915.53 1964.65 2918.93 1964.09 2922.22 1963.65 2925.44 1963.25 2928.59 1962.88 2931.51 1962.62 2934.35 1962.4 2937.02 1962.22 2939.5 1962.11 2941.75 1962.04 2943.86 1962Z" fill="#9E4694" fill-rule="evenodd"/><text fill="#9E4694" font-family="Arial,Arial_MSFontService,sans-serif" font-weight="700" font-size="64" transform="matrix(1 0 0 1 2808.3 2203)">UAT</text><path d="M2465 2009 2463.97 2010.71 2462.83 2012.49 2461.69 2014.39 2460.45 2016.36 2459.09 2018.47 2457.69 2020.66 2456.18 2022.97 2454.57 2025.49 2452.84 2028.09 2451 2030.84 2449.06 2033.7 2447.04 2036.79 2444.83 2039.98 2442.56 2043.4 2441.75 2044.66 2441.16 2046 2429 2033.74 2429.07 2033.67 2429.29 2033.41 2429.66 2032.96 2430.1 2032.37 2430.73 2031.62 2431.42 2030.84 2432.27 2029.84 2433.22 2028.8 2434.29 2027.69 2435.39 2026.5 2436.64 2025.27 2437.96 2023.97 2439.4 2022.67 2440.9 2021.33 2442.44 2020 2444.06 2018.7 2445.79 2017.4 2447.51 2016.13 2449.35 2014.94 2451.15 2013.83 2453.06 2012.79 2454.97 2011.82 2456.96 2011.01 2458.94 2010.3 2460.96 2009.71 2462.98 2009.26 2465 2009Z" fill="#9E4694" fill-rule="evenodd"/><path d="M2527 2071 2526.7 2073.02 2526.26 2075.08 2525.7 2077.07 2524.96 2079.09 2524.11 2081.04 2523.18 2082.99 2522.14 2084.86 2521.03 2086.7 2519.81 2088.54 2518.55 2090.27 2517.29 2091.96 2515.95 2093.58 2514.65 2095.16 2513.32 2096.67 2512.02 2098.06 2510.72 2099.35 2509.46 2100.6 2508.31 2101.78 2507.17 2102.84 2506.09 2103.76 2505.16 2104.61 2504.31 2105.31 2503.61 2105.9 2503.01 2106.37 2502.61 2106.74 2502.35 2106.96 2502.23 2107 2490 2094.86 2491.3 2094.28 2492.6 2093.5 2495.97 2091.19 2499.19 2089.02 2502.23 2086.92 2505.16 2085.01 2507.91 2083.21 2510.5 2081.48 2512.95 2079.86 2515.28 2078.35 2517.55 2076.96 2519.62 2075.6 2521.62 2074.38 2523.48 2073.17 2525.29 2072.07 2527 2071Z" fill="#9E4694" fill-rule="evenodd"/><path d="M2447.04 2062 2448.35 2063.34 2447.26 2065.87 2446.24 2068.44 2445.26 2071.24 2444.39 2074.07 2443.66 2076.94 2442.64 2081.44 2441.84 2085.99 2441.19 2090.57 2440.75 2095.15 2440.64 2096.08 2444.39 2095.75 2448.14 2095.26 2452.54 2094.55 2456.87 2093.62 2461.19 2092.54 2465.45 2091.2 2467.56 2090.42 2469.63 2089.56 2471.67 2088.71 2472.65 2088.22 2474 2089.56 2472.44 2091.69 2470.73 2093.7 2468.83 2095.56 2466.87 2097.27 2464.76 2098.84 2462.54 2100.25 2460.21 2101.56 2457.88 2102.75 2455.48 2103.83 2453.05 2104.72 2450.61 2105.54 2446.86 2106.55 2443.04 2107.33 2439.19 2107.78 2435.33 2108 2434.49 2108 2433.66 2107.93 2432.86 2107.74 2431.91 2107.33 2431.07 2106.73 2430.31 2106.03 2429.76 2105.17 2429.29 2104.24 2429.04 2103.2 2429 2101.97 2429 2100.77 2429.22 2097.27 2429.65 2093.85 2430.27 2090.38 2431.07 2086.99 2432.09 2083.68 2433.18 2080.66 2434.46 2077.68 2435.91 2074.85 2437.55 2072.06 2439.37 2069.45 2441.04 2067.36 2442.9 2065.43 2444.93 2063.64 2447.04 2062Z" fill="#9E4694" fill-rule="evenodd"/><path d="M2523.78 1996.1 2521.93 1996.21 2520.12 1996.51 2518.3 1996.98 2516.57 1997.72 2514.94 1998.6 2513.35 1999.7 2511.87 2000.99 2510.57 2002.46 2509.47 2004 2508.58 2005.66 2507.88 2007.38 2507.36 2009.15 2507.06 2010.98 2506.95 2012.79 2507.06 2014.66 2507.36 2016.42 2507.88 2018.19 2508.58 2019.95 2509.47 2021.6 2510.57 2023.18 2511.87 2024.65 2513.35 2025.94 2514.94 2027.04 2516.57 2027.93 2518.3 2028.62 2520.12 2029.1 2521.93 2029.43 2523.78 2029.51 2525.66 2029.43 2527.44 2029.1 2529.29 2028.62 2530.95 2027.93 2532.65 2027.04 2534.24 2025.94 2535.72 2024.65 2537.02 2023.18 2538.13 2021.6 2539.02 2019.95 2539.72 2018.19 2540.24 2016.42 2540.53 2014.66 2540.64 2012.79 2540.53 2010.98 2540.24 2009.15 2539.72 2007.38 2539.02 2005.66 2538.13 2004 2537.02 2002.46 2535.72 2000.99 2534.24 1999.7 2532.65 1998.6 2530.95 1997.72 2529.29 1996.98 2527.44 1996.51 2525.66 1996.21 2523.78 1996.1ZM2569.86 1962 2569.97 1962 2570.93 1962.07 2571.89 1962.37 2572.78 1962.85 2573.52 1963.47 2574.15 1964.2 2574.63 1965.16 2574.93 1966.08 2575 1967.11 2574.96 1969.13 2574.85 1971.41 2574.74 1973.87 2574.59 1976.52 2574.37 1979.31 2574.11 1982.28 2573.74 1985.33 2573.34 1988.53 2572.89 1991.8 2572.34 1995.18 2571.71 1998.64 2570.93 2002.09 2570.12 2005.62 2569.19 2009.15 2568.12 2012.71 2566.97 2016.2 2565.72 2019.66 2564.27 2023.11 2562.72 2026.49 2561.02 2029.8 2559.17 2033 2557.21 2036.05 2555.07 2038.95 2552.74 2041.82 2550.3 2044.43 2548.26 2046.37 2546.34 2048.21 2544.56 2049.83 2542.86 2051.33 2541.16 2052.73 2539.5 2054.02 2537.87 2055.27 2536.2 2056.48 2534.5 2057.65 2532.73 2058.83 2530.84 2060.04 2528.88 2061.29 2526.74 2062.62 2524.44 2064.05 2522.82 2065.04 2521.08 2066.11 2519.3 2067.28 2517.38 2068.46 2515.38 2069.71 2513.24 2071.1 2510.94 2072.5 2508.58 2074.04 2506.06 2075.7 2503.4 2077.46 2500.59 2079.34 2497.59 2081.32 2494.45 2083.41 2491.12 2085.69 2487.65 2088.08 2486.72 2088.6 2485.76 2088.89 2484.76 2089 2483.76 2088.93 2482.84 2088.6 2481.99 2088.15 2481.17 2087.49 2448.48 2055.12 2447.85 2054.31 2447.37 2053.43 2447.11 2052.51 2447 2051.52 2447.11 2050.49 2447.41 2049.57 2447.92 2048.69 2450.33 2045.23 2452.62 2041.93 2454.77 2038.8 2456.76 2035.86 2458.65 2033.07 2460.39 2030.39 2462.05 2027.93 2463.61 2025.54 2465.09 2023.3 2466.42 2021.16 2467.71 2019.18 2468.93 2017.27 2470.08 2015.5 2471.15 2013.78 2472.19 2012.16 2473.55 2009.88 2474.92 2007.79 2476.22 2005.84 2477.4 2003.97 2478.62 2002.2 2479.77 2000.51 2480.99 1998.82 2482.25 1997.17 2483.58 1995.59 2484.98 1993.9 2486.5 1992.21 2488.13 1990.41 2489.94 1988.53 2491.94 1986.51 2494.6 1984.09 2497.41 1981.77 2500.33 1979.64 2503.47 1977.69 2506.65 1975.89 2510.02 1974.2 2513.35 1972.66 2516.86 1971.26 2520.34 1969.97 2523.93 1968.84 2527.44 1967.77 2531.03 1966.81 2534.54 1966.04 2538.09 1965.27 2541.53 1964.65 2544.93 1964.09 2548.22 1963.65 2551.44 1963.25 2554.59 1962.88 2557.51 1962.62 2560.35 1962.4 2563.02 1962.22 2565.5 1962.11 2567.75 1962.04 2569.86 1962Z" fill="#9E4694" fill-rule="evenodd"/><text fill="#9E4694" font-family="Arial,Arial_MSFontService,sans-serif" font-weight="700" font-size="64" transform="matrix(1 0 0 1 2434.2 2203)">UAT</text><path d="M2003 1763 2001.97 1764.71 2000.83 1766.49 1999.69 1768.39 1998.44 1770.36 1997.09 1772.47 1995.69 1774.66 1994.18 1776.97 1992.57 1779.49 1990.84 1782.09 1989 1784.84 1987.06 1787.7 1985.04 1790.79 1982.83 1793.98 1980.56 1797.4 1979.75 1798.66 1979.16 1800 1967 1787.74 1967.07 1787.67 1967.29 1787.41 1967.66 1786.96 1968.1 1786.37 1968.73 1785.62 1969.42 1784.84 1970.27 1783.84 1971.22 1782.8 1972.29 1781.69 1973.39 1780.5 1974.64 1779.27 1975.96 1777.97 1977.4 1776.67 1978.9 1775.33 1980.44 1774 1982.06 1772.7 1983.79 1771.4 1985.51 1770.13 1987.35 1768.94 1989.15 1767.83 1991.06 1766.79 1992.97 1765.82 1994.96 1765.01 1996.94 1764.3 1998.96 1763.71 2000.98 1763.26 2003 1763Z" fill="#6C75B7" fill-rule="evenodd"/><path d="M2065 1825 2064.7 1827.02 2064.26 1829.08 2063.7 1831.07 2062.96 1833.09 2062.11 1835.04 2061.18 1836.99 2060.14 1838.86 2059.03 1840.7 2057.81 1842.54 2056.55 1844.27 2055.29 1845.96 2053.95 1847.58 2052.65 1849.16 2051.32 1850.67 2050.02 1852.06 2048.72 1853.35 2047.46 1854.6 2046.31 1855.78 2045.17 1856.84 2044.09 1857.76 2043.16 1858.61 2042.31 1859.31 2041.61 1859.9 2041.01 1860.38 2040.61 1860.74 2040.35 1860.96 2040.23 1861 2028 1848.87 2029.3 1848.28 2030.6 1847.5 2033.97 1845.19 2037.19 1843.02 2040.23 1840.92 2043.16 1839.01 2045.91 1837.21 2048.5 1835.48 2050.95 1833.86 2053.28 1832.35 2055.55 1830.96 2057.62 1829.6 2059.62 1828.38 2061.48 1827.17 2063.29 1826.07 2065 1825Z" fill="#6C75B7" fill-rule="evenodd"/><path d="M1984.44 1816 1985.78 1817.34 1984.67 1819.87 1983.63 1822.44 1982.62 1825.24 1981.73 1828.07 1980.99 1830.94 1979.94 1835.44 1979.13 1839.99 1978.46 1844.57 1978.01 1849.15 1977.9 1850.08 1981.73 1849.75 1985.56 1849.26 1990.06 1848.55 1994.48 1847.62 1998.91 1846.54 2003.26 1845.2 2005.42 1844.42 2007.54 1843.56 2009.62 1842.71 2010.62 1842.22 2012 1843.56 2010.4 1845.69 2008.65 1847.7 2006.72 1849.56 2004.71 1851.27 2002.55 1852.84 2000.29 1854.25 1997.91 1855.56 1995.53 1856.75 1993.07 1857.83 1990.58 1858.72 1988.09 1859.54 1984.26 1860.55 1980.35 1861.33 1976.41 1861.78 1972.47 1862 1971.62 1862 1970.76 1861.93 1969.94 1861.74 1968.97 1861.33 1968.12 1860.73 1967.34 1860.03 1966.78 1859.17 1966.3 1858.24 1966.04 1857.2 1966 1855.97 1966 1854.77 1966.22 1851.27 1966.67 1847.85 1967.3 1844.38 1968.12 1840.99 1969.16 1837.68 1970.28 1834.66 1971.58 1831.68 1973.07 1828.85 1974.74 1826.06 1976.6 1823.45 1978.31 1821.36 1980.21 1819.43 1982.29 1817.64 1984.44 1816Z" fill="#6C75B7" fill-rule="evenodd"/><path d="M2061.78 1750.1 2059.93 1750.21 2058.12 1750.51 2056.3 1750.98 2054.57 1751.72 2052.94 1752.6 2051.35 1753.7 2049.87 1754.99 2048.57 1756.46 2047.47 1758 2046.58 1759.66 2045.88 1761.38 2045.36 1763.15 2045.06 1764.98 2044.95 1766.79 2045.06 1768.66 2045.36 1770.42 2045.88 1772.19 2046.58 1773.95 2047.47 1775.6 2048.57 1777.18 2049.87 1778.65 2051.35 1779.94 2052.94 1781.04 2054.57 1781.93 2056.3 1782.62 2058.12 1783.1 2059.93 1783.43 2061.78 1783.51 2063.66 1783.43 2065.44 1783.1 2067.29 1782.62 2068.95 1781.93 2070.65 1781.04 2072.24 1779.94 2073.72 1778.65 2075.02 1777.18 2076.13 1775.6 2077.02 1773.95 2077.72 1772.19 2078.24 1770.42 2078.53 1768.66 2078.64 1766.79 2078.53 1764.98 2078.24 1763.15 2077.72 1761.38 2077.02 1759.66 2076.13 1758 2075.02 1756.46 2073.72 1754.99 2072.24 1753.7 2070.65 1752.6 2068.95 1751.72 2067.29 1750.98 2065.44 1750.51 2063.66 1750.21 2061.78 1750.1ZM2107.86 1716 2107.97 1716 2108.93 1716.07 2109.89 1716.37 2110.78 1716.85 2111.52 1717.47 2112.15 1718.2 2112.63 1719.16 2112.93 1720.08 2113 1721.11 2112.96 1723.13 2112.85 1725.41 2112.74 1727.87 2112.59 1730.52 2112.37 1733.31 2112.11 1736.28 2111.74 1739.33 2111.34 1742.53 2110.89 1745.8 2110.34 1749.18 2109.71 1752.64 2108.93 1756.09 2108.12 1759.62 2107.19 1763.15 2106.12 1766.71 2104.97 1770.2 2103.72 1773.66 2102.27 1777.11 2100.72 1780.49 2099.02 1783.8 2097.17 1787 2095.21 1790.05 2093.07 1792.95 2090.74 1795.82 2088.29 1798.42 2086.26 1800.37 2084.34 1802.21 2082.56 1803.83 2080.86 1805.33 2079.16 1806.73 2077.5 1808.02 2075.87 1809.27 2074.2 1810.48 2072.5 1811.65 2070.73 1812.83 2068.84 1814.04 2066.88 1815.29 2064.74 1816.61 2062.44 1818.05 2060.82 1819.04 2059.08 1820.11 2057.3 1821.28 2055.38 1822.46 2053.38 1823.71 2051.24 1825.1 2048.94 1826.5 2046.58 1828.04 2044.06 1829.7 2041.4 1831.46 2038.59 1833.34 2035.59 1835.32 2032.45 1837.41 2029.12 1839.69 2025.65 1842.08 2024.72 1842.6 2023.76 1842.89 2022.76 1843 2021.76 1842.93 2020.84 1842.6 2019.99 1842.15 2019.17 1841.49 1986.48 1809.12 1985.85 1808.31 1985.37 1807.43 1985.11 1806.51 1985 1805.52 1985.11 1804.49 1985.41 1803.57 1985.92 1802.69 1988.33 1799.23 1990.62 1795.93 1992.77 1792.8 1994.76 1789.86 1996.65 1787.07 1998.39 1784.39 2000.05 1781.93 2001.61 1779.54 2003.09 1777.3 2004.42 1775.16 2005.71 1773.18 2006.93 1771.27 2008.08 1769.5 2009.15 1767.78 2010.19 1766.16 2011.55 1763.88 2012.92 1761.79 2014.22 1759.84 2015.4 1757.97 2016.62 1756.2 2017.77 1754.51 2018.99 1752.82 2020.25 1751.17 2021.58 1749.59 2022.98 1747.9 2024.5 1746.21 2026.13 1744.41 2027.94 1742.53 2029.94 1740.51 2032.6 1738.09 2035.41 1735.77 2038.33 1733.64 2041.47 1731.69 2044.65 1729.89 2048.02 1728.2 2051.35 1726.66 2054.86 1725.26 2058.34 1723.97 2061.93 1722.84 2065.44 1721.77 2069.03 1720.81 2072.54 1720.04 2076.09 1719.27 2079.53 1718.65 2082.93 1718.09 2086.22 1717.65 2089.44 1717.25 2092.59 1716.88 2095.51 1716.62 2098.35 1716.4 2101.02 1716.22 2103.5 1716.11 2105.75 1716.04 2107.86 1716Z" fill="#6C75B7" fill-rule="evenodd"/><text fill="#6C75B7" font-family="Arial,Arial_MSFontService,sans-serif" font-weight="700" font-size="64" transform="matrix(1 0 0 1 1972.12 1956)">DEV</text><path d="M2342 1765 2340.97 1766.71 2339.83 1768.49 2338.69 1770.39 2337.44 1772.36 2336.09 1774.47 2334.69 1776.66 2333.18 1778.97 2331.57 1781.49 2329.84 1784.09 2328 1786.84 2326.06 1789.7 2324.04 1792.79 2321.83 1795.98 2319.55 1799.4 2318.75 1800.66 2318.16 1802 2306 1789.74 2306.07 1789.67 2306.29 1789.41 2306.66 1788.96 2307.1 1788.37 2307.73 1787.62 2308.42 1786.84 2309.27 1785.84 2310.22 1784.8 2311.29 1783.69 2312.39 1782.5 2313.64 1781.27 2314.96 1779.97 2316.4 1778.67 2317.9 1777.33 2319.44 1776 2321.06 1774.7 2322.79 1773.4 2324.51 1772.13 2326.35 1770.94 2328.15 1769.83 2330.06 1768.79 2331.97 1767.82 2333.95 1767.01 2335.94 1766.3 2337.96 1765.71 2339.98 1765.26 2342 1765Z" fill="#6C75B7" fill-rule="evenodd"/><path d="M2404 1827 2403.7 1829.02 2403.26 1831.08 2402.7 1833.07 2401.96 1835.09 2401.11 1837.04 2400.18 1838.99 2399.14 1840.86 2398.03 1842.7 2396.81 1844.54 2395.55 1846.27 2394.29 1847.96 2392.95 1849.58 2391.65 1851.16 2390.32 1852.67 2389.02 1854.06 2387.72 1855.35 2386.46 1856.6 2385.31 1857.78 2384.17 1858.84 2383.09 1859.76 2382.16 1860.61 2381.31 1861.31 2380.61 1861.9 2380.01 1862.38 2379.61 1862.74 2379.35 1862.96 2379.23 1863 2367 1850.87 2368.3 1850.28 2369.6 1849.5 2372.97 1847.19 2376.19 1845.02 2379.23 1842.92 2382.16 1841.01 2384.91 1839.21 2387.5 1837.48 2389.95 1835.86 2392.28 1834.35 2394.55 1832.96 2396.62 1831.6 2398.62 1830.38 2400.48 1829.17 2402.29 1828.07 2404 1827Z" fill="#6C75B7" fill-rule="evenodd"/><path d="M2323.44 1818 2324.78 1819.34 2323.67 1821.87 2322.63 1824.44 2321.62 1827.24 2320.73 1830.07 2319.99 1832.94 2318.94 1837.44 2318.13 1841.99 2317.46 1846.57 2317.01 1851.15 2316.9 1852.08 2320.73 1851.75 2324.56 1851.26 2329.06 1850.55 2333.48 1849.62 2337.91 1848.54 2342.26 1847.2 2344.42 1846.42 2346.54 1845.56 2348.62 1844.71 2349.62 1844.22 2351 1845.56 2349.4 1847.69 2347.65 1849.7 2345.72 1851.56 2343.71 1853.27 2341.55 1854.84 2339.29 1856.25 2336.91 1857.56 2334.53 1858.75 2332.07 1859.83 2329.58 1860.72 2327.09 1861.54 2323.26 1862.55 2319.35 1863.33 2315.41 1863.78 2311.47 1864 2310.61 1864 2309.76 1863.93 2308.94 1863.74 2307.97 1863.33 2307.12 1862.73 2306.34 1862.03 2305.78 1861.17 2305.3 1860.24 2305.04 1859.2 2305 1857.97 2305 1856.77 2305.22 1853.27 2305.67 1849.85 2306.3 1846.38 2307.12 1842.99 2308.16 1839.68 2309.28 1836.66 2310.58 1833.68 2312.07 1830.85 2313.74 1828.06 2315.6 1825.45 2317.31 1823.36 2319.21 1821.43 2321.29 1819.64 2323.44 1818Z" fill="#6C75B7" fill-rule="evenodd"/><path d="M2400.78 1752.1 2398.93 1752.21 2397.12 1752.51 2395.3 1752.98 2393.57 1753.72 2391.94 1754.6 2390.35 1755.7 2388.87 1756.99 2387.57 1758.46 2386.47 1760 2385.58 1761.66 2384.87 1763.38 2384.36 1765.15 2384.06 1766.98 2383.95 1768.79 2384.06 1770.66 2384.36 1772.42 2384.87 1774.19 2385.58 1775.95 2386.47 1777.6 2387.57 1779.18 2388.87 1780.65 2390.35 1781.94 2391.94 1783.04 2393.57 1783.93 2395.3 1784.62 2397.12 1785.1 2398.93 1785.43 2400.78 1785.51 2402.66 1785.43 2404.44 1785.1 2406.29 1784.62 2407.95 1783.93 2409.65 1783.04 2411.24 1781.94 2412.72 1780.65 2414.02 1779.18 2415.13 1777.6 2416.01 1775.95 2416.72 1774.19 2417.24 1772.42 2417.53 1770.66 2417.64 1768.79 2417.53 1766.98 2417.24 1765.15 2416.72 1763.38 2416.01 1761.66 2415.13 1760 2414.02 1758.46 2412.72 1756.99 2411.24 1755.7 2409.65 1754.6 2407.95 1753.72 2406.29 1752.98 2404.44 1752.51 2402.66 1752.21 2400.78 1752.1ZM2446.86 1718 2446.97 1718 2447.93 1718.07 2448.89 1718.37 2449.78 1718.85 2450.52 1719.47 2451.15 1720.2 2451.63 1721.16 2451.93 1722.08 2452 1723.11 2451.96 1725.13 2451.85 1727.41 2451.74 1729.87 2451.59 1732.52 2451.37 1735.31 2451.11 1738.28 2450.74 1741.33 2450.34 1744.53 2449.89 1747.8 2449.34 1751.18 2448.71 1754.64 2447.93 1758.09 2447.12 1761.62 2446.19 1765.15 2445.12 1768.71 2443.97 1772.2 2442.72 1775.66 2441.27 1779.11 2439.72 1782.49 2438.02 1785.8 2436.17 1789 2434.21 1792.05 2432.07 1794.95 2429.74 1797.82 2427.29 1800.43 2425.26 1802.37 2423.34 1804.21 2421.56 1805.83 2419.86 1807.33 2418.16 1808.73 2416.5 1810.02 2414.87 1811.27 2413.2 1812.48 2411.5 1813.65 2409.73 1814.83 2407.84 1816.04 2405.88 1817.29 2403.74 1818.62 2401.44 1820.05 2399.82 1821.04 2398.08 1822.11 2396.3 1823.28 2394.38 1824.46 2392.38 1825.71 2390.24 1827.1 2387.94 1828.5 2385.58 1830.04 2383.06 1831.7 2380.4 1833.46 2377.59 1835.34 2374.59 1837.32 2371.45 1839.41 2368.12 1841.69 2364.64 1844.08 2363.72 1844.6 2362.76 1844.89 2361.76 1845 2360.76 1844.93 2359.84 1844.6 2358.99 1844.15 2358.17 1843.49 2325.48 1811.12 2324.85 1810.31 2324.37 1809.43 2324.11 1808.51 2324 1807.52 2324.11 1806.49 2324.41 1805.57 2324.92 1804.69 2327.33 1801.23 2329.62 1797.93 2331.77 1794.8 2333.76 1791.86 2335.65 1789.07 2337.39 1786.39 2339.05 1783.93 2340.61 1781.54 2342.08 1779.3 2343.42 1777.16 2344.71 1775.18 2345.93 1773.27 2347.08 1771.5 2348.15 1769.78 2349.19 1768.16 2350.55 1765.88 2351.92 1763.79 2353.22 1761.84 2354.4 1759.97 2355.62 1758.2 2356.77 1756.51 2357.99 1754.82 2359.25 1753.17 2360.58 1751.59 2361.98 1749.9 2363.5 1748.21 2365.13 1746.41 2366.94 1744.53 2368.94 1742.51 2371.6 1740.09 2374.41 1737.77 2377.33 1735.64 2380.47 1733.69 2383.65 1731.89 2387.02 1730.2 2390.35 1728.66 2393.86 1727.26 2397.34 1725.97 2400.93 1724.84 2404.44 1723.77 2408.03 1722.81 2411.54 1722.04 2415.09 1721.27 2418.53 1720.65 2421.93 1720.09 2425.22 1719.65 2428.44 1719.25 2431.58 1718.88 2434.51 1718.62 2437.35 1718.4 2440.02 1718.22 2442.5 1718.11 2444.75 1718.04 2446.86 1718Z" fill="#6C75B7" fill-rule="evenodd"/><text fill="#6C75B7" font-family="Arial,Arial_MSFontService,sans-serif" font-weight="700" font-size="64" transform="matrix(1 0 0 1 2311.04 1958)">DEV</text><path d="M2859.5 2066.33C2859.5 2060.35 2864.35 2055.5 2870.33 2055.5L3049.67 2055.5C3055.65 2055.5 3060.5 2060.35 3060.5 2066.33L3060.5 2109.67C3060.5 2115.65 3055.65 2120.5 3049.67 2120.5L2870.33 2120.5C2864.35 2120.5 2859.5 2115.65 2859.5 2109.67Z" stroke="#C00000" stroke-width="4.58333" stroke-miterlimit="8" fill="#FF0000" fill-rule="evenodd"/><text fill="#FEFEFE" font-family="Arial,Arial_MSFontService,sans-serif" font-weight="700" font-size="32" transform="matrix(1 0 0 1 2900.74 2099)">HOTFIX</text><path d="M3510.94 1093.5 3510.94 1121 3504.06 1121 3504.06 1093.5ZM3510.94 1141.62 3510.94 1169.12 3504.06 1169.12 3504.06 1141.62ZM3510.94 1189.75 3510.94 1217.25 3504.06 1217.25 3504.06 1189.75ZM3510.94 1237.88 3510.94 1265.38 3504.06 1265.38 3504.06 1237.88ZM3510.94 1286 3510.94 1313.5 3504.06 1313.5 3504.06 1286ZM3510.94 1334.12 3510.94 1361.62 3504.06 1361.62 3504.06 1334.12ZM3510.94 1382.25 3510.94 1409.75 3504.06 1409.75 3504.06 1382.25ZM3510.94 1430.38 3510.94 1457.88 3504.06 1457.88 3504.06 1430.38ZM3510.94 1478.5 3510.94 1506 3504.06 1506 3504.06 1478.5ZM3510.94 1526.62 3510.94 1554.12 3504.06 1554.12 3504.06 1526.62ZM3510.94 1574.75 3510.94 1602.25 3504.06 1602.25 3504.06 1574.75ZM3510.94 1622.88 3510.94 1650.38 3504.06 1650.38 3504.06 1622.88ZM3510.94 1671 3510.94 1698.5 3504.06 1698.5 3504.06 1671ZM3510.94 1719.12 3510.94 1746.62 3504.06 1746.62 3504.06 1719.12ZM3510.94 1767.25 3510.94 1794.75 3504.06 1794.75 3504.06 1767.25ZM3521.25 1792.54 3507.5 1820.04 3493.75 1792.54Z" fill="#6C75B7"/><path d="M3848.94 1093.5 3848.94 1121 3842.06 1121 3842.06 1093.5ZM3848.94 1141.62 3848.94 1169.12 3842.06 1169.12 3842.06 1141.62ZM3848.94 1189.75 3848.94 1217.25 3842.06 1217.25 3842.06 1189.75ZM3848.94 1237.88 3848.94 1265.38 3842.06 1265.38 3842.06 1237.88ZM3848.94 1286 3848.94 1313.5 3842.06 1313.5 3842.06 1286ZM3848.94 1334.12 3848.94 1361.62 3842.06 1361.62 3842.06 1334.12ZM3848.94 1382.25 3848.94 1409.75 3842.06 1409.75 3842.06 1382.25ZM3848.94 1430.38 3848.94 1457.88 3842.06 1457.88 3842.06 1430.38ZM3848.94 1478.5 3848.94 1506 3842.06 1506 3842.06 1478.5ZM3848.94 1526.62 3848.94 1554.12 3842.06 1554.12 3842.06 1526.62ZM3848.94 1574.75 3848.94 1602.25 3842.06 1602.25 3842.06 1574.75ZM3848.94 1622.88 3848.94 1650.38 3842.06 1650.38 3842.06 1622.88ZM3848.94 1671 3848.94 1698.5 3842.06 1698.5 3842.06 1671ZM3848.94 1719.12 3848.94 1746.62 3842.06 1746.62 3842.06 1719.12ZM3848.94 1767.25 3848.94 1794.75 3842.06 1794.75 3842.06 1767.25ZM3859.25 1792.54 3845.5 1820.04 3831.75 1792.54Z" fill="#6C75B7"/><path d="M3471 1767 3469.97 1768.66 3468.83 1770.4 3467.69 1772.24 3466.44 1774.16 3465.09 1776.22 3463.69 1778.35 3462.18 1780.59 3460.57 1783.05 3458.84 1785.58 3457 1788.25 3455.06 1791.04 3453.04 1794.04 3450.83 1797.14 3448.55 1800.47 3447.75 1801.7 3447.16 1803 3435 1791.07 3435.07 1791 3435.29 1790.75 3435.66 1790.31 3436.1 1789.73 3436.73 1789.01 3437.42 1788.25 3438.27 1787.28 3439.22 1786.27 3440.29 1785.18 3441.39 1784.02 3442.64 1782.83 3443.96 1781.57 3445.4 1780.3 3446.9 1779 3448.44 1777.7 3450.06 1776.43 3451.79 1775.17 3453.51 1773.94 3455.35 1772.78 3457.15 1771.7 3459.06 1770.69 3460.97 1769.75 3462.95 1768.95 3464.94 1768.26 3466.96 1767.69 3468.98 1767.25 3471 1767Z" fill="#6C75B7" fill-rule="evenodd"/><path d="M3533 1828 3532.7 1830.02 3532.26 1832.08 3531.7 1834.07 3530.96 1836.09 3530.11 1838.04 3529.18 1839.99 3528.14 1841.86 3527.03 1843.7 3525.81 1845.54 3524.55 1847.27 3523.29 1848.96 3521.95 1850.58 3520.65 1852.16 3519.32 1853.67 3518.02 1855.06 3516.72 1856.35 3515.46 1857.6 3514.31 1858.78 3513.17 1859.84 3512.09 1860.76 3511.16 1861.61 3510.31 1862.31 3509.61 1862.9 3509.01 1863.38 3508.61 1863.74 3508.35 1863.96 3508.23 1864 3496 1851.87 3497.3 1851.28 3498.6 1850.5 3501.97 1848.19 3505.19 1846.02 3508.23 1843.92 3511.16 1842.01 3513.91 1840.21 3516.5 1838.48 3518.95 1836.86 3521.28 1835.35 3523.55 1833.96 3525.62 1832.6 3527.62 1831.38 3529.48 1830.17 3531.29 1829.07 3533 1828Z" fill="#6C75B7" fill-rule="evenodd"/><path d="M3452.44 1820 3453.78 1821.31 3452.67 1823.79 3451.63 1826.3 3450.62 1829.04 3449.73 1831.81 3448.99 1834.61 3447.95 1839.02 3447.13 1843.47 3446.46 1847.95 3446.01 1852.43 3445.9 1853.34 3449.73 1853.01 3453.56 1852.54 3458.06 1851.85 3462.49 1850.94 3466.91 1849.88 3471.26 1848.57 3473.42 1847.8 3475.54 1846.96 3477.62 1846.13 3478.62 1845.65 3480 1846.96 3478.4 1849.04 3476.65 1851.01 3474.72 1852.83 3472.71 1854.51 3470.55 1856.04 3468.29 1857.42 3465.91 1858.7 3463.53 1859.86 3461.07 1860.92 3458.58 1861.79 3456.09 1862.59 3452.26 1863.58 3448.35 1864.34 3444.41 1864.78 3440.47 1865 3439.62 1865 3438.76 1864.93 3437.94 1864.74 3436.97 1864.34 3436.12 1863.76 3435.34 1863.07 3434.78 1862.23 3434.3 1861.32 3434.04 1860.3 3434 1859.1 3434 1857.93 3434.22 1854.51 3434.67 1851.15 3435.3 1847.77 3436.12 1844.45 3437.16 1841.21 3438.28 1838.26 3439.58 1835.34 3441.07 1832.57 3442.74 1829.84 3444.6 1827.29 3446.31 1825.25 3448.21 1823.35 3450.29 1821.6 3452.44 1820Z" fill="#6C75B7" fill-rule="evenodd"/><path d="M3529.78 1753.37 3527.93 1753.48 3526.12 1753.78 3524.3 1754.26 3522.57 1755 3520.94 1755.89 3519.35 1757 3517.87 1758.3 3516.57 1759.78 3515.47 1761.33 3514.58 1763 3513.87 1764.74 3513.36 1766.52 3513.06 1768.37 3512.95 1770.19 3513.06 1772.07 3513.36 1773.85 3513.87 1775.63 3514.58 1777.41 3515.47 1779.07 3516.57 1780.67 3517.87 1782.15 3519.35 1783.44 3520.94 1784.56 3522.57 1785.44 3524.3 1786.15 3526.12 1786.63 3527.93 1786.96 3529.78 1787.04 3531.66 1786.96 3533.44 1786.63 3535.29 1786.15 3536.95 1785.44 3538.65 1784.56 3540.24 1783.44 3541.72 1782.15 3543.02 1780.67 3544.13 1779.07 3545.01 1777.41 3545.72 1775.63 3546.24 1773.85 3546.53 1772.07 3546.64 1770.19 3546.53 1768.37 3546.24 1766.52 3545.72 1764.74 3545.01 1763 3544.13 1761.33 3543.02 1759.78 3541.72 1758.3 3540.24 1757 3538.65 1755.89 3536.95 1755 3535.29 1754.26 3533.44 1753.78 3531.66 1753.48 3529.78 1753.37ZM3575.86 1719 3575.97 1719 3576.93 1719.07 3577.89 1719.37 3578.78 1719.85 3579.52 1720.48 3580.15 1721.22 3580.63 1722.19 3580.93 1723.11 3581 1724.15 3580.96 1726.19 3580.85 1728.48 3580.74 1730.96 3580.59 1733.63 3580.37 1736.44 3580.11 1739.44 3579.74 1742.52 3579.34 1745.74 3578.89 1749.04 3578.34 1752.44 3577.71 1755.93 3576.93 1759.41 3576.12 1762.96 3575.19 1766.52 3574.12 1770.11 3572.97 1773.63 3571.72 1777.11 3570.27 1780.59 3568.72 1784 3567.02 1787.33 3565.17 1790.56 3563.21 1793.63 3561.07 1796.56 3558.74 1799.44 3556.29 1802.07 3554.26 1804.04 3552.34 1805.89 3550.56 1807.52 3548.86 1809.04 3547.16 1810.44 3545.5 1811.74 3543.87 1813 3542.2 1814.22 3540.5 1815.41 3538.73 1816.59 3536.84 1817.81 3534.88 1819.07 3532.74 1820.41 3530.44 1821.85 3528.82 1822.85 3527.08 1823.93 3525.3 1825.11 3523.38 1826.3 3521.38 1827.56 3519.24 1828.96 3516.94 1830.37 3514.58 1831.93 3512.06 1833.59 3509.4 1835.37 3506.59 1837.26 3503.59 1839.26 3500.45 1841.37 3497.12 1843.67 3493.64 1846.07 3492.72 1846.59 3491.76 1846.89 3490.76 1847 3489.76 1846.93 3488.84 1846.59 3487.99 1846.15 3487.17 1845.48 3454.48 1812.85 3453.85 1812.04 3453.37 1811.15 3453.11 1810.22 3453 1809.22 3453.11 1808.19 3453.41 1807.26 3453.92 1806.37 3456.33 1802.89 3458.62 1799.56 3460.77 1796.41 3462.76 1793.44 3464.65 1790.63 3466.39 1787.93 3468.05 1785.44 3469.61 1783.04 3471.08 1780.78 3472.42 1778.63 3473.71 1776.63 3474.93 1774.7 3476.08 1772.93 3477.15 1771.19 3478.19 1769.56 3479.55 1767.26 3480.92 1765.15 3482.22 1763.19 3483.4 1761.3 3484.62 1759.52 3485.77 1757.81 3486.99 1756.11 3488.25 1754.44 3489.58 1752.85 3490.98 1751.15 3492.5 1749.44 3494.13 1747.63 3495.94 1745.74 3497.94 1743.7 3500.6 1741.26 3503.41 1738.93 3506.33 1736.78 3509.47 1734.81 3512.65 1733 3516.02 1731.3 3519.35 1729.74 3522.86 1728.33 3526.34 1727.04 3529.93 1725.89 3533.44 1724.81 3537.03 1723.85 3540.54 1723.07 3544.09 1722.3 3547.53 1721.67 3550.93 1721.11 3554.22 1720.67 3557.44 1720.26 3560.58 1719.89 3563.51 1719.63 3566.35 1719.41 3569.02 1719.22 3571.5 1719.11 3573.75 1719.04 3575.86 1719Z" fill="#6C75B7" fill-rule="evenodd"/><text fill="#6C75B7" font-family="Arial,Arial_MSFontService,sans-serif" font-weight="700" font-size="64" transform="matrix(1 0 0 1 3440.06 1960)">DEV</text><path d="M3810 1769 3808.97 1770.66 3807.83 1772.4 3806.69 1774.24 3805.45 1776.16 3804.09 1778.22 3802.69 1780.35 3801.18 1782.59 3799.57 1785.05 3797.84 1787.58 3796 1790.25 3794.06 1793.04 3792.04 1796.04 3789.83 1799.14 3787.56 1802.47 3786.75 1803.7 3786.16 1805 3774 1793.07 3774.07 1793 3774.29 1792.75 3774.66 1792.31 3775.1 1791.73 3775.73 1791.01 3776.42 1790.25 3777.27 1789.28 3778.22 1788.27 3779.29 1787.18 3780.39 1786.02 3781.64 1784.83 3782.96 1783.57 3784.4 1782.3 3785.9 1781 3787.44 1779.7 3789.06 1778.43 3790.79 1777.17 3792.51 1775.94 3794.35 1774.78 3796.15 1773.7 3798.06 1772.69 3799.97 1771.75 3801.96 1770.95 3803.94 1770.26 3805.96 1769.69 3807.98 1769.25 3810 1769Z" fill="#6C75B7" fill-rule="evenodd"/><path d="M3872 1830 3871.7 1832.08 3871.26 1834.2 3870.7 1836.24 3869.96 1838.31 3869.11 1840.32 3868.18 1842.32 3867.14 1844.25 3866.03 1846.14 3864.81 1848.03 3863.55 1849.8 3862.29 1851.54 3860.95 1853.21 3859.65 1854.83 3858.32 1856.38 3857.02 1857.82 3855.72 1859.14 3854.46 1860.42 3853.31 1861.63 3852.17 1862.73 3851.09 1863.67 3850.16 1864.54 3849.31 1865.26 3848.61 1865.87 3848.01 1866.36 3847.6 1866.74 3847.35 1866.96 3847.23 1867 3835 1854.53 3836.3 1853.92 3837.59 1853.13 3840.97 1850.75 3844.19 1848.52 3847.23 1846.36 3850.16 1844.4 3852.91 1842.55 3855.5 1840.77 3857.95 1839.11 3860.28 1837.56 3862.55 1836.12 3864.62 1834.72 3866.62 1833.48 3868.48 1832.23 3870.29 1831.1 3872 1830Z" fill="#6C75B7" fill-rule="evenodd"/><path d="M3791.44 1822 3792.78 1823.31 3791.67 1825.79 3790.63 1828.3 3789.62 1831.04 3788.73 1833.81 3787.99 1836.61 3786.95 1841.02 3786.13 1845.47 3785.46 1849.95 3785.01 1854.43 3784.9 1855.34 3788.73 1855.01 3792.56 1854.54 3797.06 1853.85 3801.49 1852.94 3805.91 1851.88 3810.26 1850.57 3812.42 1849.8 3814.54 1848.96 3816.62 1848.13 3817.62 1847.65 3819 1848.96 3817.4 1851.04 3815.65 1853.01 3813.72 1854.83 3811.71 1856.51 3809.55 1858.04 3807.29 1859.42 3804.91 1860.7 3802.53 1861.86 3800.07 1862.92 3797.58 1863.79 3795.09 1864.6 3791.26 1865.58 3787.35 1866.34 3783.41 1866.78 3779.47 1867 3778.62 1867 3777.76 1866.93 3776.94 1866.74 3775.97 1866.34 3775.12 1865.76 3774.34 1865.07 3773.78 1864.23 3773.3 1863.32 3773.04 1862.3 3773 1861.1 3773 1859.93 3773.22 1856.51 3773.67 1853.15 3774.3 1849.77 3775.12 1846.45 3776.16 1843.21 3777.28 1840.26 3778.58 1837.34 3780.07 1834.57 3781.74 1831.84 3783.6 1829.29 3785.31 1827.25 3787.21 1825.35 3789.29 1823.6 3791.44 1822Z" fill="#6C75B7" fill-rule="evenodd"/><path d="M3868.78 1755.37 3866.93 1755.48 3865.12 1755.78 3863.3 1756.26 3861.57 1757 3859.94 1757.89 3858.35 1759 3856.87 1760.3 3855.57 1761.78 3854.47 1763.33 3853.58 1765 3852.88 1766.74 3852.36 1768.52 3852.06 1770.37 3851.95 1772.19 3852.06 1774.07 3852.36 1775.85 3852.88 1777.63 3853.58 1779.41 3854.47 1781.07 3855.57 1782.67 3856.87 1784.15 3858.35 1785.44 3859.94 1786.56 3861.57 1787.44 3863.3 1788.15 3865.12 1788.63 3866.93 1788.96 3868.78 1789.04 3870.66 1788.96 3872.44 1788.63 3874.29 1788.15 3875.95 1787.44 3877.65 1786.56 3879.24 1785.44 3880.72 1784.15 3882.02 1782.67 3883.13 1781.07 3884.02 1779.41 3884.72 1777.63 3885.24 1775.85 3885.53 1774.07 3885.64 1772.19 3885.53 1770.37 3885.24 1768.52 3884.72 1766.74 3884.02 1765 3883.13 1763.33 3882.02 1761.78 3880.72 1760.3 3879.24 1759 3877.65 1757.89 3875.95 1757 3874.29 1756.26 3872.44 1755.78 3870.66 1755.48 3868.78 1755.37ZM3914.86 1721 3914.97 1721 3915.93 1721.07 3916.89 1721.37 3917.78 1721.85 3918.52 1722.48 3919.15 1723.22 3919.63 1724.19 3919.93 1725.11 3920 1726.15 3919.96 1728.19 3919.85 1730.48 3919.74 1732.96 3919.59 1735.63 3919.37 1738.44 3919.11 1741.44 3918.74 1744.52 3918.34 1747.74 3917.89 1751.04 3917.34 1754.44 3916.71 1757.93 3915.93 1761.41 3915.12 1764.96 3914.19 1768.52 3913.12 1772.11 3911.97 1775.63 3910.72 1779.11 3909.27 1782.59 3907.72 1786 3906.02 1789.33 3904.17 1792.56 3902.21 1795.63 3900.07 1798.56 3897.74 1801.44 3895.3 1804.07 3893.26 1806.04 3891.34 1807.89 3889.56 1809.52 3887.86 1811.04 3886.16 1812.44 3884.5 1813.74 3882.87 1815 3881.2 1816.22 3879.5 1817.41 3877.73 1818.59 3875.84 1819.81 3873.88 1821.07 3871.74 1822.41 3869.44 1823.85 3867.82 1824.85 3866.08 1825.93 3864.3 1827.11 3862.38 1828.3 3860.38 1829.56 3858.24 1830.96 3855.94 1832.37 3853.58 1833.93 3851.06 1835.59 3848.4 1837.37 3845.59 1839.26 3842.59 1841.26 3839.45 1843.37 3836.12 1845.67 3832.65 1848.07 3831.72 1848.59 3830.76 1848.89 3829.76 1849 3828.76 1848.93 3827.84 1848.59 3826.99 1848.15 3826.17 1847.48 3793.48 1814.85 3792.85 1814.04 3792.37 1813.15 3792.11 1812.22 3792 1811.22 3792.11 1810.19 3792.41 1809.26 3792.92 1808.37 3795.33 1804.89 3797.62 1801.56 3799.77 1798.41 3801.76 1795.44 3803.65 1792.63 3805.39 1789.93 3807.05 1787.44 3808.61 1785.04 3810.08 1782.78 3811.42 1780.63 3812.71 1778.63 3813.93 1776.7 3815.08 1774.93 3816.15 1773.19 3817.19 1771.56 3818.55 1769.26 3819.92 1767.15 3821.22 1765.19 3822.4 1763.3 3823.62 1761.52 3824.77 1759.81 3825.99 1758.11 3827.25 1756.44 3828.58 1754.85 3829.98 1753.15 3831.5 1751.44 3833.13 1749.63 3834.94 1747.74 3836.94 1745.7 3839.6 1743.26 3842.41 1740.93 3845.33 1738.78 3848.47 1736.81 3851.65 1735 3855.02 1733.3 3858.35 1731.74 3861.86 1730.33 3865.34 1729.04 3868.93 1727.89 3872.44 1726.81 3876.03 1725.85 3879.54 1725.07 3883.09 1724.3 3886.53 1723.67 3889.93 1723.11 3893.22 1722.67 3896.44 1722.26 3899.59 1721.89 3902.51 1721.63 3905.35 1721.41 3908.02 1721.22 3910.5 1721.11 3912.75 1721.04 3914.86 1721Z" fill="#6C75B7" fill-rule="evenodd"/><text fill="#6C75B7" font-family="Arial,Arial_MSFontService,sans-serif" font-weight="700" font-size="64" transform="matrix(1 0 0 1 3778.98 1962)">DEV</text><path d="M3409.94 762.5 3409.94 790 3403.06 790 3403.06 762.5ZM3409.94 810.625 3409.94 838.125 3403.06 838.125 3403.06 810.625ZM3409.94 858.75 3409.94 886.25 3403.06 886.25 3403.06 858.75ZM3409.94 906.875 3409.94 934.375 3403.06 934.375 3403.06 906.875ZM3409.94 955 3409.94 982.5 3403.06 982.5 3403.06 955ZM3409.94 1003.12 3409.94 1030.62 3403.06 1030.62 3403.06 1003.12ZM3409.94 1051.25 3409.94 1078.75 3403.06 1078.75 3403.06 1051.25ZM3409.94 1099.38 3409.94 1126.88 3403.06 1126.88 3403.06 1099.38ZM3409.94 1147.5 3409.94 1175 3403.06 1175 3403.06 1147.5ZM3409.94 1195.62 3409.94 1223.12 3403.06 1223.12 3403.06 1195.62ZM3409.94 1243.75 3409.94 1271.25 3403.06 1271.25 3403.06 1243.75ZM3409.94 1291.88 3409.94 1319.38 3403.06 1319.38 3403.06 1291.88ZM3409.94 1340 3409.94 1367.5 3403.06 1367.5 3403.06 1340ZM3409.94 1388.12 3409.94 1415.62 3403.06 1415.62 3403.06 1388.12ZM3409.94 1436.25 3409.94 1463.75 3403.06 1463.75 3403.06 1436.25ZM3409.94 1484.38 3409.94 1511.88 3403.06 1511.88 3403.06 1484.38ZM3409.94 1532.5 3409.94 1560 3403.06 1560 3403.06 1532.5ZM3409.94 1580.62 3409.94 1608.12 3403.06 1608.12 3403.06 1580.62ZM3409.94 1628.75 3409.94 1656.25 3403.06 1656.25 3403.06 1628.75ZM3409.94 1676.88 3409.94 1704.38 3403.06 1704.38 3403.06 1676.88ZM3409.94 1725 3409.94 1752.5 3403.06 1752.5 3403.06 1725ZM3409.94 1773.12 3409.94 1800.62 3403.06 1800.62 3403.06 1773.12ZM3409.94 1821.25 3409.94 1848.75 3403.06 1848.75 3403.06 1821.25ZM3409.94 1869.38 3409.94 1896.88 3403.06 1896.88 3403.06 1869.38ZM3409.94 1917.5 3409.94 1945 3403.06 1945 3403.06 1917.5ZM3409.94 1965.62 3409.94 1993.12 3403.06 1993.12 3403.06 1965.62ZM3409.94 2013.75 3409.94 2039.62 3403.06 2039.62 3403.06 2013.75ZM3420.25 2035.04 3406.5 2062.54 3392.75 2035.04Z" fill="#9E4694"/><path d="M3371 2009 3369.94 2010.71 3368.77 2012.49 3367.6 2014.39 3366.32 2016.36 3364.92 2018.47 3363.49 2020.66 3361.94 2022.97 3360.28 2025.49 3358.5 2028.09 3356.62 2030.84 3354.61 2033.7 3352.54 2036.79 3350.27 2039.98 3347.93 2043.4 3347.1 2044.66 3346.5 2046 3334 2033.74 3334.08 2033.67 3334.3 2033.41 3334.68 2032.96 3335.13 2032.37 3335.77 2031.62 3336.49 2030.84 3337.36 2029.84 3338.34 2028.8 3339.44 2027.69 3340.57 2026.5 3341.85 2025.27 3343.21 2023.97 3344.68 2022.67 3346.23 2021.33 3347.82 2020 3349.48 2018.7 3351.25 2017.4 3353.03 2016.13 3354.92 2014.94 3356.77 2013.83 3358.73 2012.79 3360.69 2011.82 3362.73 2011.01 3364.77 2010.3 3366.85 2009.71 3368.92 2009.26 3371 2009Z" fill="#9E4694" fill-rule="evenodd"/><path d="M3432 2071 3431.71 2073.02 3431.28 2075.08 3430.74 2077.07 3430.02 2079.09 3429.19 2081.04 3428.28 2082.99 3427.27 2084.86 3426.19 2086.7 3425 2088.54 3423.78 2090.27 3422.55 2091.96 3421.25 2093.58 3419.99 2095.16 3418.69 2096.67 3417.43 2098.06 3416.16 2099.35 3414.94 2100.6 3413.82 2101.78 3412.7 2102.84 3411.66 2103.76 3410.75 2104.61 3409.92 2105.31 3409.24 2105.9 3408.66 2106.37 3408.26 2106.74 3408.01 2106.96 3407.9 2107 3396 2094.86 3397.26 2094.28 3398.53 2093.5 3401.81 2091.19 3404.95 2089.02 3407.9 2086.92 3410.75 2085.01 3413.42 2083.21 3415.95 2081.48 3418.33 2079.86 3420.6 2078.35 3422.8 2076.96 3424.82 2075.6 3426.77 2074.38 3428.57 2073.17 3430.34 2072.07 3432 2071Z" fill="#9E4694" fill-rule="evenodd"/><path d="M3352.04 2062 3353.35 2063.34 3352.26 2065.87 3351.24 2068.44 3350.26 2071.24 3349.39 2074.07 3348.66 2076.94 3347.64 2081.44 3346.84 2085.99 3346.19 2090.57 3345.75 2095.15 3345.64 2096.08 3349.39 2095.75 3353.14 2095.26 3357.54 2094.55 3361.87 2093.62 3366.19 2092.54 3370.45 2091.2 3372.56 2090.42 3374.63 2089.56 3376.67 2088.71 3377.65 2088.22 3379 2089.56 3377.44 2091.69 3375.73 2093.7 3373.83 2095.56 3371.87 2097.27 3369.76 2098.84 3367.54 2100.25 3365.21 2101.56 3362.88 2102.75 3360.48 2103.83 3358.05 2104.72 3355.61 2105.54 3351.86 2106.55 3348.04 2107.33 3344.19 2107.78 3340.33 2108 3339.49 2108 3338.66 2107.93 3337.86 2107.74 3336.91 2107.33 3336.07 2106.73 3335.31 2106.03 3334.76 2105.17 3334.29 2104.24 3334.04 2103.2 3334 2101.97 3334 2100.77 3334.22 2097.27 3334.65 2093.85 3335.27 2090.38 3336.07 2086.99 3337.09 2083.68 3338.18 2080.66 3339.46 2077.68 3340.91 2074.85 3342.55 2072.06 3344.37 2069.45 3346.04 2067.36 3347.9 2065.43 3349.93 2063.64 3352.04 2062Z" fill="#9E4694" fill-rule="evenodd"/><path d="M3428.78 1996.1 3426.93 1996.21 3425.12 1996.51 3423.3 1996.98 3421.57 1997.72 3419.94 1998.6 3418.35 1999.7 3416.87 2000.99 3415.57 2002.46 3414.47 2004 3413.58 2005.66 3412.88 2007.38 3412.36 2009.15 3412.06 2010.98 3411.95 2012.79 3412.06 2014.66 3412.36 2016.42 3412.88 2018.19 3413.58 2019.95 3414.47 2021.6 3415.57 2023.18 3416.87 2024.65 3418.35 2025.94 3419.94 2027.04 3421.57 2027.93 3423.3 2028.62 3425.12 2029.1 3426.93 2029.43 3428.78 2029.51 3430.66 2029.43 3432.44 2029.1 3434.29 2028.62 3435.95 2027.93 3437.65 2027.04 3439.24 2025.94 3440.72 2024.65 3442.02 2023.18 3443.13 2021.6 3444.02 2019.95 3444.72 2018.19 3445.24 2016.42 3445.53 2014.66 3445.64 2012.79 3445.53 2010.98 3445.24 2009.15 3444.72 2007.38 3444.02 2005.66 3443.13 2004 3442.02 2002.46 3440.72 2000.99 3439.24 1999.7 3437.65 1998.6 3435.95 1997.72 3434.29 1996.98 3432.44 1996.51 3430.66 1996.21 3428.78 1996.1ZM3474.86 1962 3474.97 1962 3475.93 1962.07 3476.89 1962.37 3477.78 1962.85 3478.52 1963.47 3479.15 1964.2 3479.63 1965.16 3479.93 1966.08 3480 1967.11 3479.96 1969.13 3479.85 1971.41 3479.74 1973.87 3479.59 1976.52 3479.37 1979.31 3479.11 1982.28 3478.74 1985.33 3478.34 1988.53 3477.89 1991.8 3477.34 1995.18 3476.71 1998.64 3475.93 2002.09 3475.12 2005.62 3474.19 2009.15 3473.12 2012.71 3471.97 2016.2 3470.72 2019.66 3469.27 2023.11 3467.72 2026.49 3466.02 2029.8 3464.17 2033 3462.21 2036.05 3460.07 2038.95 3457.74 2041.82 3455.3 2044.43 3453.26 2046.37 3451.34 2048.21 3449.56 2049.83 3447.86 2051.33 3446.16 2052.73 3444.5 2054.02 3442.87 2055.27 3441.2 2056.48 3439.5 2057.65 3437.73 2058.83 3435.84 2060.04 3433.88 2061.29 3431.74 2062.62 3429.44 2064.05 3427.82 2065.04 3426.08 2066.11 3424.3 2067.28 3422.38 2068.46 3420.38 2069.71 3418.24 2071.1 3415.94 2072.5 3413.58 2074.04 3411.06 2075.7 3408.4 2077.46 3405.59 2079.34 3402.59 2081.32 3399.45 2083.41 3396.12 2085.69 3392.65 2088.08 3391.72 2088.6 3390.76 2088.89 3389.76 2089 3388.76 2088.93 3387.84 2088.6 3386.99 2088.15 3386.17 2087.49 3353.48 2055.12 3352.85 2054.31 3352.37 2053.43 3352.11 2052.51 3352 2051.52 3352.11 2050.49 3352.41 2049.57 3352.92 2048.69 3355.33 2045.23 3357.62 2041.93 3359.77 2038.8 3361.76 2035.86 3363.65 2033.07 3365.39 2030.39 3367.05 2027.93 3368.61 2025.54 3370.08 2023.3 3371.42 2021.16 3372.71 2019.18 3373.93 2017.27 3375.08 2015.5 3376.15 2013.78 3377.19 2012.16 3378.55 2009.88 3379.92 2007.79 3381.22 2005.84 3382.4 2003.97 3383.62 2002.2 3384.77 2000.51 3385.99 1998.82 3387.25 1997.17 3388.58 1995.59 3389.98 1993.9 3391.5 1992.21 3393.13 1990.41 3394.94 1988.53 3396.94 1986.51 3399.6 1984.09 3402.41 1981.77 3405.33 1979.64 3408.47 1977.69 3411.65 1975.89 3415.02 1974.2 3418.35 1972.66 3421.86 1971.26 3425.34 1969.97 3428.93 1968.84 3432.44 1967.77 3436.03 1966.81 3439.54 1966.04 3443.09 1965.27 3446.53 1964.65 3449.93 1964.09 3453.22 1963.65 3456.44 1963.25 3459.59 1962.88 3462.51 1962.62 3465.35 1962.4 3468.02 1962.22 3470.5 1962.11 3472.75 1962.04 3474.86 1962Z" fill="#9E4694" fill-rule="evenodd"/><text fill="#9E4694" font-family="Arial,Arial_MSFontService,sans-serif" font-weight="700" font-size="64" transform="matrix(1 0 0 1 3339.28 2202)">UAT</text><path d="M931 645 1646.5 645 1712 710.5 1646.5 776 931 776Z" fill="#BEBEBE" fill-rule="evenodd"/><text fill="#FEFEFE" font-family="Arial,Arial_MSFontService,sans-serif" font-weight="400" font-size="83" transform="matrix(1 0 0 1 1163.36 741)">Sprint 0</text><path d="M1688.5 645.5 2380 645.5 2445.5 711 2380 776.5 1688.5 776.5 1754 711Z" stroke="#FEFEFE" stroke-width="6.875" stroke-miterlimit="8" fill="#BEBEBE" fill-rule="evenodd"/><text fill="#FEFEFE" font-family="Arial,Arial_MSFontService,sans-serif" font-weight="400" font-size="83" transform="matrix(1 0 0 1 1924.54 741)">Sprint 1</text><path d="M2421.5 645.5 3113 645.5 3178.5 711 3113 776.5 2421.5 776.5 2487 711Z" stroke="#FEFEFE" stroke-width="6.875" stroke-miterlimit="8" fill="#BEBEBE" fill-rule="evenodd"/><text fill="#FEFEFE" font-family="Arial,Arial_MSFontService,sans-serif" font-weight="400" font-size="83" transform="matrix(1 0 0 1 2657.7 741)">Sprint 2</text><path d="M3154.5 647.5 3846 647.5 3911.5 713 3846 778.5 3154.5 778.5 3220 713Z" stroke="#FEFEFE" stroke-width="6.875" stroke-miterlimit="8" fill="#BEBEBE" fill-rule="evenodd"/><text fill="#FEFEFE" font-family="Arial,Arial_MSFontService,sans-serif" font-weight="400" font-size="83" transform="matrix(1 0 0 1 3390.36 743)">Sprint 3</text><path d="M0 0 0.000360892 954.457" stroke="#7F7F7F" stroke-width="4.58333" stroke-miterlimit="8" stroke-dasharray="18.3333 13.75" fill="none" fill-rule="evenodd" transform="matrix(1 0 0 -1 938.5 1571.96)"/><text fill="#7F7F7F" font-family="Arial,Arial_MSFontService,sans-serif" font-weight="700" font-size="64" transform="matrix(1 0 0 1 897.847 584)">S0</text><path d="M0 0 0.000360892 954.457" stroke="#7F7F7F" stroke-width="4.58333" stroke-miterlimit="8" stroke-dasharray="18.3333 13.75" fill="none" fill-rule="evenodd" transform="matrix(1 0 0 -1 1702.5 1571.96)"/><text fill="#7F7F7F" font-family="Arial,Arial_MSFontService,sans-serif" font-weight="700" font-size="64" transform="matrix(1 0 0 1 1662.54 584)">S3</text><path d="M0 0 0.000360892 954.277" stroke="#7F7F7F" stroke-width="4.58333" stroke-miterlimit="8" stroke-dasharray="18.3333 13.75" fill="none" fill-rule="evenodd" transform="matrix(1 0 0 -1 2429.5 1571.78)"/><text fill="#7F7F7F" font-family="Arial,Arial_MSFontService,sans-serif" font-weight="700" font-size="64" transform="matrix(1 0 0 1 2389.38 584)">S6</text><path d="M0 0 0.000360892 954.277" stroke="#7F7F7F" stroke-width="4.58333" stroke-miterlimit="8" stroke-dasharray="18.3333 13.75" fill="none" fill-rule="evenodd" transform="matrix(1 0 0 -1 3156.5 1571.78)"/><text fill="#7F7F7F" font-family="Arial,Arial_MSFontService,sans-serif" font-weight="700" font-size="64" transform="matrix(1 0 0 1 3116.21 584)">S9</text><path d="M0 0 0.000360892 954.277" stroke="#7F7F7F" stroke-width="4.58333" stroke-miterlimit="8" stroke-dasharray="18.3333 13.75" fill="none" fill-rule="evenodd" transform="matrix(1 0 0 -1 3889.5 1571.78)"/><text fill="#7F7F7F" font-family="Arial,Arial_MSFontService,sans-serif" font-weight="700" font-size="64" transform="matrix(1 0 0 1 3830.81 584)">S12<tspan fill="#051922" font-size="64" x="-3345.28" y="322">GROOMING</tspan><tspan fill="#051922" font-size="64" x="-3113.82" y="495">RTU</tspan><tspan fill="#051922" font-size="64" x="-3600.62" y="572">TEST INTEGRATION</tspan></text><rect x="994.5" y="831.5" width="306" height="109" stroke="#4D5486" stroke-width="4.58333" stroke-miterlimit="8" fill="#6C75B7"/><text fill="#FEFEFE" font-family="Arial,Arial_MSFontService,sans-serif" font-weight="400" font-size="83" transform="matrix(1 0 0 1 1043.73 916)">US#1</text><rect x="1331.5" y="831.5" width="307" height="109" stroke="#31898F" stroke-width="4.58333" stroke-miterlimit="8" fill="#46BBC3"/><text fill="#FEFEFE" font-family="Arial,Arial_MSFontService,sans-serif" font-weight="400" font-size="83" transform="matrix(1 0 0 1 1381.45 916)">US#2</text><rect x="1733.5" y="831.5" width="306" height="109" stroke="#73316B" stroke-width="4.58333" stroke-miterlimit="8" fill="#9E4694"/><text fill="#FEFEFE" font-family="Arial,Arial_MSFontService,sans-serif" font-weight="400" font-size="83" transform="matrix(1 0 0 1 1782.85 916)">US#3</text><rect x="2070.5" y="831.5" width="307" height="109" stroke="#4A8A74" stroke-width="4.58333" stroke-miterlimit="8" fill="#68BD9F"/><text fill="#FEFEFE" font-family="Arial,Arial_MSFontService,sans-serif" font-weight="400" font-size="83" transform="matrix(1 0 0 1 2120.57 916)">US#4</text><rect x="2462.5" y="831.5" width="306" height="109" stroke="#604478" stroke-width="4.58333" stroke-miterlimit="8" fill="#855FA5"/><text fill="#FEFEFE" font-family="Arial,Arial_MSFontService,sans-serif" font-weight="400" font-size="83" transform="matrix(1 0 0 1 2511.67 916)">US#5</text><rect x="2799.5" y="831.5" width="307" height="109" stroke="#7D1A53" stroke-width="4.58333" stroke-miterlimit="8" fill="#AB2774"/><text fill="#FEFEFE" font-family="Arial,Arial_MSFontService,sans-serif" font-weight="400" font-size="83" transform="matrix(1 0 0 1 2849.39 916)">US#6</text><rect x="1733.5" y="1035.5" width="306" height="109" stroke="#4D5486" stroke-width="4.58333" stroke-miterlimit="8" fill="#6C75B7"/><text fill="#FEFEFE" font-family="Arial,Arial_MSFontService,sans-serif" font-weight="400" font-size="83" transform="matrix(1 0 0 1 1782.85 1120)">US#1</text><rect x="2070.5" y="1035.5" width="307" height="109" stroke="#31898F" stroke-width="4.58333" stroke-miterlimit="8" fill="#46BBC3"/><text fill="#FEFEFE" font-family="Arial,Arial_MSFontService,sans-serif" font-weight="400" font-size="83" transform="matrix(1 0 0 1 2120.57 1120)">US#2</text><rect x="2472.5" y="1035.5" width="306" height="109" stroke="#73316B" stroke-width="4.58333" stroke-miterlimit="8" fill="#9E4694"/><text fill="#FEFEFE" font-family="Arial,Arial_MSFontService,sans-serif" font-weight="400" font-size="83" transform="matrix(1 0 0 1 2521.97 1120)">US#3</text><rect x="2810.5" y="1035.5" width="306" height="109" stroke="#4A8A74" stroke-width="4.58333" stroke-miterlimit="8" fill="#68BD9F"/><text fill="#FEFEFE" font-family="Arial,Arial_MSFontService,sans-serif" font-weight="400" font-size="83" transform="matrix(1 0 0 1 2859.69 1120)">US#4</text><rect x="3201.5" y="1035.5" width="306" height="109" stroke="#604478" stroke-width="4.58333" stroke-miterlimit="8" fill="#855FA5"/><text fill="#FEFEFE" font-family="Arial,Arial_MSFontService,sans-serif" font-weight="400" font-size="83" transform="matrix(1 0 0 1 3250.79 1120)">US#5</text><rect x="3538.5" y="1035.5" width="307" height="109" stroke="#7D1A53" stroke-width="4.58333" stroke-miterlimit="8" fill="#AB2774"/><text fill="#FEFEFE" font-family="Arial,Arial_MSFontService,sans-serif" font-weight="400" font-size="83" transform="matrix(1 0 0 1 3588.51 1120)">US#6<tspan fill="#051922" font-weight="700" font-size="64" x="-3039.4" y="172">RECETTE</tspan><tspan fill="#051922" font-weight="700" font-size="64" x="-3284.61" y="249">FONCTIONNELLE</tspan><tspan fill="#051922" font-weight="700" font-size="64" x="-3225.02" y="395">MISE EN PROD.</tspan></text><rect x="2472.5" y="1245.5" width="306" height="109" stroke="#4D5486" stroke-width="4.58333" stroke-miterlimit="8" fill="#6C75B7"/><text fill="#FEFEFE" font-family="Arial,Arial_MSFontService,sans-serif" font-weight="400" font-size="83" transform="matrix(1 0 0 1 2521.97 1330)">US#1</text><rect x="2810.5" y="1245.5" width="306" height="109" stroke="#31898F" stroke-width="4.58333" stroke-miterlimit="8" fill="#46BBC3"/><text fill="#FEFEFE" font-family="Arial,Arial_MSFontService,sans-serif" font-weight="400" font-size="83" transform="matrix(1 0 0 1 2859.69 1330)">US#2</text><rect x="3211.5" y="1245.5" width="306" height="109" stroke="#73316B" stroke-width="4.58333" stroke-miterlimit="8" fill="#9E4694"/><text fill="#FEFEFE" font-family="Arial,Arial_MSFontService,sans-serif" font-weight="400" font-size="83" transform="matrix(1 0 0 1 3261.09 1330)">US#3</text><rect x="3549.5" y="1245.5" width="306" height="109" stroke="#4A8A74" stroke-width="4.58333" stroke-miterlimit="8" fill="#68BD9F"/><text fill="#FEFEFE" font-family="Arial,Arial_MSFontService,sans-serif" font-weight="400" font-size="83" transform="matrix(1 0 0 1 3598.81 1330)">US#4</text><rect x="3207.5" y="1440.5" width="306" height="109" stroke="#4D5486" stroke-width="4.58333" stroke-miterlimit="8" fill="#6C75B7"/><text fill="#FEFEFE" font-family="Arial,Arial_MSFontService,sans-serif" font-weight="400" font-size="83" transform="matrix(1 0 0 1 3256.69 1525)">US#1</text><rect x="3544.5" y="1440.5" width="307" height="109" stroke="#31898F" stroke-width="4.58333" stroke-miterlimit="8" fill="#46BBC3"/><text fill="#FEFEFE" font-family="Arial,Arial_MSFontService,sans-serif" font-weight="400" font-size="83" transform="matrix(1 0 0 1 3594.41 1525)">US#2</text><path d="M0 0 3551.83 0.000360892" stroke="#E5E5E5" stroke-width="4.58333" stroke-miterlimit="8" stroke-dasharray="18.3333 13.75" fill="none" fill-rule="evenodd" transform="matrix(-1 0 0 1 3889.33 976.5)"/><path d="M0 0 3551.83 0.000360892" stroke="#E5E5E5" stroke-width="4.58333" stroke-miterlimit="8" stroke-dasharray="18.3333 13.75" fill="none" fill-rule="evenodd" transform="matrix(-1 0 0 1 3889.33 1190.5)"/><path d="M0 0 3551.83 0.000360892" stroke="#E5E5E5" stroke-width="4.58333" stroke-miterlimit="8" stroke-dasharray="18.3333 13.75" fill="none" fill-rule="evenodd" transform="matrix(-1 0 0 1 3885.33 1402.5)"/><path d="M938.5 2226.5 3046.5 2226.5 3046.5 2181.5 3136.5 2271.5 3046.5 2361.5 3046.5 2316.5 938.5 2316.5Z" stroke="#FEFEFE" stroke-width="6.875" stroke-miterlimit="8" fill="#68BD9F" fill-rule="evenodd"/><text fill="#FEFEFE" font-family="Arial,Arial_MSFontService,sans-serif" font-weight="400" font-size="64" transform="matrix(1 0 0 1 1823.39 2295)">+ 9 semaines</text></g></svg>