<svg width="3862" height="1951" xmlns="http://www.w3.org/2000/svg" xmlns:xlink="http://www.w3.org/1999/xlink" overflow="hidden"><defs><clipPath id="clip0"><rect x="122" y="502" width="3862" height="1951"/></clipPath></defs><g clip-path="url(#clip0)" transform="translate(-122 -502)"><path d="M2740.94 824.5 2740.94 852 2734.06 852 2734.06 824.5ZM2740.94 872.625 2740.94 900.125 2734.06 900.125 2734.06 872.625ZM2740.94 920.75 2740.94 948.25 2734.06 948.25 2734.06 920.75ZM2740.94 968.875 2740.94 996.375 2734.06 996.375 2734.06 968.875ZM2740.94 1017 2740.94 1044.5 2734.06 1044.5 2734.06 1017ZM2740.94 1065.13 2740.94 1092.63 2734.06 1092.63 2734.06 1065.13ZM2740.94 1113.25 2740.94 1140.75 2734.06 1140.75 2734.06 1113.25ZM2740.94 1161.38 2740.94 1188.88 2734.06 1188.88 2734.06 1161.38ZM2740.94 1209.5 2740.94 1237 2734.06 1237 2734.06 1209.5ZM2740.94 1257.63 2740.94 1285.13 2734.06 1285.13 2734.06 1257.63ZM2740.94 1305.75 2740.94 1333.25 2734.06 1333.25 2734.06 1305.75ZM2740.94 1353.88 2740.94 1381.38 2734.06 1381.38 2734.06 1353.88ZM2740.94 1402 2740.94 1429.5 2734.06 1429.5 2734.06 1402ZM2740.94 1450.13 2740.94 1477.63 2734.06 1477.63 2734.06 1450.13ZM2740.94 1498.25 2740.94 1525.75 2734.06 1525.75 2734.06 1498.25ZM2740.94 1546.38 2740.94 1573.88 2734.06 1573.88 2734.06 1546.38ZM2740.94 1594.5 2740.94 1622 2734.06 1622 2734.06 1594.5ZM2740.94 1642.63 2740.94 1670.13 2734.06 1670.13 2734.06 1642.63ZM2740.94 1690.75 2740.94 1718.25 2734.06 1718.25 2734.06 1690.75ZM2740.94 1738.88 2740.94 1766.38 2734.06 1766.38 2734.06 1738.88ZM2740.94 1787 2740.94 1814.5 2734.06 1814.5 2734.06 1787ZM2740.94 1835.13 2740.94 1862.63 2734.06 1862.63 2734.06 1835.13ZM2740.94 1883.25 2740.94 1910.75 2734.06 1910.75 2734.06 1883.25ZM2740.94 1931.38 2740.94 1958.88 2734.06 1958.88 2734.06 1931.38ZM2740.94 1979.5 2740.94 2007 2734.06 2007 2734.06 1979.5ZM2740.94 2027.63 2740.94 2055.13 2734.06 2055.13 2734.06 2027.63ZM2740.94 2075.75 2740.94 2103.25 2734.06 2103.25 2734.06 2075.75ZM2740.94 2123.88 2740.94 2151.38 2734.06 2151.38 2734.06 2123.88ZM2740.94 2172 2740.94 2199.5 2734.06 2199.5 2734.06 2172ZM2740.94 2220.13 2740.94 2238.06 2734.06 2238.06 2734.06 2220.13ZM2751.25 2233.47 2737.5 2260.97 2723.75 2233.47Z" fill="#68BD9F"/><path d="M2701 2208 2699.97 2209.66 2698.83 2211.4 2697.69 2213.24 2696.44 2215.16 2695.09 2217.22 2693.69 2219.35 2692.18 2221.59 2690.57 2224.05 2688.84 2226.58 2687 2229.25 2685.06 2232.04 2683.04 2235.04 2680.83 2238.14 2678.55 2241.47 2677.75 2242.7 2677.16 2244 2665 2232.07 2665.07 2232 2665.29 2231.75 2665.66 2231.31 2666.1 2230.74 2666.73 2230.01 2667.42 2229.25 2668.27 2228.28 2669.22 2227.27 2670.29 2226.18 2671.39 2225.02 2672.64 2223.83 2673.96 2222.57 2675.4 2221.3 2676.9 2220 2678.44 2218.7 2680.06 2217.43 2681.79 2216.17 2683.51 2214.94 2685.35 2213.78 2687.15 2212.7 2689.06 2211.69 2690.97 2210.75 2692.95 2209.95 2694.94 2209.27 2696.96 2208.69 2698.98 2208.25 2701 2208Z" fill="#68BD9F" fill-rule="evenodd"/><path d="M2763 2269 2762.7 2271.02 2762.26 2273.08 2761.7 2275.07 2760.96 2277.09 2760.11 2279.04 2759.18 2280.99 2758.14 2282.86 2757.03 2284.7 2755.81 2286.54 2754.55 2288.27 2753.29 2289.96 2751.95 2291.58 2750.65 2293.16 2749.32 2294.67 2748.02 2296.06 2746.72 2297.35 2745.46 2298.6 2744.31 2299.78 2743.17 2300.84 2742.09 2301.76 2741.16 2302.61 2740.31 2303.31 2739.61 2303.9 2739.01 2304.37 2738.61 2304.74 2738.35 2304.96 2738.23 2305 2726 2292.86 2727.3 2292.28 2728.6 2291.5 2731.97 2289.19 2735.19 2287.02 2738.23 2284.92 2741.16 2283.01 2743.91 2281.21 2746.5 2279.48 2748.95 2277.86 2751.28 2276.35 2753.55 2274.96 2755.62 2273.6 2757.62 2272.38 2759.48 2271.17 2761.29 2270.07 2763 2269Z" fill="#68BD9F" fill-rule="evenodd"/><path d="M2683.04 2261 2684.35 2262.31 2683.26 2264.79 2682.24 2267.3 2681.26 2270.04 2680.39 2272.81 2679.66 2275.61 2678.64 2280.02 2677.84 2284.47 2677.19 2288.95 2676.75 2293.43 2676.64 2294.34 2680.39 2294.01 2684.14 2293.54 2688.54 2292.85 2692.87 2291.94 2697.19 2290.88 2701.45 2289.57 2703.56 2288.8 2705.63 2287.96 2707.67 2287.13 2708.65 2286.65 2710 2287.96 2708.44 2290.04 2706.73 2292.01 2704.83 2293.83 2702.87 2295.51 2700.76 2297.04 2698.54 2298.42 2696.21 2299.7 2693.88 2300.86 2691.48 2301.92 2689.05 2302.79 2686.61 2303.59 2682.86 2304.58 2679.04 2305.34 2675.19 2305.78 2671.33 2306 2670.49 2306 2669.66 2305.93 2668.86 2305.74 2667.91 2305.34 2667.07 2304.76 2666.31 2304.07 2665.76 2303.23 2665.29 2302.32 2665.04 2301.3 2665 2300.1 2665 2298.93 2665.22 2295.51 2665.65 2292.15 2666.27 2288.76 2667.07 2285.45 2668.09 2282.21 2669.18 2279.25 2670.46 2276.34 2671.91 2273.57 2673.55 2270.84 2675.37 2268.29 2677.04 2266.25 2678.9 2264.35 2680.93 2262.6 2683.04 2261Z" fill="#68BD9F" fill-rule="evenodd"/><path d="M2759.78 2194.37 2757.93 2194.48 2756.12 2194.78 2754.3 2195.26 2752.57 2196 2750.94 2196.89 2749.35 2198 2747.87 2199.3 2746.57 2200.78 2745.47 2202.33 2744.58 2204 2743.87 2205.74 2743.36 2207.52 2743.06 2209.37 2742.95 2211.19 2743.06 2213.07 2743.36 2214.85 2743.87 2216.63 2744.58 2218.41 2745.47 2220.07 2746.57 2221.67 2747.87 2223.15 2749.35 2224.44 2750.94 2225.56 2752.57 2226.44 2754.3 2227.15 2756.12 2227.63 2757.93 2227.96 2759.78 2228.04 2761.66 2227.96 2763.44 2227.63 2765.29 2227.15 2766.95 2226.44 2768.65 2225.56 2770.24 2224.44 2771.72 2223.15 2773.02 2221.67 2774.13 2220.07 2775.01 2218.41 2775.72 2216.63 2776.24 2214.85 2776.53 2213.07 2776.64 2211.19 2776.53 2209.37 2776.24 2207.52 2775.72 2205.74 2775.01 2204 2774.13 2202.33 2773.02 2200.78 2771.72 2199.3 2770.24 2198 2768.65 2196.89 2766.95 2196 2765.29 2195.26 2763.44 2194.78 2761.66 2194.48 2759.78 2194.37ZM2805.86 2160 2805.97 2160 2806.93 2160.07 2807.89 2160.37 2808.78 2160.85 2809.52 2161.48 2810.15 2162.22 2810.63 2163.19 2810.93 2164.11 2811 2165.15 2810.96 2167.19 2810.85 2169.48 2810.74 2171.96 2810.59 2174.63 2810.37 2177.44 2810.11 2180.44 2809.74 2183.52 2809.34 2186.74 2808.89 2190.04 2808.34 2193.44 2807.71 2196.93 2806.93 2200.41 2806.12 2203.96 2805.19 2207.52 2804.12 2211.11 2802.97 2214.63 2801.72 2218.11 2800.27 2221.59 2798.72 2225 2797.02 2228.33 2795.17 2231.56 2793.21 2234.63 2791.07 2237.56 2788.74 2240.44 2786.29 2243.07 2784.26 2245.04 2782.34 2246.89 2780.56 2248.52 2778.86 2250.04 2777.16 2251.44 2775.5 2252.74 2773.87 2254 2772.2 2255.22 2770.5 2256.41 2768.73 2257.59 2766.84 2258.81 2764.88 2260.07 2762.74 2261.41 2760.44 2262.85 2758.82 2263.85 2757.08 2264.93 2755.3 2266.11 2753.38 2267.3 2751.38 2268.56 2749.24 2269.96 2746.94 2271.37 2744.58 2272.93 2742.06 2274.59 2739.4 2276.37 2736.59 2278.26 2733.59 2280.26 2730.45 2282.37 2727.12 2284.67 2723.64 2287.07 2722.72 2287.59 2721.76 2287.89 2720.76 2288 2719.76 2287.93 2718.84 2287.59 2717.99 2287.15 2717.17 2286.48 2684.48 2253.85 2683.85 2253.04 2683.37 2252.15 2683.11 2251.22 2683 2250.22 2683.11 2249.19 2683.41 2248.26 2683.92 2247.37 2686.33 2243.89 2688.62 2240.56 2690.77 2237.41 2692.76 2234.44 2694.65 2231.63 2696.39 2228.93 2698.05 2226.44 2699.61 2224.04 2701.08 2221.78 2702.42 2219.63 2703.71 2217.63 2704.93 2215.7 2706.08 2213.93 2707.15 2212.19 2708.19 2210.56 2709.55 2208.26 2710.92 2206.15 2712.22 2204.19 2713.4 2202.3 2714.62 2200.52 2715.77 2198.81 2716.99 2197.11 2718.25 2195.44 2719.58 2193.85 2720.98 2192.15 2722.5 2190.44 2724.13 2188.63 2725.94 2186.74 2727.94 2184.7 2730.6 2182.26 2733.41 2179.93 2736.33 2177.78 2739.47 2175.81 2742.65 2174 2746.02 2172.3 2749.35 2170.74 2752.86 2169.33 2756.34 2168.04 2759.93 2166.89 2763.44 2165.81 2767.03 2164.85 2770.54 2164.07 2774.09 2163.3 2777.53 2162.67 2780.93 2162.11 2784.22 2161.67 2787.44 2161.26 2790.58 2160.89 2793.51 2160.63 2796.35 2160.41 2799.02 2160.22 2801.5 2160.11 2803.75 2160.04 2805.86 2160Z" fill="#68BD9F" fill-rule="evenodd"/><text fill="#68BD9F" font-family="Arial,Arial_MSFontService,sans-serif" font-weight="700" font-size="64" transform="matrix(1 0 0 1 2642.87 2398)">PROD</text><path d="M2618.94 728.5 2618.94 756 2612.06 756 2612.06 728.5ZM2618.94 776.625 2618.94 804.125 2612.06 804.125 2612.06 776.625ZM2618.94 824.75 2618.94 852.25 2612.06 852.25 2612.06 824.75ZM2618.94 872.875 2618.94 900.375 2612.06 900.375 2612.06 872.875ZM2618.94 921 2618.94 948.5 2612.06 948.5 2612.06 921ZM2618.94 969.125 2618.94 996.625 2612.06 996.625 2612.06 969.125ZM2618.94 1017.25 2618.94 1044.75 2612.06 1044.75 2612.06 1017.25ZM2618.94 1065.37 2618.94 1092.87 2612.06 1092.87 2612.06 1065.37ZM2618.94 1113.5 2618.94 1141 2612.06 1141 2612.06 1113.5ZM2618.94 1161.62 2618.94 1189.12 2612.06 1189.12 2612.06 1161.62ZM2618.94 1209.75 2618.94 1237.25 2612.06 1237.25 2612.06 1209.75ZM2618.94 1257.87 2618.94 1285.37 2612.06 1285.37 2612.06 1257.87ZM2618.94 1306 2618.94 1333.5 2612.06 1333.5 2612.06 1306ZM2618.94 1354.12 2618.94 1381.62 2612.06 1381.62 2612.06 1354.12ZM2618.94 1402.25 2618.94 1429.75 2612.06 1429.75 2612.06 1402.25ZM2618.94 1450.37 2618.94 1477.87 2612.06 1477.87 2612.06 1450.37ZM2618.94 1498.5 2618.94 1526 2612.06 1526 2612.06 1498.5ZM2618.94 1546.62 2618.94 1574.12 2612.06 1574.12 2612.06 1546.62ZM2618.94 1594.75 2618.94 1622.25 2612.06 1622.25 2612.06 1594.75ZM2618.94 1642.87 2618.94 1670.37 2612.06 1670.37 2612.06 1642.87ZM2618.94 1691 2618.94 1718.5 2612.06 1718.5 2612.06 1691ZM2618.94 1739.12 2618.94 1766.62 2612.06 1766.62 2612.06 1739.12ZM2618.94 1787.25 2618.94 1814.75 2612.06 1814.75 2612.06 1787.25ZM2618.94 1835.37 2618.94 1862.87 2612.06 1862.87 2612.06 1835.37ZM2618.94 1883.5 2618.94 1911 2612.06 1911 2612.06 1883.5ZM2618.94 1931.62 2618.94 1959.12 2612.06 1959.12 2612.06 1931.62ZM2618.94 1979.75 2618.94 2005.62 2612.06 2005.62 2612.06 1979.75ZM2629.25 2001.04 2615.5 2028.54 2601.75 2001.04Z" fill="#9E4694"/><path d="M2579 1975 2577.97 1976.71 2576.83 1978.49 2575.69 1980.39 2574.45 1982.36 2573.09 1984.47 2571.69 1986.66 2570.18 1988.97 2568.57 1991.49 2566.84 1994.09 2565 1996.84 2563.06 1999.7 2561.04 2002.79 2558.83 2005.98 2556.56 2009.4 2555.75 2010.66 2555.16 2012 2543 1999.74 2543.07 1999.67 2543.29 1999.41 2543.66 1998.96 2544.1 1998.37 2544.73 1997.62 2545.42 1996.84 2546.27 1995.84 2547.22 1994.8 2548.29 1993.69 2549.39 1992.5 2550.64 1991.27 2551.96 1989.97 2553.4 1988.67 2554.9 1987.33 2556.44 1986 2558.06 1984.7 2559.79 1983.4 2561.51 1982.13 2563.35 1980.94 2565.15 1979.83 2567.06 1978.79 2568.97 1977.82 2570.96 1977.01 2572.94 1976.3 2574.96 1975.71 2576.98 1975.26 2579 1975Z" fill="#9E4694" fill-rule="evenodd"/><path d="M2641 2037 2640.7 2039.02 2640.26 2041.08 2639.7 2043.07 2638.96 2045.09 2638.11 2047.04 2637.18 2048.99 2636.14 2050.86 2635.03 2052.7 2633.81 2054.54 2632.55 2056.27 2631.29 2057.96 2629.95 2059.58 2628.65 2061.16 2627.32 2062.67 2626.02 2064.06 2624.72 2065.35 2623.46 2066.6 2622.31 2067.78 2621.17 2068.84 2620.09 2069.76 2619.16 2070.61 2618.31 2071.31 2617.61 2071.9 2617.01 2072.38 2616.61 2072.74 2616.35 2072.96 2616.23 2073 2604 2060.87 2605.3 2060.28 2606.6 2059.5 2609.97 2057.19 2613.19 2055.02 2616.23 2052.92 2619.16 2051.01 2621.91 2049.21 2624.5 2047.48 2626.95 2045.86 2629.28 2044.35 2631.55 2042.96 2633.62 2041.6 2635.62 2040.38 2637.48 2039.17 2639.29 2038.07 2641 2037Z" fill="#9E4694" fill-rule="evenodd"/><path d="M2560.44 2028 2561.78 2029.34 2560.67 2031.87 2559.63 2034.44 2558.62 2037.24 2557.73 2040.07 2556.99 2042.94 2555.95 2047.44 2555.13 2051.99 2554.46 2056.57 2554.01 2061.15 2553.9 2062.08 2557.73 2061.75 2561.56 2061.26 2566.06 2060.55 2570.49 2059.62 2574.91 2058.54 2579.26 2057.2 2581.42 2056.42 2583.54 2055.56 2585.62 2054.71 2586.62 2054.22 2588 2055.56 2586.4 2057.69 2584.65 2059.7 2582.72 2061.56 2580.71 2063.27 2578.55 2064.84 2576.29 2066.25 2573.91 2067.56 2571.53 2068.75 2569.07 2069.83 2566.58 2070.72 2564.09 2071.54 2560.26 2072.55 2556.35 2073.33 2552.41 2073.78 2548.47 2074 2547.62 2074 2546.76 2073.93 2545.94 2073.74 2544.97 2073.33 2544.12 2072.73 2543.34 2072.03 2542.78 2071.17 2542.3 2070.24 2542.04 2069.2 2542 2067.97 2542 2066.77 2542.22 2063.27 2542.67 2059.85 2543.3 2056.38 2544.12 2052.99 2545.16 2049.68 2546.28 2046.66 2547.58 2043.68 2549.07 2040.85 2550.74 2038.06 2552.6 2035.45 2554.31 2033.36 2556.21 2031.43 2558.29 2029.64 2560.44 2028Z" fill="#9E4694" fill-rule="evenodd"/><path d="M2637.78 1962.37 2635.93 1962.48 2634.12 1962.78 2632.3 1963.26 2630.57 1964 2628.94 1964.89 2627.35 1966 2625.87 1967.3 2624.57 1968.78 2623.47 1970.33 2622.58 1972 2621.88 1973.74 2621.36 1975.52 2621.06 1977.37 2620.95 1979.19 2621.06 1981.07 2621.36 1982.85 2621.88 1984.63 2622.58 1986.41 2623.47 1988.07 2624.57 1989.67 2625.87 1991.15 2627.35 1992.44 2628.94 1993.56 2630.57 1994.44 2632.3 1995.15 2634.12 1995.63 2635.93 1995.96 2637.78 1996.04 2639.66 1995.96 2641.44 1995.63 2643.29 1995.15 2644.95 1994.44 2646.65 1993.56 2648.24 1992.44 2649.72 1991.15 2651.02 1989.67 2652.13 1988.07 2653.02 1986.41 2653.72 1984.63 2654.24 1982.85 2654.53 1981.07 2654.64 1979.19 2654.53 1977.37 2654.24 1975.52 2653.72 1973.74 2653.02 1972 2652.13 1970.33 2651.02 1968.78 2649.72 1967.3 2648.24 1966 2646.65 1964.89 2644.95 1964 2643.29 1963.26 2641.44 1962.78 2639.66 1962.48 2637.78 1962.37ZM2683.86 1928 2683.97 1928 2684.93 1928.07 2685.89 1928.37 2686.78 1928.85 2687.52 1929.48 2688.15 1930.22 2688.63 1931.19 2688.93 1932.11 2689 1933.15 2688.96 1935.19 2688.85 1937.48 2688.74 1939.96 2688.59 1942.63 2688.37 1945.44 2688.11 1948.44 2687.74 1951.52 2687.34 1954.74 2686.89 1958.04 2686.34 1961.44 2685.71 1964.93 2684.93 1968.41 2684.12 1971.96 2683.19 1975.52 2682.12 1979.11 2680.97 1982.63 2679.72 1986.11 2678.27 1989.59 2676.72 1993 2675.02 1996.33 2673.17 1999.56 2671.21 2002.63 2669.07 2005.56 2666.74 2008.44 2664.3 2011.07 2662.26 2013.04 2660.34 2014.89 2658.56 2016.52 2656.86 2018.04 2655.16 2019.44 2653.5 2020.74 2651.87 2022 2650.2 2023.22 2648.5 2024.41 2646.73 2025.59 2644.84 2026.81 2642.88 2028.07 2640.74 2029.41 2638.44 2030.85 2636.82 2031.85 2635.08 2032.93 2633.3 2034.11 2631.38 2035.3 2629.38 2036.56 2627.24 2037.96 2624.94 2039.37 2622.58 2040.93 2620.06 2042.59 2617.4 2044.37 2614.59 2046.26 2611.59 2048.26 2608.45 2050.37 2605.12 2052.67 2601.65 2055.07 2600.72 2055.59 2599.76 2055.89 2598.76 2056 2597.76 2055.93 2596.84 2055.59 2595.99 2055.15 2595.17 2054.48 2562.48 2021.85 2561.85 2021.04 2561.37 2020.15 2561.11 2019.22 2561 2018.22 2561.11 2017.19 2561.41 2016.26 2561.92 2015.37 2564.33 2011.89 2566.62 2008.56 2568.77 2005.41 2570.76 2002.44 2572.65 1999.63 2574.39 1996.93 2576.05 1994.44 2577.61 1992.04 2579.08 1989.78 2580.42 1987.63 2581.71 1985.63 2582.93 1983.7 2584.08 1981.93 2585.15 1980.19 2586.19 1978.56 2587.55 1976.26 2588.92 1974.15 2590.22 1972.19 2591.4 1970.3 2592.62 1968.52 2593.77 1966.81 2594.99 1965.11 2596.25 1963.44 2597.58 1961.85 2598.98 1960.15 2600.5 1958.44 2602.13 1956.63 2603.94 1954.74 2605.94 1952.7 2608.6 1950.26 2611.41 1947.93 2614.33 1945.78 2617.47 1943.81 2620.65 1942 2624.02 1940.3 2627.35 1938.74 2630.86 1937.33 2634.34 1936.04 2637.93 1934.89 2641.44 1933.81 2645.03 1932.85 2648.54 1932.07 2652.09 1931.3 2655.53 1930.67 2658.93 1930.11 2662.22 1929.67 2665.44 1929.26 2668.59 1928.89 2671.51 1928.63 2674.35 1928.41 2677.02 1928.22 2679.5 1928.11 2681.75 1928.04 2683.86 1928Z" fill="#9E4694" fill-rule="evenodd"/><text fill="#9E4694" font-family="Arial,Arial_MSFontService,sans-serif" font-weight="700" font-size="64" transform="matrix(1 0 0 1 2547.99 2169)">UAT</text><path d="M2599.5 2032.33C2599.5 2026.35 2604.35 2021.5 2610.33 2021.5L2788.67 2021.5C2794.65 2021.5 2799.5 2026.35 2799.5 2032.33L2799.5 2075.67C2799.5 2081.65 2794.65 2086.5 2788.67 2086.5L2610.33 2086.5C2604.35 2086.5 2599.5 2081.65 2599.5 2075.67Z" stroke="#C00000" stroke-width="4.58333" stroke-miterlimit="8" fill="#FF0000" fill-rule="evenodd"/><text fill="#FEFEFE" font-family="Arial,Arial_MSFontService,sans-serif" font-weight="700" font-size="32" transform="matrix(1 0 0 1 2640.43 2065)">HOTFIX</text><path d="M2484.94 825.5 2484.94 853 2478.06 853 2478.06 825.5ZM2484.94 873.625 2484.94 901.125 2478.06 901.125 2478.06 873.625ZM2484.94 921.75 2484.94 949.25 2478.06 949.25 2478.06 921.75ZM2484.94 969.875 2484.94 997.375 2478.06 997.375 2478.06 969.875ZM2484.94 1018 2484.94 1045.5 2478.06 1045.5 2478.06 1018ZM2484.94 1066.12 2484.94 1093.62 2478.06 1093.62 2478.06 1066.12ZM2484.94 1114.25 2484.94 1141.75 2478.06 1141.75 2478.06 1114.25ZM2484.94 1162.37 2484.94 1189.87 2478.06 1189.87 2478.06 1162.37ZM2484.94 1210.5 2484.94 1238 2478.06 1238 2478.06 1210.5ZM2484.94 1258.62 2484.94 1286.12 2478.06 1286.12 2478.06 1258.62ZM2484.94 1306.75 2484.94 1334.25 2478.06 1334.25 2478.06 1306.75ZM2484.94 1354.87 2484.94 1382.37 2478.06 1382.37 2478.06 1354.87ZM2484.94 1403 2484.94 1430.5 2478.06 1430.5 2478.06 1403ZM2484.94 1451.12 2484.94 1478.62 2478.06 1478.62 2478.06 1451.12ZM2484.94 1499.25 2484.94 1526.75 2478.06 1526.75 2478.06 1499.25ZM2484.94 1547.37 2484.94 1574.87 2478.06 1574.87 2478.06 1547.37ZM2484.94 1595.5 2484.94 1623 2478.06 1623 2478.06 1595.5ZM2484.94 1643.62 2484.94 1671.12 2478.06 1671.12 2478.06 1643.62ZM2484.94 1691.75 2484.94 1719.25 2478.06 1719.25 2478.06 1691.75ZM2484.94 1739.87 2484.94 1767.37 2478.06 1767.37 2478.06 1739.87ZM2484.94 1788 2484.94 1815.5 2478.06 1815.5 2478.06 1788ZM2484.94 1836.12 2484.94 1863.62 2478.06 1863.62 2478.06 1836.12ZM2484.94 1884.25 2484.94 1911.75 2478.06 1911.75 2478.06 1884.25ZM2484.94 1932.37 2484.94 1959.87 2478.06 1959.87 2478.06 1932.37ZM2484.94 1980.5 2484.94 2008 2478.06 2008 2478.06 1980.5ZM2484.94 2028.62 2484.94 2056.12 2478.06 2056.12 2478.06 2028.62ZM2484.94 2076.75 2484.94 2104.25 2478.06 2104.25 2478.06 2076.75ZM2484.94 2124.87 2484.94 2152.37 2478.06 2152.37 2478.06 2124.87ZM2484.94 2173 2484.94 2200.5 2478.06 2200.5 2478.06 2173ZM2484.94 2221.12 2484.94 2239.06 2478.06 2239.06 2478.06 2221.12ZM2495.25 2234.47 2481.5 2261.97 2467.75 2234.47Z" fill="#68BD9F"/><path d="M2445 2208 2443.94 2209.71 2442.77 2211.49 2441.6 2213.39 2440.32 2215.36 2438.92 2217.47 2437.49 2219.66 2435.94 2221.97 2434.28 2224.49 2432.5 2227.09 2430.62 2229.84 2428.61 2232.7 2426.54 2235.79 2424.27 2238.98 2421.93 2242.4 2421.1 2243.66 2420.5 2245 2408 2232.74 2408.08 2232.67 2408.3 2232.41 2408.68 2231.96 2409.13 2231.37 2409.77 2230.62 2410.49 2229.84 2411.36 2228.84 2412.34 2227.8 2413.44 2226.69 2414.57 2225.5 2415.85 2224.27 2417.21 2222.97 2418.68 2221.67 2420.23 2220.33 2421.82 2219 2423.48 2217.7 2425.25 2216.4 2427.03 2215.13 2428.92 2213.94 2430.77 2212.83 2432.73 2211.79 2434.69 2210.82 2436.73 2210.01 2438.77 2209.3 2440.85 2208.71 2442.92 2208.26 2445 2208Z" fill="#68BD9F" fill-rule="evenodd"/><path d="M2506 2270 2505.71 2272.02 2505.28 2274.08 2504.74 2276.07 2504.02 2278.09 2503.19 2280.04 2502.28 2281.99 2501.27 2283.86 2500.19 2285.7 2499 2287.54 2497.78 2289.27 2496.55 2290.96 2495.25 2292.58 2493.99 2294.16 2492.69 2295.67 2491.43 2297.06 2490.16 2298.35 2488.94 2299.6 2487.82 2300.78 2486.7 2301.84 2485.66 2302.76 2484.75 2303.61 2483.92 2304.31 2483.24 2304.9 2482.66 2305.37 2482.26 2305.74 2482.01 2305.96 2481.9 2306 2470 2293.87 2471.26 2293.28 2472.52 2292.5 2475.81 2290.19 2478.95 2288.02 2481.9 2285.92 2484.75 2284.01 2487.42 2282.21 2489.95 2280.48 2492.33 2278.86 2494.6 2277.35 2496.8 2275.96 2498.82 2274.6 2500.77 2273.38 2502.57 2272.17 2504.34 2271.07 2506 2270Z" fill="#68BD9F" fill-rule="evenodd"/><path d="M2426.04 2261 2427.35 2262.34 2426.26 2264.87 2425.24 2267.44 2424.26 2270.24 2423.39 2273.07 2422.66 2275.94 2421.64 2280.44 2420.84 2284.99 2420.19 2289.57 2419.75 2294.15 2419.64 2295.08 2423.39 2294.75 2427.14 2294.26 2431.54 2293.55 2435.87 2292.62 2440.19 2291.54 2444.45 2290.2 2446.56 2289.42 2448.63 2288.56 2450.67 2287.71 2451.65 2287.22 2453 2288.56 2451.44 2290.69 2449.73 2292.7 2447.83 2294.56 2445.87 2296.27 2443.76 2297.84 2441.54 2299.25 2439.21 2300.56 2436.88 2301.75 2434.48 2302.83 2432.05 2303.72 2429.61 2304.54 2425.86 2305.55 2422.04 2306.33 2418.19 2306.78 2414.33 2307 2413.49 2307 2412.66 2306.93 2411.86 2306.74 2410.91 2306.33 2410.07 2305.73 2409.31 2305.03 2408.76 2304.17 2408.29 2303.24 2408.04 2302.2 2408 2300.97 2408 2299.77 2408.22 2296.27 2408.65 2292.85 2409.27 2289.38 2410.07 2285.99 2411.09 2282.68 2412.18 2279.66 2413.46 2276.68 2414.91 2273.85 2416.55 2271.06 2418.37 2268.45 2420.04 2266.36 2421.9 2264.43 2423.93 2262.64 2426.04 2261Z" fill="#68BD9F" fill-rule="evenodd"/><path d="M2502.78 2194.37 2500.93 2194.48 2499.12 2194.78 2497.3 2195.26 2495.57 2196 2493.94 2196.89 2492.35 2198 2490.87 2199.3 2489.57 2200.78 2488.47 2202.33 2487.58 2204 2486.87 2205.74 2486.36 2207.52 2486.06 2209.37 2485.95 2211.19 2486.06 2213.07 2486.36 2214.85 2486.87 2216.63 2487.58 2218.41 2488.47 2220.07 2489.57 2221.67 2490.87 2223.15 2492.35 2224.44 2493.94 2225.56 2495.57 2226.44 2497.3 2227.15 2499.12 2227.63 2500.93 2227.96 2502.78 2228.04 2504.66 2227.96 2506.44 2227.63 2508.29 2227.15 2509.95 2226.44 2511.65 2225.56 2513.24 2224.44 2514.72 2223.15 2516.02 2221.67 2517.13 2220.07 2518.01 2218.41 2518.72 2216.63 2519.24 2214.85 2519.53 2213.07 2519.64 2211.19 2519.53 2209.37 2519.24 2207.52 2518.72 2205.74 2518.01 2204 2517.13 2202.33 2516.02 2200.78 2514.72 2199.3 2513.24 2198 2511.65 2196.89 2509.95 2196 2508.29 2195.26 2506.44 2194.78 2504.66 2194.48 2502.78 2194.37ZM2548.86 2160 2548.97 2160 2549.93 2160.07 2550.89 2160.37 2551.78 2160.85 2552.52 2161.48 2553.15 2162.22 2553.63 2163.19 2553.93 2164.11 2554 2165.15 2553.96 2167.19 2553.85 2169.48 2553.74 2171.96 2553.59 2174.63 2553.37 2177.44 2553.11 2180.44 2552.74 2183.52 2552.34 2186.74 2551.89 2190.04 2551.34 2193.44 2550.71 2196.93 2549.93 2200.41 2549.12 2203.96 2548.19 2207.52 2547.12 2211.11 2545.97 2214.63 2544.72 2218.11 2543.27 2221.59 2541.72 2225 2540.02 2228.33 2538.17 2231.56 2536.21 2234.63 2534.07 2237.56 2531.74 2240.44 2529.29 2243.07 2527.26 2245.04 2525.34 2246.89 2523.56 2248.52 2521.86 2250.04 2520.16 2251.44 2518.5 2252.74 2516.87 2254 2515.2 2255.22 2513.5 2256.41 2511.73 2257.59 2509.84 2258.81 2507.88 2260.07 2505.74 2261.41 2503.44 2262.85 2501.82 2263.85 2500.08 2264.93 2498.3 2266.11 2496.38 2267.3 2494.38 2268.56 2492.24 2269.96 2489.94 2271.37 2487.58 2272.93 2485.06 2274.59 2482.4 2276.37 2479.59 2278.26 2476.59 2280.26 2473.45 2282.37 2470.12 2284.67 2466.64 2287.07 2465.72 2287.59 2464.76 2287.89 2463.76 2288 2462.76 2287.93 2461.84 2287.59 2460.99 2287.15 2460.17 2286.48 2427.48 2253.85 2426.85 2253.04 2426.37 2252.15 2426.11 2251.22 2426 2250.22 2426.11 2249.19 2426.41 2248.26 2426.92 2247.37 2429.33 2243.89 2431.62 2240.56 2433.77 2237.41 2435.76 2234.44 2437.65 2231.63 2439.39 2228.93 2441.05 2226.44 2442.61 2224.04 2444.08 2221.78 2445.42 2219.63 2446.71 2217.63 2447.93 2215.7 2449.08 2213.93 2450.15 2212.19 2451.19 2210.56 2452.55 2208.26 2453.92 2206.15 2455.22 2204.19 2456.4 2202.3 2457.62 2200.52 2458.77 2198.81 2459.99 2197.11 2461.25 2195.44 2462.58 2193.85 2463.98 2192.15 2465.5 2190.44 2467.13 2188.63 2468.94 2186.74 2470.93 2184.7 2473.6 2182.26 2476.41 2179.93 2479.33 2177.78 2482.47 2175.81 2485.65 2174 2489.02 2172.3 2492.35 2170.74 2495.86 2169.33 2499.34 2168.04 2502.93 2166.89 2506.44 2165.81 2510.03 2164.85 2513.54 2164.07 2517.09 2163.3 2520.53 2162.67 2523.93 2162.11 2527.22 2161.67 2530.44 2161.26 2533.58 2160.89 2536.51 2160.63 2539.35 2160.41 2542.02 2160.22 2544.5 2160.11 2546.75 2160.04 2548.86 2160Z" fill="#68BD9F" fill-rule="evenodd"/><text fill="#68BD9F" font-family="Arial,Arial_MSFontService,sans-serif" font-weight="700" font-size="64" transform="matrix(1 0 0 1 2386.07 2399)">PROD</text><path d="M2109.94 819.5 2109.94 847 2103.06 847 2103.06 819.5ZM2109.94 867.625 2109.94 895.125 2103.06 895.125 2103.06 867.625ZM2109.94 915.75 2109.94 943.25 2103.06 943.25 2103.06 915.75ZM2109.94 963.875 2109.94 991.375 2103.06 991.375 2103.06 963.875ZM2109.94 1012 2109.94 1039.5 2103.06 1039.5 2103.06 1012ZM2109.94 1060.12 2109.94 1087.62 2103.06 1087.62 2103.06 1060.12ZM2109.94 1108.25 2109.94 1135.75 2103.06 1135.75 2103.06 1108.25ZM2109.94 1156.38 2109.94 1183.88 2103.06 1183.88 2103.06 1156.38ZM2109.94 1204.5 2109.94 1232 2103.06 1232 2103.06 1204.5ZM2109.94 1252.62 2109.94 1280.12 2103.06 1280.12 2103.06 1252.62ZM2109.94 1300.75 2109.94 1328.25 2103.06 1328.25 2103.06 1300.75ZM2109.94 1348.88 2109.94 1376.38 2103.06 1376.38 2103.06 1348.88ZM2109.94 1397 2109.94 1424.5 2103.06 1424.5 2103.06 1397ZM2109.94 1445.12 2109.94 1472.62 2103.06 1472.62 2103.06 1445.12ZM2109.94 1493.25 2109.94 1520.75 2103.06 1520.75 2103.06 1493.25ZM2109.94 1541.38 2109.94 1568.88 2103.06 1568.88 2103.06 1541.38ZM2109.94 1589.5 2109.94 1617 2103.06 1617 2103.06 1589.5ZM2109.94 1637.62 2109.94 1665.12 2103.06 1665.12 2103.06 1637.62ZM2109.94 1685.75 2109.94 1713.25 2103.06 1713.25 2103.06 1685.75ZM2109.94 1733.88 2109.94 1761.38 2103.06 1761.38 2103.06 1733.88ZM2109.94 1782 2109.94 1809.5 2103.06 1809.5 2103.06 1782ZM2109.94 1830.12 2109.94 1857.62 2103.06 1857.62 2103.06 1830.12ZM2109.94 1878.25 2109.94 1905.75 2103.06 1905.75 2103.06 1878.25ZM2109.94 1926.38 2109.94 1953.88 2103.06 1953.88 2103.06 1926.38ZM2109.94 1974.5 2109.94 2002 2103.06 2002 2103.06 1974.5ZM2109.94 2022.62 2109.94 2050.12 2103.06 2050.12 2103.06 2022.62ZM2109.94 2070.75 2109.94 2098.25 2103.06 2098.25 2103.06 2070.75ZM2109.94 2118.88 2109.94 2146.38 2103.06 2146.38 2103.06 2118.88ZM2109.94 2167 2109.94 2194.5 2103.06 2194.5 2103.06 2167ZM2109.94 2215.12 2109.94 2233.06 2103.06 2233.06 2103.06 2215.12ZM2120.25 2228.47 2106.5 2255.97 2092.75 2228.47Z" fill="#68BD9F"/><path d="M2070 2202 2068.94 2203.71 2067.77 2205.49 2066.6 2207.39 2065.32 2209.36 2063.92 2211.47 2062.49 2213.66 2060.94 2215.97 2059.28 2218.49 2057.5 2221.09 2055.62 2223.84 2053.61 2226.7 2051.54 2229.79 2049.27 2232.98 2046.93 2236.4 2046.1 2237.66 2045.5 2239 2033 2226.74 2033.08 2226.67 2033.3 2226.41 2033.68 2225.96 2034.13 2225.37 2034.77 2224.62 2035.49 2223.84 2036.36 2222.84 2037.34 2221.8 2038.44 2220.69 2039.57 2219.5 2040.85 2218.27 2042.21 2216.97 2043.68 2215.67 2045.23 2214.33 2046.82 2213 2048.48 2211.7 2050.25 2210.4 2052.03 2209.13 2053.92 2207.94 2055.77 2206.83 2057.73 2205.79 2059.69 2204.82 2061.73 2204.01 2063.77 2203.3 2065.85 2202.71 2067.92 2202.26 2070 2202Z" fill="#68BD9F" fill-rule="evenodd"/><path d="M2131 2264 2130.71 2266.02 2130.28 2268.08 2129.74 2270.07 2129.02 2272.09 2128.19 2274.04 2127.28 2275.99 2126.27 2277.86 2125.19 2279.7 2124 2281.54 2122.78 2283.27 2121.55 2284.96 2120.25 2286.58 2118.99 2288.16 2117.69 2289.67 2116.43 2291.06 2115.16 2292.35 2113.94 2293.6 2112.82 2294.78 2111.7 2295.84 2110.66 2296.76 2109.75 2297.61 2108.92 2298.31 2108.24 2298.9 2107.66 2299.38 2107.26 2299.74 2107.01 2299.96 2106.9 2300 2095 2287.87 2096.26 2287.28 2097.53 2286.5 2100.81 2284.19 2103.95 2282.02 2106.9 2279.92 2109.75 2278.01 2112.42 2276.21 2114.95 2274.48 2117.33 2272.86 2119.6 2271.35 2121.8 2269.96 2123.82 2268.6 2125.77 2267.38 2127.57 2266.17 2129.34 2265.07 2131 2264Z" fill="#68BD9F" fill-rule="evenodd"/><path d="M2051.04 2255 2052.35 2256.34 2051.26 2258.87 2050.24 2261.44 2049.26 2264.24 2048.39 2267.07 2047.66 2269.94 2046.64 2274.44 2045.84 2278.99 2045.19 2283.57 2044.75 2288.15 2044.64 2289.08 2048.39 2288.75 2052.14 2288.26 2056.54 2287.55 2060.87 2286.62 2065.19 2285.54 2069.45 2284.2 2071.56 2283.42 2073.63 2282.56 2075.67 2281.71 2076.65 2281.22 2078 2282.56 2076.44 2284.69 2074.73 2286.7 2072.83 2288.56 2070.87 2290.27 2068.76 2291.84 2066.54 2293.25 2064.21 2294.56 2061.88 2295.75 2059.48 2296.83 2057.05 2297.72 2054.61 2298.54 2050.86 2299.55 2047.04 2300.33 2043.19 2300.78 2039.33 2301 2038.49 2301 2037.66 2300.93 2036.86 2300.74 2035.91 2300.33 2035.07 2299.73 2034.31 2299.03 2033.76 2298.17 2033.29 2297.24 2033.04 2296.2 2033 2294.97 2033 2293.77 2033.22 2290.27 2033.65 2286.85 2034.27 2283.38 2035.07 2279.99 2036.09 2276.68 2037.18 2273.66 2038.46 2270.68 2039.91 2267.85 2041.55 2265.06 2043.37 2262.45 2045.04 2260.36 2046.9 2258.43 2048.93 2256.64 2051.04 2255Z" fill="#68BD9F" fill-rule="evenodd"/><path d="M2127.78 2189.1 2125.93 2189.21 2124.12 2189.51 2122.3 2189.98 2120.57 2190.72 2118.94 2191.6 2117.35 2192.7 2115.87 2193.99 2114.57 2195.46 2113.47 2197 2112.58 2198.66 2111.88 2200.38 2111.36 2202.15 2111.06 2203.98 2110.95 2205.79 2111.06 2207.66 2111.36 2209.42 2111.88 2211.19 2112.58 2212.95 2113.47 2214.6 2114.57 2216.19 2115.87 2217.65 2117.35 2218.94 2118.94 2220.04 2120.57 2220.93 2122.3 2221.62 2124.12 2222.1 2125.93 2222.43 2127.78 2222.51 2129.66 2222.43 2131.44 2222.1 2133.29 2221.62 2134.95 2220.93 2136.65 2220.04 2138.24 2218.94 2139.72 2217.65 2141.02 2216.19 2142.13 2214.6 2143.02 2212.95 2143.72 2211.19 2144.24 2209.42 2144.53 2207.66 2144.64 2205.79 2144.53 2203.98 2144.24 2202.15 2143.72 2200.38 2143.02 2198.66 2142.13 2197 2141.02 2195.46 2139.72 2193.99 2138.24 2192.7 2136.65 2191.6 2134.95 2190.72 2133.29 2189.98 2131.44 2189.51 2129.66 2189.21 2127.78 2189.1ZM2173.86 2155 2173.97 2155 2174.93 2155.07 2175.89 2155.37 2176.78 2155.85 2177.52 2156.47 2178.15 2157.2 2178.63 2158.16 2178.93 2159.08 2179 2160.11 2178.96 2162.13 2178.85 2164.41 2178.74 2166.87 2178.59 2169.52 2178.37 2172.31 2178.11 2175.28 2177.74 2178.33 2177.34 2181.53 2176.89 2184.8 2176.34 2188.18 2175.71 2191.64 2174.93 2195.09 2174.12 2198.62 2173.19 2202.15 2172.12 2205.71 2170.97 2209.2 2169.72 2212.66 2168.27 2216.11 2166.72 2219.49 2165.02 2222.8 2163.17 2226 2161.21 2229.05 2159.07 2231.95 2156.74 2234.82 2154.3 2237.43 2152.26 2239.37 2150.34 2241.21 2148.56 2242.83 2146.86 2244.33 2145.16 2245.73 2143.5 2247.02 2141.87 2248.27 2140.2 2249.48 2138.5 2250.65 2136.73 2251.83 2134.84 2253.04 2132.88 2254.29 2130.74 2255.62 2128.44 2257.05 2126.82 2258.04 2125.08 2259.11 2123.3 2260.28 2121.38 2261.46 2119.38 2262.71 2117.24 2264.1 2114.94 2265.5 2112.58 2267.04 2110.06 2268.7 2107.4 2270.46 2104.59 2272.34 2101.59 2274.32 2098.45 2276.41 2095.12 2278.69 2091.65 2281.08 2090.72 2281.6 2089.76 2281.89 2088.76 2282 2087.76 2281.93 2086.84 2281.6 2085.99 2281.16 2085.17 2280.49 2052.48 2248.12 2051.85 2247.31 2051.37 2246.43 2051.11 2245.51 2051 2244.52 2051.11 2243.49 2051.41 2242.57 2051.92 2241.69 2054.33 2238.23 2056.62 2234.93 2058.77 2231.8 2060.76 2228.86 2062.65 2226.07 2064.39 2223.39 2066.05 2220.93 2067.61 2218.54 2069.09 2216.3 2070.42 2214.16 2071.71 2212.18 2072.93 2210.27 2074.08 2208.5 2075.15 2206.78 2076.19 2205.16 2077.55 2202.88 2078.92 2200.79 2080.22 2198.84 2081.4 2196.97 2082.62 2195.2 2083.77 2193.51 2084.99 2191.82 2086.25 2190.17 2087.58 2188.59 2088.98 2186.9 2090.5 2185.21 2092.13 2183.41 2093.94 2181.53 2095.94 2179.51 2098.6 2177.09 2101.41 2174.77 2104.33 2172.64 2107.47 2170.69 2110.65 2168.89 2114.02 2167.2 2117.35 2165.66 2120.86 2164.26 2124.34 2162.97 2127.93 2161.83 2131.44 2160.77 2135.03 2159.81 2138.54 2159.04 2142.09 2158.27 2145.53 2157.65 2148.93 2157.09 2152.22 2156.65 2155.44 2156.25 2158.59 2155.88 2161.51 2155.62 2164.35 2155.4 2167.02 2155.22 2169.5 2155.11 2171.75 2155.04 2173.86 2155Z" fill="#68BD9F" fill-rule="evenodd"/><text fill="#68BD9F" font-family="Arial,Arial_MSFontService,sans-serif" font-weight="700" font-size="64" transform="matrix(1 0 0 1 2011.07 2393)">PROD</text><path d="M2073.94 739.5 2073.94 767 2067.06 767 2067.06 739.5ZM2073.94 787.625 2073.94 815.125 2067.06 815.125 2067.06 787.625ZM2073.94 835.75 2073.94 863.25 2067.06 863.25 2067.06 835.75ZM2073.94 883.875 2073.94 911.375 2067.06 911.375 2067.06 883.875ZM2073.94 932 2073.94 959.5 2067.06 959.5 2067.06 932ZM2073.94 980.125 2073.94 1007.62 2067.06 1007.62 2067.06 980.125ZM2073.94 1028.25 2073.94 1055.75 2067.06 1055.75 2067.06 1028.25ZM2073.94 1076.37 2073.94 1103.87 2067.06 1103.87 2067.06 1076.37ZM2073.94 1124.5 2073.94 1152 2067.06 1152 2067.06 1124.5ZM2073.94 1172.62 2073.94 1200.12 2067.06 1200.12 2067.06 1172.62ZM2073.94 1220.75 2073.94 1248.25 2067.06 1248.25 2067.06 1220.75ZM2073.94 1268.87 2073.94 1296.37 2067.06 1296.37 2067.06 1268.87ZM2073.94 1317 2073.94 1344.5 2067.06 1344.5 2067.06 1317ZM2073.94 1365.12 2073.94 1392.62 2067.06 1392.62 2067.06 1365.12ZM2073.94 1413.25 2073.94 1440.75 2067.06 1440.75 2067.06 1413.25ZM2073.94 1461.37 2073.94 1488.87 2067.06 1488.87 2067.06 1461.37ZM2073.94 1509.5 2073.94 1537 2067.06 1537 2067.06 1509.5ZM2073.94 1557.62 2073.94 1585.12 2067.06 1585.12 2067.06 1557.62ZM2073.94 1605.75 2073.94 1633.25 2067.06 1633.25 2067.06 1605.75ZM2073.94 1653.87 2073.94 1681.37 2067.06 1681.37 2067.06 1653.87ZM2073.94 1702 2073.94 1729.5 2067.06 1729.5 2067.06 1702ZM2073.94 1750.12 2073.94 1777.62 2067.06 1777.62 2067.06 1750.12ZM2073.94 1798.25 2073.94 1825.75 2067.06 1825.75 2067.06 1798.25ZM2073.94 1846.37 2073.94 1873.87 2067.06 1873.87 2067.06 1846.37ZM2073.94 1894.5 2073.94 1922 2067.06 1922 2067.06 1894.5ZM2073.94 1942.62 2073.94 1970.12 2067.06 1970.12 2067.06 1942.62ZM2073.94 1990.75 2073.94 2016.62 2067.06 2016.62 2067.06 1990.75ZM2084.25 2012.04 2070.5 2039.54 2056.75 2012.04Z" fill="#9E4694"/><path d="M2034 1986 2032.97 1987.71 2031.83 1989.49 2030.69 1991.39 2029.44 1993.36 2028.09 1995.47 2026.69 1997.66 2025.18 1999.97 2023.57 2002.49 2021.84 2005.09 2020 2007.84 2018.06 2010.7 2016.04 2013.79 2013.83 2016.98 2011.56 2020.4 2010.75 2021.66 2010.16 2023 1998 2010.74 1998.07 2010.67 1998.29 2010.41 1998.66 2009.96 1999.1 2009.37 1999.73 2008.62 2000.42 2007.84 2001.27 2006.84 2002.22 2005.8 2003.29 2004.69 2004.39 2003.5 2005.64 2002.27 2006.96 2000.97 2008.4 1999.67 2009.9 1998.33 2011.44 1997 2013.06 1995.7 2014.79 1994.4 2016.51 1993.13 2018.35 1991.94 2020.15 1990.83 2022.06 1989.79 2023.97 1988.82 2025.96 1988.01 2027.94 1987.3 2029.96 1986.71 2031.98 1986.26 2034 1986Z" fill="#9E4694" fill-rule="evenodd"/><path d="M2096 2048 2095.7 2050.02 2095.26 2052.08 2094.7 2054.07 2093.96 2056.09 2093.11 2058.04 2092.18 2059.99 2091.14 2061.86 2090.03 2063.7 2088.81 2065.54 2087.55 2067.27 2086.29 2068.96 2084.95 2070.58 2083.65 2072.16 2082.32 2073.67 2081.02 2075.06 2079.72 2076.35 2078.46 2077.6 2077.31 2078.78 2076.17 2079.84 2075.09 2080.76 2074.16 2081.61 2073.31 2082.31 2072.61 2082.9 2072.01 2083.38 2071.61 2083.74 2071.35 2083.96 2071.23 2084 2059 2071.87 2060.3 2071.28 2061.6 2070.5 2064.97 2068.19 2068.19 2066.02 2071.23 2063.92 2074.16 2062.01 2076.91 2060.21 2079.5 2058.48 2081.95 2056.86 2084.28 2055.35 2086.55 2053.96 2088.62 2052.6 2090.62 2051.38 2092.48 2050.17 2094.29 2049.07 2096 2048Z" fill="#9E4694" fill-rule="evenodd"/><path d="M2015.44 2039 2016.78 2040.34 2015.67 2042.87 2014.63 2045.44 2013.62 2048.24 2012.73 2051.07 2011.99 2053.94 2010.94 2058.44 2010.13 2062.99 2009.46 2067.57 2009.01 2072.15 2008.9 2073.08 2012.73 2072.75 2016.56 2072.26 2021.06 2071.55 2025.48 2070.62 2029.91 2069.54 2034.26 2068.2 2036.42 2067.42 2038.54 2066.56 2040.62 2065.71 2041.62 2065.22 2043 2066.56 2041.4 2068.69 2039.65 2070.7 2037.72 2072.56 2035.71 2074.27 2033.55 2075.84 2031.29 2077.25 2028.91 2078.56 2026.53 2079.75 2024.07 2080.83 2021.58 2081.72 2019.09 2082.54 2015.26 2083.55 2011.35 2084.33 2007.41 2084.78 2003.47 2085 2002.62 2085 2001.76 2084.93 2000.94 2084.74 1999.97 2084.33 1999.12 2083.73 1998.34 2083.03 1997.78 2082.17 1997.3 2081.24 1997.04 2080.2 1997 2078.97 1997 2077.77 1997.22 2074.27 1997.67 2070.85 1998.3 2067.38 1999.12 2063.99 2000.16 2060.68 2001.28 2057.66 2002.58 2054.68 2004.07 2051.85 2005.74 2049.06 2007.6 2046.45 2009.31 2044.36 2011.21 2042.43 2013.29 2040.64 2015.44 2039Z" fill="#9E4694" fill-rule="evenodd"/><path d="M2092.18 1973.1 2090.34 1973.21 2088.55 1973.51 2086.75 1973.98 2085.02 1974.72 2083.41 1975.6 2081.83 1976.7 2080.36 1977.99 2079.08 1979.46 2077.98 1981 2077.1 1982.66 2076.4 1984.38 2075.89 1986.15 2075.59 1987.98 2075.48 1989.79 2075.59 1991.66 2075.89 1993.42 2076.4 1995.19 2077.1 1996.95 2077.98 1998.6 2079.08 2000.18 2080.36 2001.65 2081.83 2002.94 2083.41 2004.04 2085.02 2004.93 2086.75 2005.62 2088.55 2006.1 2090.34 2006.43 2092.18 2006.51 2094.05 2006.43 2095.81 2006.1 2097.65 2005.62 2099.3 2004.93 2100.98 2004.04 2102.56 2002.94 2104.03 2001.65 2105.31 2000.18 2106.42 1998.6 2107.3 1996.95 2107.99 1995.19 2108.51 1993.42 2108.8 1991.66 2108.91 1989.79 2108.8 1987.98 2108.51 1986.15 2107.99 1984.38 2107.3 1982.66 2106.42 1981 2105.31 1979.46 2104.03 1977.99 2102.56 1976.7 2100.98 1975.6 2099.3 1974.72 2097.65 1973.98 2095.81 1973.51 2094.05 1973.21 2092.18 1973.1ZM2137.9 1939 2138.01 1939 2138.96 1939.07 2139.92 1939.37 2140.8 1939.85 2141.53 1940.47 2142.16 1941.2 2142.63 1942.16 2142.93 1943.08 2143 1944.11 2142.96 1946.13 2142.85 1948.41 2142.74 1950.87 2142.6 1953.52 2142.38 1956.31 2142.12 1959.28 2141.75 1962.33 2141.35 1965.53 2140.91 1968.8 2140.36 1972.18 2139.73 1975.64 2138.96 1979.09 2138.16 1982.62 2137.24 1986.15 2136.17 1989.71 2135.04 1993.2 2133.79 1996.66 2132.36 2000.11 2130.82 2003.49 2129.13 2006.8 2127.29 2010 2125.35 2013.05 2123.22 2015.95 2120.91 2018.82 2118.49 2021.43 2116.47 2023.37 2114.56 2025.21 2112.8 2026.83 2111.11 2028.33 2109.42 2029.73 2107.77 2031.02 2106.16 2032.27 2104.51 2033.48 2102.82 2034.65 2101.06 2035.83 2099.19 2037.04 2097.24 2038.29 2095.11 2039.62 2092.84 2041.05 2091.22 2042.04 2089.5 2043.11 2087.74 2044.28 2085.83 2045.46 2083.85 2046.71 2081.72 2048.1 2079.45 2049.5 2077.1 2051.04 2074.6 2052.7 2071.96 2054.46 2069.17 2056.34 2066.2 2058.32 2063.08 2060.41 2059.78 2062.69 2056.33 2065.08 2055.41 2065.6 2054.46 2065.89 2053.47 2066 2052.47 2065.93 2051.56 2065.6 2050.71 2065.15 2049.91 2064.49 2017.47 2032.12 2016.84 2031.31 2016.37 2030.43 2016.11 2029.51 2016 2028.52 2016.11 2027.49 2016.4 2026.57 2016.92 2025.69 2019.3 2022.23 2021.58 2018.93 2023.71 2015.8 2025.69 2012.86 2027.56 2010.07 2029.28 2007.39 2030.93 2004.93 2032.48 2002.54 2033.94 2000.3 2035.26 1998.16 2036.55 1996.18 2037.76 1994.27 2038.9 1992.5 2039.96 1990.78 2040.99 1989.16 2042.35 1986.88 2043.7 1984.79 2044.99 1982.84 2046.16 1980.97 2047.37 1979.2 2048.51 1977.51 2049.72 1975.82 2050.97 1974.17 2052.29 1972.59 2053.69 1970.9 2055.19 1969.21 2056.8 1967.41 2058.6 1965.53 2060.58 1963.51 2063.23 1961.09 2066.01 1958.77 2068.91 1956.64 2072.03 1954.69 2075.19 1952.89 2078.53 1951.2 2081.83 1949.66 2085.32 1948.26 2088.77 1946.97 2092.32 1945.84 2095.81 1944.77 2099.37 1943.81 2102.86 1943.04 2106.38 1942.27 2109.79 1941.65 2113.17 1941.09 2116.43 1940.65 2119.63 1940.25 2122.74 1939.88 2125.64 1939.62 2128.47 1939.4 2131.11 1939.22 2133.57 1939.11 2135.81 1939.04 2137.9 1939Z" fill="#9E4694" fill-rule="evenodd"/><text fill="#9E4694" font-family="Arial,Arial_MSFontService,sans-serif" font-weight="700" font-size="64" transform="matrix(1 0 0 1 2002.76 2180)">UAT</text><path d="M2454.94 728.5 2454.94 756 2448.06 756 2448.06 728.5ZM2454.94 776.625 2454.94 804.125 2448.06 804.125 2448.06 776.625ZM2454.94 824.75 2454.94 852.25 2448.06 852.25 2448.06 824.75ZM2454.94 872.875 2454.94 900.375 2448.06 900.375 2448.06 872.875ZM2454.94 921 2454.94 948.5 2448.06 948.5 2448.06 921ZM2454.94 969.125 2454.94 996.625 2448.06 996.625 2448.06 969.125ZM2454.94 1017.25 2454.94 1044.75 2448.06 1044.75 2448.06 1017.25ZM2454.94 1065.37 2454.94 1092.87 2448.06 1092.87 2448.06 1065.37ZM2454.94 1113.5 2454.94 1141 2448.06 1141 2448.06 1113.5ZM2454.94 1161.62 2454.94 1189.12 2448.06 1189.12 2448.06 1161.62ZM2454.94 1209.75 2454.94 1237.25 2448.06 1237.25 2448.06 1209.75ZM2454.94 1257.87 2454.94 1285.37 2448.06 1285.37 2448.06 1257.87ZM2454.94 1306 2454.94 1333.5 2448.06 1333.5 2448.06 1306ZM2454.94 1354.12 2454.94 1381.62 2448.06 1381.62 2448.06 1354.12ZM2454.94 1402.25 2454.94 1429.75 2448.06 1429.75 2448.06 1402.25ZM2454.94 1450.37 2454.94 1477.87 2448.06 1477.87 2448.06 1450.37ZM2454.94 1498.5 2454.94 1526 2448.06 1526 2448.06 1498.5ZM2454.94 1546.62 2454.94 1574.12 2448.06 1574.12 2448.06 1546.62ZM2454.94 1594.75 2454.94 1622.25 2448.06 1622.25 2448.06 1594.75ZM2454.94 1642.87 2454.94 1670.37 2448.06 1670.37 2448.06 1642.87ZM2454.94 1691 2454.94 1718.5 2448.06 1718.5 2448.06 1691ZM2454.94 1739.12 2454.94 1766.62 2448.06 1766.62 2448.06 1739.12ZM2454.94 1787.25 2454.94 1814.75 2448.06 1814.75 2448.06 1787.25ZM2454.94 1835.37 2454.94 1862.87 2448.06 1862.87 2448.06 1835.37ZM2454.94 1883.5 2454.94 1911 2448.06 1911 2448.06 1883.5ZM2454.94 1931.62 2454.94 1959.12 2448.06 1959.12 2448.06 1931.62ZM2454.94 1979.75 2454.94 2005.62 2448.06 2005.62 2448.06 1979.75ZM2465.25 2001.04 2451.5 2028.54 2437.75 2001.04Z" fill="#9E4694"/><path d="M2042.94 1090.5 2042.94 1118 2036.06 1118 2036.06 1090.5ZM2042.94 1138.62 2042.94 1166.12 2036.06 1166.12 2036.06 1138.62ZM2042.94 1186.75 2042.94 1214.25 2036.06 1214.25 2036.06 1186.75ZM2042.94 1234.87 2042.94 1262.37 2036.06 1262.37 2036.06 1234.87ZM2042.94 1283 2042.94 1310.5 2036.06 1310.5 2036.06 1283ZM2042.94 1331.12 2042.94 1358.62 2036.06 1358.62 2036.06 1331.12ZM2042.94 1379.25 2042.94 1406.75 2036.06 1406.75 2036.06 1379.25ZM2042.94 1427.37 2042.94 1454.87 2036.06 1454.87 2036.06 1427.37ZM2042.94 1475.5 2042.94 1503 2036.06 1503 2036.06 1475.5ZM2042.94 1523.62 2042.94 1551.12 2036.06 1551.12 2036.06 1523.62ZM2042.94 1571.75 2042.94 1599.25 2036.06 1599.25 2036.06 1571.75ZM2042.94 1619.87 2042.94 1647.37 2036.06 1647.37 2036.06 1619.87ZM2042.94 1668 2042.94 1695.5 2036.06 1695.5 2036.06 1668ZM2042.94 1716.12 2042.94 1743.62 2036.06 1743.62 2036.06 1716.12ZM2042.94 1764.25 2042.94 1791.75 2036.06 1791.75 2036.06 1764.25ZM2053.25 1789.54 2039.5 1817.04 2025.75 1789.54Z" fill="#6C75B7"/><path d="M2380.94 1090.5 2380.94 1118 2374.06 1118 2374.06 1090.5ZM2380.94 1138.62 2380.94 1166.12 2374.06 1166.12 2374.06 1138.62ZM2380.94 1186.75 2380.94 1214.25 2374.06 1214.25 2374.06 1186.75ZM2380.94 1234.87 2380.94 1262.37 2374.06 1262.37 2374.06 1234.87ZM2380.94 1283 2380.94 1310.5 2374.06 1310.5 2374.06 1283ZM2380.94 1331.12 2380.94 1358.62 2374.06 1358.62 2374.06 1331.12ZM2380.94 1379.25 2380.94 1406.75 2374.06 1406.75 2374.06 1379.25ZM2380.94 1427.37 2380.94 1454.87 2374.06 1454.87 2374.06 1427.37ZM2380.94 1475.5 2380.94 1503 2374.06 1503 2374.06 1475.5ZM2380.94 1523.62 2380.94 1551.12 2374.06 1551.12 2374.06 1523.62ZM2380.94 1571.75 2380.94 1599.25 2374.06 1599.25 2374.06 1571.75ZM2380.94 1619.87 2380.94 1647.37 2374.06 1647.37 2374.06 1619.87ZM2380.94 1668 2380.94 1695.5 2374.06 1695.5 2374.06 1668ZM2380.94 1716.12 2380.94 1743.62 2374.06 1743.62 2374.06 1716.12ZM2380.94 1764.25 2380.94 1791.75 2374.06 1791.75 2374.06 1764.25ZM2391.25 1789.54 2377.5 1817.04 2363.75 1789.54Z" fill="#6C75B7"/><path d="M2415 1975 2413.97 1976.71 2412.83 1978.49 2411.69 1980.39 2410.44 1982.36 2409.09 1984.47 2407.69 1986.66 2406.18 1988.97 2404.57 1991.49 2402.84 1994.09 2401 1996.84 2399.06 1999.7 2397.04 2002.79 2394.83 2005.98 2392.55 2009.4 2391.75 2010.66 2391.16 2012 2379 1999.74 2379.07 1999.67 2379.29 1999.41 2379.66 1998.96 2380.1 1998.37 2380.73 1997.62 2381.42 1996.84 2382.27 1995.84 2383.22 1994.8 2384.29 1993.69 2385.39 1992.5 2386.64 1991.27 2387.96 1989.97 2389.4 1988.67 2390.9 1987.33 2392.44 1986 2394.06 1984.7 2395.79 1983.4 2397.51 1982.13 2399.35 1980.94 2401.15 1979.83 2403.06 1978.79 2404.97 1977.82 2406.95 1977.01 2408.94 1976.3 2410.96 1975.71 2412.98 1975.26 2415 1975Z" fill="#9E4694" fill-rule="evenodd"/><path d="M2477 2037 2476.7 2039.02 2476.26 2041.08 2475.7 2043.07 2474.96 2045.09 2474.11 2047.04 2473.18 2048.99 2472.14 2050.86 2471.03 2052.7 2469.81 2054.54 2468.55 2056.27 2467.29 2057.96 2465.95 2059.58 2464.65 2061.16 2463.32 2062.67 2462.02 2064.06 2460.72 2065.35 2459.46 2066.6 2458.31 2067.78 2457.17 2068.84 2456.09 2069.76 2455.16 2070.61 2454.31 2071.31 2453.61 2071.9 2453.01 2072.38 2452.61 2072.74 2452.35 2072.96 2452.23 2073 2440 2060.87 2441.3 2060.28 2442.6 2059.5 2445.97 2057.19 2449.19 2055.02 2452.23 2052.92 2455.16 2051.01 2457.91 2049.21 2460.5 2047.48 2462.95 2045.86 2465.28 2044.35 2467.55 2042.96 2469.62 2041.6 2471.62 2040.38 2473.48 2039.17 2475.29 2038.07 2477 2037Z" fill="#9E4694" fill-rule="evenodd"/><path d="M2396.44 2028 2397.78 2029.34 2396.67 2031.87 2395.63 2034.44 2394.62 2037.24 2393.73 2040.07 2392.99 2042.94 2391.95 2047.44 2391.13 2051.99 2390.46 2056.57 2390.01 2061.15 2389.9 2062.08 2393.73 2061.75 2397.56 2061.26 2402.06 2060.55 2406.49 2059.62 2410.91 2058.54 2415.26 2057.2 2417.42 2056.42 2419.54 2055.56 2421.62 2054.71 2422.62 2054.22 2424 2055.56 2422.4 2057.69 2420.65 2059.7 2418.72 2061.56 2416.71 2063.27 2414.55 2064.84 2412.29 2066.25 2409.91 2067.56 2407.53 2068.75 2405.07 2069.83 2402.58 2070.72 2400.09 2071.54 2396.26 2072.55 2392.35 2073.33 2388.41 2073.78 2384.47 2074 2383.62 2074 2382.76 2073.93 2381.94 2073.74 2380.97 2073.33 2380.12 2072.73 2379.34 2072.03 2378.78 2071.17 2378.3 2070.24 2378.04 2069.2 2378 2067.97 2378 2066.77 2378.22 2063.27 2378.67 2059.85 2379.3 2056.38 2380.12 2052.99 2381.16 2049.68 2382.28 2046.66 2383.58 2043.68 2385.07 2040.85 2386.74 2038.06 2388.6 2035.45 2390.31 2033.36 2392.21 2031.43 2394.29 2029.64 2396.44 2028Z" fill="#9E4694" fill-rule="evenodd"/><path d="M2472.78 1962.37 2470.93 1962.48 2469.12 1962.78 2467.3 1963.26 2465.57 1964 2463.94 1964.89 2462.35 1966 2460.87 1967.3 2459.57 1968.78 2458.47 1970.33 2457.58 1972 2456.88 1973.74 2456.36 1975.52 2456.06 1977.37 2455.95 1979.19 2456.06 1981.07 2456.36 1982.85 2456.88 1984.63 2457.58 1986.41 2458.47 1988.07 2459.57 1989.67 2460.87 1991.15 2462.35 1992.44 2463.94 1993.56 2465.57 1994.44 2467.3 1995.15 2469.12 1995.63 2470.93 1995.96 2472.78 1996.04 2474.66 1995.96 2476.44 1995.63 2478.29 1995.15 2479.95 1994.44 2481.65 1993.56 2483.24 1992.44 2484.72 1991.15 2486.02 1989.67 2487.13 1988.07 2488.02 1986.41 2488.72 1984.63 2489.24 1982.85 2489.53 1981.07 2489.64 1979.19 2489.53 1977.37 2489.24 1975.52 2488.72 1973.74 2488.02 1972 2487.13 1970.33 2486.02 1968.78 2484.72 1967.3 2483.24 1966 2481.65 1964.89 2479.95 1964 2478.29 1963.26 2476.44 1962.78 2474.66 1962.48 2472.78 1962.37ZM2518.86 1928 2518.97 1928 2519.93 1928.07 2520.89 1928.37 2521.78 1928.85 2522.52 1929.48 2523.15 1930.22 2523.63 1931.19 2523.93 1932.11 2524 1933.15 2523.96 1935.19 2523.85 1937.48 2523.74 1939.96 2523.59 1942.63 2523.37 1945.44 2523.11 1948.44 2522.74 1951.52 2522.34 1954.74 2521.89 1958.04 2521.34 1961.44 2520.71 1964.93 2519.93 1968.41 2519.12 1971.96 2518.19 1975.52 2517.12 1979.11 2515.97 1982.63 2514.72 1986.11 2513.27 1989.59 2511.72 1993 2510.02 1996.33 2508.17 1999.56 2506.21 2002.63 2504.07 2005.56 2501.74 2008.44 2499.3 2011.07 2497.26 2013.04 2495.34 2014.89 2493.56 2016.52 2491.86 2018.04 2490.16 2019.44 2488.5 2020.74 2486.87 2022 2485.2 2023.22 2483.5 2024.41 2481.73 2025.59 2479.84 2026.81 2477.88 2028.07 2475.74 2029.41 2473.44 2030.85 2471.82 2031.85 2470.08 2032.93 2468.3 2034.11 2466.38 2035.3 2464.38 2036.56 2462.24 2037.96 2459.94 2039.37 2457.58 2040.93 2455.06 2042.59 2452.4 2044.37 2449.59 2046.26 2446.59 2048.26 2443.45 2050.37 2440.12 2052.67 2436.65 2055.07 2435.72 2055.59 2434.76 2055.89 2433.76 2056 2432.76 2055.93 2431.84 2055.59 2430.99 2055.15 2430.17 2054.48 2397.48 2021.85 2396.85 2021.04 2396.37 2020.15 2396.11 2019.22 2396 2018.22 2396.11 2017.19 2396.41 2016.26 2396.92 2015.37 2399.33 2011.89 2401.62 2008.56 2403.77 2005.41 2405.76 2002.44 2407.65 1999.63 2409.39 1996.93 2411.05 1994.44 2412.61 1992.04 2414.08 1989.78 2415.42 1987.63 2416.71 1985.63 2417.93 1983.7 2419.08 1981.93 2420.15 1980.19 2421.19 1978.56 2422.55 1976.26 2423.92 1974.15 2425.22 1972.19 2426.4 1970.3 2427.62 1968.52 2428.77 1966.81 2429.99 1965.11 2431.25 1963.44 2432.58 1961.85 2433.98 1960.15 2435.5 1958.44 2437.13 1956.63 2438.94 1954.74 2440.94 1952.7 2443.6 1950.26 2446.41 1947.93 2449.33 1945.78 2452.47 1943.81 2455.65 1942 2459.02 1940.3 2462.35 1938.74 2465.86 1937.33 2469.34 1936.04 2472.93 1934.89 2476.44 1933.81 2480.03 1932.85 2483.54 1932.07 2487.09 1931.3 2490.53 1930.67 2493.93 1930.11 2497.22 1929.67 2500.44 1929.26 2503.59 1928.89 2506.51 1928.63 2509.35 1928.41 2512.02 1928.22 2514.5 1928.11 2516.75 1928.04 2518.86 1928Z" fill="#9E4694" fill-rule="evenodd"/><text fill="#9E4694" font-family="Arial,Arial_MSFontService,sans-serif" font-weight="700" font-size="64" transform="matrix(1 0 0 1 2383.61 2169)">UAT</text><path d="M2003 1763 2001.97 1764.71 2000.83 1766.49 1999.69 1768.39 1998.44 1770.36 1997.09 1772.47 1995.69 1774.66 1994.18 1776.97 1992.57 1779.49 1990.84 1782.09 1989 1784.84 1987.06 1787.7 1985.04 1790.79 1982.83 1793.98 1980.56 1797.4 1979.75 1798.66 1979.16 1800 1967 1787.74 1967.07 1787.67 1967.29 1787.41 1967.66 1786.96 1968.1 1786.37 1968.73 1785.62 1969.42 1784.84 1970.27 1783.84 1971.22 1782.8 1972.29 1781.69 1973.39 1780.5 1974.64 1779.27 1975.96 1777.97 1977.4 1776.67 1978.9 1775.33 1980.44 1774 1982.06 1772.7 1983.79 1771.4 1985.51 1770.13 1987.35 1768.94 1989.15 1767.83 1991.06 1766.79 1992.97 1765.82 1994.96 1765.01 1996.94 1764.3 1998.96 1763.71 2000.98 1763.26 2003 1763Z" fill="#6C75B7" fill-rule="evenodd"/><path d="M2065 1825 2064.7 1827.02 2064.26 1829.08 2063.7 1831.07 2062.96 1833.09 2062.11 1835.04 2061.18 1836.99 2060.14 1838.86 2059.03 1840.7 2057.81 1842.54 2056.55 1844.27 2055.29 1845.96 2053.95 1847.58 2052.65 1849.16 2051.32 1850.67 2050.02 1852.06 2048.72 1853.35 2047.46 1854.6 2046.31 1855.78 2045.17 1856.84 2044.09 1857.76 2043.16 1858.61 2042.31 1859.31 2041.61 1859.9 2041.01 1860.38 2040.61 1860.74 2040.35 1860.96 2040.23 1861 2028 1848.87 2029.3 1848.28 2030.6 1847.5 2033.97 1845.19 2037.19 1843.02 2040.23 1840.92 2043.16 1839.01 2045.91 1837.21 2048.5 1835.48 2050.95 1833.86 2053.28 1832.35 2055.55 1830.96 2057.62 1829.6 2059.62 1828.38 2061.48 1827.17 2063.29 1826.07 2065 1825Z" fill="#6C75B7" fill-rule="evenodd"/><path d="M1984.44 1816 1985.78 1817.34 1984.67 1819.87 1983.63 1822.44 1982.62 1825.24 1981.73 1828.07 1980.99 1830.94 1979.94 1835.44 1979.13 1839.99 1978.46 1844.57 1978.01 1849.15 1977.9 1850.08 1981.73 1849.75 1985.56 1849.26 1990.06 1848.55 1994.48 1847.62 1998.91 1846.54 2003.26 1845.2 2005.42 1844.42 2007.54 1843.56 2009.62 1842.71 2010.62 1842.22 2012 1843.56 2010.4 1845.69 2008.65 1847.7 2006.72 1849.56 2004.71 1851.27 2002.55 1852.84 2000.29 1854.25 1997.91 1855.56 1995.53 1856.75 1993.07 1857.83 1990.58 1858.72 1988.09 1859.54 1984.26 1860.55 1980.35 1861.33 1976.41 1861.78 1972.47 1862 1971.62 1862 1970.76 1861.93 1969.94 1861.74 1968.97 1861.33 1968.12 1860.73 1967.34 1860.03 1966.78 1859.17 1966.3 1858.24 1966.04 1857.2 1966 1855.97 1966 1854.77 1966.22 1851.27 1966.67 1847.85 1967.3 1844.38 1968.12 1840.99 1969.16 1837.68 1970.28 1834.66 1971.58 1831.68 1973.07 1828.85 1974.74 1826.06 1976.6 1823.45 1978.31 1821.36 1980.21 1819.43 1982.29 1817.64 1984.44 1816Z" fill="#6C75B7" fill-rule="evenodd"/><path d="M2061.78 1750.1 2059.93 1750.21 2058.12 1750.51 2056.3 1750.98 2054.57 1751.72 2052.94 1752.6 2051.35 1753.7 2049.87 1754.99 2048.57 1756.46 2047.47 1758 2046.58 1759.66 2045.88 1761.38 2045.36 1763.15 2045.06 1764.98 2044.95 1766.79 2045.06 1768.66 2045.36 1770.42 2045.88 1772.19 2046.58 1773.95 2047.47 1775.6 2048.57 1777.18 2049.87 1778.65 2051.35 1779.94 2052.94 1781.04 2054.57 1781.93 2056.3 1782.62 2058.12 1783.1 2059.93 1783.43 2061.78 1783.51 2063.66 1783.43 2065.44 1783.1 2067.29 1782.62 2068.95 1781.93 2070.65 1781.04 2072.24 1779.94 2073.72 1778.65 2075.02 1777.18 2076.13 1775.6 2077.02 1773.95 2077.72 1772.19 2078.24 1770.42 2078.53 1768.66 2078.64 1766.79 2078.53 1764.98 2078.24 1763.15 2077.72 1761.38 2077.02 1759.66 2076.13 1758 2075.02 1756.46 2073.72 1754.99 2072.24 1753.7 2070.65 1752.6 2068.95 1751.72 2067.29 1750.98 2065.44 1750.51 2063.66 1750.21 2061.78 1750.1ZM2107.86 1716 2107.97 1716 2108.93 1716.07 2109.89 1716.37 2110.78 1716.85 2111.52 1717.47 2112.15 1718.2 2112.63 1719.16 2112.93 1720.08 2113 1721.11 2112.96 1723.13 2112.85 1725.41 2112.74 1727.87 2112.59 1730.52 2112.37 1733.31 2112.11 1736.28 2111.74 1739.33 2111.34 1742.53 2110.89 1745.8 2110.34 1749.18 2109.71 1752.64 2108.93 1756.09 2108.12 1759.62 2107.19 1763.15 2106.12 1766.71 2104.97 1770.2 2103.72 1773.66 2102.27 1777.11 2100.72 1780.49 2099.02 1783.8 2097.17 1787 2095.21 1790.05 2093.07 1792.95 2090.74 1795.82 2088.29 1798.42 2086.26 1800.37 2084.34 1802.21 2082.56 1803.83 2080.86 1805.33 2079.16 1806.73 2077.5 1808.02 2075.87 1809.27 2074.2 1810.48 2072.5 1811.65 2070.73 1812.83 2068.84 1814.04 2066.88 1815.29 2064.74 1816.61 2062.44 1818.05 2060.82 1819.04 2059.08 1820.11 2057.3 1821.28 2055.38 1822.46 2053.38 1823.71 2051.24 1825.1 2048.94 1826.5 2046.58 1828.04 2044.06 1829.7 2041.4 1831.46 2038.59 1833.34 2035.59 1835.32 2032.45 1837.41 2029.12 1839.69 2025.65 1842.08 2024.72 1842.6 2023.76 1842.89 2022.76 1843 2021.76 1842.93 2020.84 1842.6 2019.99 1842.15 2019.17 1841.49 1986.48 1809.12 1985.85 1808.31 1985.37 1807.43 1985.11 1806.51 1985 1805.52 1985.11 1804.49 1985.41 1803.57 1985.92 1802.69 1988.33 1799.23 1990.62 1795.93 1992.77 1792.8 1994.76 1789.86 1996.65 1787.07 1998.39 1784.39 2000.05 1781.93 2001.61 1779.54 2003.09 1777.3 2004.42 1775.16 2005.71 1773.18 2006.93 1771.27 2008.08 1769.5 2009.15 1767.78 2010.19 1766.16 2011.55 1763.88 2012.92 1761.79 2014.22 1759.84 2015.4 1757.97 2016.62 1756.2 2017.77 1754.51 2018.99 1752.82 2020.25 1751.17 2021.58 1749.59 2022.98 1747.9 2024.5 1746.21 2026.13 1744.41 2027.94 1742.53 2029.94 1740.51 2032.6 1738.09 2035.41 1735.77 2038.33 1733.64 2041.47 1731.69 2044.65 1729.89 2048.02 1728.2 2051.35 1726.66 2054.86 1725.26 2058.34 1723.97 2061.93 1722.84 2065.44 1721.77 2069.03 1720.81 2072.54 1720.04 2076.09 1719.27 2079.53 1718.65 2082.93 1718.09 2086.22 1717.65 2089.44 1717.25 2092.59 1716.88 2095.51 1716.62 2098.35 1716.4 2101.02 1716.22 2103.5 1716.11 2105.75 1716.04 2107.86 1716Z" fill="#6C75B7" fill-rule="evenodd"/><text fill="#6C75B7" font-family="Arial,Arial_MSFontService,sans-serif" font-weight="700" font-size="64" transform="matrix(1 0 0 1 1972.12 1956)">DEV</text><path d="M2342 1765 2340.97 1766.71 2339.83 1768.49 2338.69 1770.39 2337.44 1772.36 2336.09 1774.47 2334.69 1776.66 2333.18 1778.97 2331.57 1781.49 2329.84 1784.09 2328 1786.84 2326.06 1789.7 2324.04 1792.79 2321.83 1795.98 2319.55 1799.4 2318.75 1800.66 2318.16 1802 2306 1789.74 2306.07 1789.67 2306.29 1789.41 2306.66 1788.96 2307.1 1788.37 2307.73 1787.62 2308.42 1786.84 2309.27 1785.84 2310.22 1784.8 2311.29 1783.69 2312.39 1782.5 2313.64 1781.27 2314.96 1779.97 2316.4 1778.67 2317.9 1777.33 2319.44 1776 2321.06 1774.7 2322.79 1773.4 2324.51 1772.13 2326.35 1770.94 2328.15 1769.83 2330.06 1768.79 2331.97 1767.82 2333.95 1767.01 2335.94 1766.3 2337.96 1765.71 2339.98 1765.26 2342 1765Z" fill="#6C75B7" fill-rule="evenodd"/><path d="M2404 1827 2403.7 1829.02 2403.26 1831.08 2402.7 1833.07 2401.96 1835.09 2401.11 1837.04 2400.18 1838.99 2399.14 1840.86 2398.03 1842.7 2396.81 1844.54 2395.55 1846.27 2394.29 1847.96 2392.95 1849.58 2391.65 1851.16 2390.32 1852.67 2389.02 1854.06 2387.72 1855.35 2386.46 1856.6 2385.31 1857.78 2384.17 1858.84 2383.09 1859.76 2382.16 1860.61 2381.31 1861.31 2380.61 1861.9 2380.01 1862.38 2379.61 1862.74 2379.35 1862.96 2379.23 1863 2367 1850.87 2368.3 1850.28 2369.6 1849.5 2372.97 1847.19 2376.19 1845.02 2379.23 1842.92 2382.16 1841.01 2384.91 1839.21 2387.5 1837.48 2389.95 1835.86 2392.28 1834.35 2394.55 1832.96 2396.62 1831.6 2398.62 1830.38 2400.48 1829.17 2402.29 1828.07 2404 1827Z" fill="#6C75B7" fill-rule="evenodd"/><path d="M2323.44 1818 2324.78 1819.34 2323.67 1821.87 2322.63 1824.44 2321.62 1827.24 2320.73 1830.07 2319.99 1832.94 2318.94 1837.44 2318.13 1841.99 2317.46 1846.57 2317.01 1851.15 2316.9 1852.08 2320.73 1851.75 2324.56 1851.26 2329.06 1850.55 2333.48 1849.62 2337.91 1848.54 2342.26 1847.2 2344.42 1846.42 2346.54 1845.56 2348.62 1844.71 2349.62 1844.22 2351 1845.56 2349.4 1847.69 2347.65 1849.7 2345.72 1851.56 2343.71 1853.27 2341.55 1854.84 2339.29 1856.25 2336.91 1857.56 2334.53 1858.75 2332.07 1859.83 2329.58 1860.72 2327.09 1861.54 2323.26 1862.55 2319.35 1863.33 2315.41 1863.78 2311.47 1864 2310.61 1864 2309.76 1863.93 2308.94 1863.74 2307.97 1863.33 2307.12 1862.73 2306.34 1862.03 2305.78 1861.17 2305.3 1860.24 2305.04 1859.2 2305 1857.97 2305 1856.77 2305.22 1853.27 2305.67 1849.85 2306.3 1846.38 2307.12 1842.99 2308.16 1839.68 2309.28 1836.66 2310.58 1833.68 2312.07 1830.85 2313.74 1828.06 2315.6 1825.45 2317.31 1823.36 2319.21 1821.43 2321.29 1819.64 2323.44 1818Z" fill="#6C75B7" fill-rule="evenodd"/><path d="M2400.78 1752.1 2398.93 1752.21 2397.12 1752.51 2395.3 1752.98 2393.57 1753.72 2391.94 1754.6 2390.35 1755.7 2388.87 1756.99 2387.57 1758.46 2386.47 1760 2385.58 1761.66 2384.87 1763.38 2384.36 1765.15 2384.06 1766.98 2383.95 1768.79 2384.06 1770.66 2384.36 1772.42 2384.87 1774.19 2385.58 1775.95 2386.47 1777.6 2387.57 1779.18 2388.87 1780.65 2390.35 1781.94 2391.94 1783.04 2393.57 1783.93 2395.3 1784.62 2397.12 1785.1 2398.93 1785.43 2400.78 1785.51 2402.66 1785.43 2404.44 1785.1 2406.29 1784.62 2407.95 1783.93 2409.65 1783.04 2411.24 1781.94 2412.72 1780.65 2414.02 1779.18 2415.13 1777.6 2416.01 1775.95 2416.72 1774.19 2417.24 1772.42 2417.53 1770.66 2417.64 1768.79 2417.53 1766.98 2417.24 1765.15 2416.72 1763.38 2416.01 1761.66 2415.13 1760 2414.02 1758.46 2412.72 1756.99 2411.24 1755.7 2409.65 1754.6 2407.95 1753.72 2406.29 1752.98 2404.44 1752.51 2402.66 1752.21 2400.78 1752.1ZM2446.86 1718 2446.97 1718 2447.93 1718.07 2448.89 1718.37 2449.78 1718.85 2450.52 1719.47 2451.15 1720.2 2451.63 1721.16 2451.93 1722.08 2452 1723.11 2451.96 1725.13 2451.85 1727.41 2451.74 1729.87 2451.59 1732.52 2451.37 1735.31 2451.11 1738.28 2450.74 1741.33 2450.34 1744.53 2449.89 1747.8 2449.34 1751.18 2448.71 1754.64 2447.93 1758.09 2447.12 1761.62 2446.19 1765.15 2445.12 1768.71 2443.97 1772.2 2442.72 1775.66 2441.27 1779.11 2439.72 1782.49 2438.02 1785.8 2436.17 1789 2434.21 1792.05 2432.07 1794.95 2429.74 1797.82 2427.29 1800.43 2425.26 1802.37 2423.34 1804.21 2421.56 1805.83 2419.86 1807.33 2418.16 1808.73 2416.5 1810.02 2414.87 1811.27 2413.2 1812.48 2411.5 1813.65 2409.73 1814.83 2407.84 1816.04 2405.88 1817.29 2403.74 1818.62 2401.44 1820.05 2399.82 1821.04 2398.08 1822.11 2396.3 1823.28 2394.38 1824.46 2392.38 1825.71 2390.24 1827.1 2387.94 1828.5 2385.58 1830.04 2383.06 1831.7 2380.4 1833.46 2377.59 1835.34 2374.59 1837.32 2371.45 1839.41 2368.12 1841.69 2364.64 1844.08 2363.72 1844.6 2362.76 1844.89 2361.76 1845 2360.76 1844.93 2359.84 1844.6 2358.99 1844.15 2358.17 1843.49 2325.48 1811.12 2324.85 1810.31 2324.37 1809.43 2324.11 1808.51 2324 1807.52 2324.11 1806.49 2324.41 1805.57 2324.92 1804.69 2327.33 1801.23 2329.62 1797.93 2331.77 1794.8 2333.76 1791.86 2335.65 1789.07 2337.39 1786.39 2339.05 1783.93 2340.61 1781.54 2342.08 1779.3 2343.42 1777.16 2344.71 1775.18 2345.93 1773.27 2347.08 1771.5 2348.15 1769.78 2349.19 1768.16 2350.55 1765.88 2351.92 1763.79 2353.22 1761.84 2354.4 1759.97 2355.62 1758.2 2356.77 1756.51 2357.99 1754.82 2359.25 1753.17 2360.58 1751.59 2361.98 1749.9 2363.5 1748.21 2365.13 1746.41 2366.94 1744.53 2368.94 1742.51 2371.6 1740.09 2374.41 1737.77 2377.33 1735.64 2380.47 1733.69 2383.65 1731.89 2387.02 1730.2 2390.35 1728.66 2393.86 1727.26 2397.34 1725.97 2400.93 1724.84 2404.44 1723.77 2408.03 1722.81 2411.54 1722.04 2415.09 1721.27 2418.53 1720.65 2421.93 1720.09 2425.22 1719.65 2428.44 1719.25 2431.58 1718.88 2434.51 1718.62 2437.35 1718.4 2440.02 1718.22 2442.5 1718.11 2444.75 1718.04 2446.86 1718Z" fill="#6C75B7" fill-rule="evenodd"/><text fill="#6C75B7" font-family="Arial,Arial_MSFontService,sans-serif" font-weight="700" font-size="64" transform="matrix(1 0 0 1 2311.04 1958)">DEV</text><path d="M931 645 1646.5 645 1712 710.5 1646.5 776 931 776Z" fill="#BEBEBE" fill-rule="evenodd"/><text fill="#FEFEFE" font-family="Arial,Arial_MSFontService,sans-serif" font-weight="400" font-size="83" transform="matrix(1 0 0 1 1163.36 741)">Sprint 0</text><path d="M1688.5 645.5 2380 645.5 2445.5 711 2380 776.5 1688.5 776.5 1754 711Z" stroke="#FEFEFE" stroke-width="6.875" stroke-miterlimit="8" fill="#BEBEBE" fill-rule="evenodd"/><text fill="#FEFEFE" font-family="Arial,Arial_MSFontService,sans-serif" font-weight="400" font-size="83" transform="matrix(1 0 0 1 1924.54 741)">Sprint 1</text><path d="M2421.5 645.5 3113 645.5 3178.5 711 3113 776.5 2421.5 776.5 2487 711Z" stroke="#FEFEFE" stroke-width="6.875" stroke-miterlimit="8" fill="#BEBEBE" fill-rule="evenodd"/><text fill="#FEFEFE" font-family="Arial,Arial_MSFontService,sans-serif" font-weight="400" font-size="83" transform="matrix(1 0 0 1 2657.7 741)">Sprint 2</text><path d="M3154.5 647.5 3846 647.5 3911.5 713 3846 778.5 3154.5 778.5 3220 713Z" stroke="#FEFEFE" stroke-width="6.875" stroke-miterlimit="8" fill="#BEBEBE" fill-rule="evenodd"/><text fill="#FEFEFE" font-family="Arial,Arial_MSFontService,sans-serif" font-weight="400" font-size="83" transform="matrix(1 0 0 1 3390.36 743)">Sprint 3</text><path d="M0 0 0.000360892 954.457" stroke="#7F7F7F" stroke-width="4.58333" stroke-miterlimit="8" stroke-dasharray="18.3333 13.75" fill="none" fill-rule="evenodd" transform="matrix(1 0 0 -1 938.5 1571.96)"/><text fill="#7F7F7F" font-family="Arial,Arial_MSFontService,sans-serif" font-weight="700" font-size="64" transform="matrix(1 0 0 1 897.847 584)">S0</text><path d="M0 0 0.000360892 954.457" stroke="#7F7F7F" stroke-width="4.58333" stroke-miterlimit="8" stroke-dasharray="18.3333 13.75" fill="none" fill-rule="evenodd" transform="matrix(1 0 0 -1 1702.5 1571.96)"/><text fill="#7F7F7F" font-family="Arial,Arial_MSFontService,sans-serif" font-weight="700" font-size="64" transform="matrix(1 0 0 1 1662.54 584)">S3</text><path d="M0 0 0.000360892 954.277" stroke="#7F7F7F" stroke-width="4.58333" stroke-miterlimit="8" stroke-dasharray="18.3333 13.75" fill="none" fill-rule="evenodd" transform="matrix(1 0 0 -1 2429.5 1571.78)"/><text fill="#7F7F7F" font-family="Arial,Arial_MSFontService,sans-serif" font-weight="700" font-size="64" transform="matrix(1 0 0 1 2389.38 584)">S6</text><path d="M0 0 0.000360892 954.277" stroke="#7F7F7F" stroke-width="4.58333" stroke-miterlimit="8" stroke-dasharray="18.3333 13.75" fill="none" fill-rule="evenodd" transform="matrix(1 0 0 -1 3156.5 1571.78)"/><text fill="#7F7F7F" font-family="Arial,Arial_MSFontService,sans-serif" font-weight="700" font-size="64" transform="matrix(1 0 0 1 3116.21 584)">S9</text><path d="M0 0 0.000360892 954.277" stroke="#7F7F7F" stroke-width="4.58333" stroke-miterlimit="8" stroke-dasharray="18.3333 13.75" fill="none" fill-rule="evenodd" transform="matrix(1 0 0 -1 3889.5 1571.78)"/><text fill="#7F7F7F" font-family="Arial,Arial_MSFontService,sans-serif" font-weight="700" font-size="64" transform="matrix(1 0 0 1 3830.81 584)">S12<tspan fill="#051922" font-size="64" x="-3345.28" y="322">GROOMING</tspan><tspan fill="#051922" font-size="64" x="-3113.82" y="495">RTU</tspan><tspan fill="#051922" font-size="64" x="-3600.62" y="572">TEST INTEGRATION</tspan></text><rect x="994.5" y="831.5" width="306" height="109" stroke="#4D5486" stroke-width="4.58333" stroke-miterlimit="8" fill="#6C75B7"/><text fill="#FEFEFE" font-family="Arial,Arial_MSFontService,sans-serif" font-weight="400" font-size="83" transform="matrix(1 0 0 1 1043.73 916)">US#1</text><rect x="1331.5" y="831.5" width="307" height="109" stroke="#31898F" stroke-width="4.58333" stroke-miterlimit="8" fill="#46BBC3"/><text fill="#FEFEFE" font-family="Arial,Arial_MSFontService,sans-serif" font-weight="400" font-size="83" transform="matrix(1 0 0 1 1381.45 916)">US#2</text><rect x="1733.5" y="831.5" width="306" height="109" stroke="#73316B" stroke-width="4.58333" stroke-miterlimit="8" fill="#9E4694"/><text fill="#FEFEFE" font-family="Arial,Arial_MSFontService,sans-serif" font-weight="400" font-size="83" transform="matrix(1 0 0 1 1782.85 916)">US#3</text><rect x="2070.5" y="831.5" width="307" height="109" stroke="#4A8A74" stroke-width="4.58333" stroke-miterlimit="8" fill="#68BD9F"/><text fill="#FEFEFE" font-family="Arial,Arial_MSFontService,sans-serif" font-weight="400" font-size="83" transform="matrix(1 0 0 1 2120.57 916)">US#4</text><rect x="2462.5" y="831.5" width="306" height="109" stroke="#604478" stroke-width="4.58333" stroke-miterlimit="8" fill="#855FA5"/><text fill="#FEFEFE" font-family="Arial,Arial_MSFontService,sans-serif" font-weight="400" font-size="83" transform="matrix(1 0 0 1 2511.67 916)">US#5</text><rect x="2799.5" y="831.5" width="307" height="109" stroke="#7D1A53" stroke-width="4.58333" stroke-miterlimit="8" fill="#AB2774"/><text fill="#FEFEFE" font-family="Arial,Arial_MSFontService,sans-serif" font-weight="400" font-size="83" transform="matrix(1 0 0 1 2849.39 916)">US#6</text><rect x="1733.5" y="1035.5" width="306" height="109" stroke="#4D5486" stroke-width="4.58333" stroke-miterlimit="8" fill="#6C75B7"/><text fill="#FEFEFE" font-family="Arial,Arial_MSFontService,sans-serif" font-weight="400" font-size="83" transform="matrix(1 0 0 1 1782.85 1120)">US#1</text><rect x="2070.5" y="1035.5" width="307" height="109" stroke="#31898F" stroke-width="4.58333" stroke-miterlimit="8" fill="#46BBC3"/><text fill="#FEFEFE" font-family="Arial,Arial_MSFontService,sans-serif" font-weight="400" font-size="83" transform="matrix(1 0 0 1 2120.57 1120)">US#2</text><rect x="2472.5" y="1035.5" width="306" height="109" stroke="#73316B" stroke-width="4.58333" stroke-miterlimit="8" fill="#9E4694"/><text fill="#FEFEFE" font-family="Arial,Arial_MSFontService,sans-serif" font-weight="400" font-size="83" transform="matrix(1 0 0 1 2521.97 1120)">US#3</text><rect x="2810.5" y="1035.5" width="306" height="109" stroke="#4A8A74" stroke-width="4.58333" stroke-miterlimit="8" fill="#68BD9F"/><text fill="#FEFEFE" font-family="Arial,Arial_MSFontService,sans-serif" font-weight="400" font-size="83" transform="matrix(1 0 0 1 2859.69 1120)">US#4</text><rect x="3201.5" y="1035.5" width="306" height="109" stroke="#604478" stroke-width="4.58333" stroke-miterlimit="8" fill="#855FA5"/><text fill="#FEFEFE" font-family="Arial,Arial_MSFontService,sans-serif" font-weight="400" font-size="83" transform="matrix(1 0 0 1 3250.79 1120)">US#5</text><rect x="3538.5" y="1035.5" width="307" height="109" stroke="#7D1A53" stroke-width="4.58333" stroke-miterlimit="8" fill="#AB2774"/><text fill="#FEFEFE" font-family="Arial,Arial_MSFontService,sans-serif" font-weight="400" font-size="83" transform="matrix(1 0 0 1 3588.51 1120)">US#6<tspan fill="#051922" font-weight="700" font-size="64" x="-3039.4" y="172">RECETTE</tspan><tspan fill="#051922" font-weight="700" font-size="64" x="-3284.61" y="249">FONCTIONNELLE</tspan><tspan fill="#051922" font-weight="700" font-size="64" x="-3225.02" y="395">MISE EN PROD.</tspan></text><rect x="2450.5" y="1243.5" width="306" height="109" stroke="#31898F" stroke-width="4.58333" stroke-miterlimit="8" fill="#46BBC3"/><text fill="#FEFEFE" font-family="Arial,Arial_MSFontService,sans-serif" font-weight="400" font-size="83" transform="matrix(1 0 0 1 2499.86 1328)">US#2</text><rect x="2842.5" y="1440.5" width="307" height="109" stroke="#73316B" stroke-width="4.58333" stroke-miterlimit="8" fill="#9E4694"/><text fill="#FEFEFE" font-family="Arial,Arial_MSFontService,sans-serif" font-weight="400" font-size="83" transform="matrix(1 0 0 1 2892.15 1525)">US#3</text><rect x="3168.5" y="1240.5" width="307" height="109" stroke="#4A8A74" stroke-width="4.58333" stroke-miterlimit="8" fill="#68BD9F"/><text fill="#FEFEFE" font-family="Arial,Arial_MSFontService,sans-serif" font-weight="400" font-size="83" transform="matrix(1 0 0 1 3218.24 1325)">US#4</text><rect x="2109.5" y="1440.5" width="306" height="109" stroke="#4D5486" stroke-width="4.58333" stroke-miterlimit="8" fill="#6C75B7"/><text fill="#FEFEFE" font-family="Arial,Arial_MSFontService,sans-serif" font-weight="400" font-size="83" transform="matrix(1 0 0 1 2158.92 1525)">US#1</text><rect x="2481.5" y="1440.5" width="307" height="109" stroke="#31898F" stroke-width="4.58333" stroke-miterlimit="8" fill="#46BBC3"/><text fill="#FEFEFE" font-family="Arial,Arial_MSFontService,sans-serif" font-weight="400" font-size="83" transform="matrix(1 0 0 1 2531.48 1525)">US#2</text><path d="M0 0 3551.83 0.000360892" stroke="#E5E5E5" stroke-width="4.58333" stroke-miterlimit="8" stroke-dasharray="18.3333 13.75" fill="none" fill-rule="evenodd" transform="matrix(-1 0 0 1 3889.33 976.5)"/><path d="M0 0 3551.83 0.000360892" stroke="#E5E5E5" stroke-width="4.58333" stroke-miterlimit="8" stroke-dasharray="18.3333 13.75" fill="none" fill-rule="evenodd" transform="matrix(-1 0 0 1 3889.33 1190.5)"/><path d="M0 0 3551.83 0.000360892" stroke="#E5E5E5" stroke-width="4.58333" stroke-miterlimit="8" stroke-dasharray="18.3333 13.75" fill="none" fill-rule="evenodd" transform="matrix(-1 0 0 1 3885.33 1402.5)"/><path d="M938.5 2226.5 1949.5 2226.5 1949.5 2181.5 2039.5 2271.5 1949.5 2361.5 1949.5 2316.5 938.5 2316.5Z" stroke="#FEFEFE" stroke-width="6.875" stroke-miterlimit="8" fill="#68BD9F" fill-rule="evenodd"/><text fill="#FEFEFE" font-family="Arial,Arial_MSFontService,sans-serif" font-weight="400" font-size="64" transform="matrix(1 0 0 1 1274.95 2295)">+ <tspan font-size="64" x="55" y="0">4 </tspan><tspan font-size="64" x="108.281" y="0">semaines</tspan></text><rect x="2069.5" y="1244.5" width="307" height="109" stroke="#4D5486" stroke-width="4.58333" stroke-miterlimit="8" fill="#6C75B7"/><text fill="#FEFEFE" font-family="Arial,Arial_MSFontService,sans-serif" font-weight="400" font-size="83" transform="matrix(1 0 0 1 2119.24 1329)">US#1</text><rect x="2804.5" y="1240.5" width="306" height="109" stroke="#73316B" stroke-width="4.58333" stroke-miterlimit="8" fill="#9E4694"/><text fill="#FEFEFE" font-family="Arial,Arial_MSFontService,sans-serif" font-weight="400" font-size="83" transform="matrix(1 0 0 1 2853.99 1325)">US#3</text><rect x="3203.5" y="1440.5" width="307" height="109" stroke="#4A8A74" stroke-width="4.58333" stroke-miterlimit="8" fill="#68BD9F"/><text fill="#FEFEFE" font-family="Arial,Arial_MSFontService,sans-serif" font-weight="400" font-size="83" transform="matrix(1 0 0 1 3253.35 1525)">US#4</text><rect x="3525.5" y="1239.5" width="307" height="109" stroke="#604478" stroke-width="4.58333" stroke-miterlimit="8" fill="#855FA5"/><text fill="#FEFEFE" font-family="Arial,Arial_MSFontService,sans-serif" font-weight="400" font-size="83" transform="matrix(1 0 0 1 3575.55 1324)">US#5</text><rect x="3559.5" y="1440.5" width="307" height="109" stroke="#604478" stroke-width="4.58333" stroke-miterlimit="8" fill="#855FA5"/><text fill="#FEFEFE" font-family="Arial,Arial_MSFontService,sans-serif" font-weight="400" font-size="83" transform="matrix(1 0 0 1 3609.34 1525)">US#5</text></g></svg>