<svg width="3797" height="1070" xmlns="http://www.w3.org/2000/svg" xmlns:xlink="http://www.w3.org/1999/xlink" overflow="hidden"><defs><clipPath id="clip0"><rect x="187" y="502" width="3797" height="1070"/></clipPath></defs><g clip-path="url(#clip0)" transform="translate(-187 -502)"><path d="M931 645 1646.5 645 1712 710.5 1646.5 776 931 776Z" fill="#BEBEBE" fill-rule="evenodd"/><text fill="#FEFEFE" font-family="Arial,Arial_MSFontService,sans-serif" font-weight="400" font-size="83" transform="matrix(1 0 0 1 1163.36 741)">Sprint 0</text><path d="M1688.5 645.5 2380 645.5 2445.5 711 2380 776.5 1688.5 776.5 1754 711Z" stroke="#FEFEFE" stroke-width="6.875" stroke-miterlimit="8" fill="#BEBEBE" fill-rule="evenodd"/><text fill="#FEFEFE" font-family="Arial,Arial_MSFontService,sans-serif" font-weight="400" font-size="83" transform="matrix(1 0 0 1 1924.54 741)">Sprint 1</text><path d="M2421.5 645.5 3113 645.5 3178.5 711 3113 776.5 2421.5 776.5 2487 711Z" stroke="#FEFEFE" stroke-width="6.875" stroke-miterlimit="8" fill="#BEBEBE" fill-rule="evenodd"/><text fill="#FEFEFE" font-family="Arial,Arial_MSFontService,sans-serif" font-weight="400" font-size="83" transform="matrix(1 0 0 1 2657.7 741)">Sprint 2</text><path d="M3154.5 647.5 3846 647.5 3911.5 713 3846 778.5 3154.5 778.5 3220 713Z" stroke="#FEFEFE" stroke-width="6.875" stroke-miterlimit="8" fill="#BEBEBE" fill-rule="evenodd"/><text fill="#FEFEFE" font-family="Arial,Arial_MSFontService,sans-serif" font-weight="400" font-size="83" transform="matrix(1 0 0 1 3390.36 743)">Sprint 3</text><path d="M0 0 0.000360892 954.457" stroke="#7F7F7F" stroke-width="4.58333" stroke-miterlimit="8" stroke-dasharray="18.3333 13.75" fill="none" fill-rule="evenodd" transform="matrix(1 0 0 -1 938.5 1571.96)"/><text fill="#7F7F7F" font-family="Arial,Arial_MSFontService,sans-serif" font-weight="700" font-size="64" transform="matrix(1 0 0 1 897.847 584)">S0</text><path d="M0 0 0.000360892 954.457" stroke="#7F7F7F" stroke-width="4.58333" stroke-miterlimit="8" stroke-dasharray="18.3333 13.75" fill="none" fill-rule="evenodd" transform="matrix(1 0 0 -1 1702.5 1571.96)"/><text fill="#7F7F7F" font-family="Arial,Arial_MSFontService,sans-serif" font-weight="700" font-size="64" transform="matrix(1 0 0 1 1662.54 584)">S3</text><path d="M0 0 0.000360892 954.277" stroke="#7F7F7F" stroke-width="4.58333" stroke-miterlimit="8" stroke-dasharray="18.3333 13.75" fill="none" fill-rule="evenodd" transform="matrix(1 0 0 -1 2429.5 1571.78)"/><text fill="#7F7F7F" font-family="Arial,Arial_MSFontService,sans-serif" font-weight="700" font-size="64" transform="matrix(1 0 0 1 2389.38 584)">S6</text><path d="M0 0 0.000360892 954.277" stroke="#7F7F7F" stroke-width="4.58333" stroke-miterlimit="8" stroke-dasharray="18.3333 13.75" fill="none" fill-rule="evenodd" transform="matrix(1 0 0 -1 3156.5 1571.78)"/><text fill="#7F7F7F" font-family="Arial,Arial_MSFontService,sans-serif" font-weight="700" font-size="64" transform="matrix(1 0 0 1 3116.21 584)">S9</text><path d="M0 0 0.000360892 954.277" stroke="#7F7F7F" stroke-width="4.58333" stroke-miterlimit="8" stroke-dasharray="18.3333 13.75" fill="none" fill-rule="evenodd" transform="matrix(1 0 0 -1 3889.5 1571.78)"/><text fill="#7F7F7F" font-family="Arial,Arial_MSFontService,sans-serif" font-weight="700" font-size="64" transform="matrix(1 0 0 1 3830.81 584)">S12<tspan fill="#051922" font-size="64" x="-3345.45" y="322">GROOMING</tspan><tspan fill="#051922" font-size="64" x="-3113.67" y="495">RTU</tspan><tspan fill="#051922" font-size="64" x="-3600.47" y="572">TEST INTEGRATION</tspan></text><rect x="994.5" y="831.5" width="306" height="109" stroke="#4D5486" stroke-width="4.58333" stroke-miterlimit="8" fill="#6C75B7"/><text fill="#FEFEFE" font-family="Arial,Arial_MSFontService,sans-serif" font-weight="400" font-size="83" transform="matrix(1 0 0 1 1043.73 916)">US#1</text><rect x="1331.5" y="831.5" width="307" height="109" stroke="#31898F" stroke-width="4.58333" stroke-miterlimit="8" fill="#46BBC3"/><text fill="#FEFEFE" font-family="Arial,Arial_MSFontService,sans-serif" font-weight="400" font-size="83" transform="matrix(1 0 0 1 1381.45 916)">US#2</text><rect x="1733.5" y="831.5" width="306" height="109" stroke="#73316B" stroke-width="4.58333" stroke-miterlimit="8" fill="#9E4694"/><text fill="#FEFEFE" font-family="Arial,Arial_MSFontService,sans-serif" font-weight="400" font-size="83" transform="matrix(1 0 0 1 1782.85 916)">US#3</text><rect x="2070.5" y="831.5" width="307" height="109" stroke="#4A8A74" stroke-width="4.58333" stroke-miterlimit="8" fill="#68BD9F"/><text fill="#FEFEFE" font-family="Arial,Arial_MSFontService,sans-serif" font-weight="400" font-size="83" transform="matrix(1 0 0 1 2120.57 916)">US#4</text><rect x="2462.5" y="831.5" width="306" height="109" stroke="#604478" stroke-width="4.58333" stroke-miterlimit="8" fill="#855FA5"/><text fill="#FEFEFE" font-family="Arial,Arial_MSFontService,sans-serif" font-weight="400" font-size="83" transform="matrix(1 0 0 1 2511.67 916)">US#5</text><rect x="2799.5" y="831.5" width="307" height="109" stroke="#7D1A53" stroke-width="4.58333" stroke-miterlimit="8" fill="#AB2774"/><text fill="#FEFEFE" font-family="Arial,Arial_MSFontService,sans-serif" font-weight="400" font-size="83" transform="matrix(1 0 0 1 2849.39 916)">US#6</text><rect x="1733.5" y="1035.5" width="306" height="109" stroke="#4D5486" stroke-width="4.58333" stroke-miterlimit="8" fill="#6C75B7"/><text fill="#FEFEFE" font-family="Arial,Arial_MSFontService,sans-serif" font-weight="400" font-size="83" transform="matrix(1 0 0 1 1782.85 1120)">US#1</text><rect x="2070.5" y="1035.5" width="307" height="109" stroke="#31898F" stroke-width="4.58333" stroke-miterlimit="8" fill="#46BBC3"/><text fill="#FEFEFE" font-family="Arial,Arial_MSFontService,sans-serif" font-weight="400" font-size="83" transform="matrix(1 0 0 1 2120.57 1120)">US#2</text><rect x="2472.5" y="1035.5" width="306" height="109" stroke="#73316B" stroke-width="4.58333" stroke-miterlimit="8" fill="#9E4694"/><text fill="#FEFEFE" font-family="Arial,Arial_MSFontService,sans-serif" font-weight="400" font-size="83" transform="matrix(1 0 0 1 2521.97 1120)">US#3</text><rect x="2810.5" y="1035.5" width="306" height="109" stroke="#4A8A74" stroke-width="4.58333" stroke-miterlimit="8" fill="#68BD9F"/><text fill="#FEFEFE" font-family="Arial,Arial_MSFontService,sans-serif" font-weight="400" font-size="83" transform="matrix(1 0 0 1 2859.69 1120)">US#4</text><rect x="3201.5" y="1035.5" width="306" height="109" stroke="#604478" stroke-width="4.58333" stroke-miterlimit="8" fill="#855FA5"/><text fill="#FEFEFE" font-family="Arial,Arial_MSFontService,sans-serif" font-weight="400" font-size="83" transform="matrix(1 0 0 1 3250.79 1120)">US#5</text><rect x="3538.5" y="1035.5" width="307" height="109" stroke="#7D1A53" stroke-width="4.58333" stroke-miterlimit="8" fill="#AB2774"/><text fill="#FEFEFE" font-family="Arial,Arial_MSFontService,sans-serif" font-weight="400" font-size="83" transform="matrix(1 0 0 1 3588.51 1120)">US#6</text><path d="M0 0 3551.83 0.000360892" stroke="#E5E5E5" stroke-width="4.58333" stroke-miterlimit="8" stroke-dasharray="18.3333 13.75" fill="none" fill-rule="evenodd" transform="matrix(-1 0 0 1 3889.33 976.5)"/><path d="M0 0 3551.83 0.000360892" stroke="#E5E5E5" stroke-width="4.58333" stroke-miterlimit="8" stroke-dasharray="18.3333 13.75" fill="none" fill-rule="evenodd" transform="matrix(-1 0 0 1 3889.33 1190.5)"/></g></svg>