<svg width="3685" height="365" xmlns="http://www.w3.org/2000/svg" xmlns:xlink="http://www.w3.org/1999/xlink" overflow="hidden"><defs><clipPath id="clip0"><rect x="231" y="1574" width="3685" height="365"/></clipPath></defs><g clip-path="url(#clip0)" transform="translate(-231 -1574)"><path d="M786 1726 1351.5 1726 1458 1832.5 1351.5 1939 786 1939Z" fill="#68BD9F" fill-rule="evenodd"/><text fill="#FEFEFE" font-family="Arial,Arial_MSFontService,sans-serif" font-weight="400" font-size="83" transform="matrix(1 0 0 1 973.413 1863)">BUILD<tspan fill="#051922" font-weight="700" font-size="64" x="-703.913" y="-58">A LA FIN DE </tspan><tspan fill="#051922" font-weight="700" font-size="64" x="-703.913" y="19">LA RECETTE</tspan></text><path d="M791.106 1574 792.1 1574.1 793.073 1574.42 793.947 1574.86 794.702 1575.49 795.298 1576.25 795.775 1577.12 796.093 1578.06 796.153 1579.09 796.153 1582.96 798.417 1581.78 800.662 1580.81 803.027 1580.03 805.371 1579.41 807.795 1579 810.239 1578.76 812.662 1578.72 815.106 1578.86 817.51 1579.17 819.934 1579.69 822.298 1580.35 824.603 1581.26 826.868 1582.3 829.152 1583.37 831.517 1584.27 833.901 1584.97 836.325 1585.46 838.788 1585.76 841.252 1585.9 843.715 1585.84 846.159 1585.6 848.603 1585.15 851.027 1584.53 853.371 1583.69 855.696 1582.68 868.55 1576.43 869.325 1576.15 870.08 1576.11 870.835 1576.25 871.53 1576.57 872.027 1576.95 872.444 1577.44 872.742 1577.98 872.921 1578.58 873 1579.21 873 1618.18 872.881 1619.22 872.603 1620.15 872.166 1621.07 871.57 1621.86 870.815 1622.52 869.941 1623.08 855.696 1629.99 853.371 1631 851.027 1631.84 848.603 1632.45 846.159 1632.91 843.715 1633.15 841.252 1633.23 838.788 1633.09 836.325 1632.77 833.901 1632.29 831.517 1631.6 829.152 1630.68 826.868 1629.61 824.603 1628.57 822.298 1627.7 819.934 1627 817.51 1626.48 815.106 1626.16 812.662 1626.02 810.239 1626.1 807.795 1626.3 805.371 1626.72 803.027 1627.36 800.662 1628.11 798.417 1629.09 796.153 1630.26 796.153 1682.91 796.093 1683.94 795.775 1684.88 795.298 1685.75 794.702 1686.51 793.947 1687.14 793.073 1687.58 792.1 1687.9 791.106 1688 790.053 1687.9 789.119 1687.58 788.265 1687.14 787.49 1686.51 786.874 1685.75 786.417 1684.88 786.1 1683.94 786 1682.91 786 1579.09 786.1 1578.06 786.417 1577.12 786.874 1576.25 787.49 1575.49 788.265 1574.86 789.119 1574.42 790.053 1574.1 791.106 1574Z" fill="#F18618" fill-rule="evenodd"/><text fill="#F18618" font-family="Arial,Arial_MSFontService,sans-serif" font-weight="700" font-size="64" transform="matrix(1 0 0 1 905.645 1656)">Manuel</text><path d="M1501.26 1586 1502.5 1586.12 1503.71 1586.37 1504.76 1586.84 1505.81 1587.46 1506.77 1588.27 1517.74 1599.27 1518.55 1600.2 1519.13 1601.25 1519.6 1602.31 1519.88 1603.49 1520 1604.77 1519.88 1606.01 1519.6 1607.19 1519.13 1608.28 1518.55 1609.3 1517.74 1610.23 1459.34 1668.73 1448.36 1679.73 1447.41 1680.54 1446.42 1681.13 1445.3 1681.6 1444.13 1681.88 1442.89 1682 1441.65 1681.88 1440.45 1681.6 1439.34 1681.13 1438.35 1680.54 1437.39 1679.73 1426.41 1668.73 1397.26 1639.47 1396.45 1638.54 1395.8 1637.51 1395.34 1636.39 1395.06 1635.24 1395 1634 1395.06 1632.73 1395.34 1631.58 1395.8 1630.46 1396.45 1629.43 1397.26 1628.5 1408.23 1617.53 1409.13 1616.73 1410.18 1616.07 1411.29 1615.61 1412.44 1615.33 1413.71 1615.27 1414.94 1615.33 1416.15 1615.61 1417.2 1616.07 1418.25 1616.73 1419.21 1617.53 1442.89 1641.33 1495.79 1588.27 1496.75 1587.46 1497.74 1586.84 1498.85 1586.37 1500.03 1586.12 1501.26 1586Z" fill="#92D050" fill-rule="evenodd"/><text fill="#92D050" font-family="Arial,Arial_MSFontService,sans-serif" font-weight="700" font-size="64" transform="matrix(1 0 0 1 1553.41 1658)">Build<tspan font-size="64" x="177.604" y="0">+ TU </tspan></text><path d="M1428 1726 2170.5 1726 2277 1832.5 2170.5 1939 1428 1939 1534.5 1832.5Z" fill="#6C75B7" fill-rule="evenodd"/><text fill="#FEFEFE" font-family="Arial,Arial_MSFontService,sans-serif" font-weight="400" font-size="83" transform="matrix(1 0 0 1 1589.5 1863)">DEPLOY DEV</text><path d="M2329.11 1591 2330.36 1591.13 2331.58 1591.38 2332.64 1591.85 2333.7 1592.48 2334.66 1593.29 2345.73 1604.4 2346.54 1605.35 2347.13 1606.41 2347.59 1607.48 2347.88 1608.67 2348 1609.96 2347.88 1611.22 2347.59 1612.41 2347.13 1613.51 2346.54 1614.54 2345.73 1615.49 2286.85 1674.6 2275.79 1685.71 2274.82 1686.52 2273.83 1687.12 2272.71 1687.59 2271.52 1687.87 2270.27 1688 2269.03 1687.87 2267.81 1687.59 2266.69 1687.12 2265.69 1686.52 2264.73 1685.71 2253.66 1674.6 2224.28 1645.02 2223.46 1644.08 2222.81 1643.05 2222.34 1641.92 2222.06 1640.76 2222 1639.5 2222.06 1638.21 2222.34 1637.05 2222.81 1635.92 2223.46 1634.89 2224.28 1633.94 2235.34 1622.86 2236.24 1622.05 2237.3 1621.39 2238.42 1620.92 2239.58 1620.63 2240.85 1620.57 2242.1 1620.63 2243.32 1620.92 2244.38 1621.39 2245.44 1622.05 2246.4 1622.86 2270.27 1646.91 2323.6 1593.29 2324.56 1592.48 2325.56 1591.85 2326.68 1591.38 2327.87 1591.13 2329.11 1591Z" fill="#92D050" fill-rule="evenodd"/><text fill="#92D050" font-family="Arial,Arial_MSFontService,sans-serif" font-weight="700" font-size="64" transform="matrix(1 0 0 1 2380.5 1663)">Démo. OK </text><path d="M2247 1726 2990.5 1726 3097 1832.5 2990.5 1939 2247 1939 2353.5 1832.5Z" fill="#6C75B7" fill-rule="evenodd"/><text fill="#FEFEFE" font-family="Arial,Arial_MSFontService,sans-serif" font-weight="400" font-size="83" transform="matrix(1 0 0 1 2414.35 1863)">DEPLOY UAT</text><path d="M3067 1726 3809.5 1726 3916 1832.5 3809.5 1939 3067 1939 3173.5 1832.5Z" fill="#6C75B7" fill-rule="evenodd"/><text fill="#FEFEFE" font-family="Arial,Arial_MSFontService,sans-serif" font-weight="400" font-size="83" transform="matrix(1 0 0 1 3226.21 1863)">DEPLOY PRD</text><path d="M3083.11 1586 3084.36 1586.12 3085.58 1586.37 3086.64 1586.84 3087.7 1587.46 3088.66 1588.27 3099.72 1599.27 3100.54 1600.2 3101.13 1601.25 3101.59 1602.31 3101.88 1603.49 3102 1604.77 3101.88 1606.01 3101.59 1607.19 3101.13 1608.28 3100.54 1609.3 3099.72 1610.23 3040.85 1668.73 3029.79 1679.73 3028.82 1680.54 3027.83 1681.13 3026.71 1681.6 3025.52 1681.88 3024.27 1682 3023.03 1681.88 3021.81 1681.6 3020.69 1681.13 3019.69 1680.54 3018.73 1679.73 3007.66 1668.73 2978.27 1639.47 2977.46 1638.54 2976.81 1637.51 2976.34 1636.39 2976.06 1635.24 2976 1634 2976.06 1632.73 2976.34 1631.58 2976.81 1630.46 2977.46 1629.43 2978.27 1628.5 2989.34 1617.53 2990.24 1616.73 2991.3 1616.07 2992.42 1615.61 2993.58 1615.33 2994.85 1615.27 2996.1 1615.33 2997.32 1615.61 2998.38 1616.07 2999.44 1616.73 3000.4 1617.53 3024.27 1641.33 3077.6 1588.27 3078.56 1587.46 3079.56 1586.84 3080.68 1586.37 3081.87 1586.12 3083.11 1586Z" fill="#92D050" fill-rule="evenodd"/><text fill="#92D050" font-family="Arial,Arial_MSFontService,sans-serif" font-weight="700" font-size="64" transform="matrix(1 0 0 1 3148.75 1658)">Recette OK </text></g></svg>