<svg width="3871" height="1538" xmlns="http://www.w3.org/2000/svg" xmlns:xlink="http://www.w3.org/1999/xlink" overflow="hidden"><defs><clipPath id="clip0"><rect x="34" y="642" width="3871" height="1538"/></clipPath><clipPath id="clip1"><rect x="34" y="881" width="3860" height="1300"/></clipPath><clipPath id="clip2"><rect x="34" y="881" width="3860" height="1300"/></clipPath><clipPath id="clip3"><rect x="34" y="881" width="3860" height="1300"/></clipPath></defs><g clip-path="url(#clip0)" transform="translate(-34 -642)"><g clip-path="url(#clip1)"><g clip-path="url(#clip2)"><g clip-path="url(#clip3)"><path d="M864.471 650.013 605.116 216.422 1110.29 208.61Z" stroke="#FFFFFF" stroke-width="2.74846" fill="#FFE6D5" transform="matrix(1.77955 0 0 1 -509.243 1080.09)"/><path d="M864.471 650.013 605.116 216.422 1110.29 208.61Z" stroke="#FFFFFF" stroke-width="2.74846" fill="#FFE6D5" transform="matrix(1.77955 0 0 1 900.602 1079.8)"/><path d="M60.3599 42.6101 3785.11 42.6101 3785.11 432.31 60.3597 432.31Z" fill="#FFE6D5" transform="matrix(1.00021 0 0 1 34.5844 881)"/><path d="M0.654012 1257.49 662.999 1257.49 662.999 1273.09 0.654017 1273.09Z" fill="#666666" transform="matrix(0.638123 -0.769935 0.770095 0.63799 34.5844 881)"/><path d="M386.103 785.663 386.103 801.266 2200.83 801.266 2200.83 785.663 386.103 785.663ZM2220.8 785.663 2220.8 801.266 2245.91 801.266 2245.91 785.663 2220.8 785.663ZM2265.88 785.663 2265.88 801.266 2290.99 801.266 2290.99 785.663 2265.88 785.663ZM2310.96 785.663 2310.96 801.266 3775.28 801.266 3775.28 785.663 2310.96 785.663Z" fill="#666666" transform="matrix(1.00021 0 0 1 34.5844 881)"/><path d="M1370.65 305.956 1892.51 305.956 1892.51 321.556 1370.65 321.556Z" fill="#666666" transform="matrix(1.00021 0 0 1 34.5844 881)"/><path d="M2972.76 305.956 3336.19 305.956 3336.19 321.556 2972.76 321.556Z" fill="#666666" transform="matrix(1.00021 0 0 1 34.5844 881)"/><path d="M1344.94 356.066 1321.71 368.568 1298.48 381.069 1314.24 390.81C1244.76 514.363 1272.05 638.705 1282.36 762.908L1303 767.26C1277.29 618.81 1276.66 489.346 1328.42 399.572L1343.36 408.803 1344.15 382.436 1344.94 356.066Z" stroke="#FFFFFF" stroke-width="3.17676" fill="#FF8080" transform="matrix(1.00021 0 0 1 45.4822 877.368)"/><path d="M28.3354 54.5835C26.4463 54.0649 24.461 53.7822 22.4095 53.7822L22.4095 98.6006C34.766 98.6006 44.8186 88.5478 44.8186 76.1915 44.8186 65.8864 37.8243 57.1893 28.3354 54.5835Z" fill="#D8143A" transform="matrix(1.00021 0 0 1 1349.77 1313.42)"/><path d="M19.017 54.0387C8.26416 55.6785 0 64.988 0 76.1917 0 88.548 10.0525 98.6008 22.4091 98.6008L22.4091 98.6008 22.4091 53.7824C22.4091 53.7824 22.4091 53.7824 22.4087 53.7824 21.2565 53.7824 20.1234 53.87 19.017 54.0387Z" fill="#D8143A" transform="matrix(1.00021 0 0 1 1349.77 1313.42)"/><path d="M97.2878 7.65118C97.3933 7.54545 97.4921 7.43549 97.5848 7.32244 97.6266 7.2716 97.6637 7.21691 97.703 7.16434 97.7508 7.10002 97.801 7.03685 97.8455 6.97079 97.8883 6.90686 97.9258 6.83926 97.9651 6.77321 98.0007 6.7137 98.0381 6.65554 98.0706 6.59488 98.1065 6.52767 98.1377 6.45738 98.1702 6.38805 98.2005 6.32469 98.232 6.26191 98.2586 6.1974 98.2867 6.13019 98.3095 6.06047 98.3339 5.99191 98.3587 5.92259 98.3855 5.85383 98.4069 5.78374 98.4275 5.71499 98.4431 5.64392 98.461 5.57363 98.4789 5.50199 98.4993 5.43055 98.5136 5.35814 98.5298 5.27725 98.5396 5.19406 98.5513 5.11163 98.56 5.04924 98.5719 4.98742 98.5783 4.92483 98.5929 4.77905 98.6006 4.63134 98.6006 4.48171 98.6006 4.33227 98.5929 4.18475 98.5783 4.03897 98.5719 3.97599 98.56 3.91321 98.5511 3.85005 98.5396 3.7682 98.53 3.68578 98.5138 3.60566 98.4995 3.53248 98.4787 3.46084 98.4606 3.38824 98.4429 3.31891 98.4281 3.24862 98.4071 3.18064 98.3855 3.10977 98.3587 3.04025 98.3335 2.97034 98.3091 2.90256 98.2865 2.83342 98.2588 2.76679 98.2318 2.7017 98.1999 2.63834 98.1694 2.57402 98.1371 2.50565 98.1065 2.43594 98.0708 2.3693 98.0383 2.30768 98.0004 2.24894 97.9642 2.18847 97.9251 2.12299 97.8879 2.05636 97.8455 1.99339 97.801 1.92637 97.7506 1.86282 97.7021 1.79792 97.663 1.74554 97.6262 1.69162 97.5846 1.64135 97.4916 1.52812 97.393 1.41815 97.2876 1.31243 97.1819 1.2067 97.0721 1.10829 96.9589 1.01547 96.9069 0.972718 96.8511 0.93478 96.7973 0.894531 96.7343 0.847349 96.6721 0.798241 96.6072 0.754911 96.5423 0.711581 96.474 0.673257 96.4068 0.633394 96.3484 0.598729 96.2912 0.561754 96.2317 0.529786 96.1635 0.493388 96.0921 0.461998 96.0216 0.428874 95.9594 0.399602 95.898 0.368212 95.8342 0.342021 95.7664 0.313904 95.696 0.290987 95.6266 0.266145 95.5583 0.241687 95.4901 0.215111 95.4204 0.193927 95.3516 0.172936 95.2802 0.15753 95.2101 0.139813 95.1384 0.121903 95.0672 0.101489 94.995 0.0872385 94.9143 0.0714469 94.8319 0.0616254 94.7496 0.0498781 94.6868 0.0408268 94.6244 0.0288869 94.5615 0.0227244 94.4159 0.00847349 94.2684 0.000385159 94.1187 0.000385159L94.1187 0.000385159C76.6343 0.000385159 60.0591 5.58596 46.1846 16.1536 33.5882 25.7473 24.0264 39.1119 19.0168 54.0391 20.1232 53.8702 21.2563 53.7824 22.4089 53.7824 24.4605 53.7824 26.4462 54.0651 28.3352 54.5837 37.256 30.773 58.6707 13.5911 83.6033 9.76859 79.3516 15.4144 75.8901 21.5818 73.2772 28.2063 69.8385 36.924 67.9988 46.0656 67.7847 55.4247 70.3824 54.369 73.2191 53.7822 76.1917 53.7822 76.3991 53.7822 76.604 53.7924 76.8099 53.798 77.6497 36.3596 84.8168 20.1224 97.2874 7.65195 97.2874 7.65176 97.2878 7.65118 97.2878 7.65118Z" fill="#64C37D" transform="matrix(1.00021 0 0 1 1349.77 1313.42)"/><path d="M28.3354 54.5835C26.4463 54.0649 24.461 53.7822 22.4095 53.7822L22.4095 98.6006C34.766 98.6006 44.8186 88.5478 44.8186 76.1915 44.8186 65.8864 37.8243 57.1893 28.3354 54.5835Z" fill="#D8143A" transform="matrix(1.00021 0 0 1 1349.77 1313.42)"/><path d="M22.4091 53.7824C21.2563 53.7824 20.1234 53.8702 19.017 54.0391 8.26416 55.6785 0 64.988 0 76.1917 0 88.5484 10.0528 98.6008 22.4091 98.6008L22.4091 98.6008 22.4091 53.7824C22.4095 53.7824 22.4091 53.7824 22.4091 53.7824Z" fill="#B8002B" transform="matrix(1.00021 0 0 1 1349.77 1313.42)"/><path d="M76.8097 53.798C76.6038 53.7924 76.3989 53.7822 76.1915 53.7822L76.1915 53.7822C73.2193 53.7822 70.3826 54.369 67.7849 55.4247 59.5831 58.7571 53.7828 66.8073 53.7828 76.1915 53.7828 88.548 63.8352 98.6006 76.1919 98.6006L76.1919 98.6006C88.5486 98.6006 98.601 88.5478 98.601 76.1915 98.6006 64.0423 88.881 54.1275 76.8097 53.798Z" fill="#D8143A" transform="matrix(1.00021 0 0 1 1349.77 1313.42)"/><path d="M67.7845 55.4245C59.5827 58.7569 53.7824 66.8071 53.7824 76.1913 53.7824 88.5478 63.8349 98.6004 76.1915 98.6004L76.1915 53.7822C73.2189 53.7824 70.3824 54.369 67.7845 55.4245Z" fill="#B8002B" transform="matrix(1.00021 0 0 1 1349.77 1313.42)"/><path d="M1344.94 356.066 1321.71 368.568 1298.48 381.069 1314.24 390.81C1244.76 514.363 1272.05 638.705 1282.36 762.908L1303 767.26C1277.29 618.81 1276.66 489.346 1328.42 399.572L1343.36 408.803 1344.15 382.436 1344.94 356.066Z" stroke="#FFFFFF" stroke-width="3.17676" fill="#FF8080" transform="matrix(1.00021 0 0 1 1658.35 877.368)"/><path d="M28.3354 54.5835C26.4463 54.0649 24.461 53.7822 22.4095 53.7822L22.4095 98.6006C34.766 98.6006 44.8186 88.5478 44.8186 76.1915 44.8186 65.8864 37.8243 57.1893 28.3354 54.5835Z" fill="#D8143A" transform="matrix(1.00021 0 0 1 2962.64 1313.42)"/><path d="M19.017 54.0387C8.26416 55.6785 0 64.988 0 76.1917 0 88.548 10.0525 98.6008 22.4091 98.6008L22.4091 98.6008 22.4091 53.7824C22.4091 53.7824 22.4091 53.7824 22.4087 53.7824 21.2565 53.7824 20.1234 53.87 19.017 54.0387Z" fill="#D8143A" transform="matrix(1.00021 0 0 1 2962.64 1313.42)"/><path d="M97.2878 7.65118C97.3933 7.54545 97.4921 7.43549 97.5848 7.32244 97.6266 7.2716 97.6637 7.21691 97.703 7.16434 97.7508 7.10002 97.801 7.03685 97.8455 6.97079 97.8883 6.90686 97.9258 6.83926 97.9651 6.77321 98.0007 6.7137 98.0381 6.65554 98.0706 6.59488 98.1065 6.52767 98.1377 6.45738 98.1702 6.38805 98.2005 6.32469 98.232 6.26191 98.2586 6.1974 98.2867 6.13019 98.3095 6.06047 98.3339 5.99191 98.3587 5.92259 98.3855 5.85383 98.4069 5.78374 98.4275 5.71499 98.4431 5.64392 98.461 5.57363 98.4789 5.50199 98.4993 5.43055 98.5136 5.35814 98.5298 5.27725 98.5396 5.19406 98.5513 5.11163 98.56 5.04924 98.5719 4.98742 98.5783 4.92483 98.5929 4.77905 98.6006 4.63134 98.6006 4.48171 98.6006 4.33227 98.5929 4.18475 98.5783 4.03897 98.5719 3.97599 98.56 3.91321 98.5511 3.85005 98.5396 3.7682 98.53 3.68578 98.5138 3.60566 98.4995 3.53248 98.4787 3.46084 98.4606 3.38824 98.4429 3.31891 98.4281 3.24862 98.4071 3.18064 98.3855 3.10977 98.3587 3.04025 98.3335 2.97034 98.3091 2.90256 98.2865 2.83342 98.2588 2.76679 98.2318 2.7017 98.1999 2.63834 98.1694 2.57402 98.1371 2.50565 98.1065 2.43594 98.0708 2.3693 98.0383 2.30768 98.0004 2.24894 97.9642 2.18847 97.9251 2.12299 97.8879 2.05636 97.8455 1.99339 97.801 1.92637 97.7506 1.86282 97.7021 1.79792 97.663 1.74554 97.6262 1.69162 97.5846 1.64135 97.4916 1.52812 97.393 1.41815 97.2876 1.31243 97.1819 1.2067 97.0721 1.10829 96.9589 1.01547 96.9069 0.972718 96.8511 0.93478 96.7973 0.894531 96.7343 0.847349 96.6721 0.798241 96.6072 0.754911 96.5423 0.711581 96.474 0.673257 96.4068 0.633394 96.3484 0.598729 96.2912 0.561754 96.2317 0.529786 96.1635 0.493388 96.0921 0.461998 96.0216 0.428874 95.9594 0.399602 95.898 0.368212 95.8342 0.342021 95.7664 0.313904 95.696 0.290987 95.6266 0.266145 95.5583 0.241687 95.4901 0.215111 95.4204 0.193927 95.3516 0.172936 95.2802 0.15753 95.2101 0.139813 95.1384 0.121903 95.0672 0.101489 94.995 0.0872385 94.9143 0.0714469 94.8319 0.0616254 94.7496 0.0498781 94.6868 0.0408268 94.6244 0.0288869 94.5615 0.0227244 94.4159 0.00847349 94.2684 0.000385159 94.1187 0.000385159L94.1187 0.000385159C76.6343 0.000385159 60.0591 5.58596 46.1846 16.1536 33.5882 25.7473 24.0264 39.1119 19.0168 54.0391 20.1232 53.8702 21.2563 53.7824 22.4089 53.7824 24.4605 53.7824 26.4462 54.0651 28.3352 54.5837 37.256 30.773 58.6707 13.5911 83.6033 9.76859 79.3516 15.4144 75.8901 21.5818 73.2772 28.2063 69.8385 36.924 67.9988 46.0656 67.7847 55.4247 70.3824 54.369 73.2191 53.7822 76.1917 53.7822 76.3991 53.7822 76.604 53.7924 76.8099 53.798 77.6497 36.3596 84.8168 20.1224 97.2874 7.65195 97.2874 7.65176 97.2878 7.65118 97.2878 7.65118Z" fill="#64C37D" transform="matrix(1.00021 0 0 1 2962.64 1313.42)"/><path d="M28.3354 54.5835C26.4463 54.0649 24.461 53.7822 22.4095 53.7822L22.4095 98.6006C34.766 98.6006 44.8186 88.5478 44.8186 76.1915 44.8186 65.8864 37.8243 57.1893 28.3354 54.5835Z" fill="#D8143A" transform="matrix(1.00021 0 0 1 2962.64 1313.42)"/><path d="M22.4091 53.7824C21.2563 53.7824 20.1234 53.8702 19.017 54.0391 8.26416 55.6785 0 64.988 0 76.1917 0 88.5484 10.0528 98.6008 22.4091 98.6008L22.4091 98.6008 22.4091 53.7824C22.4095 53.7824 22.4091 53.7824 22.4091 53.7824Z" fill="#B8002B" transform="matrix(1.00021 0 0 1 2962.64 1313.42)"/><path d="M76.8097 53.798C76.6038 53.7924 76.3989 53.7822 76.1915 53.7822L76.1915 53.7822C73.2193 53.7822 70.3826 54.369 67.7849 55.4247 59.5831 58.7571 53.7828 66.8073 53.7828 76.1915 53.7828 88.548 63.8352 98.6006 76.1919 98.6006L76.1919 98.6006C88.5486 98.6006 98.601 88.5478 98.601 76.1915 98.6006 64.0423 88.881 54.1275 76.8097 53.798Z" fill="#D8143A" transform="matrix(1.00021 0 0 1 2962.64 1313.42)"/><path d="M67.7845 55.4245C59.5827 58.7569 53.7824 66.8071 53.7824 76.1913 53.7824 88.5478 63.8349 98.6004 76.1915 98.6004L76.1915 53.7822C73.2189 53.7824 70.3824 54.369 67.7845 55.4245Z" fill="#B8002B" transform="matrix(1.00021 0 0 1 2962.64 1313.42)"/><path d="M1344.94 356.066 1321.71 368.568 1298.48 381.069 1314.24 390.81C1244.76 514.363 1272.05 638.705 1282.36 762.908L1303 767.26C1277.29 618.81 1276.66 489.346 1328.42 399.572L1343.36 408.803 1344.15 382.436 1344.94 356.066Z" stroke="#FFFFFF" stroke-width="3.17676" fill="#FF8080" transform="matrix(1.00021 0 0 1 2003.45 875.552)"/><path d="M28.3354 54.5835C26.4463 54.0649 24.461 53.7822 22.4095 53.7822L22.4095 98.6006C34.766 98.6006 44.8186 88.5478 44.8186 76.1915 44.8186 65.8864 37.8243 57.1893 28.3354 54.5835Z" fill="#D8143A" transform="matrix(1.00021 0 0 1 3307.74 1311.6)"/><path d="M19.017 54.0387C8.26416 55.6785 0 64.988 0 76.1917 0 88.548 10.0525 98.6008 22.4091 98.6008L22.4091 98.6008 22.4091 53.7824C22.4091 53.7824 22.4091 53.7824 22.4087 53.7824 21.2565 53.7824 20.1234 53.87 19.017 54.0387Z" fill="#D8143A" transform="matrix(1.00021 0 0 1 3307.74 1311.6)"/><path d="M97.2878 7.65118C97.3933 7.54545 97.4921 7.43549 97.5848 7.32244 97.6266 7.2716 97.6637 7.21691 97.703 7.16434 97.7508 7.10002 97.801 7.03685 97.8455 6.97079 97.8883 6.90686 97.9258 6.83926 97.9651 6.77321 98.0007 6.7137 98.0381 6.65554 98.0706 6.59488 98.1065 6.52767 98.1377 6.45738 98.1702 6.38805 98.2005 6.32469 98.232 6.26191 98.2586 6.1974 98.2867 6.13019 98.3095 6.06047 98.3339 5.99191 98.3587 5.92259 98.3855 5.85383 98.4069 5.78374 98.4275 5.71499 98.4431 5.64392 98.461 5.57363 98.4789 5.50199 98.4993 5.43055 98.5136 5.35814 98.5298 5.27725 98.5396 5.19406 98.5513 5.11163 98.56 5.04924 98.5719 4.98742 98.5783 4.92483 98.5929 4.77905 98.6006 4.63134 98.6006 4.48171 98.6006 4.33227 98.5929 4.18475 98.5783 4.03897 98.5719 3.97599 98.56 3.91321 98.5511 3.85005 98.5396 3.7682 98.53 3.68578 98.5138 3.60566 98.4995 3.53248 98.4787 3.46084 98.4606 3.38824 98.4429 3.31891 98.4281 3.24862 98.4071 3.18064 98.3855 3.10977 98.3587 3.04025 98.3335 2.97034 98.3091 2.90256 98.2865 2.83342 98.2588 2.76679 98.2318 2.7017 98.1999 2.63834 98.1694 2.57402 98.1371 2.50565 98.1065 2.43594 98.0708 2.3693 98.0383 2.30768 98.0004 2.24894 97.9642 2.18847 97.9251 2.12299 97.8879 2.05636 97.8455 1.99339 97.801 1.92637 97.7506 1.86282 97.7021 1.79792 97.663 1.74554 97.6262 1.69162 97.5846 1.64135 97.4916 1.52812 97.393 1.41815 97.2876 1.31243 97.1819 1.2067 97.0721 1.10829 96.9589 1.01547 96.9069 0.972718 96.8511 0.93478 96.7973 0.894531 96.7343 0.847349 96.6721 0.798241 96.6072 0.754911 96.5423 0.711581 96.474 0.673257 96.4068 0.633394 96.3484 0.598729 96.2912 0.561754 96.2317 0.529786 96.1635 0.493388 96.0921 0.461998 96.0216 0.428874 95.9594 0.399602 95.898 0.368212 95.8342 0.342021 95.7664 0.313904 95.696 0.290987 95.6266 0.266145 95.5583 0.241687 95.4901 0.215111 95.4204 0.193927 95.3516 0.172936 95.2802 0.15753 95.2101 0.139813 95.1384 0.121903 95.0672 0.101489 94.995 0.0872385 94.9143 0.0714469 94.8319 0.0616254 94.7496 0.0498781 94.6868 0.0408268 94.6244 0.0288869 94.5615 0.0227244 94.4159 0.00847349 94.2684 0.000385159 94.1187 0.000385159L94.1187 0.000385159C76.6343 0.000385159 60.0591 5.58596 46.1846 16.1536 33.5882 25.7473 24.0264 39.1119 19.0168 54.0391 20.1232 53.8702 21.2563 53.7824 22.4089 53.7824 24.4605 53.7824 26.4462 54.0651 28.3352 54.5837 37.256 30.773 58.6707 13.5911 83.6033 9.76859 79.3516 15.4144 75.8901 21.5818 73.2772 28.2063 69.8385 36.924 67.9988 46.0656 67.7847 55.4247 70.3824 54.369 73.2191 53.7822 76.1917 53.7822 76.3991 53.7822 76.604 53.7924 76.8099 53.798 77.6497 36.3596 84.8168 20.1224 97.2874 7.65195 97.2874 7.65176 97.2878 7.65118 97.2878 7.65118Z" fill="#64C37D" transform="matrix(1.00021 0 0 1 3307.74 1311.6)"/><path d="M28.3354 54.5835C26.4463 54.0649 24.461 53.7822 22.4095 53.7822L22.4095 98.6006C34.766 98.6006 44.8186 88.5478 44.8186 76.1915 44.8186 65.8864 37.8243 57.1893 28.3354 54.5835Z" fill="#D8143A" transform="matrix(1.00021 0 0 1 3307.74 1311.6)"/><path d="M22.4091 53.7824C21.2563 53.7824 20.1234 53.8702 19.017 54.0391 8.26416 55.6785 0 64.988 0 76.1917 0 88.5484 10.0528 98.6008 22.4091 98.6008L22.4091 98.6008 22.4091 53.7824C22.4095 53.7824 22.4091 53.7824 22.4091 53.7824Z" fill="#B8002B" transform="matrix(1.00021 0 0 1 3307.74 1311.6)"/><path d="M76.8097 53.798C76.6038 53.7924 76.3989 53.7822 76.1915 53.7822L76.1915 53.7822C73.2193 53.7822 70.3826 54.369 67.7849 55.4247 59.5831 58.7571 53.7828 66.8073 53.7828 76.1915 53.7828 88.548 63.8352 98.6006 76.1919 98.6006L76.1919 98.6006C88.5486 98.6006 98.601 88.5478 98.601 76.1915 98.6006 64.0423 88.881 54.1275 76.8097 53.798Z" fill="#D8143A" transform="matrix(1.00021 0 0 1 3307.74 1311.6)"/><path d="M67.7845 55.4245C59.5827 58.7569 53.7824 66.8071 53.7824 76.1913 53.7824 88.5478 63.8349 98.6004 76.1915 98.6004L76.1915 53.7822C73.2189 53.7824 70.3824 54.369 67.7845 55.4245Z" fill="#B8002B" transform="matrix(1.00021 0 0 1 3307.74 1311.6)"/><path d="M1344.94 356.066 1321.71 368.568 1298.48 381.069 1314.24 390.81C1244.76 514.363 1272.05 638.705 1282.36 762.908L1303 767.26C1277.29 618.81 1276.66 489.346 1328.42 399.572L1343.36 408.803 1344.15 382.436 1344.94 356.066Z" stroke="#FFFFFF" stroke-width="3.17676" fill="#FF8080" transform="matrix(1.00021 0 0 1 366.967 873.736)"/><path d="M28.3354 54.5835C26.4463 54.0649 24.461 53.7822 22.4095 53.7822L22.4095 98.6006C34.766 98.6006 44.8186 88.5478 44.8186 76.1915 44.8186 65.8864 37.8243 57.1893 28.3354 54.5835Z" fill="#D8143A" transform="matrix(1.00021 0 0 1 1671.26 1309.79)"/><path d="M19.017 54.0387C8.26416 55.6785 0 64.988 0 76.1917 0 88.548 10.0525 98.6008 22.4091 98.6008L22.4091 98.6008 22.4091 53.7824C22.4091 53.7824 22.4091 53.7824 22.4087 53.7824 21.2565 53.7824 20.1234 53.87 19.017 54.0387Z" fill="#D8143A" transform="matrix(1.00021 0 0 1 1671.26 1309.79)"/><path d="M97.2878 7.65118C97.3933 7.54545 97.4921 7.43549 97.5848 7.32244 97.6266 7.2716 97.6637 7.21691 97.703 7.16434 97.7508 7.10002 97.801 7.03685 97.8455 6.97079 97.8883 6.90686 97.9258 6.83926 97.9651 6.77321 98.0007 6.7137 98.0381 6.65554 98.0706 6.59488 98.1065 6.52767 98.1377 6.45738 98.1702 6.38805 98.2005 6.32469 98.232 6.26191 98.2586 6.1974 98.2867 6.13019 98.3095 6.06047 98.3339 5.99191 98.3587 5.92259 98.3855 5.85383 98.4069 5.78374 98.4275 5.71499 98.4431 5.64392 98.461 5.57363 98.4789 5.50199 98.4993 5.43055 98.5136 5.35814 98.5298 5.27725 98.5396 5.19406 98.5513 5.11163 98.56 5.04924 98.5719 4.98742 98.5783 4.92483 98.5929 4.77905 98.6006 4.63134 98.6006 4.48171 98.6006 4.33227 98.5929 4.18475 98.5783 4.03897 98.5719 3.97599 98.56 3.91321 98.5511 3.85005 98.5396 3.7682 98.53 3.68578 98.5138 3.60566 98.4995 3.53248 98.4787 3.46084 98.4606 3.38824 98.4429 3.31891 98.4281 3.24862 98.4071 3.18064 98.3855 3.10977 98.3587 3.04025 98.3335 2.97034 98.3091 2.90256 98.2865 2.83342 98.2588 2.76679 98.2318 2.7017 98.1999 2.63834 98.1694 2.57402 98.1371 2.50565 98.1065 2.43594 98.0708 2.3693 98.0383 2.30768 98.0004 2.24894 97.9642 2.18847 97.9251 2.12299 97.8879 2.05636 97.8455 1.99339 97.801 1.92637 97.7506 1.86282 97.7021 1.79792 97.663 1.74554 97.6262 1.69162 97.5846 1.64135 97.4916 1.52812 97.393 1.41815 97.2876 1.31243 97.1819 1.2067 97.0721 1.10829 96.9589 1.01547 96.9069 0.972718 96.8511 0.93478 96.7973 0.894531 96.7343 0.847349 96.6721 0.798241 96.6072 0.754911 96.5423 0.711581 96.474 0.673257 96.4068 0.633394 96.3484 0.598729 96.2912 0.561754 96.2317 0.529786 96.1635 0.493388 96.0921 0.461998 96.0216 0.428874 95.9594 0.399602 95.898 0.368212 95.8342 0.342021 95.7664 0.313904 95.696 0.290987 95.6266 0.266145 95.5583 0.241687 95.4901 0.215111 95.4204 0.193927 95.3516 0.172936 95.2802 0.15753 95.2101 0.139813 95.1384 0.121903 95.0672 0.101489 94.995 0.0872385 94.9143 0.0714469 94.8319 0.0616254 94.7496 0.0498781 94.6868 0.0408268 94.6244 0.0288869 94.5615 0.0227244 94.4159 0.00847349 94.2684 0.000385159 94.1187 0.000385159L94.1187 0.000385159C76.6343 0.000385159 60.0591 5.58596 46.1846 16.1536 33.5882 25.7473 24.0264 39.1119 19.0168 54.0391 20.1232 53.8702 21.2563 53.7824 22.4089 53.7824 24.4605 53.7824 26.4462 54.0651 28.3352 54.5837 37.256 30.773 58.6707 13.5911 83.6033 9.76859 79.3516 15.4144 75.8901 21.5818 73.2772 28.2063 69.8385 36.924 67.9988 46.0656 67.7847 55.4247 70.3824 54.369 73.2191 53.7822 76.1917 53.7822 76.3991 53.7822 76.604 53.7924 76.8099 53.798 77.6497 36.3596 84.8168 20.1224 97.2874 7.65195 97.2874 7.65176 97.2878 7.65118 97.2878 7.65118Z" fill="#64C37D" transform="matrix(1.00021 0 0 1 1671.26 1309.79)"/><path d="M28.3354 54.5835C26.4463 54.0649 24.461 53.7822 22.4095 53.7822L22.4095 98.6006C34.766 98.6006 44.8186 88.5478 44.8186 76.1915 44.8186 65.8864 37.8243 57.1893 28.3354 54.5835Z" fill="#D8143A" transform="matrix(1.00021 0 0 1 1671.26 1309.79)"/><path d="M22.4091 53.7824C21.2563 53.7824 20.1234 53.8702 19.017 54.0391 8.26416 55.6785 0 64.988 0 76.1917 0 88.5484 10.0528 98.6008 22.4091 98.6008L22.4091 98.6008 22.4091 53.7824C22.4095 53.7824 22.4091 53.7824 22.4091 53.7824Z" fill="#B8002B" transform="matrix(1.00021 0 0 1 1671.26 1309.79)"/><path d="M76.8097 53.798C76.6038 53.7924 76.3989 53.7822 76.1915 53.7822L76.1915 53.7822C73.2193 53.7822 70.3826 54.369 67.7849 55.4247 59.5831 58.7571 53.7828 66.8073 53.7828 76.1915 53.7828 88.548 63.8352 98.6006 76.1919 98.6006L76.1919 98.6006C88.5486 98.6006 98.601 88.5478 98.601 76.1915 98.6006 64.0423 88.881 54.1275 76.8097 53.798Z" fill="#D8143A" transform="matrix(1.00021 0 0 1 1671.26 1309.79)"/><path d="M67.7845 55.4245C59.5827 58.7569 53.7824 66.8071 53.7824 76.1913 53.7824 88.5478 63.8349 98.6004 76.1915 98.6004L76.1915 53.7822C73.2189 53.7824 70.3824 54.369 67.7845 55.4245Z" fill="#B8002B" transform="matrix(1.00021 0 0 1 1671.26 1309.79)"/><path d="M1344.94 356.066 1321.71 368.568 1298.48 381.069 1314.24 390.81C1244.76 514.363 1272.05 638.705 1282.36 762.908L1303 767.26C1277.29 618.81 1276.66 489.346 1328.42 399.572L1343.36 408.803 1344.15 382.436 1344.94 356.066Z" stroke="#FFFFFF" stroke-width="3.17676" fill="#FF8080" transform="matrix(1.00021 0 0 1 557.678 877.368)"/><path d="M28.3354 54.5835C26.4463 54.0649 24.461 53.7822 22.4095 53.7822L22.4095 98.6006C34.766 98.6006 44.8186 88.5478 44.8186 76.1915 44.8186 65.8864 37.8243 57.1893 28.3354 54.5835Z" fill="#D8143A" transform="matrix(1.00021 0 0 1 1861.97 1313.42)"/><path d="M19.017 54.0387C8.26416 55.6785 0 64.988 0 76.1917 0 88.548 10.0525 98.6008 22.4091 98.6008L22.4091 98.6008 22.4091 53.7824C22.4091 53.7824 22.4091 53.7824 22.4087 53.7824 21.2565 53.7824 20.1234 53.87 19.017 54.0387Z" fill="#D8143A" transform="matrix(1.00021 0 0 1 1861.97 1313.42)"/><path d="M97.2878 7.65118C97.3933 7.54545 97.4921 7.43549 97.5848 7.32244 97.6266 7.2716 97.6637 7.21691 97.703 7.16434 97.7508 7.10002 97.801 7.03685 97.8455 6.97079 97.8883 6.90686 97.9258 6.83926 97.9651 6.77321 98.0007 6.7137 98.0381 6.65554 98.0706 6.59488 98.1065 6.52767 98.1377 6.45738 98.1702 6.38805 98.2005 6.32469 98.232 6.26191 98.2586 6.1974 98.2867 6.13019 98.3095 6.06047 98.3339 5.99191 98.3587 5.92259 98.3855 5.85383 98.4069 5.78374 98.4275 5.71499 98.4431 5.64392 98.461 5.57363 98.4789 5.50199 98.4993 5.43055 98.5136 5.35814 98.5298 5.27725 98.5396 5.19406 98.5513 5.11163 98.56 5.04924 98.5719 4.98742 98.5783 4.92483 98.5929 4.77905 98.6006 4.63134 98.6006 4.48171 98.6006 4.33227 98.5929 4.18475 98.5783 4.03897 98.5719 3.97599 98.56 3.91321 98.5511 3.85005 98.5396 3.7682 98.53 3.68578 98.5138 3.60566 98.4995 3.53248 98.4787 3.46084 98.4606 3.38824 98.4429 3.31891 98.4281 3.24862 98.4071 3.18064 98.3855 3.10977 98.3587 3.04025 98.3335 2.97034 98.3091 2.90256 98.2865 2.83342 98.2588 2.76679 98.2318 2.7017 98.1999 2.63834 98.1694 2.57402 98.1371 2.50565 98.1065 2.43594 98.0708 2.3693 98.0383 2.30768 98.0004 2.24894 97.9642 2.18847 97.9251 2.12299 97.8879 2.05636 97.8455 1.99339 97.801 1.92637 97.7506 1.86282 97.7021 1.79792 97.663 1.74554 97.6262 1.69162 97.5846 1.64135 97.4916 1.52812 97.393 1.41815 97.2876 1.31243 97.1819 1.2067 97.0721 1.10829 96.9589 1.01547 96.9069 0.972718 96.8511 0.93478 96.7973 0.894531 96.7343 0.847349 96.6721 0.798241 96.6072 0.754911 96.5423 0.711581 96.474 0.673257 96.4068 0.633394 96.3484 0.598729 96.2912 0.561754 96.2317 0.529786 96.1635 0.493388 96.0921 0.461998 96.0216 0.428874 95.9594 0.399602 95.898 0.368212 95.8342 0.342021 95.7664 0.313904 95.696 0.290987 95.6266 0.266145 95.5583 0.241687 95.4901 0.215111 95.4204 0.193927 95.3516 0.172936 95.2802 0.15753 95.2101 0.139813 95.1384 0.121903 95.0672 0.101489 94.995 0.0872385 94.9143 0.0714469 94.8319 0.0616254 94.7496 0.0498781 94.6868 0.0408268 94.6244 0.0288869 94.5615 0.0227244 94.4159 0.00847349 94.2684 0.000385159 94.1187 0.000385159L94.1187 0.000385159C76.6343 0.000385159 60.0591 5.58596 46.1846 16.1536 33.5882 25.7473 24.0264 39.1119 19.0168 54.0391 20.1232 53.8702 21.2563 53.7824 22.4089 53.7824 24.4605 53.7824 26.4462 54.0651 28.3352 54.5837 37.256 30.773 58.6707 13.5911 83.6033 9.76859 79.3516 15.4144 75.8901 21.5818 73.2772 28.2063 69.8385 36.924 67.9988 46.0656 67.7847 55.4247 70.3824 54.369 73.2191 53.7822 76.1917 53.7822 76.3991 53.7822 76.604 53.7924 76.8099 53.798 77.6497 36.3596 84.8168 20.1224 97.2874 7.65195 97.2874 7.65176 97.2878 7.65118 97.2878 7.65118Z" fill="#64C37D" transform="matrix(1.00021 0 0 1 1861.97 1313.42)"/><path d="M28.3354 54.5835C26.4463 54.0649 24.461 53.7822 22.4095 53.7822L22.4095 98.6006C34.766 98.6006 44.8186 88.5478 44.8186 76.1915 44.8186 65.8864 37.8243 57.1893 28.3354 54.5835Z" fill="#D8143A" transform="matrix(1.00021 0 0 1 1861.97 1313.42)"/><path d="M22.4091 53.7824C21.2563 53.7824 20.1234 53.8702 19.017 54.0391 8.26416 55.6785 0 64.988 0 76.1917 0 88.5484 10.0528 98.6008 22.4091 98.6008L22.4091 98.6008 22.4091 53.7824C22.4095 53.7824 22.4091 53.7824 22.4091 53.7824Z" fill="#B8002B" transform="matrix(1.00021 0 0 1 1861.97 1313.42)"/><path d="M76.8097 53.798C76.6038 53.7924 76.3989 53.7822 76.1915 53.7822L76.1915 53.7822C73.2193 53.7822 70.3826 54.369 67.7849 55.4247 59.5831 58.7571 53.7828 66.8073 53.7828 76.1915 53.7828 88.548 63.8352 98.6006 76.1919 98.6006L76.1919 98.6006C88.5486 98.6006 98.601 88.5478 98.601 76.1915 98.6006 64.0423 88.881 54.1275 76.8097 53.798Z" fill="#D8143A" transform="matrix(1.00021 0 0 1 1861.97 1313.42)"/><path d="M67.7845 55.4245C59.5827 58.7569 53.7824 66.8071 53.7824 76.1913 53.7824 88.5478 63.8349 98.6004 76.1915 98.6004L76.1915 53.7822C73.2189 53.7824 70.3824 54.369 67.7845 55.4245Z" fill="#B8002B" transform="matrix(1.00021 0 0 1 1861.97 1313.42)"/><text font-family="Arial,Arial_MSFontService,sans-serif" font-weight="400" font-size="7" transform="matrix(12.9927 0 0 12.99 122.744 1700)">master</text><path d="M1941.04 732.525 2018.99 732.525 2018.99 810.473 1941.04 810.473Z" stroke="#FFFFFF" stroke-width="12.9913" fill="#00AA00" transform="matrix(0.694083 0.719895 -0.720044 0.693939 26.7826 -285.121)"/><path d="M584.935 1975.12 597.924 1975.12 597.924 2068.87 584.935 2068.87Z" stroke="#FFFFFF" stroke-width="3.51498" fill="#666666" transform="matrix(1.00021 0 0 1 26.7826 -285.121)"/><text font-family="Arial,Arial_MSFontService,sans-serif" font-weight="400" font-size="7" transform="matrix(12.9927 0 0 12.99 568.536 1873)">D1</text><path d="M1941.04 732.525 2018.99 732.525 2018.99 810.473 1941.04 810.473Z" stroke="#FFFFFF" stroke-width="12.9913" fill="#00AA00" transform="matrix(0.694083 0.719895 -0.720044 0.693939 1330.14 -287.193)"/><path d="M584.935 1975.12 597.924 1975.12 597.924 2068.87 584.935 2068.87Z" stroke="#FFFFFF" stroke-width="3.51498" fill="#666666" transform="matrix(1.00021 0 0 1 1330.14 -287.193)"/><text font-family="Arial,Arial_MSFontService,sans-serif" font-weight="400" font-size="7" transform="matrix(12.9927 0 0 12.99 1871.89 1871)">D3</text><path d="M1941.04 732.525 2018.99 732.525 2018.99 810.473 1941.04 810.473Z" stroke="#FFFFFF" stroke-width="12.9913" fill="#00AA00" transform="matrix(0.694083 0.719895 -0.720044 0.693939 2629.14 -283.292)"/><path d="M584.935 1975.12 597.924 1975.12 597.924 2068.87 584.935 2068.87Z" stroke="#FFFFFF" stroke-width="3.51498" fill="#666666" transform="matrix(1.00021 0 0 1 2629.14 -283.292)"/><text font-family="Arial,Arial_MSFontService,sans-serif" font-weight="400" font-size="7" transform="matrix(12.9927 0 0 12.99 3170.89 1875)">D<tspan font-size="7" x="4.99999" y="0">23</tspan></text><path d="M1728.07 313.757C1728.07 331.692 1713.53 346.232 1695.6 346.232 1677.66 346.232 1663.12 331.692 1663.12 313.757 1663.12 295.821 1677.66 281.282 1695.6 281.282 1713.53 281.282 1728.07 295.821 1728.07 313.757Z" stroke="#FFFFFF" stroke-width="12.99" fill="#FF6600" transform="matrix(1.00021 0 0 1 34.5844 881)"/><path d="M1352.89 2131.07 2116.99 2131.07 2116.99 2146.67 1352.89 2146.67Z" fill="#666666" transform="matrix(0.772229 -0.635408 0.63554 0.772068 34.5844 881)"/><path d="M2199.6-1221.15 2277.54-1221.15 2277.54-1143.2 2199.6-1143.2Z" stroke="#FFFFFF" stroke-width="12.9913" fill="#7137C8" transform="matrix(0.694083 0.719895 -0.720044 0.693939 34.5844 881)"/><path d="M3014.94 313.757C3014.94 331.692 3000.4 346.232 2982.47 346.232 2964.53 346.232 2949.99 331.692 2949.99 313.757 2949.99 295.821 2964.53 281.282 2982.47 281.282 3000.4 281.282 3014.94 295.821 3014.94 313.757Z" stroke="#FFFFFF" stroke-width="12.99" fill="#FF6600" transform="matrix(1.00021 0 0 1 34.5844 881)"/><path d="M1536.09-94.7868 1614.04-94.7868 1614.04-16.8389 1536.09-16.8389Z" stroke="#FFFFFF" stroke-width="12.9913" fill="#00AA00" transform="matrix(0.694083 0.719895 -0.720044 0.693939 34.5844 881)"/><text font-family="Arial,Arial_MSFontService,sans-serif" font-weight="400" font-size="6" transform="matrix(12.9927 0 0 12.99 1235.75 1995)">Daily build<tspan font-size="6" x="-77.196" y="0.153965">Commit with release build</tspan></text><path d="M160.548 1216.75C160.548 1234.68 146.009 1249.22 128.073 1249.22 110.138 1249.22 95.5984 1234.68 95.5984 1216.75 95.5984 1198.81 110.138 1184.27 128.073 1184.27 146.009 1184.27 160.548 1198.81 160.548 1216.75Z" stroke="#FFFFFF" stroke-width="12.99" fill="#FF6600" transform="matrix(1.00021 0 0 1 34.5844 881)"/><text font-family="Arial,Arial_MSFontService,sans-serif" font-weight="400" font-size="6" transform="matrix(12.9927 0 0 12.99 225.382 2124)">Commit</text><path d="M1373.71 454.156C1352.41 498.277 1342.57 542.493 1339.17 586.764L1357.37 586.764C1361.65 536.939 1372.7 492.279 1392.35 454.156L1373.71 454.156Z" stroke="#FFFFFF" stroke-width="3.18355" fill="#FF8080" transform="matrix(1.00021 0 0 1 -795.675 1577.29)"/><path d="M28.3354 54.5835C26.4463 54.0649 24.461 53.7822 22.4095 53.7822L22.4095 98.6006C34.766 98.6006 44.8186 88.5478 44.8186 76.1915 44.8186 65.8864 37.8243 57.1893 28.3354 54.5835Z" fill="#D8143A" transform="matrix(1.00021 0 0 1 577.997 2059.54)"/><path d="M19.017 54.0387C8.26416 55.6785 0 64.988 0 76.1917 0 88.548 10.0525 98.6008 22.4091 98.6008L22.4091 98.6008 22.4091 53.7824C22.4091 53.7824 22.4091 53.7824 22.4087 53.7824 21.2565 53.7824 20.1234 53.87 19.017 54.0387Z" fill="#D8143A" transform="matrix(1.00021 0 0 1 577.997 2059.54)"/><path d="M97.2878 7.65118C97.3933 7.54545 97.4921 7.43549 97.5848 7.32244 97.6266 7.2716 97.6637 7.21691 97.703 7.16434 97.7508 7.10002 97.801 7.03685 97.8455 6.97079 97.8883 6.90686 97.9258 6.83926 97.9651 6.77321 98.0007 6.7137 98.0381 6.65554 98.0706 6.59488 98.1065 6.52767 98.1377 6.45738 98.1702 6.38805 98.2005 6.32469 98.232 6.26191 98.2586 6.1974 98.2867 6.13019 98.3095 6.06047 98.3339 5.99191 98.3587 5.92259 98.3855 5.85383 98.4069 5.78374 98.4275 5.71499 98.4431 5.64392 98.461 5.57363 98.4789 5.50199 98.4993 5.43055 98.5136 5.35814 98.5298 5.27725 98.5396 5.19406 98.5513 5.11163 98.56 5.04924 98.5719 4.98742 98.5783 4.92483 98.5929 4.77905 98.6006 4.63134 98.6006 4.48171 98.6006 4.33227 98.5929 4.18475 98.5783 4.03897 98.5719 3.97599 98.56 3.91321 98.5511 3.85005 98.5396 3.7682 98.53 3.68578 98.5138 3.60566 98.4995 3.53248 98.4787 3.46084 98.4606 3.38824 98.4429 3.31891 98.4281 3.24862 98.4071 3.18064 98.3855 3.10977 98.3587 3.04025 98.3335 2.97034 98.3091 2.90256 98.2865 2.83342 98.2588 2.76679 98.2318 2.7017 98.1999 2.63834 98.1694 2.57402 98.1371 2.50565 98.1065 2.43594 98.0708 2.3693 98.0383 2.30768 98.0004 2.24894 97.9642 2.18847 97.9251 2.12299 97.8879 2.05636 97.8455 1.99339 97.801 1.92637 97.7506 1.86282 97.7021 1.79792 97.663 1.74554 97.6262 1.69162 97.5846 1.64135 97.4916 1.52812 97.393 1.41815 97.2876 1.31243 97.1819 1.2067 97.0721 1.10829 96.9589 1.01547 96.9069 0.972718 96.8511 0.93478 96.7973 0.894531 96.7343 0.847349 96.6721 0.798241 96.6072 0.754911 96.5423 0.711581 96.474 0.673257 96.4068 0.633394 96.3484 0.598729 96.2912 0.561754 96.2317 0.529786 96.1635 0.493388 96.0921 0.461998 96.0216 0.428874 95.9594 0.399602 95.898 0.368212 95.8342 0.342021 95.7664 0.313904 95.696 0.290987 95.6266 0.266145 95.5583 0.241687 95.4901 0.215111 95.4204 0.193927 95.3516 0.172936 95.2802 0.15753 95.2101 0.139813 95.1384 0.121903 95.0672 0.101489 94.995 0.0872385 94.9143 0.0714469 94.8319 0.0616254 94.7496 0.0498781 94.6868 0.0408268 94.6244 0.0288869 94.5615 0.0227244 94.4159 0.00847349 94.2684 0.000385159 94.1187 0.000385159L94.1187 0.000385159C76.6343 0.000385159 60.0591 5.58596 46.1846 16.1536 33.5882 25.7473 24.0264 39.1119 19.0168 54.0391 20.1232 53.8702 21.2563 53.7824 22.4089 53.7824 24.4605 53.7824 26.4462 54.0651 28.3352 54.5837 37.256 30.773 58.6707 13.5911 83.6033 9.76859 79.3516 15.4144 75.8901 21.5818 73.2772 28.2063 69.8385 36.924 67.9988 46.0656 67.7847 55.4247 70.3824 54.369 73.2191 53.7822 76.1917 53.7822 76.3991 53.7822 76.604 53.7924 76.8099 53.798 77.6497 36.3596 84.8168 20.1224 97.2874 7.65195 97.2874 7.65176 97.2878 7.65118 97.2878 7.65118Z" fill="#64C37D" transform="matrix(1.00021 0 0 1 577.997 2059.54)"/><path d="M28.3354 54.5835C26.4463 54.0649 24.461 53.7822 22.4095 53.7822L22.4095 98.6006C34.766 98.6006 44.8186 88.5478 44.8186 76.1915 44.8186 65.8864 37.8243 57.1893 28.3354 54.5835Z" fill="#D8143A" transform="matrix(1.00021 0 0 1 577.997 2059.54)"/><path d="M22.4091 53.7824C21.2563 53.7824 20.1234 53.8702 19.017 54.0391 8.26416 55.6785 0 64.988 0 76.1917 0 88.5484 10.0528 98.6008 22.4091 98.6008L22.4091 98.6008 22.4091 53.7824C22.4095 53.7824 22.4091 53.7824 22.4091 53.7824Z" fill="#B8002B" transform="matrix(1.00021 0 0 1 577.997 2059.54)"/><path d="M76.8097 53.798C76.6038 53.7924 76.3989 53.7822 76.1915 53.7822L76.1915 53.7822C73.2193 53.7822 70.3826 54.369 67.7849 55.4247 59.5831 58.7571 53.7828 66.8073 53.7828 76.1915 53.7828 88.548 63.8352 98.6006 76.1919 98.6006L76.1919 98.6006C88.5486 98.6006 98.601 88.5478 98.601 76.1915 98.6006 64.0423 88.881 54.1275 76.8097 53.798Z" fill="#D8143A" transform="matrix(1.00021 0 0 1 577.997 2059.54)"/><path d="M67.7845 55.4245C59.5827 58.7569 53.7824 66.8071 53.7824 76.1913 53.7824 88.5478 63.8349 98.6004 76.1915 98.6004L76.1915 53.7822C73.2189 53.7824 70.3824 54.369 67.7845 55.4245Z" fill="#B8002B" transform="matrix(1.00021 0 0 1 577.997 2059.54)"/><text font-family="Arial,Arial_MSFontService,sans-serif" font-weight="400" font-size="6" transform="matrix(12.9927 0 0 12.99 711.917 2117)">Cherry pick</text><text font-family="Arial,Arial_MSFontService,sans-serif" font-weight="400" font-size="5" transform="matrix(8.33835 -9.96198 9.96405 8.33662 1083.19 1569)">release<tspan font-size="5" x="17.9814" y="0.0155878">/</tspan><tspan font-size="5" x="18.9836" y="0.0137119">1</tspan><tspan font-size="5" x="21.9903" y="0.00807476">.</tspan><tspan font-size="5" x="22.9926" y="0.00619698">0</tspan><tspan font-size="5" x="25.9993" y="0.000567436">.</tspan><tspan font-size="5" x="26.9425" y="0.048089">0</tspan></text><path d="M1941.04 732.525 2018.99 732.525 2018.99 810.473 1941.04 810.473Z" stroke="#FFFFFF" stroke-width="12.9913" fill="#00AA00" transform="matrix(0.694083 0.719895 -0.720044 0.693939 681.73 -287.171)"/><path d="M584.935 1975.12 597.924 1975.12 597.924 2068.87 584.935 2068.87Z" stroke="#FFFFFF" stroke-width="3.51498" fill="#666666" transform="matrix(1.00021 0 0 1 681.73 -287.171)"/><text font-family="Arial,Arial_MSFontService,sans-serif" font-weight="400" font-size="7" transform="matrix(12.9927 0 0 12.99 1223.48 1871)">D2</text><path d="M1941.04 732.525 2018.99 732.525 2018.99 810.473 1941.04 810.473Z" stroke="#FFFFFF" stroke-width="12.9913" fill="#00AA00" transform="matrix(0.694083 0.719895 -0.720044 0.693939 1914.99 -284.233)"/><path d="M584.935 1975.12 597.924 1975.12 597.924 2068.87 584.935 2068.87Z" stroke="#FFFFFF" stroke-width="3.51498" fill="#666666" transform="matrix(1.00021 0 0 1 1914.99 -284.233)"/><text font-family="Arial,Arial_MSFontService,sans-serif" font-weight="400" font-size="7" transform="matrix(12.9927 0 0 12.99 2456.75 1874)">D<tspan font-size="7" x="4.99999" y="0">22</tspan></text><path d="M523.255 791.389C523.255 809.324 508.716 823.864 490.78 823.864 472.845 823.864 458.305 809.324 458.305 791.389 458.305 773.453 472.845 758.914 490.78 758.914 508.716 758.914 523.255 773.453 523.255 791.389Z" stroke="#FFFFFF" stroke-width="12.99" fill="#FF6600" transform="matrix(1.00021 0 0 1 34.5844 881)"/><path d="M703.602 794.345C703.602 812.281 689.063 826.82 671.127 826.82 653.192 826.82 638.652 812.281 638.652 794.345 638.652 776.41 653.192 761.87 671.127 761.87 689.063 761.87 703.602 776.41 703.602 794.345Z" stroke="#FFFFFF" stroke-width="12.99" fill="#FF6600" transform="matrix(1.00021 0 0 1 34.5844 881)"/><path d="M1333.33 794.345C1333.33 812.281 1318.79 826.82 1300.86 826.82 1282.92 826.82 1268.38 812.281 1268.38 794.345 1268.38 776.41 1282.92 761.87 1300.86 761.87 1318.79 761.87 1333.33 776.41 1333.33 794.345Z" stroke="#FFFFFF" stroke-width="12.99" fill="#FF6600" transform="matrix(1.00021 0 0 1 34.5844 881)"/><path d="M1652.64 791.389C1652.64 809.324 1638.1 823.864 1620.16 823.864 1602.23 823.864 1587.69 809.324 1587.69 791.389 1587.69 773.453 1602.23 758.914 1620.16 758.914 1638.1 758.914 1652.64 773.453 1652.64 791.389Z" stroke="#FFFFFF" stroke-width="12.99" fill="#FF6600" transform="matrix(1.00021 0 0 1 34.5844 881)"/><path d="M1844.81 791.389C1844.81 809.324 1830.27 823.864 1812.34 823.864 1794.4 823.864 1779.86 809.324 1779.86 791.389 1779.86 773.453 1794.4 758.914 1812.34 758.914 1830.27 758.914 1844.81 773.453 1844.81 791.389Z" stroke="#FFFFFF" stroke-width="12.99" fill="#FF6600" transform="matrix(1.00021 0 0 1 34.5844 881)"/><path d="M2430.21 790.591C2430.21 804.852 2418.65 816.414 2404.38 816.414 2390.12 816.414 2378.56 804.852 2378.56 790.591 2378.56 776.329 2390.12 764.768 2404.38 764.768 2418.65 764.768 2430.21 776.329 2430.21 790.591Z" fill="#FF6600" transform="matrix(1.00021 0 0 1 34.5844 881)"/><path d="M2941.68 791.389C2941.68 809.324 2927.14 823.864 2909.2 823.864 2891.27 823.864 2876.73 809.324 2876.73 791.389 2876.73 773.453 2891.27 758.914 2909.2 758.914 2927.14 758.914 2941.68 773.453 2941.68 791.389Z" stroke="#FFFFFF" stroke-width="12.99" fill="#FF6600" transform="matrix(1.00021 0 0 1 34.5844 881)"/><path d="M3290.55 794.345C3290.55 812.281 3276.01 826.82 3258.07 826.82 3240.14 826.82 3225.6 812.281 3225.6 794.345 3225.6 776.41 3240.14 761.87 3258.07 761.87 3276.01 761.87 3290.55 776.41 3290.55 794.345Z" stroke="#FFFFFF" stroke-width="12.99" fill="#FF6600" transform="matrix(1.00021 0 0 1 34.5844 881)"/><path d="M2502.75-2225.54 2580.7-2225.54 2580.7-2147.59 2502.75-2147.59Z" stroke="#FFFFFF" stroke-width="12.9913" fill="#7137C8" transform="matrix(0.694083 0.719895 -0.720044 0.693939 34.5844 881)"/><path d="M3363.63 311.852C3363.63 326.114 3352.07 337.675 3337.81 337.675 3323.55 337.675 3311.98 326.114 3311.98 311.852 3311.98 297.591 3323.55 286.029 3337.81 286.029 3352.07 286.029 3363.63 297.591 3363.63 311.852Z" fill="#FF6600" transform="matrix(1.00021 0 0 1 34.5844 881)"/><path d="M1501.35-1186.68 1579.3-1186.68 1579.3-1108.73 1501.35-1108.73Z" stroke="#FFFFFF" stroke-width="12.9913" fill="#7137C8" transform="matrix(0.694083 0.719895 -0.720044 0.693939 34.5844 881)"/><path d="M1920.86 311.852C1920.86 326.114 1909.29 337.675 1895.03 337.675 1880.77 337.675 1869.21 326.114 1869.21 311.852 1869.21 297.591 1880.77 286.029 1895.03 286.029 1909.29 286.029 1920.86 297.591 1920.86 311.852Z" fill="#FF6600" transform="matrix(1.00021 0 0 1 34.5844 881)"/><path d="M1143.27-815.204 1221.22-815.204 1221.22-737.257 1143.27-737.257Z" stroke="#FFFFFF" stroke-width="12.9913" fill="#7137C8" transform="matrix(0.694083 0.719895 -0.720044 0.693939 34.5844 881)"/><path d="M1404.95 311.852C1404.95 326.114 1393.38 337.675 1379.12 337.675 1364.86 337.675 1353.3 326.114 1353.3 311.852 1353.3 297.591 1364.86 286.029 1379.12 286.029 1393.38 286.029 1404.95 297.591 1404.95 311.852Z" fill="#FF6600" transform="matrix(1.00021 0 0 1 34.5844 881)"/><path d="M1219.32-203.9 1297.27-203.9 1297.27-125.952 1219.32-125.952Z" stroke="#FFFFFF" stroke-width="12.9913" fill="#7137C8" transform="matrix(0.694083 0.719895 -0.720044 0.693939 34.5844 881)"/><path d="M1017.64 790.807C1017.64 805.068 1006.08 816.629 991.815 816.629 977.554 816.629 965.992 805.068 965.992 790.807 965.992 776.545 977.554 764.984 991.815 764.984 1006.08 764.984 1017.64 776.545 1017.64 790.807Z" fill="#FF6600" transform="matrix(1.00021 0 0 1 34.5844 881)"/><path d="M841.478 629.031 919.426 629.031 919.426 706.979 841.478 706.979Z" stroke="#FFFFFF" stroke-width="12.9913" fill="#7137C8" transform="matrix(0.694083 0.719895 -0.720044 0.693939 34.5844 881)"/><path d="M155.816 1096.8C155.816 1111.07 144.255 1122.63 129.994 1122.63 115.732 1122.63 104.171 1111.07 104.171 1096.8 104.171 1082.54 115.732 1070.98 129.994 1070.98 144.255 1070.98 155.816 1082.54 155.816 1096.8Z" fill="#FF6600" transform="matrix(1.00021 0 0 1 34.5844 881)"/><path d="M68.3092 75.5107 64.1189 75.5107C64.1189 41.7637 36.2707 14.306 2.04371 14.306L2.04371 10.1157C38.581 10.1157 68.3092 39.4515 68.3092 75.5107Z" stroke="#4E9BCD" stroke-width="3.66526" fill="#4E9BCD" transform="matrix(1.00064 0 0 1 1934.08 1111.13)"/><path d="M71.2081 53.007C66.174 31.8328 49.0205 14.1517 27.5111 7.98438L28.4634 4.62645C51.1671 11.1442 69.2767 29.8157 74.5965 52.1994L71.2081 53.007Z" stroke="#4E9BCD" stroke-width="3.66526" fill="#4E9BCD" transform="matrix(1.00064 0 0 1 1934.08 1111.13)"/><path d="M74.4308 33.1413C69.2462 21.8371 60.4143 11.9785 49.5615 5.38451L51.0128 2.99605C62.338 9.87763 71.5566 20.1686 76.9716 31.9756L74.4308 33.1413Z" stroke="#4E9BCD" stroke-width="3.66526" fill="#4E9BCD" transform="matrix(1.00064 0 0 1 1934.08 1111.13)"/><path d="M68.3092 75.5107 64.1189 75.5107C64.1189 41.7637 36.2707 14.306 2.04371 14.306L2.04371 10.1157C38.581 10.1157 68.3092 39.4515 68.3092 75.5107Z" stroke="#4E9BCD" stroke-width="3.66526" fill="#4E9BCD" transform="matrix(1.00064 0 0 1 2446.16 1584.98)"/><path d="M71.2081 53.007C66.174 31.8328 49.0205 14.1517 27.5111 7.98438L28.4634 4.62645C51.1671 11.1442 69.2767 29.8157 74.5965 52.1994L71.2081 53.007Z" stroke="#4E9BCD" stroke-width="3.66526" fill="#4E9BCD" transform="matrix(1.00064 0 0 1 2446.16 1584.98)"/><path d="M74.4308 33.1413C69.2462 21.8371 60.4143 11.9785 49.5615 5.38451L51.0128 2.99605C62.338 9.87763 71.5566 20.1686 76.9716 31.9756L74.4308 33.1413Z" stroke="#4E9BCD" stroke-width="3.66526" fill="#4E9BCD" transform="matrix(1.00064 0 0 1 2446.16 1584.98)"/><text fill="#FFFFFF" font-family="Arial,Arial_MSFontService,sans-serif" font-weight="400" font-size="8" transform="matrix(12.9927 0 0 12.99 225.776 1029)">Sanctuarized area</text><path d="M68.3092 75.5107 64.1189 75.5107C64.1189 41.7637 36.2707 14.306 2.04371 14.306L2.04371 10.1157C38.581 10.1157 68.3092 39.4515 68.3092 75.5107Z" stroke="#4E9BCD" stroke-width="3.66526" fill="#4E9BCD" transform="matrix(1.00064 0 0 1 1418.1 1110.02)"/><path d="M71.2081 53.007C66.174 31.8328 49.0205 14.1517 27.5111 7.98438L28.4634 4.62645C51.1671 11.1442 69.2767 29.8157 74.5965 52.1994L71.2081 53.007Z" stroke="#4E9BCD" stroke-width="3.66526" fill="#4E9BCD" transform="matrix(1.00064 0 0 1 1418.1 1110.02)"/><path d="M74.4308 33.1413C69.2462 21.8371 60.4143 11.9785 49.5615 5.38451L51.0128 2.99605C62.338 9.87763 71.5566 20.1686 76.9716 31.9756L74.4308 33.1413Z" stroke="#4E9BCD" stroke-width="3.66526" fill="#4E9BCD" transform="matrix(1.00064 0 0 1 1418.1 1110.02)"/><path d="M1282.75 228.562 1131.73 228.562 1131.73 302.893 1282.75 302.893C1303.32 289.976 1324.27 276.792 1341.92 265.699 1322.2 253.382 1302.42 240.713 1282.75 228.562Z" stroke="#FDFFFF" stroke-width="1.83321" fill="#69B2E0" transform="matrix(0.736606 0.676348 -0.676488 0.736453 571.805 54.4333)"/><text fill="#FFFFFF" font-family="Arial,Arial_MSFontService,sans-serif" font-weight="400" font-size="5" transform="matrix(9.56942 8.78659 -8.78842 9.56743 1214.66 1038)">1<tspan font-size="5" x="2.98127" y="-0.0203985">.</tspan><tspan font-size="5" x="3.99237" y="-0.00829399">0</tspan><tspan font-size="5" x="7.02571" y="0.0280066">.</tspan><tspan font-size="5" x="7.98475" y="-0.0165944">1</tspan></text><path d="M2520.37 1664.41 2369.35 1664.41 2369.35 1738.75 2520.37 1738.75C2540.95 1725.82 2561.89 1712.64 2579.54 1701.56 2559.82 1689.24 2540.04 1676.56 2520.37 1664.41Z" stroke="#FDFFFF" stroke-width="1.83322" fill="#69B2E0" transform="matrix(0.707586 0.706627 -0.706774 0.707439 372.346 -1399.47)"/><text fill="#FFFFFF" font-family="Arial,Arial_MSFontService,sans-serif" font-weight="400" font-size="5" transform="matrix(9.1925 9.18005 -9.18195 9.19059 834.283 1501)">1<tspan font-size="5" x="2.97061" y="-0.0294193">.</tspan><tspan font-size="5" x="3.96082" y="-0.0392258">0</tspan><tspan font-size="5" x="6.98584" y="-0.0141792">.</tspan><tspan font-size="5" x="7.97604" y="-0.0239856">0</tspan></text><path d="M3288.48 208.849 3176.89 107.117 3126.81 162.042 3238.41 263.775C3262.31 268.089 3286.68 272.46 3307.18 276.145 3300.9 253.762 3294.82 231.078 3288.48 208.849Z" stroke="#FDFFFF" stroke-width="1.83303" fill="#69B2E0" transform="matrix(1.00021 0 0 1 34.5844 881)"/><text fill="#FFFFFF" font-family="Arial,Arial_MSFontService,sans-serif" font-weight="400" font-size="5" transform="matrix(9.60163 8.7514 -8.75322 9.59964 3176.14 1038)">1<tspan font-size="5" x="2.98682" y="-0.0144639">.</tspan><tspan font-size="5" x="3.99971" y="-0.000317574">1</tspan><tspan font-size="5" x="6.98653" y="-0.0147815">.</tspan><tspan font-size="5" x="7.99943" y="-0.000647783">1</tspan></text><path d="M1843.93 206.95 1735.45 101.901 1683.75 155.292 1792.22 260.342C1815.98 265.375 1840.2 270.478 1860.58 274.78 1855 252.218 1849.59 229.361 1843.93 206.95Z" stroke="#FDFFFF" stroke-width="1.83303" fill="#69B2E0" transform="matrix(1.00021 0 0 1 34.5844 881)"/><text fill="#FFFFFF" font-family="Arial,Arial_MSFontService,sans-serif" font-weight="400" font-size="5" transform="matrix(9.33332 9.0369 -9.03877 9.33138 1732.92 1032)">1<tspan font-size="5" x="2.99407" y="-0.00612366">.</tspan><tspan font-size="5" x="3.99209" y="-0.00816059">0</tspan><tspan font-size="5" x="6.98617" y="-0.0142841">.</tspan><tspan font-size="5" x="7.98419" y="-0.0163212">2</tspan></text><path d="M1240.66 1183.99 1089.65 1183.99 1089.65 1258.31 1240.66 1258.31C1261.23 1245.39 1282.18 1232.21 1299.82 1221.12 1280.1 1208.8 1260.32 1196.13 1240.66 1183.99Z" stroke="#FDFFFF" stroke-width="1.83303" fill="#69B2E0" transform="matrix(1.00021 0 0 1 34.5844 881)"/><text fill="#FFFFFF" font-family="Arial,Arial_MSFontService,sans-serif" font-weight="400" font-size="5" transform="matrix(12.9927 0 0 12.99 1131.58 2126)">1<tspan font-size="5" x="2.99999" y="0">.</tspan><tspan font-size="5" x="4" y="0">0</tspan><tspan font-size="5" x="7" y="0">.</tspan><tspan font-size="5" x="8" y="0">0</tspan><tspan fill="#000000" font-size="6" x="16.8256" y="0.153965">Git tag</tspan></text><text font-family="Arial,Arial_MSFontService,sans-serif" font-weight="400" font-size="5" transform="matrix(10.0694 -8.2091 8.2108 10.0673 2558.21 1545)">release<tspan font-size="5" x="18.0115" y="-0.0140972">/</tspan><tspan font-size="5" x="19.0013" y="-0.00162697">1</tspan><tspan font-size="5" x="22.0195" y="-0.0238619">.</tspan><tspan font-size="5" x="23.0093" y="-0.0113773">1</tspan><tspan font-size="5" x="25.9788" y="0.0260372">.</tspan><tspan font-size="5" x="27.0172" y="-0.0211411">0</tspan></text><path d="M2363.48 686.784 2254.52 582.239 2203.07 635.868 2312.03 740.414C2335.81 745.338 2360.05 750.327 2380.46 754.536 2374.75 732 2369.26 709.167 2363.48 686.784Z" stroke="#FDFFFF" stroke-width="1.83303" fill="#69B2E0" transform="matrix(1.00021 0 0 1 34.5844 881)"/><text fill="#FFFFFF" font-family="Arial,Arial_MSFontService,sans-serif" font-weight="400" font-size="5" transform="matrix(9.37519 8.99346 -8.99533 9.37325 2252.33 1512)">1<tspan font-size="5" x="3.00105" y="0.00108206">.</tspan><tspan font-size="5" x="4.00141" y="0.00144267">1</tspan><tspan font-size="5" x="7.00245" y="0.00253773">.</tspan><tspan font-size="5" x="8.0028" y="0.00289845">0</tspan></text><path d="M68.3092 75.5107 64.1189 75.5107C64.1189 41.7637 36.2707 14.306 2.04371 14.306L2.04371 10.1157C38.581 10.1157 68.3092 39.4515 68.3092 75.5107Z" stroke="#4E9BCD" stroke-width="3.66526" fill="#4E9BCD" transform="matrix(1.00064 0 0 1 3379.23 1110.06)"/><path d="M71.2081 53.007C66.174 31.8328 49.0205 14.1517 27.5111 7.98438L28.4634 4.62645C51.1671 11.1442 69.2767 29.8157 74.5965 52.1994L71.2081 53.007Z" stroke="#4E9BCD" stroke-width="3.66526" fill="#4E9BCD" transform="matrix(1.00064 0 0 1 3379.23 1110.06)"/><path d="M74.4308 33.1413C69.2462 21.8371 60.4143 11.9785 49.5615 5.38451L51.0128 2.99605C62.338 9.87763 71.5566 20.1686 76.9716 31.9756L74.4308 33.1413Z" stroke="#4E9BCD" stroke-width="3.66526" fill="#4E9BCD" transform="matrix(1.00064 0 0 1 3379.23 1110.06)"/><path d="M68.3092 75.5107 64.1189 75.5107C64.1189 41.7637 36.2707 14.306 2.04371 14.306L2.04371 10.1157C38.581 10.1157 68.3092 39.4515 68.3092 75.5107Z" stroke="#4E9BCD" stroke-width="3.66526" fill="#4E9BCD" transform="matrix(1.00064 0 0 1 3437.9 1593.98)"/><path d="M71.2081 53.007C66.174 31.8328 49.0205 14.1517 27.5111 7.98438L28.4634 4.62645C51.1671 11.1442 69.2767 29.8157 74.5965 52.1994L71.2081 53.007Z" stroke="#4E9BCD" stroke-width="3.66526" fill="#4E9BCD" transform="matrix(1.00064 0 0 1 3437.9 1593.98)"/><path d="M74.4308 33.1413C69.2462 21.8371 60.4143 11.9785 49.5615 5.38451L51.0128 2.99605C62.338 9.87763 71.5566 20.1686 76.9716 31.9756L74.4308 33.1413Z" stroke="#4E9BCD" stroke-width="3.66526" fill="#4E9BCD" transform="matrix(1.00064 0 0 1 3437.9 1593.98)"/><path d="M68.3092 75.5107 64.1189 75.5107C64.1189 41.7637 36.2707 14.306 2.04371 14.306L2.04371 10.1157C38.581 10.1157 68.3092 39.4515 68.3092 75.5107Z" stroke="#4E9BCD" stroke-width="3.66526" fill="#4E9BCD" transform="matrix(1.00064 0 0 1 2726.54 1593.98)"/><path d="M71.2081 53.007C66.174 31.8328 49.0205 14.1517 27.5111 7.98438L28.4634 4.62645C51.1671 11.1442 69.2767 29.8157 74.5965 52.1994L71.2081 53.007Z" stroke="#4E9BCD" stroke-width="3.66526" fill="#4E9BCD" transform="matrix(1.00064 0 0 1 2726.54 1593.98)"/><path d="M74.4308 33.1413C69.2462 21.8371 60.4143 11.9785 49.5615 5.38451L51.0128 2.99605C62.338 9.87763 71.5566 20.1686 76.9716 31.9756L74.4308 33.1413Z" stroke="#4E9BCD" stroke-width="3.66526" fill="#4E9BCD" transform="matrix(1.00064 0 0 1 2726.54 1593.98)"/><path d="M68.3092 75.5107 64.1189 75.5107C64.1189 41.7637 36.2707 14.306 2.04371 14.306L2.04371 10.1157C38.581 10.1157 68.3092 39.4515 68.3092 75.5107Z" stroke="#4E9BCD" stroke-width="3.66526" fill="#4E9BCD" transform="matrix(1.00064 0 0 1 1490.82 1590.31)"/><path d="M71.2081 53.007C66.174 31.8328 49.0205 14.1517 27.5111 7.98438L28.4634 4.62645C51.1671 11.1442 69.2767 29.8157 74.5965 52.1994L71.2081 53.007Z" stroke="#4E9BCD" stroke-width="3.66526" fill="#4E9BCD" transform="matrix(1.00064 0 0 1 1490.82 1590.31)"/><path d="M74.4308 33.1413C69.2462 21.8371 60.4143 11.9785 49.5615 5.38451L51.0128 2.99605C62.338 9.87763 71.5566 20.1686 76.9716 31.9756L74.4308 33.1413Z" stroke="#4E9BCD" stroke-width="3.66526" fill="#4E9BCD" transform="matrix(1.00064 0 0 1 1490.82 1590.31)"/><path d="M68.3092 75.5107 64.1189 75.5107C64.1189 41.7637 36.2707 14.306 2.04371 14.306L2.04371 10.1157C38.581 10.1157 68.3092 39.4515 68.3092 75.5107Z" stroke="#4E9BCD" stroke-width="3.66526" fill="#4E9BCD" transform="matrix(1.00064 0 0 1 1028.8 1579.32)"/><path d="M71.2081 53.007C66.174 31.8328 49.0205 14.1517 27.5111 7.98438L28.4634 4.62645C51.1671 11.1442 69.2767 29.8157 74.5965 52.1994L71.2081 53.007Z" stroke="#4E9BCD" stroke-width="3.66526" fill="#4E9BCD" transform="matrix(1.00064 0 0 1 1028.8 1579.32)"/><path d="M74.4308 33.1413C69.2462 21.8371 60.4143 11.9785 49.5615 5.38451L51.0128 2.99605C62.338 9.87763 71.5566 20.1686 76.9716 31.9756L74.4308 33.1413Z" stroke="#4E9BCD" stroke-width="3.66526" fill="#4E9BCD" transform="matrix(1.00064 0 0 1 1028.8 1579.32)"/><path d="M68.3092 75.5107 64.1189 75.5107C64.1189 41.7637 36.2707 14.306 2.04371 14.306L2.04371 10.1157C38.581 10.1157 68.3092 39.4515 68.3092 75.5107Z" stroke="#4E9BCD" stroke-width="3.66526" fill="#4E9BCD" transform="matrix(1.00064 0 0 1 834.456 1593.98)"/><path d="M71.2081 53.007C66.174 31.8328 49.0205 14.1517 27.5111 7.98438L28.4634 4.62645C51.1671 11.1442 69.2767 29.8157 74.5965 52.1994L71.2081 53.007Z" stroke="#4E9BCD" stroke-width="3.66526" fill="#4E9BCD" transform="matrix(1.00064 0 0 1 834.456 1593.98)"/><path d="M74.4308 33.1413C69.2462 21.8371 60.4143 11.9785 49.5615 5.38451L51.0128 2.99605C62.338 9.87763 71.5566 20.1686 76.9716 31.9756L74.4308 33.1413Z" stroke="#4E9BCD" stroke-width="3.66526" fill="#4E9BCD" transform="matrix(1.00064 0 0 1 834.456 1593.98)"/><path d="M68.3092 75.5107 64.1189 75.5107C64.1189 41.7637 36.2707 14.306 2.04371 14.306L2.04371 10.1157C38.581 10.1157 68.3092 39.4515 68.3092 75.5107Z" stroke="#4E9BCD" stroke-width="3.66526" fill="#4E9BCD" transform="matrix(1.00064 0 0 1 2143.51 1593.98)"/><path d="M71.2081 53.007C66.174 31.8328 49.0205 14.1517 27.5111 7.98438L28.4634 4.62645C51.1671 11.1442 69.2767 29.8157 74.5965 52.1994L71.2081 53.007Z" stroke="#4E9BCD" stroke-width="3.66526" fill="#4E9BCD" transform="matrix(1.00064 0 0 1 2143.51 1593.98)"/><path d="M74.4308 33.1413C69.2462 21.8371 60.4143 11.9785 49.5615 5.38451L51.0128 2.99605C62.338 9.87763 71.5566 20.1686 76.9716 31.9756L74.4308 33.1413Z" stroke="#4E9BCD" stroke-width="3.66526" fill="#4E9BCD" transform="matrix(1.00064 0 0 1 2143.51 1593.98)"/><path d="M68.3092 75.5107 64.1189 75.5107C64.1189 41.7637 36.2707 14.306 2.04371 14.306L2.04371 10.1157C38.581 10.1157 68.3092 39.4515 68.3092 75.5107Z" stroke="#4E9BCD" stroke-width="3.66526" fill="#4E9BCD" transform="matrix(1.00064 0 0 1 1597.15 2070.57)"/><path d="M71.2081 53.007C66.174 31.8328 49.0205 14.1517 27.5111 7.98438L28.4634 4.62645C51.1671 11.1442 69.2767 29.8157 74.5965 52.1994L71.2081 53.007Z" stroke="#4E9BCD" stroke-width="3.66526" fill="#4E9BCD" transform="matrix(1.00064 0 0 1 1597.15 2070.57)"/><path d="M74.4308 33.1413C69.2462 21.8371 60.4143 11.9785 49.5615 5.38451L51.0128 2.99605C62.338 9.87763 71.5566 20.1686 76.9716 31.9756L74.4308 33.1413Z" stroke="#4E9BCD" stroke-width="3.66526" fill="#4E9BCD" transform="matrix(1.00064 0 0 1 1597.15 2070.57)"/><text font-family="Arial,Arial_MSFontService,sans-serif" font-weight="400" font-size="6" transform="matrix(12.9927 0 0 12.99 1712.85 2136)">Sonarqube analysis</text></g></g></g><path d="M0 0 0.000360892 925.833" stroke="#7F7F7F" stroke-width="6.875" stroke-miterlimit="8" stroke-dasharray="20.625 6.875" fill="none" fill-rule="evenodd" transform="matrix(1 0 0 -1 1027.5 1602.33)"/><path d="M0 0 0.000360892 925.833" stroke="#7F7F7F" stroke-width="6.875" stroke-miterlimit="8" stroke-dasharray="20.625 6.875" fill="none" fill-rule="evenodd" transform="matrix(1 0 0 -1 2441.5 1602.33)"/><path d="M1009.5 645.5 2375.5 645.5 2473.5 743.501 2375.5 841.5 1009.5 841.5 1107.5 743.501Z" stroke="#FEFEFE" stroke-width="6.875" stroke-miterlimit="8" fill="#00B0F0" fill-rule="evenodd"/><text fill="#FEFEFE" font-family="Arial Black,Arial Black_MSFontService,sans-serif" font-weight="900" font-size="83" transform="matrix(1 0 0 1 1468.3 770)">SPRINT X+1</text><path d="M113.5 645.5 952.5 645.5 1050.5 743.5 952.5 841.5 113.5 841.5 211.5 743.5Z" stroke="#FEFEFE" stroke-width="6.875" stroke-miterlimit="8" fill="#00B0F0" fill-rule="evenodd"/><text fill="#FEFEFE" font-family="Arial Black,Arial Black_MSFontService,sans-serif" font-weight="900" font-size="83" transform="matrix(1 0 0 1 363.411 770)">SPRINT X</text><path d="M2435.5 645.5 3801.5 645.5 3899.5 743.501 3801.5 841.5 2435.5 841.5 2533.5 743.501Z" stroke="#FEFEFE" stroke-width="6.875" stroke-miterlimit="8" fill="#00B0F0" fill-rule="evenodd"/><text fill="#FEFEFE" font-family="Arial Black,Arial Black_MSFontService,sans-serif" font-weight="900" font-size="83" transform="matrix(1 0 0 1 2894.95 770)">SPRINT X+2</text></g></svg>