<svg width="2989" height="993" xmlns="http://www.w3.org/2000/svg" xmlns:xlink="http://www.w3.org/1999/xlink" overflow="hidden"><defs><clipPath id="clip0"><rect x="157" y="570" width="2989" height="993"/></clipPath><clipPath id="clip1"><rect x="239" y="778" width="160" height="159"/></clipPath><clipPath id="clip2"><rect x="239" y="778" width="160" height="159"/></clipPath><clipPath id="clip3"><rect x="239" y="778" width="160" height="159"/></clipPath><clipPath id="clip4"><rect x="985" y="778" width="159" height="159"/></clipPath><clipPath id="clip5"><rect x="985" y="778" width="159" height="159"/></clipPath><clipPath id="clip6"><rect x="985" y="778" width="159" height="159"/></clipPath><clipPath id="clip7"><rect x="2471" y="778" width="160" height="159"/></clipPath><clipPath id="clip8"><rect x="2471" y="778" width="160" height="159"/></clipPath><clipPath id="clip9"><rect x="2471" y="778" width="160" height="159"/></clipPath><clipPath id="clip10"><rect x="985" y="972" width="159" height="158"/></clipPath><clipPath id="clip11"><rect x="985" y="972" width="159" height="158"/></clipPath><clipPath id="clip12"><rect x="985" y="972" width="159" height="158"/></clipPath><clipPath id="clip13"><rect x="985" y="1168" width="159" height="158"/></clipPath><clipPath id="clip14"><rect x="985" y="1168" width="159" height="158"/></clipPath><clipPath id="clip15"><rect x="985" y="1168" width="159" height="158"/></clipPath><clipPath id="clip16"><rect x="1732" y="778" width="158" height="159"/></clipPath><clipPath id="clip17"><rect x="1732" y="778" width="158" height="159"/></clipPath><clipPath id="clip18"><rect x="1732" y="778" width="158" height="159"/></clipPath><clipPath id="clip19"><rect x="1732" y="973" width="158" height="159"/></clipPath><clipPath id="clip20"><rect x="1732" y="973" width="158" height="159"/></clipPath><clipPath id="clip21"><rect x="1732" y="973" width="158" height="159"/></clipPath><clipPath id="clip22"><rect x="1732" y="1168" width="158" height="158"/></clipPath><clipPath id="clip23"><rect x="1732" y="1168" width="158" height="158"/></clipPath><clipPath id="clip24"><rect x="1732" y="1168" width="158" height="158"/></clipPath><clipPath id="clip25"><rect x="2471" y="972" width="160" height="158"/></clipPath><clipPath id="clip26"><rect x="2471" y="972" width="160" height="158"/></clipPath><clipPath id="clip27"><rect x="2471" y="972" width="160" height="158"/></clipPath><clipPath id="clip28"><rect x="2471" y="1168" width="160" height="158"/></clipPath><clipPath id="clip29"><rect x="2471" y="1168" width="160" height="158"/></clipPath><clipPath id="clip30"><rect x="2471" y="1168" width="160" height="158"/></clipPath><clipPath id="clip31"><rect x="2471" y="1361" width="160" height="159"/></clipPath><clipPath id="clip32"><rect x="2471" y="1361" width="160" height="159"/></clipPath><clipPath id="clip33"><rect x="2471" y="1361" width="160" height="159"/></clipPath></defs><g clip-path="url(#clip0)" transform="translate(-157 -570)"><path d="M160.5 579.5 877.001 579.5 942.5 645 877.001 710.5 160.5 710.5Z" stroke="#FEFEFE" stroke-width="6.875" stroke-miterlimit="8" fill="#BEBEBE" fill-rule="evenodd"/><text fill="#FEFEFE" font-family="Poppins,Poppins_MSFontService,sans-serif" font-weight="400" font-size="83" transform="matrix(1 0 0 1 379.056 671)">Sprint 0</text><path d="M917.5 579.5 1609 579.5 1674.5 645 1609 710.5 917.5 710.5 983 645Z" stroke="#FEFEFE" stroke-width="6.875" stroke-miterlimit="8" fill="#BEBEBE" fill-rule="evenodd"/><text fill="#FEFEFE" font-family="Poppins,Poppins_MSFontService,sans-serif" font-weight="400" font-size="83" transform="matrix(1 0 0 1 1152.84 671)">Sprint 1</text><path d="M1651.5 579.5 2342 579.5 2407.5 645 2342 710.5 1651.5 710.5 1717 645Z" stroke="#FEFEFE" stroke-width="6.875" stroke-miterlimit="8" fill="#BEBEBE" fill-rule="evenodd"/><text fill="#FEFEFE" font-family="Poppins,Poppins_MSFontService,sans-serif" font-weight="400" font-size="83" transform="matrix(1 0 0 1 1875.4 671)">Sprint 2</text><path d="M2383.5 581.5 3075 581.5 3140.5 647 3075 712.5 2383.5 712.5 2449 647Z" stroke="#FEFEFE" stroke-width="6.875" stroke-miterlimit="8" fill="#BEBEBE" fill-rule="evenodd"/><text fill="#FEFEFE" font-family="Poppins,Poppins_MSFontService,sans-serif" font-weight="400" font-size="83" transform="matrix(1 0 0 1 2607.49 673)">Sprint 3<tspan fill="#0090CE" font-weight="700" font-size="64" x="-2176.71" y="206">Infra_v1.0</tspan><tspan fill="#0090CE" font-weight="700" font-size="64" x="-1430.56" y="204">Infra_v1.1</tspan></text><g clip-path="url(#clip1)"><g clip-path="url(#clip2)"><g clip-path="url(#clip3)"><path d="" stroke="#000000" stroke-width="9.81251" stroke-linecap="round" stroke-linejoin="round" stroke-miterlimit="10" fill="none" transform="matrix(1.00637 0 0 1 240 779)"/><path d="" stroke="#000000" stroke-width="9.81251" stroke-linecap="round" stroke-linejoin="round" stroke-miterlimit="10" fill="none" transform="matrix(1.00637 0 0 1 240 779)"/><path d="M72.6555 72.7073 2.12809 43.0116C1.11771 42.586 -8.17057e-16 43.328 -8.17057e-16 44.4246L-8.17057e-16 123.814C-8.17057e-16 125.82 1.22135 127.624 3.08419 128.369L71.4912 155.732C72.4982 156.134 73.5938 155.393 73.5938 154.308L73.5938 74.1203C73.5938 73.5033 73.224 72.9468 72.6555 72.7073Z" fill="#0090CE" transform="matrix(1.00637 0 0 1 240 779)"/><path d="M79.0949 64.2707 147.266 35.5673C148.491 35.0515 148.524 33.327 147.319 32.7649L80.5748 1.61753C79.2596 1.00394 77.7405 1.00394 76.4253 1.61753L9.68096 32.7649C8.47616 33.327 8.50898 35.0515 9.73431 35.5673L77.9052 64.2707C78.2854 64.4311 78.7147 64.4311 79.0949 64.2707Z" fill="#0090CE" transform="matrix(1.00637 0 0 1 240 779)"/><path d="M83.4063 74.1203 83.4063 154.308C83.4063 155.393 84.5019 156.134 85.5089 155.732L153.916 128.369C155.778 127.624 157 125.82 157 123.814L157 44.4246C157 43.328 155.882 42.586 154.872 43.0116L84.3446 72.7073C83.7761 72.9468 83.4063 73.5033 83.4063 74.1203Z" fill="#0090CE" transform="matrix(1.00637 0 0 1 240 779)"/></g></g></g><g clip-path="url(#clip4)"><g clip-path="url(#clip5)"><g clip-path="url(#clip6)"><path d="" stroke="#000000" stroke-width="9.81251" stroke-linecap="round" stroke-linejoin="round" stroke-miterlimit="10" fill="none" transform="matrix(1.00637 0 0 1 986 779)"/><path d="" stroke="#000000" stroke-width="9.81251" stroke-linecap="round" stroke-linejoin="round" stroke-miterlimit="10" fill="none" transform="matrix(1.00637 0 0 1 986 779)"/><path d="M72.6555 72.7073 2.12809 43.0116C1.11771 42.586 -8.17057e-16 43.328 -8.17057e-16 44.4246L-8.17057e-16 123.814C-8.17057e-16 125.82 1.22135 127.624 3.08419 128.369L71.4912 155.732C72.4982 156.134 73.5938 155.393 73.5938 154.308L73.5938 74.1203C73.5938 73.5033 73.224 72.9468 72.6555 72.7073Z" fill="#0090CE" transform="matrix(1.00637 0 0 1 986 779)"/><path d="M79.0949 64.2707 147.266 35.5673C148.491 35.0515 148.524 33.327 147.319 32.7649L80.5748 1.61753C79.2596 1.00394 77.7405 1.00394 76.4253 1.61753L9.68096 32.7649C8.47616 33.327 8.50898 35.0515 9.73431 35.5673L77.9052 64.2707C78.2854 64.4311 78.7147 64.4311 79.0949 64.2707Z" fill="#0090CE" transform="matrix(1.00637 0 0 1 986 779)"/><path d="M83.4063 74.1203 83.4063 154.308C83.4063 155.393 84.5019 156.134 85.5089 155.732L153.916 128.369C155.778 127.624 157 125.82 157 123.814L157 44.4246C157 43.328 155.882 42.586 154.872 43.0116L84.3446 72.7073C83.7761 72.9468 83.4063 73.5033 83.4063 74.1203Z" fill="#0090CE" transform="matrix(1.00637 0 0 1 986 779)"/></g></g></g><text fill="#0090CE" font-family="Poppins,Poppins_MSFontService,sans-serif" font-weight="700" font-size="64" transform="matrix(1 0 0 1 2662.65 877)">Infra_v1.2</text><g clip-path="url(#clip7)"><g clip-path="url(#clip8)"><g clip-path="url(#clip9)"><path d="" stroke="#000000" stroke-width="9.81251" stroke-linecap="round" stroke-linejoin="round" stroke-miterlimit="10" fill="none" transform="matrix(1.00637 0 0 1 2472 779)"/><path d="" stroke="#000000" stroke-width="9.81251" stroke-linecap="round" stroke-linejoin="round" stroke-miterlimit="10" fill="none" transform="matrix(1.00637 0 0 1 2472 779)"/><path d="M72.6555 72.7073 2.12809 43.0116C1.11771 42.586 -8.17057e-16 43.328 -8.17057e-16 44.4246L-8.17057e-16 123.814C-8.17057e-16 125.82 1.22135 127.624 3.08419 128.369L71.4912 155.732C72.4982 156.134 73.5938 155.393 73.5938 154.308L73.5938 74.1203C73.5938 73.5033 73.224 72.9468 72.6555 72.7073Z" fill="#0090CE" transform="matrix(1.00637 0 0 1 2472 779)"/><path d="M79.0949 64.2707 147.266 35.5673C148.491 35.0515 148.524 33.327 147.319 32.7649L80.5748 1.61753C79.2596 1.00394 77.7405 1.00394 76.4253 1.61753L9.68096 32.7649C8.47616 33.327 8.50898 35.0515 9.73431 35.5673L77.9052 64.2707C78.2854 64.4311 78.7147 64.4311 79.0949 64.2707Z" fill="#0090CE" transform="matrix(1.00637 0 0 1 2472 779)"/><path d="M83.4063 74.1203 83.4063 154.308C83.4063 155.393 84.5019 156.134 85.5089 155.732L153.916 128.369C155.778 127.624 157 125.82 157 123.814L157 44.4246C157 43.328 155.882 42.586 154.872 43.0116L84.3446 72.7073C83.7761 72.9468 83.4063 73.5033 83.4063 74.1203Z" fill="#0090CE" transform="matrix(1.00637 0 0 1 2472 779)"/></g></g></g><g clip-path="url(#clip10)"><g clip-path="url(#clip11)"><g clip-path="url(#clip12)"><path d="" stroke="#000000" stroke-width="9.87501" stroke-linecap="round" stroke-linejoin="round" stroke-miterlimit="10" fill="none"/><path d="" stroke="#000000" stroke-width="9.87501" stroke-linecap="round" stroke-linejoin="round" stroke-miterlimit="10" fill="none"/><path d="M1059.12 1045.17 988.142 1015.29C987.125 1014.86 986 1015.6 986 1016.71L986 1096.6C986 1098.62 987.229 1100.44 989.104 1101.19L1057.95 1128.72C1058.96 1129.13 1060.06 1128.38 1060.06 1127.29L1060.06 1046.59C1060.06 1045.97 1059.69 1045.41 1059.12 1045.17Z" fill="#F18618"/><path d="M1065.6 1036.68 1134.2 1007.79C1135.44 1007.27 1135.47 1005.54 1134.26 1004.97L1067.09 973.628C1065.76 973.01 1064.24 973.01 1062.91 973.628L995.742 1004.97C994.53 1005.54 994.563 1007.27 995.796 1007.79L1064.4 1036.68C1064.78 1036.84 1065.22 1036.84 1065.6 1036.68Z" fill="#F18618"/><path d="M1069.94 1046.59 1069.94 1127.29C1069.94 1128.38 1071.04 1129.13 1072.05 1128.72L1140.9 1101.19C1142.77 1100.44 1144 1098.62 1144 1096.6L1144 1016.71C1144 1015.6 1142.88 1014.86 1141.86 1015.29L1070.88 1045.17C1070.31 1045.41 1069.94 1045.97 1069.94 1046.59Z" fill="#F18618"/></g></g></g><g clip-path="url(#clip13)"><g clip-path="url(#clip14)"><g clip-path="url(#clip15)"><path d="" stroke="#000000" stroke-width="9.87501" stroke-linecap="round" stroke-linejoin="round" stroke-miterlimit="10" fill="none"/><path d="" stroke="#000000" stroke-width="9.87501" stroke-linecap="round" stroke-linejoin="round" stroke-miterlimit="10" fill="none"/><path d="M1059.12 1241.17 988.142 1211.29C987.125 1210.86 986 1211.6 986 1212.71L986 1292.6C986 1294.62 987.229 1296.44 989.104 1297.19L1057.95 1324.72C1058.96 1325.13 1060.06 1324.38 1060.06 1323.29L1060.06 1242.59C1060.06 1241.97 1059.69 1241.41 1059.12 1241.17Z" fill="#F18618"/><path d="M1065.6 1232.68 1134.2 1203.79C1135.44 1203.27 1135.47 1201.54 1134.26 1200.97L1067.09 1169.63C1065.76 1169.01 1064.24 1169.01 1062.91 1169.63L995.742 1200.97C994.53 1201.54 994.563 1203.27 995.796 1203.79L1064.4 1232.68C1064.78 1232.84 1065.22 1232.84 1065.6 1232.68Z" fill="#F18618"/><path d="M1069.94 1242.59 1069.94 1323.29C1069.94 1324.38 1071.04 1325.13 1072.05 1324.72L1140.9 1297.19C1142.77 1296.44 1144 1294.62 1144 1292.6L1144 1212.71C1144 1211.6 1142.88 1210.86 1141.86 1211.29L1070.88 1241.17C1070.31 1241.41 1069.94 1241.97 1069.94 1242.59Z" fill="#F18618"/></g></g></g><text fill="#F18618" font-family="Poppins,Poppins_MSFontService,sans-serif" font-weight="700" font-size="64" transform="matrix(1 0 0 1 1176.94 1071)">Web1_v1.0<tspan font-size="64" x="0" y="196">Web2_v1.0</tspan></text><g clip-path="url(#clip16)"><g clip-path="url(#clip17)"><g clip-path="url(#clip18)"><path d="" stroke="#000000" stroke-width="9.81251" stroke-linecap="round" stroke-linejoin="round" stroke-miterlimit="10" fill="none" transform="matrix(1.00637 0 0 1 1732 779)"/><path d="" stroke="#000000" stroke-width="9.81251" stroke-linecap="round" stroke-linejoin="round" stroke-miterlimit="10" fill="none" transform="matrix(1.00637 0 0 1 1732 779)"/><path d="M72.6555 72.7073 2.12809 43.0116C1.11771 42.586 -8.17057e-16 43.328 -8.17057e-16 44.4246L-8.17057e-16 123.814C-8.17057e-16 125.82 1.22135 127.624 3.08419 128.369L71.4912 155.732C72.4982 156.134 73.5938 155.393 73.5938 154.308L73.5938 74.1203C73.5938 73.5033 73.224 72.9468 72.6555 72.7073Z" fill="#F18618" transform="matrix(1.00637 0 0 1 1732 779)"/><path d="M79.0949 64.2707 147.266 35.5673C148.491 35.0515 148.524 33.327 147.319 32.7649L80.5748 1.61753C79.2596 1.00394 77.7405 1.00394 76.4253 1.61753L9.68096 32.7649C8.47616 33.327 8.50898 35.0515 9.73431 35.5673L77.9052 64.2707C78.2854 64.4311 78.7147 64.4311 79.0949 64.2707Z" fill="#F18618" transform="matrix(1.00637 0 0 1 1732 779)"/><path d="M83.4063 74.1203 83.4063 154.308C83.4063 155.393 84.5019 156.134 85.5089 155.732L153.916 128.369C155.778 127.624 157 125.82 157 123.814L157 44.4246C157 43.328 155.882 42.586 154.872 43.0116L84.3446 72.7073C83.7761 72.9468 83.4063 73.5033 83.4063 74.1203Z" fill="#F18618" transform="matrix(1.00637 0 0 1 1732 779)"/></g></g></g><g clip-path="url(#clip19)"><g clip-path="url(#clip20)"><g clip-path="url(#clip21)"><path d="" stroke="#000000" stroke-width="9.87499" stroke-linecap="round" stroke-linejoin="round" stroke-miterlimit="10" fill="none"/><path d="" stroke="#000000" stroke-width="9.87499" stroke-linecap="round" stroke-linejoin="round" stroke-miterlimit="10" fill="none"/><path d="M1805.12 1047.17 1734.14 1017.29C1733.12 1016.86 1732 1017.6 1732 1018.71L1732 1098.6C1732 1100.62 1733.23 1102.44 1735.1 1103.19L1803.95 1130.72C1804.96 1131.13 1806.06 1130.38 1806.06 1129.29L1806.06 1048.59C1806.06 1047.97 1805.69 1047.41 1805.12 1047.17Z" fill="#855FA5"/><path d="M1811.6 1038.68 1880.2 1009.79C1881.44 1009.27 1881.47 1007.54 1880.26 1006.97L1813.09 975.628C1811.76 975.01 1810.24 975.01 1808.91 975.628L1741.74 1006.97C1740.53 1007.54 1740.56 1009.27 1741.8 1009.79L1810.4 1038.68C1810.78 1038.84 1811.22 1038.84 1811.6 1038.68Z" fill="#855FA5"/><path d="M1815.94 1048.59 1815.94 1129.29C1815.94 1130.38 1817.04 1131.13 1818.05 1130.72L1886.9 1103.19C1888.77 1102.44 1890 1100.62 1890 1098.6L1890 1018.71C1890 1017.6 1888.88 1016.86 1887.86 1017.29L1816.88 1047.17C1816.31 1047.41 1815.94 1047.97 1815.94 1048.59Z" fill="#855FA5"/></g></g></g><text fill="#F18618" font-family="Poppins,Poppins_MSFontService,sans-serif" font-weight="700" font-size="64" transform="matrix(1 0 0 1 1923.08 877)">Web1_v1.1<tspan fill="#855FA5" font-size="64" x="0" y="196">Lib1_v1.0</tspan></text><g clip-path="url(#clip22)"><g clip-path="url(#clip23)"><g clip-path="url(#clip24)"><path d="" stroke="#000000" stroke-width="9.87499" stroke-linecap="round" stroke-linejoin="round" stroke-miterlimit="10" fill="none"/><path d="" stroke="#000000" stroke-width="9.87499" stroke-linecap="round" stroke-linejoin="round" stroke-miterlimit="10" fill="none"/><path d="M1805.12 1241.17 1734.14 1211.29C1733.12 1210.86 1732 1211.6 1732 1212.71L1732 1292.6C1732 1294.62 1733.23 1296.44 1735.1 1297.19L1803.95 1324.72C1804.96 1325.13 1806.06 1324.38 1806.06 1323.29L1806.06 1242.59C1806.06 1241.97 1805.69 1241.41 1805.12 1241.17Z" fill="#F18618"/><path d="M1811.6 1232.68 1880.2 1203.79C1881.44 1203.27 1881.47 1201.54 1880.26 1200.97L1813.09 1169.63C1811.76 1169.01 1810.24 1169.01 1808.91 1169.63L1741.74 1200.97C1740.53 1201.54 1740.56 1203.27 1741.8 1203.79L1810.4 1232.68C1810.78 1232.84 1811.22 1232.84 1811.6 1232.68Z" fill="#F18618"/><path d="M1815.94 1242.59 1815.94 1323.29C1815.94 1324.38 1817.04 1325.13 1818.05 1324.72L1886.9 1297.19C1888.77 1296.44 1890 1294.62 1890 1292.6L1890 1212.71C1890 1211.6 1888.88 1210.86 1887.86 1211.29L1816.88 1241.17C1816.31 1241.41 1815.94 1241.97 1815.94 1242.59Z" fill="#F18618"/></g></g></g><text fill="#F18618" font-family="Poppins,Poppins_MSFontService,sans-serif" font-weight="700" font-size="64" transform="matrix(1 0 0 1 1923.08 1267)">Batch1_v1.0</text><path d="M271.5 901.5C271.5 894.873 276.873 889.5 283.5 889.5L424.5 889.5C431.127 889.5 436.5 894.873 436.5 901.5L436.5 949.5C436.5 956.127 431.127 961.5 424.5 961.5L283.5 961.5C276.873 961.5 271.5 956.127 271.5 949.5Z" stroke="#00B050" stroke-width="4.58333" stroke-miterlimit="8" fill="#00B050" fill-rule="evenodd"/><text fill="#FEFEFE" font-family="Poppins,Poppins_MSFontService,sans-serif" font-weight="700" font-size="37" transform="matrix(1 0 0 1 310.543 937)">NEW</text><path d="M1037.5 1094.5C1037.5 1087.87 1042.87 1082.5 1049.5 1082.5L1190.5 1082.5C1197.13 1082.5 1202.5 1087.87 1202.5 1094.5L1202.5 1142.5C1202.5 1149.13 1197.13 1154.5 1190.5 1154.5L1049.5 1154.5C1042.87 1154.5 1037.5 1149.13 1037.5 1142.5Z" stroke="#00B050" stroke-width="4.58333" stroke-miterlimit="8" fill="#00B050" fill-rule="evenodd"/><text fill="#FEFEFE" font-family="Poppins,Poppins_MSFontService,sans-serif" font-weight="700" font-size="37" transform="matrix(1 0 0 1 1076.64 1130)">NEW</text><path d="M1037.5 1301.5C1037.5 1294.87 1042.87 1289.5 1049.5 1289.5L1190.5 1289.5C1197.13 1289.5 1202.5 1294.87 1202.5 1301.5L1202.5 1349.5C1202.5 1356.13 1197.13 1361.5 1190.5 1361.5L1049.5 1361.5C1042.87 1361.5 1037.5 1356.13 1037.5 1349.5Z" stroke="#00B050" stroke-width="4.58333" stroke-miterlimit="8" fill="#00B050" fill-rule="evenodd"/><text fill="#FEFEFE" font-family="Poppins,Poppins_MSFontService,sans-serif" font-weight="700" font-size="37" transform="matrix(1 0 0 1 1076.64 1337)">NEW</text><path d="M1774.5 1094.5C1774.5 1087.87 1779.87 1082.5 1786.5 1082.5L1926.5 1082.5C1933.13 1082.5 1938.5 1087.87 1938.5 1094.5L1938.5 1142.5C1938.5 1149.13 1933.13 1154.5 1926.5 1154.5L1786.5 1154.5C1779.87 1154.5 1774.5 1149.13 1774.5 1142.5Z" stroke="#00B050" stroke-width="4.58333" stroke-miterlimit="8" fill="#00B050" fill-rule="evenodd"/><text fill="#FEFEFE" font-family="Poppins,Poppins_MSFontService,sans-serif" font-weight="700" font-size="37" transform="matrix(1 0 0 1 1812.93 1130)">NEW</text><path d="M1774.5 1301.5C1774.5 1294.87 1779.87 1289.5 1786.5 1289.5L1926.5 1289.5C1933.13 1289.5 1938.5 1294.87 1938.5 1301.5L1938.5 1349.5C1938.5 1356.13 1933.13 1361.5 1926.5 1361.5L1786.5 1361.5C1779.87 1361.5 1774.5 1356.13 1774.5 1349.5Z" stroke="#00B050" stroke-width="4.58333" stroke-miterlimit="8" fill="#00B050" fill-rule="evenodd"/><text fill="#FEFEFE" font-family="Poppins,Poppins_MSFontService,sans-serif" font-weight="700" font-size="37" transform="matrix(1 0 0 1 1812.93 1337)">NEW</text><g clip-path="url(#clip25)"><g clip-path="url(#clip26)"><g clip-path="url(#clip27)"><path d="" stroke="#000000" stroke-width="9.87501" stroke-linecap="round" stroke-linejoin="round" stroke-miterlimit="10" fill="none"/><path d="" stroke="#000000" stroke-width="9.87501" stroke-linecap="round" stroke-linejoin="round" stroke-miterlimit="10" fill="none"/><path d="M2545.12 1045.17 2474.14 1015.29C2473.12 1014.86 2472 1015.6 2472 1016.71L2472 1096.6C2472 1098.62 2473.23 1100.44 2475.1 1101.19L2543.95 1128.72C2544.96 1129.13 2546.06 1128.38 2546.06 1127.29L2546.06 1046.59C2546.06 1045.97 2545.69 1045.41 2545.12 1045.17Z" fill="#F18618"/><path d="M2551.6 1036.68 2620.2 1007.79C2621.44 1007.27 2621.47 1005.54 2620.26 1004.97L2553.09 973.628C2551.76 973.01 2550.24 973.01 2548.91 973.628L2481.74 1004.97C2480.53 1005.54 2480.56 1007.27 2481.8 1007.79L2550.4 1036.68C2550.78 1036.84 2551.22 1036.84 2551.6 1036.68Z" fill="#F18618"/><path d="M2555.94 1046.59 2555.94 1127.29C2555.94 1128.38 2557.04 1129.13 2558.05 1128.72L2626.9 1101.19C2628.77 1100.44 2630 1098.62 2630 1096.6L2630 1016.71C2630 1015.6 2628.88 1014.86 2627.86 1015.29L2556.88 1045.17C2556.31 1045.41 2555.94 1045.97 2555.94 1046.59Z" fill="#F18618"/></g></g></g><g clip-path="url(#clip28)"><g clip-path="url(#clip29)"><g clip-path="url(#clip30)"><path d="" stroke="#000000" stroke-width="9.87501" stroke-linecap="round" stroke-linejoin="round" stroke-miterlimit="10" fill="none"/><path d="" stroke="#000000" stroke-width="9.87501" stroke-linecap="round" stroke-linejoin="round" stroke-miterlimit="10" fill="none"/><path d="M2545.12 1241.17 2474.14 1211.29C2473.12 1210.86 2472 1211.6 2472 1212.71L2472 1292.6C2472 1294.62 2473.23 1296.44 2475.1 1297.19L2543.95 1324.72C2544.96 1325.13 2546.06 1324.38 2546.06 1323.29L2546.06 1242.59C2546.06 1241.97 2545.69 1241.41 2545.12 1241.17Z" fill="#F18618"/><path d="M2551.6 1232.68 2620.2 1203.79C2621.44 1203.27 2621.47 1201.54 2620.26 1200.97L2553.09 1169.63C2551.76 1169.01 2550.24 1169.01 2548.91 1169.63L2481.74 1200.97C2480.53 1201.54 2480.56 1203.27 2481.8 1203.79L2550.4 1232.68C2550.78 1232.84 2551.22 1232.84 2551.6 1232.68Z" fill="#F18618"/><path d="M2555.94 1242.59 2555.94 1323.29C2555.94 1324.38 2557.04 1325.13 2558.05 1324.72L2626.9 1297.19C2628.77 1296.44 2630 1294.62 2630 1292.6L2630 1212.71C2630 1211.6 2628.88 1210.86 2627.86 1211.29L2556.88 1241.17C2556.31 1241.41 2555.94 1241.97 2555.94 1242.59Z" fill="#F18618"/></g></g></g><text fill="#F18618" font-family="Poppins,Poppins_MSFontService,sans-serif" font-weight="700" font-size="64" transform="matrix(1 0 0 1 2662.65 1071)">Web1_v1.2<tspan font-size="64" x="0" y="196">Web2_v1.0</tspan></text><g clip-path="url(#clip31)"><g clip-path="url(#clip32)"><g clip-path="url(#clip33)"><path d="" stroke="#000000" stroke-width="9.81251" stroke-linecap="round" stroke-linejoin="round" stroke-miterlimit="10" fill="none" transform="matrix(1.00637 0 0 1 2472 1362)"/><path d="" stroke="#000000" stroke-width="9.81251" stroke-linecap="round" stroke-linejoin="round" stroke-miterlimit="10" fill="none" transform="matrix(1.00637 0 0 1 2472 1362)"/><path d="M72.6555 72.7073 2.12809 43.0116C1.11771 42.586 -8.17057e-16 43.328 -8.17057e-16 44.4246L-8.17057e-16 123.814C-8.17057e-16 125.82 1.22135 127.624 3.08419 128.369L71.4912 155.732C72.4982 156.134 73.5938 155.393 73.5938 154.308L73.5938 74.1203C73.5938 73.5033 73.224 72.9468 72.6555 72.7073Z" fill="#F18618" transform="matrix(1.00637 0 0 1 2472 1362)"/><path d="M79.0949 64.2707 147.266 35.5673C148.491 35.0515 148.524 33.327 147.319 32.7649L80.5748 1.61753C79.2596 1.00394 77.7405 1.00394 76.4253 1.61753L9.68096 32.7649C8.47616 33.327 8.50898 35.0515 9.73431 35.5673L77.9052 64.2707C78.2854 64.4311 78.7147 64.4311 79.0949 64.2707Z" fill="#F18618" transform="matrix(1.00637 0 0 1 2472 1362)"/><path d="M83.4063 74.1203 83.4063 154.308C83.4063 155.393 84.5019 156.134 85.5089 155.732L153.916 128.369C155.778 127.624 157 125.82 157 123.814L157 44.4246C157 43.328 155.882 42.586 154.872 43.0116L84.3446 72.7073C83.7761 72.9468 83.4063 73.5033 83.4063 74.1203Z" fill="#F18618" transform="matrix(1.00637 0 0 1 2472 1362)"/></g></g></g><text fill="#F18618" font-family="Poppins,Poppins_MSFontService,sans-serif" font-weight="700" font-size="64" transform="matrix(1 0 0 1 2662.65 1460)">Batch2_v1.0</text><path d="M2513.5 1288.5C2513.5 1281.87 2518.87 1276.5 2525.5 1276.5L2727.5 1276.5C2734.13 1276.5 2739.5 1281.87 2739.5 1288.5L2739.5 1336.5C2739.5 1343.13 2734.13 1348.5 2727.5 1348.5L2525.5 1348.5C2518.87 1348.5 2513.5 1343.13 2513.5 1336.5Z" stroke="#C00000" stroke-width="4.58333" stroke-miterlimit="8" fill="#C00000" fill-rule="evenodd"/><text fill="#FEFEFE" font-family="Poppins,Poppins_MSFontService,sans-serif" font-weight="700" font-size="37" transform="matrix(1 0 0 1 2552.02 1324)">DECOM.</text><path d="M2513.5 1494.67C2513.5 1487.95 2518.95 1482.5 2525.67 1482.5L2666.33 1482.5C2673.05 1482.5 2678.5 1487.95 2678.5 1494.67L2678.5 1543.33C2678.5 1550.05 2673.05 1555.5 2666.33 1555.5L2525.67 1555.5C2518.95 1555.5 2513.5 1550.05 2513.5 1543.33Z" stroke="#00B050" stroke-width="4.58333" stroke-miterlimit="8" fill="#00B050" fill-rule="evenodd"/><text fill="#FEFEFE" font-family="Poppins,Poppins_MSFontService,sans-serif" font-weight="700" font-size="37" transform="matrix(1 0 0 1 2552.49 1531)">NEW</text></g></svg>