<svg width="4591" height="1536" xmlns="http://www.w3.org/2000/svg" xmlns:xlink="http://www.w3.org/1999/xlink" overflow="hidden"><defs><clipPath id="clip0"><rect x="-93" y="503" width="4591" height="1536"/></clipPath></defs><g clip-path="url(#clip0)" transform="translate(93 -503)"><path d="M716 645 1431.5 645 1497 710.5 1431.5 776 716 776Z" fill="#BEBEBE" fill-rule="evenodd"/><text fill="#FEFEFE" font-family="Poppins,Poppins_MSFontService,sans-serif" font-weight="400" font-size="83" transform="matrix(1 0 0 1 934.764 737)">Sprint <tspan font-size="83" x="259.531" y="0">X</tspan></text><path d="M1473.5 645.5 2165 645.5 2230.5 711 2165 776.5 1473.5 776.5 1539 711Z" stroke="#FEFEFE" stroke-width="6.875" stroke-miterlimit="8" fill="#BEBEBE" fill-rule="evenodd"/><text fill="#FEFEFE" font-family="Poppins,Poppins_MSFontService,sans-serif" font-weight="400" font-size="83" transform="matrix(1 0 0 1 1654.69 737)">Sprint <tspan font-size="83" x="259.531" y="0">X+1</tspan></text><path d="M2206.5 645.5 2898 645.5 2963.5 711 2898 776.5 2206.5 776.5 2272 711Z" stroke="#FEFEFE" stroke-width="6.875" stroke-miterlimit="8" fill="#BEBEBE" fill-rule="evenodd"/><text fill="#FEFEFE" font-family="Poppins,Poppins_MSFontService,sans-serif" font-weight="400" font-size="83" transform="matrix(1 0 0 1 2377.26 737)">Sprint <tspan font-size="83" x="259.531" y="0">X+2</tspan></text><path d="M2939.5 647.5 3630 647.5 3695.5 713 3630 778.5 2939.5 778.5 3005 713Z" stroke="#FEFEFE" stroke-width="6.875" stroke-miterlimit="8" fill="#BEBEBE" fill-rule="evenodd"/><text fill="#FEFEFE" font-family="Poppins,Poppins_MSFontService,sans-serif" font-weight="400" font-size="83" transform="matrix(1 0 0 1 3109.35 739)">Sprint <tspan font-size="83" x="259.531" y="0">X+3</tspan></text><path d="M0 0 0.000360892 1230.26" stroke="#7F7F7F" stroke-width="4.58333" stroke-miterlimit="8" stroke-dasharray="18.3333 13.75" fill="none" fill-rule="evenodd" transform="matrix(1 0 0 -1 722.5 1847.76)"/><text fill="#7F7F7F" font-family="Poppins,Poppins_MSFontService,sans-serif" font-weight="700" font-size="64" transform="matrix(1 0 0 1 682.43 581)">S0</text><path d="M0 0 0.000360892 1230.26" stroke="#7F7F7F" stroke-width="4.58333" stroke-miterlimit="8" stroke-dasharray="18.3333 13.75" fill="none" fill-rule="evenodd" transform="matrix(1 0 0 -1 1487.5 1847.76)"/><text fill="#7F7F7F" font-family="Poppins,Poppins_MSFontService,sans-serif" font-weight="700" font-size="64" transform="matrix(1 0 0 1 1447.12 581)">S3</text><path d="M0 0 0.000360892 1230.08" stroke="#7F7F7F" stroke-width="4.58333" stroke-miterlimit="8" stroke-dasharray="18.3333 13.75" fill="none" fill-rule="evenodd" transform="matrix(1 0 0 -1 2214.5 1847.58)"/><text fill="#7F7F7F" font-family="Poppins,Poppins_MSFontService,sans-serif" font-weight="700" font-size="64" transform="matrix(1 0 0 1 2173.96 581)">S6</text><path d="M0 0 0.000360892 1230.08" stroke="#7F7F7F" stroke-width="4.58333" stroke-miterlimit="8" stroke-dasharray="18.3333 13.75" fill="none" fill-rule="evenodd" transform="matrix(1 0 0 -1 2941.5 1847.58)"/><text fill="#7F7F7F" font-family="Poppins,Poppins_MSFontService,sans-serif" font-weight="700" font-size="64" transform="matrix(1 0 0 1 2900.8 581)">S9</text><path d="M0 0 0.000360892 1230.08" stroke="#7F7F7F" stroke-width="4.58333" stroke-miterlimit="8" stroke-dasharray="18.3333 13.75" fill="none" fill-rule="evenodd" transform="matrix(1 0 0 -1 3673.5 1847.58)"/><text fill="#7F7F7F" font-family="Poppins,Poppins_MSFontService,sans-serif" font-weight="700" font-size="64" transform="matrix(1 0 0 1 3615.39 581)">S12<tspan fill="#051922" font-size="64" x="-3106.95" y="284">RTU</tspan><tspan fill="#051922" font-size="64" x="-3579.03" y="361">TEST INTEGRATION</tspan></text><rect x="792" y="827" width="306" height="109" fill="#6C75B7"/><text fill="#FEFEFE" font-family="Poppins,Poppins_MSFontService,sans-serif" font-weight="400" font-size="83" transform="matrix(1 0 0 1 844.841 908)">US#1</text><rect x="1129" y="827" width="307" height="109" fill="#46BBC3"/><text fill="#FEFEFE" font-family="Poppins,Poppins_MSFontService,sans-serif" font-weight="400" font-size="83" transform="matrix(1 0 0 1 1171.97 908)">US#2</text><rect x="1531" y="827" width="306" height="109" fill="#9E4694"/><text fill="#FEFEFE" font-family="Poppins,Poppins_MSFontService,sans-serif" font-weight="400" font-size="83" transform="matrix(1 0 0 1 1572.79 908)">US#3</text><rect x="1868" y="827" width="307" height="109" fill="#68BD9F"/><text fill="#FEFEFE" font-family="Poppins,Poppins_MSFontService,sans-serif" font-weight="400" font-size="83" transform="matrix(1 0 0 1 1908.79 908)">US#4</text><rect x="2259" y="827" width="307" height="109" fill="#855FA5"/><text fill="#FEFEFE" font-family="Poppins,Poppins_MSFontService,sans-serif" font-weight="400" font-size="83" transform="matrix(1 0 0 1 2300.18 908)">US#5</text><rect x="2597" y="827" width="307" height="109" fill="#AB2774"/><text fill="#FEFEFE" font-family="Poppins,Poppins_MSFontService,sans-serif" font-weight="400" font-size="83" transform="matrix(1 0 0 1 2637.61 908)">US#6<tspan fill="#051922" font-weight="700" font-size="64" x="-2275.27" y="386">RECETTE</tspan><tspan fill="#051922" font-weight="700" font-size="64" x="-2520.48" y="463">FONCTIONNELLE</tspan></text><path d="M0 0 4278.56 0.000360892" stroke="#E5E5E5" stroke-width="4.58333" stroke-miterlimit="8" stroke-dasharray="18.3333 13.75" fill="none" fill-rule="evenodd" transform="matrix(-1 0 0 1 4400.06 1151.5)"/><rect x="1531" y="959" width="306" height="109" fill="#6C75B7"/><text fill="#FEFEFE" font-family="Poppins,Poppins_MSFontService,sans-serif" font-weight="400" font-size="83" transform="matrix(1 0 0 1 1583.96 1040)">US#1</text><path d="M1658.5 1043.33C1658.5 1037.35 1663.35 1032.5 1669.33 1032.5L1847.67 1032.5C1853.65 1032.5 1858.5 1037.35 1858.5 1043.33L1858.5 1086.67C1858.5 1092.65 1853.65 1097.5 1847.67 1097.5L1669.33 1097.5C1663.35 1097.5 1658.5 1092.65 1658.5 1086.67Z" stroke="#C00000" stroke-width="4.58333" stroke-miterlimit="8" fill="#FF0000" fill-rule="evenodd"/><text fill="#FEFEFE" font-family="Poppins,Poppins_MSFontService,sans-serif" font-weight="700" font-size="32" transform="matrix(1 0 0 1 1699.21 1075)">HOTFIX</text><rect x="1868" y="1183" width="307" height="109" fill="#6C75B7"/><text fill="#FEFEFE" font-family="Poppins,Poppins_MSFontService,sans-serif" font-weight="400" font-size="83" transform="matrix(1 0 0 1 1921.68 1264)">US#1</text><rect x="1533" y="1183" width="307" height="109" fill="#46BBC3"/><text fill="#FEFEFE" font-family="Poppins,Poppins_MSFontService,sans-serif" font-weight="400" font-size="83" transform="matrix(1 0 0 1 1576.01 1264)">US#2</text><rect x="2258" y="1330" width="307" height="109" fill="#6C75B7"/><text fill="#FEFEFE" font-family="Poppins,Poppins_MSFontService,sans-serif" font-weight="400" font-size="83" transform="matrix(1 0 0 1 2311.34 1411)">US#1</text><rect x="2258" y="1186" width="307" height="109" fill="#9E4694"/><text fill="#FEFEFE" font-family="Poppins,Poppins_MSFontService,sans-serif" font-weight="400" font-size="83" transform="matrix(1 0 0 1 2300.17 1267)">US#3</text><rect x="2596" y="1186" width="306" height="109" fill="#68BD9F"/><text fill="#FEFEFE" font-family="Poppins,Poppins_MSFontService,sans-serif" font-weight="400" font-size="83" transform="matrix(1 0 0 1 2636.17 1267)">US#4</text><path d="M2385.5 1408.33C2385.5 1402.35 2390.35 1397.5 2396.33 1397.5L2574.67 1397.5C2580.65 1397.5 2585.5 1402.35 2585.5 1408.33L2585.5 1451.67C2585.5 1457.65 2580.65 1462.5 2574.67 1462.5L2396.33 1462.5C2390.35 1462.5 2385.5 1457.65 2385.5 1451.67Z" stroke="#C00000" stroke-width="4.58333" stroke-miterlimit="8" fill="#FF0000" fill-rule="evenodd"/><text fill="#FEFEFE" font-family="Poppins,Poppins_MSFontService,sans-serif" font-weight="700" font-size="32" transform="matrix(1 0 0 1 2426.04 1441)">HOTFIX</text><path d="M2128.09 1268.81 2136.03 1283.93 2135.99 1283.86 2143.99 1298.67 2143.92 1298.55 2152.05 1312.93 2151.93 1312.73 2160.24 1326.36 2160.07 1326.09 2168.64 1338.78 2168.37 1338.41 2177.3 1349.91 2177.01 1349.55 2181.63 1354.74 2181.42 1354.52 2186.11 1359.33 2185.82 1359.04 2190.69 1363.48 2190.35 1363.19 2195.29 1367.12 2194.83 1366.79 2199.95 1370.23 2199.62 1370.02 2204.81 1373.08 2204.27 1372.79 2209.65 1375.36 2209.32 1375.21 2214.75 1377.46 2214.08 1377.22 2225.26 1380.53 2224.59 1380.37 2236.15 1382.56 2235.28 1382.45 2249.04 1383.27 2248.22 1396.99 2234.03 1396.15 2221.69 1393.82 2209.83 1390.3 2203.89 1387.85 2198.08 1385.07 2192.46 1381.76 2186.94 1378.05 2181.6 1373.8 2176.41 1369.07 2171.47 1364 2166.59 1358.53 2157.37 1346.66 2148.59 1333.65 2140.13 1319.8 2131.92 1305.26 2123.87 1290.36 2115.91 1275.19ZM2242.13 1369.38 2283 1390.75 2241.38 1410.63Z" fill="#92D050"/><rect x="2259" y="961" width="306" height="109" fill="#68BD9F"/><text fill="#FEFEFE" font-family="Poppins,Poppins_MSFontService,sans-serif" font-weight="400" font-size="83" transform="matrix(1 0 0 1 2298.99 1042)">US#4</text><path d="M2390.5 1042.33C2390.5 1036.35 2395.35 1031.5 2401.33 1031.5L2580.67 1031.5C2586.65 1031.5 2591.5 1036.35 2591.5 1042.33L2591.5 1085.67C2591.5 1091.65 2586.65 1096.5 2580.67 1096.5L2401.33 1096.5C2395.35 1096.5 2390.5 1091.65 2390.5 1085.67Z" stroke="#C00000" stroke-width="4.58333" stroke-miterlimit="8" fill="#FF0000" fill-rule="evenodd"/><text fill="#FEFEFE" font-family="Poppins,Poppins_MSFontService,sans-serif" font-weight="700" font-size="32" transform="matrix(1 0 0 1 2431.45 1074)">HOTFIX</text><rect x="2982" y="1187" width="307" height="109" fill="#855FA5"/><text fill="#FEFEFE" font-family="Poppins,Poppins_MSFontService,sans-serif" font-weight="400" font-size="83" transform="matrix(1 0 0 1 3022.74 1268)">US#5</text><rect x="3320" y="1187" width="306" height="109" fill="#AB2774"/><text fill="#FEFEFE" font-family="Poppins,Poppins_MSFontService,sans-serif" font-weight="400" font-size="83" transform="matrix(1 0 0 1 3360.17 1268)">US#6</text><rect x="2984" y="1324" width="307" height="109" fill="#68BD9F"/><text fill="#FEFEFE" font-family="Poppins,Poppins_MSFontService,sans-serif" font-weight="400" font-size="83" transform="matrix(1 0 0 1 3024.84 1405)">US#4</text><path d="M3116.5 1405.33C3116.5 1399.35 3121.35 1394.5 3127.33 1394.5L3305.67 1394.5C3311.65 1394.5 3316.5 1399.35 3316.5 1405.33L3316.5 1448.67C3316.5 1454.65 3311.65 1459.5 3305.67 1459.5L3127.33 1459.5C3121.35 1459.5 3116.5 1454.65 3116.5 1448.67Z" stroke="#C00000" stroke-width="4.58333" stroke-miterlimit="8" fill="#FF0000" fill-rule="evenodd"/><text fill="#FEFEFE" font-family="Poppins,Poppins_MSFontService,sans-serif" font-weight="700" font-size="32" transform="matrix(1 0 0 1 3157.3 1438)">HOTFIX</text><path d="M2847.09 1271.81 2855.03 1286.93 2854.99 1286.86 2862.99 1301.67 2862.92 1301.55 2871.05 1315.93 2870.93 1315.73 2879.24 1329.36 2879.07 1329.09 2887.64 1341.78 2887.37 1341.41 2896.3 1352.91 2896.01 1352.55 2900.63 1357.74 2900.42 1357.52 2905.11 1362.33 2904.82 1362.04 2909.69 1366.48 2909.35 1366.19 2914.29 1370.12 2913.83 1369.79 2918.95 1373.23 2918.62 1373.02 2923.81 1376.08 2923.27 1375.79 2928.65 1378.36 2928.32 1378.21 2933.75 1380.46 2933.08 1380.22 2944.26 1383.53 2943.59 1383.37 2955.15 1385.56 2954.28 1385.45 2968.04 1386.27 2967.22 1399.99 2953.03 1399.15 2940.69 1396.82 2928.83 1393.3 2922.89 1390.85 2917.08 1388.07 2911.46 1384.76 2905.94 1381.05 2900.6 1376.8 2895.41 1372.07 2890.47 1367 2885.59 1361.53 2876.37 1349.66 2867.59 1336.65 2859.13 1322.8 2850.92 1308.26 2842.87 1293.36 2834.91 1278.19ZM2961.13 1372.38 3002 1393.75 2960.38 1413.63Z" fill="#92D050"/><path d="M0 0 4295.68 0.000360892" stroke="#E5E5E5" stroke-width="4.58333" stroke-miterlimit="8" stroke-dasharray="18.3333 13.75" fill="none" fill-rule="evenodd" transform="matrix(-1 0 0 1 4412.18 1506.5)"/><text fill="#051922" font-family="Poppins,Poppins_MSFontService,sans-serif" font-weight="700" font-size="64" transform="matrix(1 0 0 1 156.103 1722)">MISE EN PROD.</text><path d="M3677.5 647.5 4369 647.5 4434.5 713 4369 778.5 3677.5 778.5 3743 713Z" stroke="#FEFEFE" stroke-width="6.875" stroke-miterlimit="8" fill="#BEBEBE" fill-rule="evenodd"/><text fill="#FEFEFE" font-family="Poppins,Poppins_MSFontService,sans-serif" font-weight="400" font-size="83" transform="matrix(1 0 0 1 3846.17 739)">Sprint <tspan font-size="83" x="259.532" y="0">X+4</tspan></text><path d="M0 0 0.000360892 1230.08" stroke="#7F7F7F" stroke-width="4.58333" stroke-miterlimit="8" stroke-dasharray="18.3333 13.75" fill="none" fill-rule="evenodd" transform="matrix(1 0 0 -1 4412.5 1847.58)"/><text fill="#7F7F7F" font-family="Poppins,Poppins_MSFontService,sans-serif" font-weight="700" font-size="64" transform="matrix(1 0 0 1 4353.93 582)">S15</text><rect x="2259" y="1538" width="307" height="109" fill="#46BBC3"/><text fill="#FEFEFE" font-family="Poppins,Poppins_MSFontService,sans-serif" font-weight="400" font-size="83" transform="matrix(1 0 0 1 2302.17 1619)">US#2</text><rect x="2982" y="1542" width="307" height="109" fill="#6C75B7"/><text fill="#FEFEFE" font-family="Poppins,Poppins_MSFontService,sans-serif" font-weight="400" font-size="83" transform="matrix(1 0 0 1 3035.34 1623)">US#<tspan font-size="83" x="173.594" y="0">1</tspan></text><rect x="3724" y="1538" width="306" height="109" fill="#9E4694"/><text fill="#FEFEFE" font-family="Poppins,Poppins_MSFontService,sans-serif" font-weight="400" font-size="83" transform="matrix(1 0 0 1 3765.67 1619)">US#3</text><rect x="4061" y="1538" width="307" height="109" fill="#68BD9F"/><text fill="#FEFEFE" font-family="Poppins,Poppins_MSFontService,sans-serif" font-weight="400" font-size="83" transform="matrix(1 0 0 1 4101.67 1619)">US#4</text><rect x="3723" y="1684" width="306" height="109" fill="#855FA5"/><text fill="#FEFEFE" font-family="Poppins,Poppins_MSFontService,sans-serif" font-weight="400" font-size="83" transform="matrix(1 0 0 1 3763.51 1765)">US#5</text><rect x="4061" y="1684" width="306" height="109" fill="#AB2774"/><text fill="#FEFEFE" font-family="Poppins,Poppins_MSFontService,sans-serif" font-weight="400" font-size="83" transform="matrix(1 0 0 1 4100.95 1765)">US#6</text><path d="M3637 1835C3637 1850.74 3634.87 1863.5 3632.25 1863.5L2952.25 1863.5C2949.63 1863.5 2947.5 1876.26 2947.5 1892 2947.5 1876.26 2945.37 1863.5 2942.75 1863.5L2262.75 1863.5C2260.13 1863.5 2258 1850.74 2258 1835" stroke="#6C75B7" stroke-width="10.3125" stroke-miterlimit="8" fill="none" fill-rule="evenodd"/><text fill="#485192" font-family="Poppins,Poppins_MSFontService,sans-serif" font-weight="400" font-size="64" transform="matrix(1 0 0 1 2821.06 1966)">Option 1</text><path d="M4367 1833C4367 1848.46 4364.91 1861 4362.33 1861L4047.17 1861C4044.59 1861 4042.5 1873.54 4042.5 1889 4042.5 1873.54 4040.41 1861 4037.83 1861L3722.67 1861C3720.09 1861 3718 1848.46 3718 1833" stroke="#6C75B7" stroke-width="10.3125" stroke-miterlimit="8" fill="none" fill-rule="evenodd"/><text fill="#485192" font-family="Poppins,Poppins_MSFontService,sans-serif" font-weight="400" font-size="64" transform="matrix(1 0 0 1 3911.09 1982)">Option 2</text></g></svg>