<svg width="2989" height="799" xmlns="http://www.w3.org/2000/svg" xmlns:xlink="http://www.w3.org/1999/xlink" overflow="hidden"><defs><clipPath id="clip0"><rect x="157" y="570" width="2989" height="799"/></clipPath><clipPath id="clip1"><rect x="239" y="778" width="160" height="159"/></clipPath><clipPath id="clip2"><rect x="239" y="778" width="160" height="159"/></clipPath><clipPath id="clip3"><rect x="239" y="778" width="160" height="159"/></clipPath><clipPath id="clip4"><rect x="985" y="778" width="159" height="159"/></clipPath><clipPath id="clip5"><rect x="985" y="778" width="159" height="159"/></clipPath><clipPath id="clip6"><rect x="985" y="778" width="159" height="159"/></clipPath><clipPath id="clip7"><rect x="985" y="972" width="159" height="158"/></clipPath><clipPath id="clip8"><rect x="985" y="972" width="159" height="158"/></clipPath><clipPath id="clip9"><rect x="985" y="972" width="159" height="158"/></clipPath><clipPath id="clip10"><rect x="985" y="1168" width="159" height="158"/></clipPath><clipPath id="clip11"><rect x="985" y="1168" width="159" height="158"/></clipPath><clipPath id="clip12"><rect x="985" y="1168" width="159" height="158"/></clipPath></defs><g clip-path="url(#clip0)" transform="translate(-157 -570)"><path d="M160.5 579.5 877.001 579.5 942.5 645 877.001 710.5 160.5 710.5Z" stroke="#FEFEFE" stroke-width="6.875" stroke-miterlimit="8" fill="#BEBEBE" fill-rule="evenodd"/><text fill="#FEFEFE" font-family="Poppins,Poppins_MSFontService,sans-serif" font-weight="400" font-size="83" transform="matrix(1 0 0 1 379.056 671)">Sprint 0</text><path d="M917.5 579.5 1609 579.5 1674.5 645 1609 710.5 917.5 710.5 983 645Z" stroke="#FEFEFE" stroke-width="6.875" stroke-miterlimit="8" fill="#BEBEBE" fill-rule="evenodd"/><text fill="#FEFEFE" font-family="Poppins,Poppins_MSFontService,sans-serif" font-weight="400" font-size="83" transform="matrix(1 0 0 1 1152.84 671)">Sprint 1<tspan fill="#0090CE" font-weight="700" font-size="64" x="-722.051" y="208">Infra_v1.0</tspan><tspan fill="#0090CE" font-weight="700" font-size="64" x="24.0985" y="206">Infra_v1.1</tspan></text><g clip-path="url(#clip1)"><g clip-path="url(#clip2)"><g clip-path="url(#clip3)"><path d="" stroke="#000000" stroke-width="9.81251" stroke-linecap="round" stroke-linejoin="round" stroke-miterlimit="10" fill="none" transform="matrix(1.00637 0 0 1 240 779)"/><path d="" stroke="#000000" stroke-width="9.81251" stroke-linecap="round" stroke-linejoin="round" stroke-miterlimit="10" fill="none" transform="matrix(1.00637 0 0 1 240 779)"/><path d="M72.6555 72.7073 2.12809 43.0116C1.11771 42.586 -8.17057e-16 43.328 -8.17057e-16 44.4246L-8.17057e-16 123.814C-8.17057e-16 125.82 1.22135 127.624 3.08419 128.369L71.4912 155.732C72.4982 156.134 73.5938 155.393 73.5938 154.308L73.5938 74.1203C73.5938 73.5033 73.224 72.9468 72.6555 72.7073Z" fill="#0090CE" transform="matrix(1.00637 0 0 1 240 779)"/><path d="M79.0949 64.2707 147.266 35.5673C148.491 35.0515 148.524 33.327 147.319 32.7649L80.5748 1.61753C79.2596 1.00394 77.7405 1.00394 76.4253 1.61753L9.68096 32.7649C8.47616 33.327 8.50898 35.0515 9.73431 35.5673L77.9052 64.2707C78.2854 64.4311 78.7147 64.4311 79.0949 64.2707Z" fill="#0090CE" transform="matrix(1.00637 0 0 1 240 779)"/><path d="M83.4063 74.1203 83.4063 154.308C83.4063 155.393 84.5019 156.134 85.5089 155.732L153.916 128.369C155.778 127.624 157 125.82 157 123.814L157 44.4246C157 43.328 155.882 42.586 154.872 43.0116L84.3446 72.7073C83.7761 72.9468 83.4063 73.5033 83.4063 74.1203Z" fill="#0090CE" transform="matrix(1.00637 0 0 1 240 779)"/></g></g></g><g clip-path="url(#clip4)"><g clip-path="url(#clip5)"><g clip-path="url(#clip6)"><path d="" stroke="#000000" stroke-width="9.81251" stroke-linecap="round" stroke-linejoin="round" stroke-miterlimit="10" fill="none" transform="matrix(1.00637 0 0 1 986 779)"/><path d="" stroke="#000000" stroke-width="9.81251" stroke-linecap="round" stroke-linejoin="round" stroke-miterlimit="10" fill="none" transform="matrix(1.00637 0 0 1 986 779)"/><path d="M72.6555 72.7073 2.12809 43.0116C1.11771 42.586 -8.17057e-16 43.328 -8.17057e-16 44.4246L-8.17057e-16 123.814C-8.17057e-16 125.82 1.22135 127.624 3.08419 128.369L71.4912 155.732C72.4982 156.134 73.5938 155.393 73.5938 154.308L73.5938 74.1203C73.5938 73.5033 73.224 72.9468 72.6555 72.7073Z" fill="#0090CE" transform="matrix(1.00637 0 0 1 986 779)"/><path d="M79.0949 64.2707 147.266 35.5673C148.491 35.0515 148.524 33.327 147.319 32.7649L80.5748 1.61753C79.2596 1.00394 77.7405 1.00394 76.4253 1.61753L9.68096 32.7649C8.47616 33.327 8.50898 35.0515 9.73431 35.5673L77.9052 64.2707C78.2854 64.4311 78.7147 64.4311 79.0949 64.2707Z" fill="#0090CE" transform="matrix(1.00637 0 0 1 986 779)"/><path d="M83.4063 74.1203 83.4063 154.308C83.4063 155.393 84.5019 156.134 85.5089 155.732L153.916 128.369C155.778 127.624 157 125.82 157 123.814L157 44.4246C157 43.328 155.882 42.586 154.872 43.0116L84.3446 72.7073C83.7761 72.9468 83.4063 73.5033 83.4063 74.1203Z" fill="#0090CE" transform="matrix(1.00637 0 0 1 986 779)"/></g></g></g><g clip-path="url(#clip7)"><g clip-path="url(#clip8)"><g clip-path="url(#clip9)"><path d="" stroke="#000000" stroke-width="9.87501" stroke-linecap="round" stroke-linejoin="round" stroke-miterlimit="10" fill="none"/><path d="" stroke="#000000" stroke-width="9.87501" stroke-linecap="round" stroke-linejoin="round" stroke-miterlimit="10" fill="none"/><path d="M1059.12 1045.17 988.142 1015.29C987.125 1014.86 986 1015.6 986 1016.71L986 1096.6C986 1098.62 987.229 1100.44 989.104 1101.19L1057.95 1128.72C1058.96 1129.13 1060.06 1128.38 1060.06 1127.29L1060.06 1046.59C1060.06 1045.97 1059.69 1045.41 1059.12 1045.17Z" fill="#F18618"/><path d="M1065.6 1036.68 1134.2 1007.79C1135.44 1007.27 1135.47 1005.54 1134.26 1004.97L1067.09 973.628C1065.76 973.01 1064.24 973.01 1062.91 973.628L995.742 1004.97C994.53 1005.54 994.563 1007.27 995.796 1007.79L1064.4 1036.68C1064.78 1036.84 1065.22 1036.84 1065.6 1036.68Z" fill="#F18618"/><path d="M1069.94 1046.59 1069.94 1127.29C1069.94 1128.38 1071.04 1129.13 1072.05 1128.72L1140.9 1101.19C1142.77 1100.44 1144 1098.62 1144 1096.6L1144 1016.71C1144 1015.6 1142.88 1014.86 1141.86 1015.29L1070.88 1045.17C1070.31 1045.41 1069.94 1045.97 1069.94 1046.59Z" fill="#F18618"/></g></g></g><g clip-path="url(#clip10)"><g clip-path="url(#clip11)"><g clip-path="url(#clip12)"><path d="" stroke="#000000" stroke-width="9.87501" stroke-linecap="round" stroke-linejoin="round" stroke-miterlimit="10" fill="none"/><path d="" stroke="#000000" stroke-width="9.87501" stroke-linecap="round" stroke-linejoin="round" stroke-miterlimit="10" fill="none"/><path d="M1059.12 1241.17 988.142 1211.29C987.125 1210.86 986 1211.6 986 1212.71L986 1292.6C986 1294.62 987.229 1296.44 989.104 1297.19L1057.95 1324.72C1058.96 1325.13 1060.06 1324.38 1060.06 1323.29L1060.06 1242.59C1060.06 1241.97 1059.69 1241.41 1059.12 1241.17Z" fill="#F18618"/><path d="M1065.6 1232.68 1134.2 1203.79C1135.44 1203.27 1135.47 1201.54 1134.26 1200.97L1067.09 1169.63C1065.76 1169.01 1064.24 1169.01 1062.91 1169.63L995.742 1200.97C994.53 1201.54 994.563 1203.27 995.796 1203.79L1064.4 1232.68C1064.78 1232.84 1065.22 1232.84 1065.6 1232.68Z" fill="#F18618"/><path d="M1069.94 1242.59 1069.94 1323.29C1069.94 1324.38 1071.04 1325.13 1072.05 1324.72L1140.9 1297.19C1142.77 1296.44 1144 1294.62 1144 1292.6L1144 1212.71C1144 1211.6 1142.88 1210.86 1141.86 1211.29L1070.88 1241.17C1070.31 1241.41 1069.94 1241.97 1069.94 1242.59Z" fill="#F18618"/></g></g></g><text fill="#F18618" font-family="Poppins,Poppins_MSFontService,sans-serif" font-weight="700" font-size="64" transform="matrix(1 0 0 1 1176.94 1071)">Web1_v1.0<tspan font-size="64" x="0" y="196">Web2_v1.0</tspan></text><path d="M271.5 901.5C271.5 894.873 276.873 889.5 283.5 889.5L424.5 889.5C431.127 889.5 436.5 894.873 436.5 901.5L436.5 949.5C436.5 956.127 431.127 961.5 424.5 961.5L283.5 961.5C276.873 961.5 271.5 956.127 271.5 949.5Z" stroke="#00B050" stroke-width="4.58333" stroke-miterlimit="8" fill="#00B050" fill-rule="evenodd"/><text fill="#FEFEFE" font-family="Poppins,Poppins_MSFontService,sans-serif" font-weight="700" font-size="37" transform="matrix(1 0 0 1 310.543 937)">NEW</text><path d="M1037.5 1094.5C1037.5 1087.87 1042.87 1082.5 1049.5 1082.5L1190.5 1082.5C1197.13 1082.5 1202.5 1087.87 1202.5 1094.5L1202.5 1142.5C1202.5 1149.13 1197.13 1154.5 1190.5 1154.5L1049.5 1154.5C1042.87 1154.5 1037.5 1149.13 1037.5 1142.5Z" stroke="#00B050" stroke-width="4.58333" stroke-miterlimit="8" fill="#00B050" fill-rule="evenodd"/><text fill="#FEFEFE" font-family="Poppins,Poppins_MSFontService,sans-serif" font-weight="700" font-size="37" transform="matrix(1 0 0 1 1076.64 1130)">NEW</text><path d="M1037.5 1301.5C1037.5 1294.87 1042.87 1289.5 1049.5 1289.5L1190.5 1289.5C1197.13 1289.5 1202.5 1294.87 1202.5 1301.5L1202.5 1349.5C1202.5 1356.13 1197.13 1361.5 1190.5 1361.5L1049.5 1361.5C1042.87 1361.5 1037.5 1356.13 1037.5 1349.5Z" stroke="#00B050" stroke-width="4.58333" stroke-miterlimit="8" fill="#00B050" fill-rule="evenodd"/><text fill="#FEFEFE" font-family="Poppins,Poppins_MSFontService,sans-serif" font-weight="700" font-size="37" transform="matrix(1 0 0 1 1076.64 1337)">NEW</text><path d="M1651.5 579.5 2342 579.5 2407.5 645 2342 710.5 1651.5 710.5 1717 645Z" stroke="#FEFEFE" stroke-width="6.875" stroke-miterlimit="8" fill="#BEBEBE" fill-rule="evenodd"/><text fill="#FEFEFE" font-family="Poppins,Poppins_MSFontService,sans-serif" font-weight="400" font-size="83" transform="matrix(1 0 0 1 1875.4 671)">Sprint 2</text><path d="M2383.5 581.5 3075 581.5 3140.5 647 3075 712.5 2383.5 712.5 2449 647Z" stroke="#FEFEFE" stroke-width="6.875" stroke-miterlimit="8" fill="#BEBEBE" fill-rule="evenodd"/><text fill="#FEFEFE" font-family="Poppins,Poppins_MSFontService,sans-serif" font-weight="400" font-size="83" transform="matrix(1 0 0 1 2607.49 673)">Sprint 3</text></g></svg>