<svg width="2024" height="1731" xmlns="http://www.w3.org/2000/svg" xmlns:xlink="http://www.w3.org/1999/xlink" overflow="hidden"><defs><clipPath id="clip0"><rect x="1200" y="543" width="2024" height="1731"/></clipPath></defs><g clip-path="url(#clip0)" transform="translate(-1200 -543)"><path d="M1202.5 933C1202.5 806.803 1304.58 704.5 1430.5 704.5 1556.42 704.5 1658.5 806.803 1658.5 933 1658.5 1059.2 1556.42 1161.5 1430.5 1161.5 1304.58 1161.5 1202.5 1059.2 1202.5 933Z" stroke="#4D5486" stroke-width="4.58333" stroke-miterlimit="8" fill="#6C75B7" fill-rule="evenodd"/><path d="M2531.5 933C2531.5 806.803 2633.8 704.5 2760 704.5 2886.2 704.5 2988.5 806.803 2988.5 933 2988.5 1059.2 2886.2 1161.5 2760 1161.5 2633.8 1161.5 2531.5 1059.2 2531.5 933Z" stroke="#4D5486" stroke-width="4.58333" stroke-miterlimit="8" fill="#6C75B7" fill-rule="evenodd"/><path d="M1902.5 2043.5C1902.5 1917.58 2004.8 1815.5 2131 1815.5 2257.2 1815.5 2359.5 1917.58 2359.5 2043.5 2359.5 2169.42 2257.2 2271.5 2131 2271.5 2004.8 2271.5 1902.5 2169.42 1902.5 2043.5Z" stroke="#4D5486" stroke-width="4.58333" stroke-miterlimit="8" fill="#6C75B7" fill-rule="evenodd"/><text fill="#FEFEFE" font-family="Poppins,Poppins_MSFontService,sans-serif" font-weight="400" font-size="73" transform="matrix(1 0 0 1 1945.77 2066)">En pause<tspan font-size="73" x="-653.568" y="-1111">Arrêté</tspan></text><path d="M1609.15 788.995 1663.42 764.233 1690.67 752.082 1717.99 740.238 1745.39 728.763 1772.95 717.714 1800.66 707.348 1828.5 697.606 1856.57 688.607 1884.85 680.545 1913.4 673.422 1942.17 667.429 1971.21 662.568 2000.53 659.03 2030.18 656.885 2045.15 656.314 2060.22 656.187 2075.32 656.44 2090.59 657.073 2121.11 659.407 2152.02 663.128 2183.14 668.106 2214.5 674.275 2246.01 681.509 2277.75 689.743 2309.65 698.91 2341.71 708.761 2373.89 719.361 2406.16 730.516 2438.55 742.167 2470.97 754.186 2503.45 766.453 2555.78 786.68 2550.82 799.505 2498.52 779.288 2498.57 779.307 2466.13 767.057 2466.17 767.072 2433.8 755.072 2433.86 755.094 2401.55 743.469 2401.63 743.498 2369.44 732.373 2369.54 732.405 2337.47 721.842 2337.61 721.884 2305.67 712.072 2305.79 712.108 2274.04 702.983 2274.21 703.03 2242.65 694.842 2242.84 694.888 2211.52 687.701 2211.73 687.746 2180.61 681.621 2180.85 681.664 2149.98 676.726 2150.24 676.763 2119.62 673.076 2119.91 673.105 2089.66 670.793 2089.9 670.807 2074.84 670.182 2075.01 670.187 2060.07 669.937 2060.25 669.937 2045.37 670.062 2045.57 670.058 2030.82 670.62 2031.06 670.607 2001.68 672.732 2002.01 672.701 1973.01 676.201 1973.32 676.156 1944.57 680.968 1944.84 680.918 1916.34 686.856 1916.6 686.796 1888.29 693.858 1888.51 693.799 1860.45 701.799 1860.66 701.734 1832.79 710.672 1832.96 710.614 1805.27 720.302 1805.41 720.252 1777.85 730.564 1778 730.506 1750.56 741.506 1750.66 741.467 1723.34 752.904 1723.42 752.87 1696.17 764.683 1696.24 764.654 1669.05 776.779 1669.1 776.755 1614.85 801.505ZM2528.88 751.486 2566.03 798.012 2507.24 807.452C2503.49 808.054 2499.97 805.503 2499.36 801.754 2498.76 798.005 2501.31 794.478 2505.06 793.876L2552.21 786.304 2547.93 797.382 2518.13 760.066C2515.76 757.099 2516.25 752.773 2519.21 750.404 2522.18 748.034 2526.51 748.519 2528.88 751.486Z" fill="#4D5486"/><path d="M1958.9 1903.4 1909.94 1874.71 1885.58 1860.2 1861.39 1845.39 1837.5 1830.37 1813.94 1814.94 1790.74 1799.08 1768.06 1782.64 1745.89 1765.74 1724.33 1748.07 1703.5 1729.68 1683.44 1710.52 1664.16 1690.5 1645.78 1669.45 1628.49 1647.5 1620.12 1636.05 1612.11 1624.33 1604.39 1612.35 1596.9 1600.03 1582.81 1574.83 1569.65 1548.6 1557.5 1521.42 1546.22 1493.5 1535.69 1464.79 1525.87 1435.34 1516.66 1405.36 1508.09 1374.75 1499.97 1343.71 1492.31 1312.23 1485.04 1280.46 1477.96 1248.42 1471.16 1216.12 1460.64 1164.66 1474.11 1161.9 1484.63 1213.35 1484.62 1213.31 1491.41 1245.55 1491.39 1245.49 1498.46 1277.47 1498.45 1277.42 1505.7 1309.12 1505.68 1309.03 1513.32 1340.4 1513.29 1340.29 1521.38 1371.21 1521.34 1371.1 1529.88 1401.57 1529.83 1401.4 1538.99 1431.23 1538.94 1431.07 1548.7 1460.34 1548.63 1460.15 1559.09 1488.66 1559.01 1488.45 1570.21 1516.16 1570.11 1515.93 1582.14 1542.85 1582 1542.57 1595.03 1568.52 1594.89 1568.25 1608.84 1593.22 1608.71 1593 1616.09 1605.13 1615.99 1604.98 1623.62 1616.8 1623.52 1616.64 1631.41 1628.2 1631.29 1628.03 1639.52 1639.29 1639.36 1639.09 1656.48 1660.8 1656.26 1660.54 1674.4 1681.33 1674.18 1681.08 1693.24 1700.88 1693.04 1700.68 1712.9 1719.64 1712.7 1719.46 1733.34 1737.68 1733.15 1737.52 1754.51 1755.02 1754.32 1754.88 1776.33 1771.65 1776.19 1771.55 1798.73 1787.9 1798.58 1787.79 1821.64 1803.56 1821.52 1803.48 1844.98 1818.83 1844.88 1818.76 1868.68 1833.73 1868.61 1833.69 1892.72 1848.45 1892.65 1848.41 1916.96 1862.89 1916.91 1862.86 1965.85 1891.53ZM1445.55 1206.31 1464.64 1149.91 1504.34 1194.29C1506.87 1197.12 1506.62 1201.47 1503.79 1204 1500.97 1206.53 1496.62 1206.29 1494.09 1203.46L1462.25 1167.87 1473.88 1165.49 1458.57 1210.72C1457.36 1214.32 1453.45 1216.25 1449.86 1215.03 1446.26 1213.81 1444.33 1209.91 1445.55 1206.31Z" fill="#4D5486"/><path d="M2550.96 1013.96 2498.99 1038.72 2472.93 1050.87 2446.8 1062.72 2420.58 1074.19 2394.21 1085.25 2367.68 1095.62 2340.96 1105.36 2314.14 1114.37 2287.04 1122.44 2259.73 1129.56 2232.2 1135.56 2204.33 1140.43 2176.25 1143.97 2147.9 1146.11 2133.54 1146.69 2119.09 1146.81 2104.6 1146.56 2090.01 1145.93 2060.73 1143.59 2031.13 1139.87 2001.37 1134.88 1971.32 1128.71 1941.11 1121.47 1910.74 1113.24 1880.21 1104.07 1849.52 1094.21 1818.71 1083.61 1787.81 1072.45 1756.8 1060.8 1725.75 1048.78 1694.64 1036.51 1645.05 1016.47 1650.2 1003.72 1699.76 1023.75 1699.71 1023.73 1730.77 1035.98 1730.73 1035.96 1761.73 1047.96 1761.67 1047.94 1792.61 1059.56 1792.52 1059.53 1823.33 1070.66 1823.24 1070.62 1853.92 1081.19 1853.79 1081.14 1884.35 1090.95 1884.23 1090.92 1914.6 1100.04 1914.42 1099.99 1944.61 1108.18 1944.41 1108.13 1974.41 1115.31 1974.2 1115.27 2004.01 1121.39 2003.76 1121.34 2033.26 1126.28 2032.98 1126.24 2062.3 1129.93 2061.98 1129.9 2090.98 1132.21 2090.74 1132.19 2105.11 1132.82 2104.93 1132.81 2119.24 1133.06 2119.06 1133.06 2133.31 1132.94 2133.1 1132.94 2147.23 1132.38 2146.98 1132.39 2175.04 1130.27 2174.7 1130.3 2202.45 1126.8 2202.13 1126.85 2229.69 1122.04 2229.41 1122.09 2256.66 1116.16 2256.39 1116.22 2283.45 1109.16 2283.23 1109.22 2310.1 1101.22 2309.87 1101.29 2336.5 1092.36 2336.33 1092.42 2362.89 1082.73 2362.75 1082.78 2389.12 1072.47 2388.97 1072.53 2415.22 1061.53 2415.12 1061.58 2441.24 1050.14 2441.16 1050.18 2467.22 1038.36 2467.16 1038.39 2493.16 1026.27 2493.1 1026.29 2545.04 1001.54ZM1671.42 1052.07 1634.97 1004.99 1693.89 996.437C1697.65 995.892 1701.14 998.496 1701.69 1002.25 1702.23 1006.01 1699.63 1009.5 1695.87 1010.04L1648.61 1016.9 1653.06 1005.89 1682.29 1043.65C1684.61 1046.66 1684.06 1050.97 1681.06 1053.3 1678.06 1055.62 1673.74 1055.07 1671.42 1052.07Z" fill="#4D5486"/><text fill="#051922" font-family="Poppins,Poppins_MSFontService,sans-serif" font-weight="700" font-size="64" transform="matrix(1 0 0 1 1888.63 621)">Lancer le film<tspan fill="#FEFEFE" font-weight="400" font-size="73" x="693.298" y="330">En cours</tspan><tspan font-size="64" x="10.205" y="422">Stopper le film</tspan><tspan font-size="64" x="-611.587" y="968">Stopper </tspan><tspan font-size="64" x="-552.577" y="1045">le film</tspan></text><path d="M2201.98 1824.47 2201.8 1771.08 2201.92 1744.4 2202.34 1717.79 2203.13 1691.27 2204.43 1664.85 2206.26 1638.59 2208.85 1612.5 2212.11 1586.59 2216.28 1560.95 2221.47 1535.53 2227.67 1510.47 2235.04 1485.63 2243.69 1461.19 2253.67 1437.22 2259.22 1425.24 2265.16 1413.5 2271.48 1401.84 2278.15 1390.32 2292.52 1367.65 2308.19 1345.35 2325.17 1323.54 2343.24 1302.07 2362.36 1280.89 2382.41 1260.09 2403.25 1239.51 2424.92 1219.24 2447.18 1199.18 2470.07 1179.24 2493.38 1159.55 2517.02 1139.91 2541.01 1120.39 2578.73 1090.08 2587.34 1100.79 2549.64 1131.09 2549.67 1131.07 2525.72 1150.55 2525.78 1150.51 2502.19 1170.11 2502.23 1170.08 2478.98 1189.71 2479.06 1189.64 2456.25 1209.51 2456.34 1209.43 2434.18 1229.41 2434.27 1229.33 2412.71 1249.49 2412.85 1249.36 2392.13 1269.82 2392.25 1269.69 2372.34 1290.35 2372.49 1290.19 2353.53 1311.2 2353.68 1311.02 2335.78 1332.29 2335.94 1332.09 2319.15 1353.66 2319.35 1353.39 2303.86 1375.43 2304.04 1375.15 2289.84 1397.57 2289.98 1397.34 2283.42 1408.65 2283.52 1408.48 2277.29 1419.97 2277.38 1419.79 2271.55 1431.34 2271.65 1431.13 2266.2 1442.88 2266.31 1442.63 2256.45 1466.31 2256.58 1465.96 2248.06 1490.05 2248.17 1489.71 2240.9 1514.23 2240.98 1513.93 2234.85 1538.7 2234.91 1538.42 2229.78 1563.56 2229.83 1563.29 2225.7 1588.67 2225.74 1588.43 2222.5 1614.13 2222.52 1613.95 2219.95 1639.85 2219.97 1639.65 2218.15 1665.73 2218.16 1665.59 2216.87 1691.88 2216.88 1691.75 2216.09 1718.15 2216.09 1718.06 2215.67 1744.58 2215.67 1744.5 2215.55 1771.11 2215.55 1771.06 2215.73 1824.42ZM2534.79 1095.72 2593.67 1086.89 2572.37 1142.49C2571.01 1146.04 2567.04 1147.81 2563.49 1146.45 2559.95 1145.09 2558.17 1141.12 2559.53 1137.57L2576.61 1092.98 2584.05 1102.23 2536.82 1109.32C2533.07 1109.88 2529.57 1107.29 2529.01 1103.54 2528.44 1099.78 2531.03 1096.28 2534.79 1095.72Z" fill="#4D5486"/><text fill="#051922" font-family="Poppins,Poppins_MSFontService,sans-serif" font-weight="700" font-size="64" transform="matrix(1 0 0 1 1922.18 1387)">Reprendre <tspan font-size="64" x="0" y="77">le film</tspan></text><path d="M2759.98 1163.18 2757.64 1218.65 2756.23 1246.4 2754.55 1274.03 2752.47 1301.61 2749.93 1329.03 2746.82 1356.31 2742.99 1383.37 2738.45 1410.28 2732.99 1436.94 2726.58 1463.24 2719.11 1489.27 2710.5 1514.99 2700.63 1540.28 2689.4 1565.13 2683.25 1577.49 2676.69 1589.67 2669.78 1601.7 2662.45 1613.69 2646.88 1637.12 2629.99 1660.21 2611.8 1682.77 2592.51 1705.02 2572.22 1726.85 2550.96 1748.38 2528.91 1769.67 2506.04 1790.64 2482.59 1811.39 2458.53 1831.93 2434 1852.33 2409.21 1872.56 2384.04 1892.72 2344.01 1924.38 2335.48 1913.59 2375.49 1881.95 2375.46 1881.97 2400.59 1861.85 2400.54 1861.89 2425.29 1841.69 2425.24 1841.73 2449.71 1821.39 2449.64 1821.45 2473.61 1800.97 2473.52 1801.05 2496.89 1780.38 2496.8 1780.46 2519.55 1759.6 2519.42 1759.72 2541.35 1738.55 2541.24 1738.66 2562.36 1717.26 2562.22 1717.41 2582.35 1695.75 2582.2 1695.92 2601.34 1673.85 2601.18 1674.05 2619.18 1651.71 2618.99 1651.96 2635.69 1629.13 2635.52 1629.38 2650.93 1606.19 2650.79 1606.41 2657.99 1594.61 2657.9 1594.77 2664.72 1582.9 2664.63 1583.07 2671.09 1571.07 2670.99 1571.27 2677.04 1559.11 2676.93 1559.35 2688.02 1534.78 2687.89 1535.11 2697.63 1510.15 2697.51 1510.47 2706.02 1485.05 2705.93 1485.33 2713.33 1459.58 2713.26 1459.85 2719.6 1433.81 2719.55 1434.05 2724.96 1407.64 2724.91 1407.88 2729.41 1381.17 2729.39 1381.35 2733.19 1354.48 2733.17 1354.67 2736.26 1327.54 2736.24 1327.68 2738.78 1300.4 2738.77 1300.52 2740.83 1273.05 2740.83 1273.15 2742.51 1245.6 2742.5 1245.67 2743.91 1217.98 2743.91 1218.04 2746.24 1162.61ZM2388 1919.07 2329.05 1927.45 2350.77 1872.01C2352.16 1868.48 2356.15 1866.73 2359.68 1868.12 2363.22 1869.5 2364.96 1873.49 2363.57 1877.03L2346.15 1921.49 2338.78 1912.18 2386.06 1905.46C2389.82 1904.92 2393.3 1907.54 2393.84 1911.3 2394.37 1915.06 2391.76 1918.54 2388 1919.07Z" fill="#4D5486"/><text fill="#051922" font-family="Poppins,Poppins_MSFontService,sans-serif" font-weight="700" font-size="64" transform="matrix(1 0 0 1 2753.54 1558)">Mettre en <tspan font-size="64" x="0" y="77">pause</tspan></text></g></svg>