<svg width="3666" height="1289" xmlns="http://www.w3.org/2000/svg" xmlns:xlink="http://www.w3.org/1999/xlink" overflow="hidden"><defs><clipPath id="clip0"><rect x="554" y="541" width="3666" height="1289"/></clipPath></defs><g clip-path="url(#clip0)" transform="translate(-554 -541)"><path d="M678.5 1599C678.5 1472.8 780.579 1370.5 906.5 1370.5 1032.42 1370.5 1134.5 1472.8 1134.5 1599 1134.5 1725.2 1032.42 1827.5 906.5 1827.5 780.579 1827.5 678.5 1725.2 678.5 1599Z" stroke="#4D5486" stroke-width="4.58333" stroke-miterlimit="8" fill="#6C75B7" fill-rule="evenodd"/><path d="M1745.5 1599C1745.5 1472.8 1847.58 1370.5 1973.5 1370.5 2099.42 1370.5 2201.5 1472.8 2201.5 1599 2201.5 1725.2 2099.42 1827.5 1973.5 1827.5 1847.58 1827.5 1745.5 1725.2 1745.5 1599Z" stroke="#4D5486" stroke-width="4.58333" stroke-miterlimit="8" fill="#6C75B7" fill-rule="evenodd"/><text fill="#FEFEFE" font-family="Poppins,Poppins_MSFontService,sans-serif" font-weight="400" font-size="73" transform="matrix(1 0 0 1 768.264 1621)">Buildé<tspan font-size="73" x="1056.4" y="-27">Déployé </tspan><tspan font-size="73" x="1089.63" y="61">en DEV</tspan></text><path d="M2759.5 1599C2759.5 1472.8 2861.8 1370.5 2988 1370.5 3114.2 1370.5 3216.5 1472.8 3216.5 1599 3216.5 1725.2 3114.2 1827.5 2988 1827.5 2861.8 1827.5 2759.5 1725.2 2759.5 1599Z" stroke="#4D5486" stroke-width="4.58333" stroke-miterlimit="8" fill="#6C75B7" fill-rule="evenodd"/><text fill="#FEFEFE" font-family="Poppins,Poppins_MSFontService,sans-serif" font-weight="400" font-size="73" transform="matrix(1 0 0 1 2839.41 1594)">Déployé <tspan font-size="73" x="33.802" y="88">en UAT</tspan></text><path d="M3760.5 1599C3760.5 1472.8 3862.8 1370.5 3989 1370.5 4115.2 1370.5 4217.5 1472.8 4217.5 1599 4217.5 1725.2 4115.2 1827.5 3989 1827.5 3862.8 1827.5 3760.5 1725.2 3760.5 1599Z" stroke="#4D5486" stroke-width="4.58333" stroke-miterlimit="8" fill="#6C75B7" fill-rule="evenodd"/><text fill="#FEFEFE" font-family="Poppins,Poppins_MSFontService,sans-serif" font-weight="400" font-size="73" transform="matrix(1 0 0 1 3840.41 1594)">Déployé <tspan font-size="73" x="4.5835" y="88">en PROD</tspan></text><path d="M1115.94 1496.84 1152.42 1478.7 1189.14 1461.09 1207.57 1452.6 1226.13 1444.54 1244.77 1436.86 1263.58 1429.66 1282.54 1423.09 1301.63 1417.15 1320.83 1411.89 1340.31 1407.45 1359.93 1403.89 1379.77 1401.22 1399.83 1399.63 1420.15 1399.12 1440.64 1399.76 1461.36 1401.48 1482.24 1404.27 1503.25 1407.94 1524.38 1412.49 1545.65 1417.86 1567.02 1423.91 1588.56 1430.58 1610.14 1437.88 1631.81 1445.67 1653.53 1453.83 1675.31 1462.37 1718.95 1480.28 1750.12 1493.39 1744.79 1506.06 1713.65 1492.96 1713.7 1492.99 1670.14 1475.11 1670.24 1475.15 1648.55 1466.65 1648.64 1466.69 1627.02 1458.56 1627.11 1458.59 1605.55 1450.84 1605.67 1450.89 1584.23 1443.64 1584.4 1443.69 1563.03 1437.07 1563.19 1437.11 1542 1431.11 1542.19 1431.17 1521.13 1425.85 1521.36 1425.91 1500.49 1421.41 1500.75 1421.46 1480 1417.83 1480.28 1417.88 1459.71 1415.13 1460.06 1415.16 1439.68 1413.48 1440.04 1413.5 1419.91 1412.87 1420.3 1412.87 1400.36 1413.37 1400.73 1413.35 1381.04 1414.92 1381.42 1414.88 1361.92 1417.5 1362.23 1417.45 1342.91 1420.95 1343.22 1420.89 1324.03 1425.27 1324.32 1425.19 1305.38 1430.38 1305.61 1430.31 1286.73 1436.19 1286.94 1436.12 1268.19 1442.62 1268.39 1442.55 1249.77 1449.67 1249.93 1449.61 1231.43 1457.23 1231.55 1457.18 1213.11 1465.18 1213.25 1465.12 1194.94 1473.56 1195.04 1473.51 1158.41 1491.07 1158.5 1491.03 1122.06 1509.16ZM1724.25 1457.42 1760.03 1505.01 1700.99 1512.73C1697.23 1513.22 1693.77 1510.57 1693.28 1506.8 1692.79 1503.04 1695.44 1499.58 1699.21 1499.09L1746.56 1492.91 1741.96 1503.85 1713.26 1465.68C1710.98 1462.64 1711.59 1458.33 1714.63 1456.05 1717.66 1453.77 1721.97 1454.38 1724.25 1457.42Z" fill="#4D5486"/><path d="M2156.94 1460.84 2193.42 1442.7 2230.14 1425.09 2248.57 1416.6 2267.13 1408.54 2285.77 1400.86 2304.58 1393.66 2323.54 1387.09 2342.63 1381.15 2361.83 1375.89 2381.31 1371.45 2400.93 1367.89 2420.77 1365.22 2440.83 1363.63 2461.15 1363.12 2481.64 1363.76 2502.36 1365.48 2523.24 1368.27 2544.25 1371.94 2565.38 1376.49 2586.65 1381.86 2608.02 1387.91 2629.56 1394.58 2651.14 1401.88 2672.81 1409.67 2694.53 1417.83 2716.31 1426.37 2759.95 1444.28 2791.12 1457.39 2785.79 1470.06 2754.65 1456.96 2754.7 1456.99 2711.14 1439.11 2711.24 1439.15 2689.55 1430.65 2689.64 1430.69 2668.02 1422.56 2668.11 1422.59 2646.55 1414.84 2646.67 1414.89 2625.24 1407.64 2625.4 1407.69 2604.03 1401.07 2604.19 1401.11 2583 1395.11 2583.19 1395.17 2562.13 1389.85 2562.36 1389.91 2541.49 1385.41 2541.75 1385.46 2521 1381.83 2521.28 1381.88 2500.71 1379.13 2501.06 1379.16 2480.68 1377.48 2481.04 1377.5 2460.91 1376.87 2461.3 1376.87 2441.36 1377.37 2441.73 1377.35 2422.04 1378.92 2422.42 1378.88 2402.92 1381.5 2403.23 1381.45 2383.91 1384.95 2384.22 1384.89 2365.03 1389.27 2365.32 1389.19 2346.38 1394.38 2346.61 1394.31 2327.73 1400.19 2327.94 1400.12 2309.19 1406.62 2309.39 1406.55 2290.77 1413.67 2290.93 1413.61 2272.43 1421.23 2272.55 1421.18 2254.11 1429.18 2254.25 1429.12 2235.94 1437.56 2236.04 1437.51 2199.41 1455.07 2199.5 1455.03 2163.06 1473.16ZM2765.25 1421.42 2801.03 1469.01 2741.99 1476.73C2738.23 1477.22 2734.77 1474.57 2734.28 1470.8 2733.79 1467.04 2736.44 1463.58 2740.21 1463.09L2787.56 1456.91 2782.96 1467.85 2754.26 1429.68C2751.98 1426.64 2752.59 1422.33 2755.63 1420.05 2758.66 1417.77 2762.97 1418.38 2765.25 1421.42Z" fill="#4D5486"/><path d="M3163.97 1446.83 3200.51 1428.87 3237.24 1411.38 3255.73 1403.08 3274.35 1395.03 3293.06 1387.47 3311.85 1380.35 3330.81 1373.84 3349.91 1367.96 3369.23 1362.76 3388.7 1358.39 3408.31 1354.83 3428.22 1352.22 3448.33 1350.63 3468.65 1350.12 3489.2 1350.76 3509.92 1352.47 3530.79 1355.2 3551.87 1358.87 3573.04 1363.36 3594.32 1368.67 3615.75 1374.65 3637.29 1381.27 3658.92 1388.5 3680.6 1396.16 3702.32 1404.26 3724.16 1412.73 3767.86 1430.45 3799.07 1443.43 3793.79 1456.12 3762.61 1443.16 3762.67 1443.18 3719.04 1425.5 3719.14 1425.53 3697.39 1417.1 3697.47 1417.13 3675.85 1409.07 3675.96 1409.11 3654.4 1401.48 3654.51 1401.52 3633.01 1394.33 3633.17 1394.38 3611.79 1387.82 3611.96 1387.87 3590.71 1381.93 3590.9 1381.98 3569.84 1376.73 3570.07 1376.79 3549.14 1372.35 3549.38 1372.4 3528.57 1368.77 3528.86 1368.82 3508.3 1366.13 3508.62 1366.16 3488.25 1364.48 3488.6 1364.5 3468.41 1363.87 3468.8 1363.87 3448.86 1364.37 3449.23 1364.35 3429.48 1365.92 3429.83 1365.88 3410.27 1368.44 3410.6 1368.39 3391.29 1371.89 3391.57 1371.83 3372.38 1376.15 3372.66 1376.08 3353.6 1381.2 3353.84 1381.13 3334.96 1386.95 3335.17 1386.88 3316.42 1393.32 3316.62 1393.24 3298 1400.3 3298.14 1400.25 3279.58 1407.75 3279.73 1407.69 3261.23 1415.69 3261.32 1415.65 3242.94 1423.9 3243.08 1423.83 3206.46 1441.27 3206.53 1441.23 3170.03 1459.17ZM3773.06 1407.57 3809.03 1455.01 3750.02 1462.97C3746.26 1463.48 3742.8 1460.84 3742.29 1457.08 3741.78 1453.32 3744.42 1449.85 3748.18 1449.35L3795.51 1442.96 3790.95 1453.93 3762.1 1415.88C3759.8 1412.85 3760.4 1408.54 3763.42 1406.24 3766.45 1403.95 3770.76 1404.54 3773.06 1407.57Z" fill="#4D5486"/><path d="M835.5 605.5C835.5 571.258 863.93 543.5 899 543.5 934.07 543.5 962.5 571.258 962.5 605.5 962.5 639.742 934.07 667.5 899 667.5 863.93 667.5 835.5 639.742 835.5 605.5Z" stroke="#4D5486" stroke-width="4.58333" stroke-miterlimit="8" fill="#485192" fill-rule="evenodd"/><path d="M904.874 666.925 912.344 1356.58 898.595 1356.73 891.125 667.074ZM935.06 1318.55 905.618 1370.3 875.061 1319.2C873.113 1315.94 874.175 1311.72 877.434 1309.77 880.693 1307.82 884.914 1308.88 886.863 1312.14L911.37 1353.13 899.494 1353.26 923.108 1311.75C924.986 1308.45 929.183 1307.3 932.484 1309.17 935.784 1311.05 936.937 1315.25 935.06 1318.55Z" fill="#4D5486"/><text fill="#485192" font-family="Poppins,Poppins_MSFontService,sans-serif" font-weight="700" font-size="64" transform="matrix(1 0 0 1 593.109 1044)">Exécuter <tspan font-size="64" x="0" y="77">le </tspan><tspan font-size="64" x="72.1874" y="77">build</tspan><tspan font-size="64" x="701.45" y="473">Déployer</tspan><tspan font-size="64" x="701.45" y="550">en DEV</tspan><tspan font-size="64" x="1741.76" y="448">Déployer</tspan><tspan font-size="64" x="1741.76" y="525">en UAT</tspan><tspan font-size="64" x="2756.51" y="434">Déployer</tspan><tspan font-size="64" x="2756.51" y="511">en PROD</tspan></text></g></svg>