<svg width="3434" height="1785" xmlns="http://www.w3.org/2000/svg" xmlns:xlink="http://www.w3.org/1999/xlink" overflow="hidden"><defs><clipPath id="clip0"><rect x="289" y="241" width="3434" height="1785"/></clipPath></defs><g clip-path="url(#clip0)" transform="translate(-289 -241)"><path d="M465.5 271.333C465.5 255.961 477.961 243.5 493.333 243.5L977.667 243.5C993.039 243.5 1005.5 255.961 1005.5 271.333L1005.5 382.667C1005.5 398.039 993.039 410.5 977.667 410.5L493.333 410.5C477.961 410.5 465.5 398.039 465.5 382.667Z" stroke="#A4D7C5" stroke-width="4.58333" stroke-miterlimit="8" fill="#C3E5D9" fill-rule="evenodd"/><text fill="#FEFEFE" font-family="Poppins,Poppins_MSFontService,sans-serif" font-weight="700" font-size="46" transform="matrix(1 0 0 1 593.133 314)">Parcours du <tspan font-size="46" x="-79.9104" y="55">référentiel de </tspan>build</text><rect x="294" y="510" width="3424" height="1037" stroke="#A4D7C5" stroke-width="10.3125" stroke-miterlimit="8" stroke-dasharray="41.25 30.9375" fill="none"/><text fill="#68BD9F" font-family="Poppins,Poppins_MSFontService,sans-serif" font-weight="700" font-size="55" transform="matrix(1 0 0 1 326.679 577)">Pour chaque composant</text><path d="M395.5 769.333C395.5 753.961 407.962 741.5 423.333 741.5L907.667 741.5C923.038 741.5 935.5 753.961 935.5 769.333L935.5 880.667C935.5 896.039 923.038 908.5 907.667 908.5L423.333 908.5C407.962 908.5 395.5 896.039 395.5 880.667Z" stroke="#A4D7C5" stroke-width="4.58333" stroke-miterlimit="8" fill="#C3E5D9" fill-rule="evenodd"/><text fill="#FEFEFE" font-family="Poppins,Poppins_MSFontService,sans-serif" font-weight="700" font-size="46" transform="matrix(1 0 0 1 485.892 811)">Vérifie l’état du <tspan font-size="46" x="-47.5521" y="55">build</tspan><tspan font-size="46" x="82.5" y="55">lié au commit</tspan></text><path d="M1059.5 826 1314 725.5 1568.5 826 1314 926.5Z" stroke="#A4D7C5" stroke-width="4.58333" stroke-miterlimit="8" fill="#C3E5D9" fill-rule="evenodd"/><text fill="#FEFEFE" font-family="Poppins,Poppins_MSFontService,sans-serif" font-weight="700" font-size="46" transform="matrix(1 0 0 1 1229.52 813)">Succès <tspan font-size="46" x="71.6146" y="55">?</tspan></text><path d="M741.875 410 741.875 473.519 728.125 473.519 728.125 410ZM755.625 466.644 735 507.894 714.375 466.644Z" fill="#F7B674"/><path d="M935.067 817.125 1024.44 817.992 1024.31 831.742 934.933 830.875ZM1017.7 804.176 1058.75 825.201 1017.3 845.424Z" fill="#F7B674"/><path d="M1786.5 604.333C1786.5 588.961 1798.96 576.5 1814.33 576.5L2140.67 576.5C2156.04 576.5 2168.5 588.961 2168.5 604.333L2168.5 715.667C2168.5 731.039 2156.04 743.5 2140.67 743.5L1814.33 743.5C1798.96 743.5 1786.5 731.039 1786.5 715.667Z" stroke="#A4D7C5" stroke-width="4.58333" stroke-miterlimit="8" fill="#C3E5D9" fill-rule="evenodd"/><text fill="#FEFEFE" font-family="Poppins,Poppins_MSFontService,sans-serif" font-weight="700" font-size="46" transform="matrix(1 0 0 1 1827.21 647)">Déclenche le <tspan font-size="46" x="89.6499" y="55">build</tspan></text><path d="M1306.13 725.648 1306.13 653.125 1751.1 653.125 1751.1 666.875 1313 666.875 1319.88 660 1319.88 725.648ZM1744.22 639.375 1785.47 660 1744.22 680.625Z" fill="#F7B674"/><text fill="#F7B674" font-family="Poppins,Poppins_MSFontService,sans-serif" font-weight="700" font-size="64" transform="matrix(1 0 0 1 1369.01 634)">NON</text><path d="M3124.5 870.334C3124.5 854.962 3136.96 842.5 3152.33 842.5L3609.67 842.5C3625.04 842.5 3637.5 854.962 3637.5 870.334L3637.5 981.667C3637.5 997.039 3625.04 1009.5 3609.67 1009.5L3152.33 1009.5C3136.96 1009.5 3124.5 997.039 3124.5 981.667Z" stroke="#A4D7C5" stroke-width="4.58333" stroke-miterlimit="8" fill="#C3E5D9" fill-rule="evenodd"/><text fill="#FEFEFE" font-family="Poppins,Poppins_MSFontService,sans-serif" font-weight="700" font-size="46" transform="matrix(1 0 0 1 3188.82 913)">Stop le <tspan font-size="46" x="167.865" y="0">build</tspan><tspan font-size="46" x="297.917" y="0">des </tspan><tspan font-size="46" x="29.7918" y="55">dépendances</tspan></text><path d="M2400.5 926.5 2671 838.5 2941.5 926.5 2671 1014.5Z" stroke="#A4D7C5" stroke-width="4.58333" stroke-miterlimit="8" fill="#C3E5D9" fill-rule="evenodd"/><text fill="#FEFEFE" font-family="Poppins,Poppins_MSFontService,sans-serif" font-weight="700" font-size="46" transform="matrix(1 0 0 1 2569.76 940)">Succès ?</text><path d="M2400.5 604.333C2400.5 588.961 2412.96 576.5 2428.33 576.5L2913.67 576.5C2929.04 576.5 2941.5 588.961 2941.5 604.333L2941.5 715.667C2941.5 731.039 2929.04 743.5 2913.67 743.5L2428.33 743.5C2412.96 743.5 2400.5 731.039 2400.5 715.667Z" stroke="#A4D7C5" stroke-width="4.58333" stroke-miterlimit="8" fill="#C3E5D9" fill-rule="evenodd"/><text fill="#FEFEFE" font-family="Poppins,Poppins_MSFontService,sans-serif" font-weight="700" font-size="46" transform="matrix(1 0 0 1 2491.84 647)">Vérifie l’état du <tspan font-size="46" x="-47.552" y="55">build</tspan><tspan font-size="46" x="82.5" y="55">lié au commit</tspan></text><path d="M0-6.875 123.042-6.875 123.042 0.12126 116.167-6.75374 197.96-6.75374 197.96 6.99626 109.292 6.99626 109.292 0 116.167 6.875 0 6.875ZM191.085-20.5037 232.335 0.12126 191.085 20.7463Z" fill="#F7B674" transform="matrix(1 0 0 -1 2168 660.121)"/><path d="M0-6.875 54.1169-6.875 54.1169 0.000360892 47.2419-6.87464 60.1088-6.87464 60.1088 6.87536 40.3669 6.87536 40.3669 0 47.2419 6.875 0 6.875ZM53.2338-20.6246 94.4838 0.000360892 53.2338 20.6254Z" fill="#F7B674" transform="matrix(1.83697e-16 1 1 -1.83697e-16 2671 743)"/><path d="M0-6.875 98.1108-6.875 98.1108 0.0158793 91.2358-6.85912 148.096-6.85912 148.096 6.89088 84.3608 6.89088 84.3608 0 91.2358 6.875 0 6.875ZM141.221-20.6091 182.471 0.0158793 141.221 20.6409Z" fill="#F7B674" transform="matrix(1 0 0 -1 2941 926.016)"/><path d="M3317.5 1457C3317.5 1425.24 3345.71 1399.5 3380.5 1399.5 3415.29 1399.5 3443.5 1425.24 3443.5 1457 3443.5 1488.76 3415.29 1514.5 3380.5 1514.5 3345.71 1514.5 3317.5 1488.76 3317.5 1457Z" stroke="#A4D7C5" stroke-width="4.58333" stroke-miterlimit="8" fill="#C3E5D9" fill-rule="evenodd"/><path d="M3387.23 1009 3387.23 1210.86 3380 1210.86 3386.88 1203.99 3386.88 1364.6 3373.13 1364.6 3373.13 1197.11 3380.35 1197.11 3373.48 1203.99 3373.48 1009ZM3400.63 1357.73 3380 1398.98 3359.38 1357.73Z" fill="#F7B674"/><path d="M0-6.875 198.123-6.875 198.123 91.1272 184.373 91.1272 184.373 0 191.248 6.875 0 6.875ZM211.873 84.2521 191.248 125.502 170.623 84.2521Z" fill="#F18618" transform="matrix(1.83697e-16 1 1 -1.83697e-16 2671 1014)"/><path d="M1319.88 926 1319.88 1025.91 1313 1025.91 1319.88 1019.04 1319.88 1077.7 1306.13 1077.7 1306.13 1012.16 1313 1012.16 1306.13 1019.04 1306.13 926ZM1333.63 1070.83 1313 1112.08 1292.38 1070.83Z" fill="#F7B674"/><text fill="#F7B674" font-family="Poppins,Poppins_MSFontService,sans-serif" font-weight="700" font-size="64" transform="matrix(1 0 0 1 2923.34 890)">NON<tspan font-size="64" x="-1577.6" y="124">OUI</tspan><tspan fill="#F18618" font-size="64" x="-391.638" y="195">OUI</tspan></text><path d="M1043.5 1144C1043.5 1126.6 1057.6 1112.5 1075 1112.5L1553 1112.5C1570.4 1112.5 1584.5 1126.6 1584.5 1144L1584.5 1270C1584.5 1287.4 1570.4 1301.5 1553 1301.5L1075 1301.5C1057.6 1301.5 1043.5 1287.4 1043.5 1270Z" stroke="#A4D7C5" stroke-width="4.58333" stroke-miterlimit="8" fill="#C3E5D9" fill-rule="evenodd"/><text fill="#FEFEFE" font-family="Poppins,Poppins_MSFontService,sans-serif" font-weight="700" font-size="46" transform="matrix(1 0 0 1 1173.66 1166)">Vérifie si les <tspan font-size="46" x="-65.8854" y="55">dépendances ont </tspan><tspan font-size="46" x="33.5042" y="110">évoluées</tspan></text><path d="M1723.5 1206.5 1977.5 1106.5 2231.5 1206.5 1977.5 1306.5Z" stroke="#A4D7C5" stroke-width="4.58333" stroke-miterlimit="8" fill="#C3E5D9" fill-rule="evenodd"/><text fill="#FEFEFE" font-family="Poppins,Poppins_MSFontService,sans-serif" font-weight="700" font-size="46" transform="matrix(1 0 0 1 1905.13 1220)">Evol. ?</text><path d="M0.0416494-6.87487 104.467-6.24224 104.384 7.50751-0.0416494 6.87487ZM97.6756-20.0336 138.8 0.840879 97.4257 21.2156Z" fill="#F7B674" transform="matrix(1 0 0 -1 1584 1206.84)"/><path d="M6.875-6.8482e-06 6.87533 327.93-6.87467 327.93-6.875 6.8482e-06ZM20.6253 321.055 0.000360892 362.305-20.6247 321.055Z" fill="#F7B674" transform="matrix(1 0 0 -1 1977 1105.3)"/><path d="M0.00873012-6.87499 530.631-6.20119 530.614 7.5488-0.00873012 6.87499ZM523.773-19.9599 564.997 0.717454 523.721 21.2901Z" fill="#F18618" transform="matrix(1 0 0 -1 2231 1205.72)"/><text fill="#F7B674" font-family="Poppins,Poppins_MSFontService,sans-serif" font-weight="700" font-size="64" transform="matrix(1 0 0 1 2014.23 1034)">OUI<tspan fill="#F18618" font-size="64" x="219.291" y="145">NON</tspan></text><path d="M2796.5 1142.17C2796.5 1124.68 2810.68 1110.5 2828.17 1110.5L3278.83 1110.5C3296.32 1110.5 3310.5 1124.68 3310.5 1142.17L3310.5 1268.83C3310.5 1286.32 3296.32 1300.5 3278.83 1300.5L2828.17 1300.5C2810.68 1300.5 2796.5 1286.32 2796.5 1268.83Z" stroke="#4A8A74" stroke-width="4.58333" stroke-miterlimit="8" fill="#68BD9F" fill-rule="evenodd"/><text fill="#FEFEFE" font-family="Poppins,Poppins_MSFontService,sans-serif" font-weight="700" font-size="46" transform="matrix(1 0 0 1 2864.66 1192)">Récupère <tspan font-size="46" x="232.604" y="0">l’id</tspan><tspan font-size="46" x="315.104" y="0">du </tspan><tspan font-size="46" x="19.7542" y="55">pipeline CI/CD</tspan></text><path d="M3310 1198.12 3386.79 1198.12 3386.79 1364.78 3373.04 1364.78 3373.04 1205 3379.92 1211.87 3310 1211.87ZM3400.54 1357.9 3379.92 1399.15 3359.29 1357.9Z" fill="#F18618"/><path d="M1930.5 1707.33C1930.5 1691.96 1942.96 1679.5 1958.33 1679.5L2442.67 1679.5C2458.04 1679.5 2470.5 1691.96 2470.5 1707.33L2470.5 1818.67C2470.5 1834.04 2458.04 1846.5 2442.67 1846.5L1958.33 1846.5C1942.96 1846.5 1930.5 1834.04 1930.5 1818.67Z" stroke="#4A8A74" stroke-width="4.58333" stroke-miterlimit="8" fill="#68BD9F" fill-rule="evenodd"/><text fill="#FEFEFE" font-family="Poppins,Poppins_MSFontService,sans-serif" font-weight="700" font-size="46" transform="matrix(1 0 0 1 2009.51 1749)">Génère le fichier <tspan font-size="46" x="63.3187" y="55">manifeste. </tspan></text><path d="M6.87452-0.0809815 7.51693 54.4526-6.23212 54.6146-6.87452 0.0809815ZM21.185 47.4161 1.04731 88.9062-20.0621 47.902Z" fill="#F18618" transform="matrix(-1 0 0 1 1149.05 1552)"/><path d="M660.5 1764.5 1148.5 1641.5 1636.5 1764.5 1148.5 1887.5Z" stroke="#4A8A74" stroke-width="4.58333" stroke-miterlimit="8" fill="#68BD9F" fill-rule="evenodd"/><text fill="#FEFEFE" font-family="Poppins,Poppins_MSFontService,sans-serif" font-weight="700" font-size="46" transform="matrix(1 0 0 1 1053.11 1696)">Tous les <tspan font-size="46" x="-110.573" y="55">composants sont </tspan><tspan font-size="46" x="-41.5479" y="110">buildé</tspan><tspan font-size="46" x="116.577" y="110">avec </tspan><tspan font-size="46" x="-4.88123" y="165">succès </tspan><tspan font-size="46" x="170.431" y="165">?</tspan></text><path d="M0.0440788-6.87486 258.815-5.21572 258.727 8.53399-0.0440788 6.87486ZM252.028-19.0095 293.145 1.87953 251.764 22.2396Z" fill="#F18618" transform="matrix(1 0 0 -1 1636 1763.88)"/><path d="M2590.5 1966C2590.5 1934.24 2618.48 1908.5 2653 1908.5 2687.52 1908.5 2715.5 1934.24 2715.5 1966 2715.5 1997.76 2687.52 2023.5 2653 2023.5 2618.48 2023.5 2590.5 1997.76 2590.5 1966Z" stroke="#4A8A74" stroke-width="4.58333" stroke-miterlimit="8" fill="#68BD9F" fill-rule="evenodd"/><path d="M2470 1755.13 2658.78 1755.13 2658.78 1872.97 2645.03 1872.97 2645.03 1762 2651.91 1768.88 2470 1768.88ZM2672.53 1866.1 2651.91 1907.35 2631.28 1866.1Z" fill="#F18618"/><path d="M0-6.875 85.0706-6.875 85.0706 1406.99 71.3206 1406.99 71.3206 0 78.1956 6.875 0 6.875ZM98.8206 1400.12 78.1956 1441.37 57.5706 1400.12Z" fill="#F18618" transform="matrix(1.83697e-16 1 1 -1.83697e-16 1148 1887)"/><text fill="#F18618" font-family="Poppins,Poppins_MSFontService,sans-serif" font-weight="700" font-size="64" transform="matrix(1 0 0 1 1637.77 1726)">OUI<tspan font-size="64" x="-217.63" y="216">NON</tspan></text></g></svg>