<svg width="3434" height="1153" xmlns="http://www.w3.org/2000/svg" xmlns:xlink="http://www.w3.org/1999/xlink" overflow="hidden"><defs><clipPath id="clip0"><rect x="526" y="432" width="3434" height="1153"/></clipPath></defs><g clip-path="url(#clip0)" transform="translate(-526 -432)"><path d="M702.5 462.333C702.5 446.961 714.962 434.5 730.333 434.5L1215.67 434.5C1231.04 434.5 1243.5 446.961 1243.5 462.333L1243.5 573.667C1243.5 589.039 1231.04 601.5 1215.67 601.5L730.333 601.5C714.962 601.5 702.5 589.039 702.5 573.667Z" stroke="#4A8A74" stroke-width="4.58333" stroke-miterlimit="8" fill="#68BD9F" fill-rule="evenodd"/><text fill="#FEFEFE" font-family="Poppins,Poppins_MSFontService,sans-serif" font-weight="700" font-size="46" transform="matrix(1 0 0 1 830.462 505)">Parcours du <tspan font-size="46" x="-79.9105" y="55">référentiel de </tspan><tspan font-size="46" x="243.215" y="55">build</tspan></text><rect x="531" y="701" width="3424" height="879" stroke="#68BD9F" stroke-width="10.3125" stroke-miterlimit="8" stroke-dasharray="41.25 30.9375" fill="none"/><text fill="#68BD9F" font-family="Poppins,Poppins_MSFontService,sans-serif" font-weight="700" font-size="55" transform="matrix(1 0 0 1 564.008 768)">Pour chaque composant</text><path d="M632.5 960.333C632.5 944.962 644.961 932.5 660.333 932.5L1145.67 932.5C1161.04 932.5 1173.5 944.962 1173.5 960.333L1173.5 1071.67C1173.5 1087.04 1161.04 1099.5 1145.67 1099.5L660.333 1099.5C644.961 1099.5 632.5 1087.04 632.5 1071.67Z" stroke="#4A8A74" stroke-width="4.58333" stroke-miterlimit="8" fill="#68BD9F" fill-rule="evenodd"/><text fill="#FEFEFE" font-family="Poppins,Poppins_MSFontService,sans-serif" font-weight="700" font-size="46" transform="matrix(1 0 0 1 723.221 1002)">Vérifie l’état du <tspan font-size="46" x="-47.5521" y="55">build</tspan><tspan font-size="46" x="82.5" y="55">lié au commit</tspan></text><path d="M1296.5 1016.5 1551 916.5 1805.5 1016.5 1551 1116.5Z" stroke="#4A8A74" stroke-width="4.58333" stroke-miterlimit="8" fill="#68BD9F" fill-rule="evenodd"/><text fill="#FEFEFE" font-family="Poppins,Poppins_MSFontService,sans-serif" font-weight="700" font-size="46" transform="matrix(1 0 0 1 1466.85 1003)">Succès <tspan font-size="46" x="71.6146" y="55">?</tspan></text><path d="M978.875 601 978.875 664.518 965.125 664.518 965.125 601ZM992.625 657.643 972 698.893 951.375 657.643Z" fill="#F18618"/><path d="M1173.07 1008.13 1262.44 1008.99 1262.31 1022.74 1172.93 1021.87ZM1255.7 995.177 1296.75 1016.2 1255.3 1036.42Z" fill="#F18618"/><path d="M2023.5 795.333C2023.5 779.961 2035.96 767.5 2051.33 767.5L2377.67 767.5C2393.04 767.5 2405.5 779.961 2405.5 795.333L2405.5 906.667C2405.5 922.039 2393.04 934.5 2377.67 934.5L2051.33 934.5C2035.96 934.5 2023.5 922.039 2023.5 906.667Z" stroke="#4A8A74" stroke-width="4.58333" stroke-miterlimit="8" fill="#68BD9F" fill-rule="evenodd"/><text fill="#FEFEFE" font-family="Poppins,Poppins_MSFontService,sans-serif" font-weight="700" font-size="46" transform="matrix(1 0 0 1 2064.54 838)">Déclenche le <tspan font-size="46" x="89.6499" y="55">build</tspan></text><path d="M1544.12 916.649 1544.12 844.125 1989.1 844.125 1989.1 857.875 1551 857.875 1557.88 851 1557.88 916.649ZM1982.22 830.375 2023.47 851 1982.22 871.625Z" fill="#F18618"/><text fill="#F18618" font-family="Poppins,Poppins_MSFontService,sans-serif" font-weight="700" font-size="64" transform="matrix(1 0 0 1 1606.34 824)">NON</text><path d="M3361.5 1061.33C3361.5 1045.96 3373.96 1033.5 3389.33 1033.5L3846.67 1033.5C3862.04 1033.5 3874.5 1045.96 3874.5 1061.33L3874.5 1172.67C3874.5 1188.04 3862.04 1200.5 3846.67 1200.5L3389.33 1200.5C3373.96 1200.5 3361.5 1188.04 3361.5 1172.67Z" stroke="#4A8A74" stroke-width="4.58333" stroke-miterlimit="8" fill="#68BD9F" fill-rule="evenodd"/><text fill="#FEFEFE" font-family="Poppins,Poppins_MSFontService,sans-serif" font-weight="700" font-size="46" transform="matrix(1 0 0 1 3426.15 1103)">Stop le <tspan font-size="46" x="167.865" y="0">build</tspan><tspan font-size="46" x="297.917" y="0">des </tspan><tspan font-size="46" x="29.7918" y="55">dépendances</tspan></text><path d="M2638.5 1117 2909 1028.5 3179.5 1117 2909 1205.5Z" stroke="#4A8A74" stroke-width="4.58333" stroke-miterlimit="8" fill="#68BD9F" fill-rule="evenodd"/><text fill="#FEFEFE" font-family="Poppins,Poppins_MSFontService,sans-serif" font-weight="700" font-size="46" transform="matrix(1 0 0 1 2807.09 1131)">Succès ?</text><path d="M2638.5 795.333C2638.5 779.962 2650.96 767.5 2666.33 767.5L3151.67 767.5C3167.04 767.5 3179.5 779.962 3179.5 795.333L3179.5 906.667C3179.5 922.039 3167.04 934.5 3151.67 934.5L2666.33 934.5C2650.96 934.5 2638.5 922.039 2638.5 906.667Z" stroke="#4A8A74" stroke-width="4.58333" stroke-miterlimit="8" fill="#68BD9F" fill-rule="evenodd"/><text fill="#FEFEFE" font-family="Poppins,Poppins_MSFontService,sans-serif" font-weight="700" font-size="46" transform="matrix(1 0 0 1 2729.17 837)">Vérifie l’état du <tspan font-size="46" x="-47.552" y="55">build</tspan><tspan font-size="46" x="82.5" y="55">lié au commit</tspan></text><path d="M0-6.875 123.042-6.875 123.042 0.12126 116.167-6.75374 197.96-6.75374 197.96 6.99626 109.292 6.99626 109.292 0 116.167 6.875 0 6.875ZM191.085-20.5037 232.335 0.12126 191.085 20.7463Z" fill="#F18618" transform="matrix(1 0 0 -1 2405 850.121)"/><path d="M0-6.875 54.1169-6.875 54.1169 0.000360892 47.2419-6.87464 60.1088-6.87464 60.1088 6.87536 40.3669 6.87536 40.3669 0 47.2419 6.875 0 6.875ZM53.2338-20.6246 94.4838 0.000360892 53.2338 20.6254Z" fill="#F18618" transform="matrix(1.83697e-16 1 1 -1.83697e-16 2908 934)"/><path d="M0-6.875 98.1108-6.875 98.1108 0.0158793 91.2358-6.85912 148.096-6.85912 148.096 6.89088 84.3608 6.89088 84.3608 0 91.2358 6.875 0 6.875ZM141.221-20.6091 182.471 0.0158793 141.221 20.6409Z" fill="#F18618" transform="matrix(1 0 0 -1 3179 1116.02)"/><path d="M3556.5 1396C3556.5 1364.24 3584.48 1338.5 3619 1338.5 3653.52 1338.5 3681.5 1364.24 3681.5 1396 3681.5 1427.76 3653.52 1453.5 3619 1453.5 3584.48 1453.5 3556.5 1427.76 3556.5 1396Z" stroke="#4A8A74" stroke-width="4.58333" stroke-miterlimit="8" fill="#68BD9F" fill-rule="evenodd"/><path d="M0-6.875 75.7636-6.875 75.7636 0.797933 68.8886-6.07707 103.402-6.07707 103.402 7.67293 62.0136 7.67293 62.0136 0 68.8886 6.875 0 6.875ZM96.5272-19.8271 137.777 0.797933 96.5272 21.4229Z" fill="#F18618" transform="matrix(1.83697e-16 1 1 -1.83697e-16 3618 1200)"/><path d="M0-6.875 197.656-6.875 197.656 612.99 183.906 612.99 183.906 0 190.781 6.875 0 6.875ZM211.406 606.114 190.781 647.364 170.156 606.114Z" fill="#F18618" transform="matrix(1.83697e-16 1 1 -1.83697e-16 2908 1205)"/><path d="M1557.88 1116 1557.88 1215.91 1551 1215.91 1557.88 1209.04 1557.88 1267.7 1544.13 1267.7 1544.13 1202.16 1551 1202.16 1544.13 1209.04 1544.13 1116ZM1571.63 1260.83 1551 1302.08 1530.38 1260.83Z" fill="#F18618"/><text fill="#F18618" font-family="Poppins,Poppins_MSFontService,sans-serif" font-weight="700" font-size="64" transform="matrix(1 0 0 1 3160.67 1081)">NON<tspan font-size="64" x="-1577.6" y="123">OUI</tspan><tspan font-size="64" x="-219.464" y="221">OUI</tspan></text><path d="M1280.5 1335C1280.5 1317.6 1294.6 1303.5 1312 1303.5L1790 1303.5C1807.4 1303.5 1821.5 1317.6 1821.5 1335L1821.5 1461C1821.5 1478.4 1807.4 1492.5 1790 1492.5L1312 1492.5C1294.6 1492.5 1280.5 1478.4 1280.5 1461Z" stroke="#4A8A74" stroke-width="4.58333" stroke-miterlimit="8" fill="#68BD9F" fill-rule="evenodd"/><text fill="#FEFEFE" font-family="Poppins,Poppins_MSFontService,sans-serif" font-weight="700" font-size="46" transform="matrix(1 0 0 1 1410.99 1357)">Vérifie <tspan font-size="46" x="162.708" y="0">si les </tspan><tspan font-size="46" x="-65.8854" y="55">dépendances ont </tspan><tspan font-size="46" x="33.5042" y="110">évoluées</tspan></text><path d="M1960.5 1397 2215 1296.5 2469.5 1397 2215 1497.5Z" stroke="#4A8A74" stroke-width="4.58333" stroke-miterlimit="8" fill="#68BD9F" fill-rule="evenodd"/><text fill="#FEFEFE" font-family="Poppins,Poppins_MSFontService,sans-serif" font-weight="700" font-size="46" transform="matrix(1 0 0 1 2142.45 1411)">Evol. <tspan font-size="46" x="119.167" y="0">?</tspan></text><path d="M0.0416494-6.87487 104.467-6.24224 104.384 7.50751-0.0416494 6.87487ZM97.6756-20.0336 138.8 0.840879 97.4257 21.2156Z" fill="#F18618" transform="matrix(1 0 0 -1 1821 1396.84)"/><path d="M6.875-6.8482e-06 6.87533 327.93-6.87467 327.93-6.875 6.8482e-06ZM20.6253 321.055 0.000360892 362.305-20.6247 321.055Z" fill="#F18618" transform="matrix(1 0 0 -1 2214 1296.3)"/><path d="M0.00749002-6.875 1052.49-5.72836 1052.48 8.02163-0.00749002 6.875ZM1045.63-19.4858 1086.86 1.18409 1045.59 21.7641Z" fill="#F18618" transform="matrix(1 0 0 -1 2469 1396.18)"/><text fill="#F18618" font-family="Poppins,Poppins_MSFontService,sans-serif" font-weight="700" font-size="64" transform="matrix(1 0 0 1 2251.56 1224)">OUI<tspan font-size="64" x="219.291" y="146">NON</tspan></text></g></svg>