<svg width="2315" height="1358" xmlns="http://www.w3.org/2000/svg" xmlns:xlink="http://www.w3.org/1999/xlink" overflow="hidden"><defs><clipPath id="clip0"><rect x="749" y="276" width="2315" height="1358"/></clipPath><clipPath id="clip1"><rect x="749" y="276" width="280" height="280"/></clipPath><clipPath id="clip2"><rect x="749" y="276" width="280" height="280"/></clipPath><clipPath id="clip3"><rect x="749" y="276" width="280" height="280"/></clipPath><linearGradient x1="139.5" y1="263.035" x2="139.5" y2="15.965" gradientUnits="userSpaceOnUse" spreadMethod="pad" id="fill4"><stop offset="0" stop-color="#0078D4"/><stop offset="0.16" stop-color="#1380DA"/><stop offset="0.53" stop-color="#3C91E5"/><stop offset="0.82" stop-color="#559CEC"/><stop offset="1" stop-color="#5EA0EF"/></linearGradient></defs><g clip-path="url(#clip0)" transform="translate(-749 -276)"><rect x="872.5" y="495.5" width="2189" height="1136" stroke="#0090CE" stroke-width="4.58333" stroke-miterlimit="8" stroke-dasharray="36.6667 13.75" fill="none"/><g clip-path="url(#clip1)"><g clip-path="url(#clip2)"><g clip-path="url(#clip3)"><path d="M263.5 62 263.5 212.97 201.5 263.81 105.4 228.78 105.4 263.5 50.995 192.355 209.56 204.755 209.56 68.82ZM210.645 69.595 121.675 15.5 121.675 50.995 39.99 75.02 15.5 106.485 15.5 177.94 50.53 193.44 50.53 101.835Z" fill="url(#fill4)" transform="matrix(1.00358 0 0 1 749 276)"/></g></g></g><path d="M1029.5 589.5C1117.67 587.1 1238.16 588.808 1300.44 589.5 1362.73 590.192 1495.82 602.018 1571.39 589.5 1646.96 576.982 1727.04 582.655 1822.26 589.5 1917.49 596.345 1977.23 583.835 2033 589.5 2088.77 595.165 2176.03 590.687 2243.73 589.5 2311.44 588.313 2425.04 587.436 2514.68 589.5 2604.32 591.565 2735.7 584.617 2805.69 589.5 2875.69 594.383 2985.54 595.141 3036.5 589.5 3045.02 696.933 3042.48 698.578 3036.5 806.85 3030.52 915.122 3036.69 956.333 3036.5 1014.75 3036.31 1073.17 3045.38 1145.77 3036.5 1251 3027.62 1356.23 3028.7 1454.36 3036.5 1534.5 2990.53 1529.39 2875.13 1534.2 2825.76 1534.5 2776.4 1534.8 2707.57 1526.93 2594.96 1534.5 2482.35 1542.07 2435.14 1540.6 2384.22 1534.5 2333.31 1528.4 2222.6 1544.85 2173.49 1534.5 2124.38 1524.15 2037.69 1528.43 1982.82 1534.5 1927.96 1540.57 1860.6 1526.93 1792.16 1534.5 1723.72 1542.07 1578.9 1531.75 1501.14 1534.5 1423.39 1537.25 1363.78 1526.43 1310.48 1534.5 1257.18 1542.57 1154.99 1521.71 1029.5 1534.5 1019.77 1411.54 1035.98 1347.72 1029.5 1279.35 1023.02 1210.98 1029.26 1157.57 1029.5 1052.55 1029.74 947.526 1029.36 914.356 1029.5 797.4 1029.64 680.444 1032.24 655.634 1029.5 589.5Z" stroke="#7F7F7F" stroke-width="4.58333" stroke-miterlimit="8" fill="none" fill-rule="evenodd"/><path d="M1075.5 767.5C1140.16 769.296 1278.54 761.525 1336.59 767.5 1394.64 773.475 1514.64 761.873 1597.68 767.5 1680.72 773.127 1755.46 758.904 1839.43 767.5 1923.4 776.097 1952.01 764.882 2042.5 767.5 2132.99 770.118 2176.28 759.443 2245.57 767.5 2314.86 775.557 2433.32 770.948 2506.66 767.5 2580 764.052 2649.38 755.022 2787.09 767.5 2924.8 779.979 2941.95 770.234 3009.5 767.5 3007.01 806.401 3012.06 828.373 3009.5 847.5 2923.46 846.385 2890.29 839.469 2825.77 847.5 2761.25 855.531 2694.74 855.343 2564.68 847.5 2434.62 839.657 2415.15 857.074 2284.25 847.5 2153.35 837.926 2087.5 834.801 2023.16 847.5 1958.82 860.199 1867.98 841.655 1800.75 847.5 1733.53 853.345 1640.48 850.873 1597.68 847.5 1554.88 844.127 1463.36 844.66 1394.61 847.5 1325.86 850.34 1169.29 857.404 1075.5 847.5 1075 827.615 1076.25 803.477 1075.5 767.5Z" fill="#E5E5E5" fill-rule="evenodd"/><path d="M1075.5 767.5C1143.34 758.274 1273.28 764.434 1355.93 767.5 1438.58 770.567 1533.14 767.275 1578.34 767.5 1623.54 767.725 1677.48 775.284 1762.07 767.5 1846.66 759.716 1883.95 759.696 1984.48 767.5 2085.01 775.305 2158.97 777.392 2206.89 767.5 2254.81 757.608 2351.59 769.115 2429.3 767.5 2507.01 765.885 2636.26 771.442 2690.39 767.5 2744.52 763.558 2895.18 768.016 3009.5 767.5 3007.4 807.353 3010.02 825.124 3009.5 847.5 2920.81 842.919 2839.04 841.742 2787.09 847.5 2735.14 853.258 2662.2 849.148 2564.68 847.5 2467.16 845.852 2446.79 845.255 2361.61 847.5 2276.43 849.745 2244.11 846.875 2158.54 847.5 2072.97 848.125 1966.61 836.444 1916.79 847.5 1866.97 858.556 1754.19 840.832 1655.7 847.5 1557.21 854.168 1499.49 840.531 1433.29 847.5 1367.09 854.469 1196.69 863.388 1075.5 847.5 1073.44 819.813 1073.2 805.291 1075.5 767.5Z" stroke="#7F7F7F" stroke-width="4.58333" stroke-miterlimit="8" fill="none" fill-rule="evenodd"/><text fill="#7F7F7F" font-family="Ink Free,Ink Free_MSFontService,sans-serif" font-weight="700" font-size="50" transform="matrix(1 0 0 1 1207.77 821)">commit date<tspan font-size="50" x="-21.4387" y="113">2022</tspan><tspan font-size="50" x="112.051" y="113">-</tspan>01<tspan font-size="50" x="180.228" y="113">-</tspan><tspan font-size="50" x="197.416" y="113">10T07:00:00</tspan></text><path d="M1094.5 923C1096.4 910.532 1106.26 894.549 1124 893.5 1137.47 894.9 1151.3 902.724 1153.5 923 1152.87 940.913 1142.57 950.935 1124 952.5 1104.8 950.475 1094.54 940.705 1094.5 923Z" stroke="#7F7F7F" stroke-width="4.58333" stroke-miterlimit="8" fill="none" fill-rule="evenodd"/><text fill="#7F7F7F" font-family="Ink Free,Ink Free_MSFontService,sans-serif" font-weight="700" font-size="50" transform="matrix(1 0 0 1 1793 934)">Développer 1<tspan font-size="50" x="462" y="-1">f</tspan><tspan font-size="50" x="483.198" y="-1">ix: bug on </tspan>function<tspan font-size="50" x="875.646" y="-1">x</tspan></text><path d="M2795.5 644.834C2795.71 638.152 2802.35 633.934 2807.89 632.5 2864.74 620.71 2895.76 652.399 2976.11 632.5 2982.68 632.581 2990.22 637.947 2988.5 644.834 2991.1 659.389 2987.97 681.975 2988.5 694.166 2988.48 701.706 2984.97 706.728 2976.11 706.5 2917.31 714.121 2852.78 695.539 2807.89 706.5 2800.18 706.869 2795.57 699.044 2795.5 694.166 2789.81 676.819 2796.82 663.311 2795.5 644.834Z" fill="#7F7F7F" fill-rule="evenodd"/><path d="M2795.5 644.834C2796.88 638.467 2799.67 632.654 2807.89 632.5 2854.16 632.162 2902.56 638.152 2976.11 632.5 2981.69 632.989 2988.35 637.765 2988.5 644.834 2992.92 656.913 2988.39 670.534 2988.5 694.166 2987.13 702.242 2982.14 707.798 2976.11 706.5 2903.38 722.881 2871.98 694.373 2807.89 706.5 2802.09 706.227 2796.94 702.226 2795.5 694.166 2794.42 683.22 2801.13 657.412 2795.5 644.834Z" stroke="#BEBEBE" stroke-width="4.58333" stroke-miterlimit="8" fill="none" fill-rule="evenodd"/><text fill="#FEFEFE" font-family="Ink Free,Ink Free_MSFontService,sans-serif" font-weight="700" font-size="37" transform="matrix(1 0 0 1 2853.62 679)">Sav<tspan font-size="37" x="59.0103" y="0">e</tspan></text><path d="M2795.5 1419C2795.71 1412.23 2802.35 1407.95 2807.89 1406.5 2866.51 1395.66 2897.75 1408.44 2976.11 1406.5 2982.68 1406.58 2990.22 1412.02 2988.5 1419 2991.1 1433.75 2987.97 1456.64 2988.5 1469 2988.48 1476.64 2984.97 1481.73 2976.11 1481.5 2914.03 1488.77 2849.99 1468.87 2807.89 1481.5 2800.18 1481.87 2795.57 1473.94 2795.5 1469 2789.81 1451.42 2796.82 1437.73 2795.5 1419Z" fill="#7F7F7F" fill-rule="evenodd"/><path d="M2795.5 1419C2796.88 1412.55 2799.67 1406.66 2807.89 1406.5 2855.01 1386.39 2904.2 1415.1 2976.11 1406.5 2981.69 1407 2988.35 1411.84 2988.5 1419 2992.92 1431.24 2988.39 1445.05 2988.5 1469 2987.13 1477.18 2982.14 1482.82 2976.11 1481.5 2900.46 1495.24 2871.96 1469.08 2807.89 1481.5 2802.09 1481.22 2796.94 1477.17 2795.5 1469 2794.42 1457.91 2801.13 1431.75 2795.5 1419Z" stroke="#BEBEBE" stroke-width="4.58333" stroke-miterlimit="8" fill="none" fill-rule="evenodd"/><text fill="#FEFEFE" font-family="Ink Free,Ink Free_MSFontService,sans-serif" font-weight="700" font-size="37" transform="matrix(1 0 0 1 2853.62 1454)">Save<tspan fill="#7F7F7F" font-size="73" x="-1769.03" y="-743">Commits</tspan><tspan fill="#7F7F7F" font-size="73" x="-1481.43" y="-743">of [Nom </tspan><tspan fill="#7F7F7F" font-size="73" x="-1209.87" y="-743">du repo </tspan><tspan fill="#7F7F7F" font-size="73" x="-961.22" y="-743">1]</tspan></text><path d="M1084.59 715.68 1302.09 715.68 1519.59 715.68 1737.09 715.68 1954.59 715.68 1954.59 719.68 1737.09 719.68 1519.59 719.68 1302.09 719.68 1084.59 719.68Z" fill="#7F7F7F" fill-rule="evenodd"/><text fill="#7F7F7F" font-family="Ink Free,Ink Free_MSFontService,sans-serif" font-weight="700" font-size="50" transform="matrix(1 0 0 1 1186.34 1047)">2022<tspan font-size="50" x="133.49" y="0">-</tspan>01<tspan font-size="50" x="201.667" y="0">-</tspan>09T15:00:00</text><path d="M1094.5 1036C1096.4 1023.53 1106.26 1007.55 1124 1006.5 1137.47 1007.9 1151.3 1015.72 1153.5 1036 1152.87 1053.91 1142.57 1063.94 1124 1065.5 1104.8 1063.47 1094.54 1053.71 1094.5 1036Z" stroke="#7F7F7F" stroke-width="4.58333" stroke-miterlimit="8" fill="none" fill-rule="evenodd"/><text fill="#7F7F7F" font-family="Ink Free,Ink Free_MSFontService,sans-serif" font-weight="700" font-size="50" transform="matrix(1 0 0 1 1793 1047)">Développer 1<tspan font-size="50" x="462" y="-1">fea</tspan><tspan font-size="50" x="533.615" y="-1">t</tspan><tspan font-size="50" x="558.823" y="-1">: </tspan><tspan font-size="50" x="584.031" y="-1">implementation</tspan><tspan font-size="50" x="925.49" y="-1">of US#15</tspan><tspan font-size="50" x="-606.664" y="126">2022</tspan><tspan font-size="50" x="-473.174" y="126">-</tspan>01<tspan font-size="50" x="-404.997" y="126">-</tspan>05T10:00:00</text><path d="M1094.5 1161C1096.4 1148.53 1106.26 1132.55 1124 1131.5 1137.47 1132.9 1151.3 1140.72 1153.5 1161 1152.87 1178.91 1142.57 1188.94 1124 1190.5 1104.8 1188.47 1094.54 1178.71 1094.5 1161Z" stroke="#7F7F7F" stroke-width="4.58333" stroke-miterlimit="8" fill="none" fill-rule="evenodd"/><text fill="#7F7F7F" font-family="Ink Free,Ink Free_MSFontService,sans-serif" font-weight="700" font-size="50" transform="matrix(1 0 0 1 1793 1173)">Développer 2<tspan font-size="50" x="462" y="-2">fea</tspan><tspan font-size="50" x="533.615" y="-2">t</tspan><tspan font-size="50" x="558.823" y="-2">: </tspan><tspan font-size="50" x="584.031" y="-2">implementation</tspan><tspan font-size="50" x="925.49" y="-2">of US#12</tspan><tspan font-size="50" x="-603.684" y="125">2022</tspan><tspan font-size="50" x="-470.194" y="125">-</tspan>01<tspan font-size="50" x="-402.017" y="125">-</tspan>05T08:00:00</text><path d="M1097.5 1287C1099.4 1274.53 1109.26 1258.55 1127 1257.5 1140.47 1258.9 1154.3 1266.72 1156.5 1287 1155.87 1304.91 1145.57 1314.94 1127 1316.5 1107.8 1314.47 1097.54 1304.71 1097.5 1287Z" stroke="#7F7F7F" stroke-width="4.58333" stroke-miterlimit="8" fill="none" fill-rule="evenodd"/><text fill="#7F7F7F" font-family="Ink Free,Ink Free_MSFontService,sans-serif" font-weight="700" font-size="50" transform="matrix(1 0 0 1 1795.98 1298)">Développer 2<tspan font-size="50" x="462" y="-1">fix</tspan>: <tspan font-size="50" x="538.771" y="-1">error</tspan><tspan font-size="50" x="661.948" y="-1">on </tspan><tspan font-size="50" x="721.531" y="-1">existing</tspan><tspan font-size="50" x="899.135" y="-1">condition</tspan></text><path d="M1106.5 923C1108.48 915.44 1116.21 907.629 1124 905.5 1132.3 904.245 1141.95 913.614 1141.5 923 1140.65 931.692 1131.25 939.604 1124 940.5 1114.48 940.958 1107.08 931.938 1106.5 923Z" fill="#3F3F3F" fill-rule="evenodd"/><path d="M1106.5 923C1106.93 911.548 1113.12 904.243 1124 905.5 1134.2 905.183 1141.63 912.448 1141.5 923 1142.52 931.439 1131.34 939.332 1124 940.5 1112.27 939.871 1107.57 932.997 1106.5 923Z" stroke="#051922" stroke-width="4.58333" stroke-miterlimit="8" fill="none" fill-rule="evenodd"/><text fill="#7F7F7F" font-family="Ink Free,Ink Free_MSFontService,sans-serif" font-weight="700" font-size="50" transform="matrix(1 0 0 1 1794.74 820)">commit user<tspan font-size="50" x="460.257" y="2">c</tspan>ommit message</text></g></svg>