<svg width="2997" height="1305" xmlns="http://www.w3.org/2000/svg" xmlns:xlink="http://www.w3.org/1999/xlink" overflow="hidden"><defs><clipPath id="clip0"><rect x="260" y="276" width="2997" height="1305"/></clipPath><clipPath id="clip1"><rect x="259" y="795" width="368" height="376"/></clipPath><clipPath id="clip2"><rect x="259" y="795" width="368" height="376"/></clipPath><clipPath id="clip3"><rect x="259" y="795" width="368" height="376"/></clipPath><clipPath id="clip4"><rect x="749" y="276" width="280" height="280"/></clipPath><clipPath id="clip5"><rect x="749" y="276" width="280" height="280"/></clipPath><clipPath id="clip6"><rect x="749" y="276" width="280" height="280"/></clipPath><linearGradient x1="139.5" y1="263.035" x2="139.5" y2="15.965" gradientUnits="userSpaceOnUse" spreadMethod="pad" id="fill7"><stop offset="0" stop-color="#0078D4"/><stop offset="0.16" stop-color="#1380DA"/><stop offset="0.53" stop-color="#3C91E5"/><stop offset="0.82" stop-color="#559CEC"/><stop offset="1" stop-color="#5EA0EF"/></linearGradient></defs><g clip-path="url(#clip0)" transform="translate(-260 -276)"><g clip-path="url(#clip1)"><g clip-path="url(#clip2)"><g clip-path="url(#clip3)"><path d="M57.8365 329.252C57.8365 259.488 114.318 203.007 184.082 203.007 253.845 203.007 310.326 259.488 310.326 329.252L57.8365 329.252Z" fill="#0078D7" transform="matrix(1 0 0 1.00095 260 795)"/><path d="M256.041 111.472C256.041 150.996 223.996 183.041 184.472 183.041 144.947 183.041 112.903 150.996 112.903 111.472 112.903 71.9479 144.947 39.9031 184.472 39.9031 223.996 39.9031 256.041 71.9479 256.041 111.472Z" fill="#0078D7" transform="matrix(1 0 0 1.00095 260 795)"/></g></g></g><rect x="872.5" y="495.5" width="2382" height="1083" stroke="#0090CE" stroke-width="4.58333" stroke-miterlimit="8" stroke-dasharray="36.6667 13.75" fill="none"/><g clip-path="url(#clip4)"><g clip-path="url(#clip5)"><g clip-path="url(#clip6)"><path d="M263.5 62 263.5 212.97 201.5 263.81 105.4 228.78 105.4 263.5 50.995 192.355 209.56 204.755 209.56 68.82ZM210.645 69.595 121.675 15.5 121.675 50.995 39.99 75.02 15.5 106.485 15.5 177.94 50.53 193.44 50.53 101.835Z" fill="url(#fill7)" transform="matrix(1.00358 0 0 1 749 276)"/></g></g></g><path d="M1029.5 589.5C1094 584.424 1210.84 599.951 1262.2 589.5 1313.56 579.05 1437.74 580.883 1494.9 589.5 1552.06 598.118 1633.21 581.651 1718.65 589.5 1804.09 597.349 1841.06 588.148 1924.5 589.5 1932.34 629.262 1923.53 683.212 1924.5 767.1 1925.47 850.988 1924.14 892.356 1924.5 959.5 1870.59 956.639 1797.5 960.499 1718.65 959.5 1639.8 958.501 1596.15 960.527 1494.9 959.5 1393.65 958.473 1366.61 968.423 1298 959.5 1229.39 950.577 1147.14 951.385 1029.5 959.5 1024.93 918.169 1027.43 813.624 1029.5 770.8 1031.57 727.976 1030.63 640.463 1029.5 589.5Z" stroke="#7F7F7F" stroke-width="4.58333" stroke-miterlimit="8" fill="none" fill-rule="evenodd"/><text fill="#7F7F7F" font-family="Ink Free,Ink Free_MSFontService,sans-serif" font-weight="700" font-size="73" transform="matrix(1 0 0 1 1084.59 711)">Overview<tspan font-size="73" x="320.261" y="0">of repositories</tspan></text><path d="M1084.59 715.68 1276.59 715.68 1468.59 715.68 1660.59 715.68 1852.59 715.68 1852.59 719.68 1660.59 719.68 1468.59 719.68 1276.59 719.68 1084.59 719.68Z" fill="#7F7F7F" fill-rule="evenodd"/><path d="M1029.5 1052.5C1094 1047.41 1210.84 1062.98 1262.2 1052.5 1313.56 1042.02 1437.74 1043.86 1494.9 1052.5 1552.06 1061.14 1633.21 1044.63 1718.65 1052.5 1804.09 1060.37 1841.06 1051.14 1924.5 1052.5 1932.34 1092.37 1923.53 1146.46 1924.5 1230.58 1925.47 1314.7 1924.14 1356.17 1924.5 1423.5 1870.59 1420.63 1797.5 1424.5 1718.65 1423.5 1639.8 1422.5 1596.15 1424.53 1494.9 1423.5 1393.65 1422.47 1366.61 1432.45 1298 1423.5 1229.39 1414.55 1147.14 1415.36 1029.5 1423.5 1024.93 1382.06 1027.43 1277.23 1029.5 1234.29 1031.57 1191.35 1030.63 1103.6 1029.5 1052.5Z" stroke="#7F7F7F" stroke-width="4.58333" stroke-miterlimit="8" fill="none" fill-rule="evenodd"/><text fill="#7F7F7F" font-family="Ink Free,Ink Free_MSFontService,sans-serif" font-weight="700" font-size="73" transform="matrix(1 0 0 1 1084.59 1174)">Settings</text><path d="M1084.59 1179.46 1152.09 1179.46 1219.59 1179.46 1287.09 1179.46 1354.59 1179.46 1354.59 1183.46 1287.09 1183.46 1219.59 1183.46 1152.09 1183.46 1084.59 1183.46Z" fill="#7F7F7F" fill-rule="evenodd"/><path d="M2254.5 1081.5C2319.08 1076.42 2436.04 1091.95 2487.46 1081.5 2538.88 1071.05 2663.19 1072.88 2720.42 1081.5 2777.65 1090.12 2858.89 1073.65 2944.42 1081.5 3029.95 1089.35 3066.96 1080.15 3150.5 1081.5 3158.35 1121.26 3149.53 1175.21 3150.5 1259.1 3151.47 1342.99 3150.14 1384.36 3150.5 1451.5 3096.53 1448.64 3023.36 1452.5 2944.42 1451.5 2865.48 1450.5 2821.78 1452.53 2720.42 1451.5 2619.06 1450.47 2591.98 1460.42 2523.3 1451.5 2454.62 1442.58 2372.27 1443.39 2254.5 1451.5 2249.92 1410.17 2252.43 1305.62 2254.5 1262.8 2256.57 1219.98 2255.64 1132.46 2254.5 1081.5Z" stroke="#7F7F7F" stroke-width="4.58333" stroke-miterlimit="8" fill="none" fill-rule="evenodd"/><text fill="#7F7F7F" font-family="Ink Free,Ink Free_MSFontService,sans-serif" font-weight="700" font-size="73" transform="matrix(1 0 0 1 2310.25 1203)">Commits<tspan font-size="73" x="287.604" y="0">of </tspan><tspan font-size="73" x="371.25" y="0">repository</tspan></text><path d="M2310.25 1208 2481.25 1208 2652.25 1208 2823.25 1208 2994.25 1208 2994.25 1212 2823.25 1212 2652.25 1212 2481.25 1212 2310.25 1212Z" fill="#7F7F7F" fill-rule="evenodd"/><path d="M1891.66 860.649 1903.24 857.331 1915.47 853.881 1928.19 850.357 1941.44 846.869 1955.2 843.62 1969.34 840.676 1983.9 838.229 1998.77 836.418 2013.98 835.378 2029.32 835.248 2044.93 836.166 2060.62 838.276 2076.23 841.751 2084.24 844.039 2092.1 846.772 2099.9 849.877 2107.69 853.375 2115.47 857.299 2122.97 861.633 2121.92 861.103 2131.65 865.328 2141.24 870.059 2150.51 875.249 2159.49 880.863 2176.36 892.93 2192.23 906.466 2207.05 921.155 2221.03 936.873 2234.22 953.586 2246.89 971.025 2259.07 989.114 2270.89 1007.82 2282.52 1026.92 2294.11 1046.28 2317.55 1085.73 2317.47 1085.6 2329.66 1105.41 2329.56 1105.25 2331.16 1107.75C2334.23 1112.54 2332.84 1118.92 2328.04 1121.99 2323.25 1125.07 2316.87 1123.67 2313.8 1118.88L2312.14 1116.3 2299.86 1096.34 2276.38 1056.83 2276.4 1056.86 2264.84 1037.55 2264.88 1037.61 2253.32 1018.61 2253.41 1018.76 2241.72 1000.26 2241.88 1000.51 2229.88 982.699 2230.09 982.998 2217.66 965.873 2217.91 966.202 2205.03 949.889 2205.42 950.353 2191.86 935.103 2192.3 935.574 2177.99 921.387 2178.56 921.911 2163.31 908.911 2164 909.45 2147.75 897.825 2148.28 898.183 2139.78 892.87 2140.21 893.122 2131.4 888.184 2131.88 888.437 2122.75 883.937 2123.21 884.147 2113.16 879.787 2105.4 875.305 2105.92 875.583 2098.61 871.896 2099.02 872.095 2091.65 868.782 2092.06 868.956 2084.68 866.018 2085.12 866.179 2077.74 863.616 2078.29 863.791 2070.85 861.666 2071.45 861.816 2056.57 858.504 2057.44 858.658 2042.56 856.658 2043.33 856.732 2028.46 855.857 2029.15 855.875 2014.46 856 2015.08 855.976 2000.45 856.976 2001 856.925 1986.62 858.675 1987.08 858.607 1972.96 860.982 1973.35 860.909 1959.54 863.784 1959.81 863.724 1946.31 866.912 1946.56 866.848 1933.5 870.286 1933.63 870.25 1921 873.75 1921.05 873.738 1908.86 877.175 1908.9 877.164 1897.34 880.476C1891.86 882.045 1886.15 878.878 1884.59 873.403 1883.02 867.928 1886.18 862.217 1891.66 860.649ZM2329.76 1041.31 2333.53 1130.54 2254 1089.89C2248.93 1087.3 2246.92 1081.09 2249.51 1076.02 2252.1 1070.95 2258.32 1068.94 2263.39 1071.53L2327.17 1104.13 2312.17 1113.75 2309.16 1042.18C2308.92 1036.49 2313.34 1031.68 2319.03 1031.44 2324.72 1031.2 2329.52 1035.62 2329.76 1041.31Z" fill="#BEBEBE"/><path d="M2254.5 589.5C2319.08 584.424 2436.04 599.951 2487.46 589.5 2538.88 579.05 2663.19 580.883 2720.42 589.5 2777.65 598.118 2858.89 581.651 2944.42 589.5 3029.95 597.349 3066.96 588.148 3150.5 589.5 3158.35 629.262 3149.53 683.212 3150.5 767.1 3151.47 850.988 3150.14 892.356 3150.5 959.5 3096.53 956.639 3023.36 960.499 2944.42 959.5 2865.48 958.501 2821.78 960.527 2720.42 959.5 2619.06 958.473 2591.98 968.423 2523.3 959.5 2454.62 950.577 2372.27 951.385 2254.5 959.5 2249.92 918.169 2252.43 813.624 2254.5 770.8 2256.57 727.976 2255.64 640.463 2254.5 589.5Z" stroke="#7F7F7F" stroke-width="4.58333" stroke-miterlimit="8" fill="none" fill-rule="evenodd"/><text fill="#7F7F7F" font-family="Ink Free,Ink Free_MSFontService,sans-serif" font-weight="700" font-size="73" transform="matrix(1 0 0 1 2310.25 711)">Dependencies</text><path d="M2310.25 715.68 2411 715.68 2511.75 715.68 2612.5 715.68 2713.25 715.68 2713.25 719.68 2612.5 719.68 2511.75 719.68 2411 719.68 2310.25 719.68Z" fill="#7F7F7F" fill-rule="evenodd"/><path d="M1887.95 854.856 1917.92 843.245 1917.88 843.26 1948.73 831.161 1980.39 819.431 1996.71 813.852 2013.27 808.608 2030.04 803.832 2047.09 799.512 2064.48 795.766 2082.16 792.742 2100.13 790.509 2118.42 789.131 2136.98 788.753 2155.58 789.413 2155.34 789.407 2176.12 789.661 2196.79 791.212 2217.02 793.85 2236.81 797.507 2256.24 802.025 2275.23 807.35 2293.91 813.3 2312.24 819.725 2347.89 833.604 2382.57 848.071 2416.48 862.198 2416.31 862.132 2430.73 867.85C2436.02 869.951 2438.61 875.945 2436.51 881.239 2434.41 886.533 2428.42 889.122 2423.12 887.022L2408.63 881.271 2374.63 867.106 2340.06 852.687 2340.29 852.779 2304.92 839.009 2305.25 839.131 2287.22 832.813 2287.51 832.907 2269.14 827.057 2269.49 827.16 2250.89 821.946 2251.34 822.062 2232.37 817.649 2232.83 817.746 2213.54 814.181 2214.09 814.266 2194.41 811.701 2194.97 811.758 2174.9 810.252 2175.55 810.28 2154.97 810.029 2136.54 809.375 2137.11 809.38 2119.12 809.746 2119.68 809.719 2101.93 811.057 2102.42 811.008 2084.94 813.18 2085.4 813.112 2068.17 816.058 2068.6 815.975 2051.61 819.635 2051.97 819.55 2035.25 823.788 2035.54 823.709 2019.06 828.403 2019.35 828.315 2003.05 833.479 2003.27 833.407 1987.18 838.905 1987.43 838.816 1955.99 850.467 1956.17 850.398 1925.39 862.469 1895.4 874.088C1890.09 876.146 1884.12 873.508 1882.06 868.198 1880 862.887 1882.64 856.914 1887.95 854.856ZM2389.59 815.436 2446.09 884.603 2358.08 899.74C2352.46 900.706 2347.13 896.938 2346.16 891.325 2345.2 885.712 2348.97 880.379 2354.58 879.414L2425.18 867.273 2418.94 883.96 2373.62 828.484C2370.02 824.074 2370.67 817.577 2375.08 813.974 2379.49 810.371 2385.99 811.025 2389.59 815.436Z" fill="#BEBEBE"/><path d="M556.561 995.783 566.386 984.138 566.266 984.284 575.994 972.316 575.97 972.346 595.595 948.02 605.769 935.732 616.34 923.512 627.354 911.489 639.068 899.714 651.481 888.279 664.707 877.432 678.914 867.131 694.182 857.569 710.492 848.909 719.239 844.896 728.211 841.162 737.542 837.646 747.211 834.445 757.265 831.519 767.5 829.008 767.364 829.042 785.294 824.383 804.304 820.753 823.901 818.231 844.091 816.571 864.789 815.846 885.819 815.849 907.257 816.536 928.93 817.795 950.788 819.526 972.844 821.729 1016.91 826.937 1060.54 832.807 1082.99 835.885C1088.63 836.658 1092.58 841.86 1091.81 847.502 1091.03 853.145 1085.83 857.092 1080.19 856.319L1057.79 853.248 1014.24 847.389 1014.41 847.41 970.516 842.223 970.702 842.243 948.844 840.06 949.054 840.079 927.41 838.365 927.626 838.379 906.195 837.134 906.462 837.146 885.322 836.469 885.651 836.474 864.968 836.471 865.331 836.464 845.055 837.175 845.539 837.147 825.827 838.767 826.298 838.717 807.247 841.169 807.865 841.07 789.495 844.578 790.154 844.43 772.483 849.022 762.393 851.498 762.817 851.384 753.155 854.196 753.515 854.084 744.223 857.16 744.618 857.021 735.647 860.4 735.974 860.271 727.334 863.867 727.672 863.719 719.364 867.53 719.9 867.265 704.18 875.613 704.817 875.245 690.158 884.425 690.738 884.034 677.062 893.949 677.549 893.574 664.789 904.039 665.237 903.65 653.208 914.731 653.531 914.42 642.126 925.885 642.419 925.577 631.647 937.336 631.842 937.117 621.44 949.141 621.584 948.971 611.524 961.122 611.607 961.021 592.01 985.311 582.21 997.367 572.325 1009.08C568.652 1013.44 562.146 1013.99 557.793 1010.32 553.44 1006.64 552.888 1000.14 556.561 995.783ZM1031.55 793.82 1101.87 848.881 1019.32 882.99C1014.06 885.165 1008.03 882.661 1005.85 877.397 1003.68 872.133 1006.18 866.103 1011.45 863.928L1077.65 836.571 1075.23 854.221 1018.83 810.059C1014.35 806.548 1013.56 800.066 1017.07 795.582 1020.58 791.098 1027.06 790.309 1031.55 793.82Z" fill="#BEBEBE"/><path d="M568.169 996.093 581.935 995.716 581.639 995.729 596.023 994.921 595.829 994.934 610.753 993.814 610.703 993.818 626.235 992.575 642.271 991.379 658.881 990.362 676.051 989.715 693.69 989.625 711.757 990.289 730.229 991.838 749.032 994.464 768.119 998.357 777.813 1000.89 787.569 1003.74 797.302 1006.99 807.114 1010.64 817.024 1014.76 826.878 1019.33 836.838 1024.43 846.566 1029.88 845.799 1029.49 865.396 1038.41 884.322 1048.58 902.384 1059.81 919.516 1071.95 935.975 1084.94 951.724 1098.66 966.827 1112.96 981.487 1127.8 995.676 1143 1009.6 1158.59 1036.6 1190.16 1063.44 1221.95 1063.34 1221.83 1077.18 1237.74C1080.92 1242.04 1080.46 1248.55 1076.17 1252.29 1071.87 1256.03 1065.36 1255.57 1061.62 1251.28L1047.73 1235.31 1020.87 1203.49 1020.91 1203.54 993.999 1172.08 994.145 1172.25 980.369 1156.83 980.522 1156.99 966.509 1141.98 966.71 1142.19 952.273 1127.57 952.519 1127.81 937.698 1113.78 938.016 1114.07 922.617 1100.66 923.001 1100.97 906.947 1088.3 907.376 1088.62 890.716 1076.82 891.231 1077.16 873.707 1066.27 874.269 1066.59 855.93 1056.73 856.542 1057.04 836.864 1048.08 826.929 1042.52 827.269 1042.7 817.658 1037.78 818.016 1037.96 808.531 1033.56 808.912 1033.72 799.376 1029.76 799.744 1029.9 790.28 1026.38 790.61 1026.5 781.226 1023.37 781.594 1023.49 772.166 1020.73 772.454 1020.81 763.175 1018.38 763.722 1018.51 745.225 1014.74 745.86 1014.85 727.658 1012.3 728.223 1012.37 710.275 1010.86 710.758 1010.89 693.149 1010.24 693.58 1010.25 676.324 1010.34 676.659 1010.33 659.779 1010.97 660.021 1010.96 643.599 1011.96 643.736 1011.95 627.797 1013.14 627.852 1013.14 612.322 1014.38 597.276 1015.51 582.647 1016.33 568.734 1016.71C563.04 1016.87 558.299 1012.38 558.143 1006.68 557.987 1000.99 562.476 996.249 568.169 996.093ZM1066.14 1172.21 1082.83 1259.95 998.245 1231.29C992.851 1229.46 989.959 1223.61 991.787 1218.21 993.615 1212.82 999.469 1209.93 1004.86 1211.75L1072.71 1234.74 1059.27 1246.44 1045.88 1176.06C1044.82 1170.47 1048.49 1165.07 1054.09 1164.01 1059.68 1162.94 1065.08 1166.62 1066.14 1172.21Z" fill="#BEBEBE"/></g></svg>