<?xml version="1.0" encoding="UTF-8" standalone="no"?>
<!DOCTYPE svg PUBLIC "-//W3C//DTD SVG 1.1//EN" "http://www.w3.org/Graphics/SVG/1.1/DTD/svg11.dtd">
<!-- Généré par Microsoft Visio, SVG Export cosmosdb.partitionkey.svg Page-22 -->
<svg xmlns="http://www.w3.org/2000/svg" xmlns:xlink="http://www.w3.org/1999/xlink" xmlns:ev="http://www.w3.org/2001/xml-events"
		xmlns:v="http://schemas.microsoft.com/visio/2003/SVGExtensions/" width="8.93809in" height="3.46706in"
		viewBox="0 0 643.542 249.628" xml:space="preserve" color-interpolation-filters="sRGB" class="st21">
	<v:documentProperties v:langID="1036" v:metric="true" v:viewMarkup="false">
		<v:userDefs>
			<v:ud v:nameU="msvNoAutoConnect" v:val="VT0(1):26"/>
		</v:userDefs>
	</v:documentProperties>

	<style type="text/css">
	<![CDATA[
		.st1 {fill:#feffff;stroke:#b8b8b8;stroke-dasharray:3.5,2.5;stroke-linecap:round;stroke-linejoin:round;stroke-width:0.5}
		.st2 {fill:#595959;font-family:Arial;font-size:1.00001em}
		.st3 {fill:#59b4d9;stroke:none;stroke-linecap:butt;stroke-width:25.5202}
		.st4 {fill:#ffffff;fill-opacity:0.5;stroke:none;stroke-linecap:butt;stroke-width:25.5202}
		.st5 {fill:#b8d432;stroke:none;stroke-linecap:butt;stroke-width:25.5202}
		.st6 {fill:#000000;stroke:none;stroke-linecap:butt;stroke-width:25.5202}
		.st7 {fill:#e8eaf0;stroke:#b0b9ce;stroke-linecap:round;stroke-linejoin:round;stroke-width:0.5}
		.st8 {fill:#3d5c8f;font-family:Arial;font-size:1.00001em}
		.st9 {fill:#feffff;stroke:#bbd4be;stroke-linecap:round;stroke-linejoin:round;stroke-width:0.5}
		.st10 {fill:#639b6a;font-family:Arial;font-size:1.00001em}
		.st11 {font-size:1em}
		.st12 {marker-start:url(#mrkr1-36);stroke:#b8b8b8;stroke-dasharray:2.25,4.5;stroke-linecap:round;stroke-linejoin:round;stroke-width:2.25}
		.st13 {fill:#b8b8b8;fill-opacity:1;stroke:#b8b8b8;stroke-opacity:1;stroke-width:0.47169811320755}
		.st14 {marker-start:url(#mrkr1-42);stroke:#b8b8b8;stroke-linecap:round;stroke-linejoin:round;stroke-width:4.5}
		.st15 {fill:#b8b8b8;fill-opacity:1;stroke:#b8b8b8;stroke-opacity:1;stroke-width:0.64102564102564}
		.st16 {fill:#f6f1e8;stroke:#e4d2af;stroke-linecap:round;stroke-linejoin:round;stroke-width:0.24}
		.st17 {fill:#b69633;font-family:Arial;font-size:0.666664em}
		.st18 {fill:#feffff}
		.st19 {stroke:#b8b8b8;stroke-linecap:round;stroke-linejoin:round;stroke-width:0.5}
		.st20 {fill:#595959;font-family:Arial;font-size:0.833336em}
		.st21 {fill:none;fill-rule:evenodd;font-size:12px;overflow:visible;stroke-linecap:square;stroke-miterlimit:3}
	]]>
	</style>

	<defs id="Markers">
		<g id="lend1">
			<path d="M 1 -1 L 0 0 L 1 1 " style="stroke-linecap:round;stroke-linejoin:round;fill:none"/>
		</g>
		<marker id="mrkr1-36" class="st13" v:arrowType="1" v:arrowSize="2" orient="auto" markerUnits="strokeWidth"
				overflow="visible">
			<use xlink:href="#lend1" transform="scale(2.12) "/>
		</marker>
		<marker id="mrkr1-42" class="st15" v:arrowType="1" v:arrowSize="2" orient="auto" markerUnits="strokeWidth"
				overflow="visible">
			<use xlink:href="#lend1" transform="scale(1.56) "/>
		</marker>
	</defs>
	<g v:mID="208" v:index="12" v:groupContext="foregroundPage">
		<v:userDefs>
			<v:ud v:nameU="msvThemeOrder" v:val="VT0(1):26"/>
		</v:userDefs>
		<title>Page 22</title>
		<v:pageProperties v:drawingScale="0.0393701" v:pageScale="0.0393701" v:drawingUnits="24" v:shadowOffsetX="8.50394"
				v:shadowOffsetY="-8.50394"/>
		<v:layer v:name="Conteneur" v:index="0"/>
		<v:layer v:name="Lien" v:index="1"/>
		<v:layer v:name="Diagramme de flux" v:index="2"/>
		<v:layer v:name="Légende" v:index="3"/>
		<g id="shape123-1" v:mID="123" v:groupContext="shape" transform="translate(69.0555,-18)">
			<title>Feuille.123</title>
			<desc>Database</desc>
			<v:textBlock v:margins="rect(4,4,4,4)" v:tabSpace="42.5197" v:verticalAlign="0"/>
			<v:textRect cx="286.409" cy="186.486" width="572.82" height="126.283"/>
			<path d="M0 249.63 L572.82 249.63 L572.82 123.34 L0 123.34 L0 249.63 Z" class="st1"/>
			<text x="517.45" y="138.14" class="st2" v:langID="1036"><v:paragraph v:horizAlign="2"/><v:tabList/>Database</text>		</g>
		<g id="group115-4" transform="translate(22.4146,-93.8773)" v:mID="115" v:groupContext="group">
			<title>Feuille.115</title>
			<g id="group116-5" v:mID="116" v:groupContext="group">
				<title> Cosmos_DB_2</title>
				<g id="shape117-6" v:mID="117" v:groupContext="shape" transform="translate(23.7364,-9.73199)">
					<title>Feuille.117</title>
					<path d="M33.95 224.52 A22.7894 22.7894 0 1 1 6.82 207.96 A22.7037 22.7037 0 0 1 33.95 224.52 Z" class="st3"/>
				</g>
				<g id="shape118-8" v:mID="118" v:groupContext="shape" transform="translate(13.7079,-9.70977)">
					<title>Feuille.118</title>
					<path d="M18.85 239.06 A6.03148 6.03148 -180 0 0 12.85 233.06 L11.71 233.06 A5.75447 5.75447 -180 0 0 7.43 225.92
								 L0 225.92 A22.2754 22.2754 -180 0 0 5.43 245.34 L12.85 245.34 A6.28279 6.28279 -180 0 0 18.85 239.06
								 ZM26.27 214.22 L26.27 215.36 L23.7 215.36 A6.28279 6.28279 -180 0 0 23.7 227.92 L44.55 227.92 A21.7727
								 21.7727 -180 0 0 32.84 210.22 L30.27 210.22 A3.9039 3.9039 -180 0 0 26.27 214.22 ZM44.55 232.21
								 L32.27 232.21 A5.12048 5.12048 -180 0 0 27.13 237.35 A8.33898 8.33898 -180 0 0 27.7 239.92 A5.17474
								 5.17474 -180 0 0 24.27 246.2 A4.65783 4.65783 -180 0 0 29.13 249.63 L32.56 249.63 A22.6952 22.6952
								 -180 0 0 44.55 232.21 Z" class="st4"/>
				</g>
				<g id="shape119-10" v:mID="119" v:groupContext="shape" transform="translate(1.14233,-44.5507)">
					<title>Feuille.119</title>
					<path d="M9.14 249.63 a0.614 0.614 0 0 1 -0.571163 -0.571163 A7.99628 7.99628 -180 0 0 0.57 241.06 C0.29 241.35
								 0 240.77 0 240.49 a0.614 0.614 0 0 1 0.571163 -0.571163 A7.99628 7.99628 -180 0 0 8.57 231.92 C8.57
								 231.35 8.85 231.35 9.14 231.35 C9.42 231.35 10 231.35 10 231.92 A7.99628 7.99628 -180 0 0 17.99
								 239.92 a0.571163 0.571163 0 0 1 0 1.14233 A7.99628 7.99628 -180 0 0 10 249.06 C10 249.34 9.71 249.63
								 9.14 249.63 Z" class="st5"/>
				</g>
				<g id="shape120-12" v:mID="120" v:groupContext="shape" transform="translate(53.6893,-1.13687E-13)">
					<title>Feuille.120</title>
					<path d="M5.43 249.63 C5.14 249.63 5.14 249.63 5.14 249.34 A4.75779 4.75779 -180 0 0 0.29 244.77 C0 244.77 0
								 244.77 0 244.49 C0 244.2 0 244.2 0.29 244.2 A4.95484 4.95484 -180 0 0 5.14 239.63 C5.14 239.35 5.14
								 239.35 5.43 239.35 C5.71 239.35 5.71 239.35 5.71 239.63 A4.75779 4.75779 -180 0 0 10.57 244.2 C10.85
								 244.2 10.85 244.2 10.85 244.49 C10.85 244.77 10.85 244.77 10.57 244.77 A4.95484 4.95484 -180 0 0
								 5.71 249.34 C6 249.63 5.71 249.63 5.43 249.63 Z" class="st3"/>
				</g>
				<g id="shape121-14" v:mID="121" v:groupContext="shape" transform="translate(0,-5.99721)">
					<title>Feuille.121</title>
					<path d="M68.83 205.93 C66.54 202.51 61.4 201.65 53.12 203.65 A56.4081 56.4081 -180 0 0 45.69 205.93 A22.381
								 22.381 0 0 1 49.98 208.79 C51.4 208.5 52.83 207.93 53.97 207.65 A25.9279 25.9279 0 0 1 60.54 206.79
								 C63.11 206.79 64.54 207.36 65.11 208.22 C65.97 209.65 65.11 213.07 60.54 218.5 A26.9246 26.9246
								 0 0 1 57.69 221.36 A97.3205 97.3205 0 0 1 40.55 234.49 A79.6772 79.6772 0 0 1 21.13 243.35 C12.85
								 245.92 7.14 245.92 6 243.92 C4.85 241.92 7.14 236.78 13.42 230.78 A31.4682 31.4682 0 0 1 12.85 225.64
								 C3.14 234.49 0 242.2 2.28 246.2 A10.0239 10.0239 -180 0 0 10.85 249.63 A42.9714 42.9714 -180 0 0
								 25.42 246.49 A96.0268 96.0268 -180 0 0 42.55 237.92 A119.57 119.57 -180 0 0 57.97 226.5 A48.6745
								 48.6745 -180 0 0 63.4 221.07 C69.11 214.5 70.82 209.36 68.83 205.93 Z" class="st6"/>
				</g>
			</g>
		</g>
		<g id="shape135-16" v:mID="135" v:groupContext="shape" transform="translate(99.9999,-25.3701)">
			<title>Feuille.135</title>
			<desc>Container</desc>
			<v:textBlock v:margins="rect(4,4,4,4)" v:tabSpace="42.5197" v:verticalAlign="0"/>
			<v:textRect cx="244.661" cy="203.282" width="489.33" height="92.6929"/>
			<rect x="0" y="156.935" width="489.323" height="92.6929" class="st7"/>
			<text x="433.29" y="171.74" class="st8" v:langID="1036"><v:paragraph v:horizAlign="2"/><v:tabList/>Container</text>		</g>
		<g id="shape136-19" v:mID="136" v:groupContext="shape" transform="translate(135.779,-42.9449)">
			<title>Feuille.136</title>
			<desc>Logical Partition Paris</desc>
			<v:textBlock v:margins="rect(4,4,4,4)" v:tabSpace="42.5197" v:verticalAlign="0"/>
			<v:textRect cx="63.4961" cy="230.211" width="127" height="38.8346"/>
			<rect x="0" y="210.793" width="126.992" height="38.8346" class="st9"/>
			<text x="37.61" y="225.59" class="st10" v:langID="1036"><v:paragraph v:horizAlign="2"/><v:tabList/>Logical Partition<v:newlineChar/><tspan
						x="95.65" dy="1.2em" class="st11">Paris</tspan></text>		</g>
		<g id="shape137-23" v:mID="137" v:groupContext="shape" transform="translate(284.031,-42.9449)">
			<title>Feuille.137</title>
			<desc>Logical Partition London</desc>
			<v:textBlock v:margins="rect(4,4,4,4)" v:tabSpace="42.5197" v:verticalAlign="0"/>
			<v:textRect cx="63.4961" cy="230.211" width="127" height="38.8346"/>
			<rect x="0" y="210.793" width="126.992" height="38.8346" class="st9"/>
			<text x="37.61" y="225.59" class="st10" v:langID="1036"><v:paragraph v:horizAlign="2"/><v:tabList/>Logical Partition<v:newlineChar/><tspan
						x="82.95" dy="1.2em" class="st11">London</tspan></text>		</g>
		<g id="shape138-27" v:mID="138" v:groupContext="shape" transform="translate(432.283,-42.9449)">
			<title>Feuille.138</title>
			<desc>Logical Partition Mumbay</desc>
			<v:textBlock v:margins="rect(4,4,4,4)" v:tabSpace="42.5197" v:verticalAlign="0"/>
			<v:textRect cx="63.4961" cy="230.211" width="127" height="38.8346"/>
			<rect x="0" y="210.793" width="126.992" height="38.8346" class="st9"/>
			<text x="37.61" y="225.59" class="st10" v:langID="1036"><v:paragraph v:horizAlign="2"/><v:tabList/>Logical Partition<v:newlineChar/><tspan
						x="76.98" dy="1.2em" class="st11">Mumbay</tspan></text>		</g>
		<g id="shape127-31" v:mID="127" v:groupContext="shape" v:layerMember="1" transform="translate(249.543,-81.7795)">
			<title>Lien dynamique.127</title>
			<path d="M0 249.63 L93.93 213.34" class="st12"/>
		</g>
		<g id="shape124-37" v:mID="124" v:groupContext="shape" v:layerMember="1" transform="translate(344.126,-118.063)">
			<title>Lien dynamique.124</title>
			<path d="M0 249.63 C0.57 214.05 1.42 192.79 -38.27 181.45" class="st14"/>
		</g>
		<g id="group140-43" transform="translate(267.59,-160.724)" v:mID="140" v:groupContext="group" v:layerMember="2">
			<v:custProps>
				<v:cp v:nameU="BpmnId" v:lbl="ID" v:prompt="" v:type="0" v:format="" v:sortKey="" v:invis="true" v:ask="false"
						v:langID="1036" v:cal="0" v:val="VT4()"/>
				<v:cp v:nameU="BpmnCategories" v:lbl="Catégories" v:prompt="" v:type="0" v:format="" v:sortKey="" v:invis="false"
						v:ask="false" v:langID="1036" v:cal="0" v:val="VT4()"/>
				<v:cp v:nameU="BpmnDocumentation" v:lbl="Documentation" v:prompt="" v:type="0" v:format="" v:sortKey=""
						v:invis="false" v:ask="false" v:langID="1036" v:cal="0" v:val="VT4()"/>
				<v:cp v:nameU="BpmnArtifactType" v:lbl="TypeArtefact" v:prompt="" v:type="1"
						v:format="Objet de données;Groupe;Annotation" v:sortKey="" v:invis="true" v:ask="false" v:langID="1036"
						v:cal="0" v:val="VT4(Objet de données)"/>
				<v:cp v:nameU="BpmnName" v:lbl="Nom" v:prompt="" v:type="0" v:format="" v:sortKey="" v:invis="true" v:ask="false"
						v:langID="1036" v:cal="0" v:val="VT4()"/>
				<v:cp v:nameU="BpmnState" v:lbl="État" v:prompt="" v:type="0" v:format="" v:sortKey="" v:invis="false"
						v:ask="false" v:langID="1036" v:cal="0" v:val="VT4()"/>
				<v:cp v:nameU="BpmnText" v:lbl="Texte " v:prompt="" v:type="0" v:format="" v:sortKey="" v:invis="true"
						v:ask="false" v:langID="1036" v:cal="0" v:val="VT4()"/>
				<v:cp v:nameU="BpmnCategoryRef" v:lbl="RéfCatégorie" v:prompt="" v:type="0" v:format="" v:sortKey="" v:invis="true"
						v:ask="false" v:langID="1036" v:cal="0" v:val="VT4()"/>
				<v:cp v:nameU="BpmnElementType" v:lbl="TypeÉlément" v:prompt="" v:type="1"
						v:format="Sous-processus;Événement;Passerelle;Diagramme de processus;Liste de ressources;Allée;Artefact;Objet de liaison"
						v:sortKey="" v:invis="true" v:ask="false" v:langID="1036" v:cal="0" v:val="VT4(Artefact)"/>
				<v:cp v:nameU="BpmnCollection" v:lbl="Collection" v:prompt="" v:type="3" v:format="" v:sortKey="" v:invis="false"
						v:ask="false" v:langID="1036" v:cal="0" v:val="VT0(0):5"/>
				<v:cp v:nameU="BpmnName" v:lbl="" v:prompt="" v:type="0" v:format="" v:sortKey="" v:invis="false" v:ask="false"
						v:langID="0" v:cal="0" v:val="VT4(Data)"/>
				<v:cp v:nameU="BpmnText" v:lbl="" v:prompt="" v:type="0" v:format="" v:sortKey="" v:invis="false" v:ask="false"
						v:langID="0" v:cal="0" v:val="VT4(Data)"/>
				<v:cp v:nameU="BpmnCategoryRef" v:lbl="" v:prompt="" v:type="0" v:format="" v:sortKey="" v:invis="false"
						v:ask="false" v:langID="0" v:cal="0" v:val="VT4(Data)"/>
			</v:custProps>
			<v:userDefs>
				<v:ud v:nameU="msvShapeCategories" v:prompt="" v:val="VT4(Data Object)"/>
				<v:ud v:nameU="visVersion" v:prompt="" v:val="VT0(15):26"/>
			</v:userDefs>
			<title>Objet de données</title>
			<desc>Data</desc>
			<g id="shape141-44" v:mID="141" v:groupContext="shape" v:layerMember="2">
				<title>Feuille.141</title>
				<path d="M38.27 213.3 L24.49 213.3 L24.49 198.6 L0 198.6 L0 249.63 L38.27 249.63 L38.27 213.3 ZM38.27 212.07 L24.49
							 198.6 L24.49 213.3 L38.27 213.3 L38.27 212.07 Z" class="st16"/>
			</g>
			<g id="shape142-46" v:mID="142" v:groupContext="shape" v:layerMember="2" transform="translate(16.7421,-5.68434E-14)">
				<title>Feuille.142</title>
			</g>
			<g id="shape140-48" v:mID="140" v:groupContext="groupContent" v:layerMember="2">
				<v:textBlock v:margins="rect(2,2,2,2)" v:tabSpace="42.5197" v:verticalAlign="0"/>
				<v:textRect cx="19.1339" cy="256.43" width="23.13" height="13.6036"/>
				<text x="10.68" y="258.83" class="st17" v:langID="1036"><v:paragraph v:horizAlign="1"/><v:tabList/>Data</text>			</g>
		</g>
		<g id="shape144-50" v:mID="144" v:groupContext="shape" v:layerMember="3" transform="translate(320.031,-194.74)">
			<title>Rempli</title>
			<desc>Partition key : Paris</desc>
			<v:userDefs>
				<v:ud v:nameU="visVersion" v:prompt="" v:val="VT0(15):26"/>
				<v:ud v:nameU="msvStructureType" v:prompt="" v:val="VT4(Callout)"/>
				<v:ud v:nameU="msvSDTargetIntersection" v:prompt=""/>
				<v:ud v:nameU="msvSDCalloutNoHighlight" v:prompt="" v:val="VT0(0):5"/>
				<v:ud v:nameU="msvShapeCategories" v:prompt="" v:val="VT0(0):26"/>
				<v:ud v:nameU="Side" v:prompt="" v:val="VT0(4):26"/>
				<v:ud v:nameU="LeaderEnd" v:prompt="" v:val="VT7(PNT(6.25MM,-6.4MM)):40"/>
				<v:ud v:nameU="WHBoxIntersection" v:prompt="" v:val="VT7(PNT(10.096153846154MM,0MM)):40"/>
				<v:ud v:nameU="Embellishment" v:prompt="" v:val="VT0(2):26"/>
				<v:ud v:nameU="BackFillColor" v:prompt="" v:val="VT5(#96afcf)"/>
				<v:ud v:nameU="BackLineColor" v:prompt="" v:val="VT5(#1f477d)"/>
				<v:ud v:nameU="DarkerColor" v:prompt="" v:val="VT5(#1f477d)"/>
				<v:ud v:nameU="msvSDTargetIntersection" v:prompt="" v:val="VT7(PNT(-0.19685042574431,-0.019482099203336)):40"/>
				<v:ud v:nameU="Side" v:prompt="" v:val="VT0(3):26"/>
				<v:ud v:nameU="LeaderEnd" v:prompt="" v:val="VT7(PNT(-0.19685042574431,-0.019482099203336)):40"/>
				<v:ud v:nameU="WHBoxIntersection" v:prompt="" v:val="VT7(PNT(0MM,0)):40"/>
				<v:ud v:nameU="BackFillColor" v:prompt="" v:val="VT5(#feffff)"/>
				<v:ud v:nameU="BackLineColor" v:prompt="" v:val="VT5(#b8b8b8)"/>
				<v:ud v:nameU="DarkerColor" v:prompt="" v:val="VT5(#b8b8b8)"/>
			</v:userDefs>
			<v:textBlock v:margins="rect(4,4,4,4)" v:tabSpace="42.5197"/>
			<v:textRect cx="35.4331" cy="232.62" width="70.87" height="32.0037"/>
			<path d="M0 249.63 L70.87 249.63 L70.87 215.61 L0 215.61 L0 249.63 Z" class="st18"/>
			<path d="M0 249.63 L-14.17 251.03" class="st19"/>
			<path d="M0 249.63 L70.87 249.63 L70.87 215.61 L0 215.61 L0 249.63" class="st19"/>
			<text x="4" y="229.62" class="st20" v:langID="1036"><v:paragraph/><v:tabList/>Partition key : <tspan x="4" dy="1.2em"
						class="st11">Paris</tspan></text>		</g>
	</g>
</svg>
