<?xml version="1.0" encoding="UTF-8" standalone="no"?>
<!DOCTYPE svg PUBLIC "-//W3C//DTD SVG 1.1//EN" "http://www.w3.org/Graphics/SVG/1.1/DTD/svg11.dtd">
<!-- Généré par Microsoft Visio, SVG Export cosmosdb.redis.svg Page 1 -->
<svg xmlns="http://www.w3.org/2000/svg" xmlns:xlink="http://www.w3.org/1999/xlink" xmlns:ev="http://www.w3.org/2001/xml-events"
		xmlns:v="http://schemas.microsoft.com/visio/2003/SVGExtensions/" width="8.43809in" height="2.96706in"
		viewBox="0 0 607.542 213.628" xml:space="preserve" color-interpolation-filters="sRGB" class="st22">
	<v:documentProperties v:langID="1036" v:metric="true" v:viewMarkup="false"/>

	<style type="text/css">
	<![CDATA[
		.st1 {marker-end:url(#mrkr6-6);stroke:#b8b8b8;stroke-linecap:round;stroke-linejoin:round;stroke-width:4.5}
		.st2 {fill:#b8b8b8;fill-opacity:1;stroke:#b8b8b8;stroke-opacity:1;stroke-width:0.64102564102564}
		.st3 {fill:#3999c6;stroke:none;stroke-linecap:butt;stroke-width:9.5625}
		.st4 {fill:#fcd116;stroke:none;stroke-linecap:butt;stroke-width:9.5625}
		.st5 {fill:#ff8c00;fill-opacity:0.3;stroke:none;stroke-linecap:butt;stroke-width:9.5625}
		.st6 {fill:none;stroke:none;stroke-linecap:round;stroke-linejoin:round;stroke-width:0.5}
		.st7 {fill:#595959;font-family:Arial;font-size:1.00001em}
		.st8 {fill:#59b4d9;stroke:none;stroke-linecap:butt;stroke-width:25.5202}
		.st9 {fill:#ffffff;fill-opacity:0.5;stroke:none;stroke-linecap:butt;stroke-width:25.5202}
		.st10 {fill:#b8d432;stroke:none;stroke-linecap:butt;stroke-width:25.5202}
		.st11 {fill:#000000;stroke:none;stroke-linecap:butt;stroke-width:25.5202}
		.st12 {fill:#ba141a;stroke:none;stroke-linecap:butt;stroke-width:0.75}
		.st13 {fill:#1e1e1e;fill-opacity:0.25;stroke:none;stroke-linecap:butt;stroke-width:0.75}
		.st14 {fill:#ffffff;stroke:none;stroke-linecap:butt;stroke-width:0.75}
		.st15 {fill:#0072c6;stroke:none;stroke-linecap:butt;stroke-width:0.75}
		.st16 {fill:#59b4d9;stroke:none;stroke-linecap:butt;stroke-width:0.75}
		.st17 {fill:#b8d432;stroke:none;stroke-linecap:butt;stroke-width:0.75}
		.st18 {marker-end:url(#mrkr6-126);stroke:#b8b8b8;stroke-linecap:round;stroke-linejoin:round;stroke-width:4.5}
		.st19 {fill:#92d050;stroke:none;stroke-linecap:round;stroke-linejoin:round;stroke-width:0.5}
		.st20 {fill:#ffffff;font-family:Arial Black;font-size:0.75em}
		.st21 {fill:#ffc000;stroke:none;stroke-linecap:round;stroke-linejoin:round;stroke-width:0.5}
		.st22 {fill:none;fill-rule:evenodd;font-size:12px;overflow:visible;stroke-linecap:square;stroke-miterlimit:3}
	]]>
	</style>

	<defs id="Markers">
		<g id="lend6">
			<path d="M 2 1 L 0 0 L 2.01237 -1.00641 C 2.32921 -0.372874 2.32921 0.37287 2.01238 1.0064 " style="stroke:none"/>
		</g>
		<marker id="mrkr6-6" class="st2" v:arrowType="6" v:arrowSize="2" v:setback="3.51" refX="-3.51" orient="auto"
				markerUnits="strokeWidth" overflow="visible">
			<use xlink:href="#lend6" transform="scale(-1.56,-1.56) "/>
		</marker>
		<marker id="mrkr6-126" class="st2" v:arrowType="6" v:arrowSize="2" v:setback="3.43" refX="-3.43" orient="auto"
				markerUnits="strokeWidth" overflow="visible">
			<use xlink:href="#lend6" transform="scale(-1.56,-1.56) "/>
		</marker>
	</defs>
	<g v:mID="0" v:index="1" v:groupContext="foregroundPage">
		<title>Page 1</title>
		<v:pageProperties v:drawingScale="0.0393701" v:pageScale="0.0393701" v:drawingUnits="24" v:shadowOffsetX="8.50394"
				v:shadowOffsetY="-8.50394"/>
		<v:layer v:name="Lien" v:index="0"/>
		<g id="shape103-1" v:mID="103" v:groupContext="shape" v:layerMember="0" transform="translate(420.248,-106.602)">
			<title>Lien dynamique.189</title>
			<path d="M0 213.63 L73.66 177.99" class="st1"/>
		</g>
		<g id="group106-7" transform="translate(339.141,-75.7986)" v:mID="106" v:groupContext="group">
			<title>Azure Functions</title>
			<g id="shape107-8" v:mID="107" v:groupContext="shape" transform="translate(48.1693,-12.6472)">
				<title>Feuille.107</title>
				<path d="M22 194.27 C22.65 193.61 22.54 192.4 22 191.74 L18.59 188.33 L3.41 173.6 C2.75 172.94 1.76 172.94 0.99 173.6
							 C0.33 174.26 0.11 175.47 0.99 176.13 L16.94 191.74 C17.6 192.4 17.6 193.61 16.94 194.27 L0.66 210.44
							 C0 211.1 0 212.31 0.66 212.97 C1.32 213.63 2.53 213.52 3.08 212.97 L18.15 198.01 C18.15 198.01 18.15
							 198.01 18.26 197.9 L22 194.27 Z" class="st3"/>
			</g>
			<g id="shape108-10" v:mID="108" v:groupContext="shape" transform="translate(0,-12.6472)">
				<title>Feuille.108</title>
				<path d="M0.66 194.27 C0 193.61 0.11 192.4 0.66 191.74 L4.07 188.33 L19.25 173.6 C19.91 172.94 20.9 172.94 21.67
							 173.6 C22.33 174.26 22.54 175.47 21.67 176.13 L6.05 191.74 C5.39 192.4 5.39 193.61 6.05 194.27 L22 210.44
							 C22.65 211.1 22.65 212.31 22 212.97 C21.34 213.63 20.13 213.52 19.58 212.97 L4.18 198.23 C4.18 198.23
							 4.18 198.23 4.07 198.12 L0.66 194.27 Z" class="st3"/>
			</g>
			<g id="shape109-12" v:mID="109" v:groupContext="shape" transform="translate(19.5756,2.84217E-14)">
				<title>Feuille.109</title>
				<path d="M32.99 148.74 L11.55 148.74 L0 181.3 L14.08 181.41 L3.08 213.63 L33.43 170.63 L18.7 170.63 L32.99 148.74
							 Z" class="st4"/>
			</g>
			<g id="shape110-14" v:mID="110" v:groupContext="shape" transform="translate(22.655,2.84217E-14)">
				<title>Feuille.110</title>
				<path d="M15.62 170.63 L29.91 148.74 L18.7 148.74 L6.82 175.8 L20.9 175.91 L0 213.63 L30.35 170.63 L15.62 170.63 Z"
						class="st5"/>
			</g>
		</g>
		<g id="shape111-16" v:mID="111" v:groupContext="shape" transform="translate(336.653,-51.2794)">
			<title>Feuille.111</title>
			<desc>Function</desc>
			<v:textBlock v:margins="rect(4,4,4,4)" v:tabSpace="42.5197"/>
			<v:textRect cx="37.9003" cy="199.455" width="75.81" height="28.3465"/>
			<rect x="0" y="185.282" width="75.8005" height="28.3465" class="st6"/>
			<text x="14.89" y="203.05" class="st7" v:langID="1036"><v:paragraph v:horizAlign="1"/><v:tabList/>Function</text>		</g>
		<g id="shape114-19" v:mID="114" v:groupContext="shape" transform="translate(501.744,-95.2639)">
			<title>Feuille.114</title>
			<desc>CosmosDB</desc>
			<v:textBlock v:margins="rect(4,4,4,4)" v:tabSpace="42.5197"/>
			<v:textRect cx="46.0629" cy="199.455" width="92.13" height="28.3465"/>
			<rect x="0" y="185.282" width="92.1259" height="28.3465" class="st6"/>
			<text x="15.72" y="203.05" class="st7" v:langID="1036"><v:paragraph v:horizAlign="1"/><v:tabList/>CosmosDB</text>		</g>
		<g id="group115-22" transform="translate(512.395,-125.28)" v:mID="115" v:groupContext="group">
			<title>Feuille.115</title>
			<g id="group116-23" v:mID="116" v:groupContext="group">
				<title> Cosmos_DB_2</title>
				<g id="shape117-24" v:mID="117" v:groupContext="shape" transform="translate(23.7364,-9.73199)">
					<title>Feuille.117</title>
					<path d="M33.95 188.52 A22.7894 22.7894 0 1 1 6.82 171.96 A22.7037 22.7037 0 0 1 33.95 188.52 Z" class="st8"/>
				</g>
				<g id="shape118-26" v:mID="118" v:groupContext="shape" transform="translate(13.7079,-9.70977)">
					<title>Feuille.118</title>
					<path d="M18.85 203.06 A6.03148 6.03148 -180 0 0 12.85 197.06 L11.71 197.06 A5.75447 5.75447 -180 0 0 7.43 189.92
								 L0 189.92 A22.2754 22.2754 -180 0 0 5.43 209.34 L12.85 209.34 A6.28279 6.28279 -180 0 0 18.85 203.06
								 ZM26.27 178.22 L26.27 179.36 L23.7 179.36 A6.28279 6.28279 -180 0 0 23.7 191.92 L44.55 191.92 A21.7727
								 21.7727 -180 0 0 32.84 174.22 L30.27 174.22 A3.9039 3.9039 -180 0 0 26.27 178.22 ZM44.55 196.21
								 L32.27 196.21 A5.12048 5.12048 -180 0 0 27.13 201.35 A8.33898 8.33898 -180 0 0 27.7 203.92 A5.17474
								 5.17474 -180 0 0 24.27 210.2 A4.65783 4.65783 -180 0 0 29.13 213.63 L32.56 213.63 A22.6952 22.6952
								 -180 0 0 44.55 196.21 Z" class="st9"/>
				</g>
				<g id="shape119-28" v:mID="119" v:groupContext="shape" transform="translate(1.14233,-44.5507)">
					<title>Feuille.119</title>
					<path d="M9.14 213.63 a0.614 0.614 0 0 1 -0.571163 -0.571163 A7.99628 7.99628 -180 0 0 0.57 205.06 C0.29 205.35
								 0 204.77 0 204.49 a0.614 0.614 0 0 1 0.571163 -0.571163 A7.99628 7.99628 -180 0 0 8.57 195.92 C8.57
								 195.35 8.85 195.35 9.14 195.35 C9.42 195.35 10 195.35 10 195.92 A7.99628 7.99628 -180 0 0 17.99
								 203.92 a0.571163 0.571163 0 0 1 0 1.14233 A7.99628 7.99628 -180 0 0 10 213.06 C10 213.34 9.71 213.63
								 9.14 213.63 Z" class="st10"/>
				</g>
				<g id="shape120-30" v:mID="120" v:groupContext="shape" transform="translate(53.6893,-1.13687E-13)">
					<title>Feuille.120</title>
					<path d="M5.43 213.63 C5.14 213.63 5.14 213.63 5.14 213.34 A4.75779 4.75779 -180 0 0 0.29 208.77 C0 208.77 0
								 208.77 0 208.49 C0 208.2 0 208.2 0.29 208.2 A4.95484 4.95484 -180 0 0 5.14 203.63 C5.14 203.35 5.14
								 203.35 5.43 203.35 C5.71 203.35 5.71 203.35 5.71 203.63 A4.75779 4.75779 -180 0 0 10.57 208.2 C10.85
								 208.2 10.85 208.2 10.85 208.49 C10.85 208.77 10.85 208.77 10.57 208.77 A4.95484 4.95484 -180 0 0
								 5.71 213.34 C6 213.63 5.71 213.63 5.43 213.63 Z" class="st8"/>
				</g>
				<g id="shape121-32" v:mID="121" v:groupContext="shape" transform="translate(0,-5.99721)">
					<title>Feuille.121</title>
					<path d="M68.83 169.93 C66.54 166.51 61.4 165.65 53.12 167.65 A56.4081 56.4081 -180 0 0 45.69 169.93 A22.381
								 22.381 0 0 1 49.98 172.79 C51.4 172.5 52.83 171.93 53.97 171.65 A25.9279 25.9279 0 0 1 60.54 170.79
								 C63.11 170.79 64.54 171.36 65.11 172.22 C65.97 173.65 65.11 177.07 60.54 182.5 A26.9246 26.9246
								 0 0 1 57.69 185.36 A97.3205 97.3205 0 0 1 40.55 198.49 A79.6772 79.6772 0 0 1 21.13 207.35 C12.85
								 209.92 7.14 209.92 6 207.92 C4.85 205.92 7.14 200.78 13.42 194.78 A31.4682 31.4682 0 0 1 12.85 189.64
								 C3.14 198.49 0 206.2 2.28 210.2 A10.0239 10.0239 -180 0 0 10.85 213.63 A42.9714 42.9714 -180 0 0
								 25.42 210.49 A96.0268 96.0268 -180 0 0 42.55 201.92 A119.57 119.57 -180 0 0 57.97 190.5 A48.6745
								 48.6745 -180 0 0 63.4 185.07 C69.11 178.5 70.82 173.36 68.83 169.93 Z" class="st11"/>
				</g>
			</g>
		</g>
		<g id="group122-34" transform="translate(522.296,-29.0745)" v:mID="122" v:groupContext="group">
			<title>Redis Cache #1</title>
			<g id="group123-35" v:mID="123" v:groupContext="group">
				<title>Feuille.123</title>
				<g id="shape124-36" v:mID="124" v:groupContext="shape" transform="translate(0.351867,2.84217E-14)">
					<title>Feuille.124</title>
					<path d="M0.17 201.87 C0.07 202.47 0.58 203.07 1.68 203.52 L24.31 212.79 C26.34 213.63 29.65 213.63 31.68 212.79
								 L54.31 203.52 C55.41 203.07 55.92 202.47 55.82 201.87 L55.83 196.56 C55.9 197.14 55.39 197.73 54.31
								 198.18 L31.68 207.45 C29.65 208.28 26.34 208.28 24.31 207.45 L1.68 198.18 C0.5 197.69 0 197.03 0.2
								 196.39 L0.17 201.87 Z" class="st12"/>
				</g>
				<g id="shape125-38" v:mID="125" v:groupContext="shape" transform="translate(0,-5.34482)">
					<title>Feuille.125</title>
					<path d="M54.66 200.5 C56.69 201.34 56.69 202.69 54.66 203.52 L32.03 212.79 C30 213.63 26.7 213.63 24.66 212.79
								 L2.04 203.52 C0 202.69 0 201.34 2.04 200.5 L24.66 191.23 C26.7 190.4 30 190.4 32.04 191.23 L54.66
								 200.5 Z" class="st12"/>
				</g>
			</g>
			<g id="group126-40" transform="translate(0,-9.38238)" v:mID="126" v:groupContext="group">
				<title>Feuille.126</title>
				<g id="shape127-41" v:mID="127" v:groupContext="shape" transform="translate(0.351867,2.84217E-14)">
					<title>Feuille.127</title>
					<path d="M0.17 201.87 C0.07 202.47 0.58 203.07 1.68 203.52 L24.31 212.79 C26.34 213.63 29.65 213.63 31.68 212.79
								 L54.31 203.52 C55.41 203.07 55.92 202.47 55.82 201.87 L55.83 196.56 C55.9 197.14 55.39 197.73 54.31
								 198.18 L31.68 207.45 C29.65 208.28 26.34 208.28 24.31 207.45 L1.68 198.18 C0.5 197.69 0 197.03 0.2
								 196.39 L0.17 201.87 Z" class="st12"/>
				</g>
				<g id="shape128-43" v:mID="128" v:groupContext="shape" transform="translate(0,-5.34482)">
					<title>Feuille.128</title>
					<path d="M54.66 200.5 C56.69 201.34 56.69 202.69 54.66 203.52 L32.03 212.79 C30 213.63 26.7 213.63 24.66 212.79
								 L2.04 203.52 C0 202.69 0 201.34 2.04 200.5 L24.66 191.23 C26.7 190.4 30 190.4 32.04 191.23 L54.66
								 200.5 Z" class="st12"/>
				</g>
			</g>
			<g id="group129-45" v:mID="129" v:groupContext="group">
				<title>Feuille.129</title>
				<g id="shape130-46" v:mID="130" v:groupContext="shape" transform="translate(0.351867,-18.7648)">
					<title>Feuille.130</title>
					<path d="M0.17 201.87 C0.07 202.47 0.58 203.07 1.68 203.52 L24.31 212.79 C26.34 213.63 29.65 213.63 31.68 212.79
								 L54.31 203.52 C55.41 203.07 55.92 202.47 55.82 201.87 L55.83 196.56 C55.9 197.14 55.39 197.73 54.31
								 198.18 L31.68 207.45 C29.65 208.28 26.34 208.28 24.31 207.45 L1.68 198.18 C0.5 197.69 0 197.03 0.2
								 196.39 L0.17 201.87 Z" class="st12"/>
				</g>
				<g id="shape131-48" v:mID="131" v:groupContext="shape" transform="translate(0.351867,2.84217E-14)">
					<title>Feuille.131</title>
					<path d="M0.17 201.87 C0.07 202.47 0.58 203.07 1.68 203.52 L24.31 212.79 C26.34 213.63 29.65 213.63 31.68 212.79
								 L54.31 203.52 C55.41 203.07 55.92 202.47 55.82 201.87 L55.83 196.56 C55.9 197.14 55.39 197.73 54.31
								 198.18 L31.68 207.45 C29.65 208.28 26.34 208.28 24.31 207.45 L1.68 198.18 C0.5 197.69 0 197.03 0.2
								 196.39 L0.17 201.87 Z" class="st13"/>
				</g>
				<g id="shape132-50" v:mID="132" v:groupContext="shape" transform="translate(0.351867,-9.38238)">
					<title>Feuille.132</title>
					<path d="M0.17 201.87 C0.07 202.47 0.58 203.07 1.68 203.52 L24.31 212.79 C26.34 213.63 29.65 213.63 31.68 212.79
								 L54.31 203.52 C55.41 203.07 55.92 202.47 55.82 201.87 L55.83 196.56 C55.9 197.14 55.39 197.73 54.31
								 198.18 L31.68 207.45 C29.65 208.28 26.34 208.28 24.31 207.45 L1.68 198.18 C0.5 197.69 0 197.03 0.2
								 196.39 L0.17 201.87 Z" class="st13"/>
				</g>
				<g id="shape133-52" v:mID="133" v:groupContext="shape" transform="translate(0.351867,-18.7648)">
					<title>Feuille.133</title>
					<path d="M0.17 201.87 C0.07 202.47 0.58 203.07 1.68 203.52 L24.31 212.79 C26.34 213.63 29.65 213.63 31.68 212.79
								 L54.31 203.52 C55.41 203.07 55.92 202.47 55.82 201.87 L55.83 196.56 C55.9 197.14 55.39 197.73 54.31
								 198.18 L31.68 207.45 C29.65 208.28 26.34 208.28 24.31 207.45 L1.68 198.18 C0.5 197.69 0 197.03 0.2
								 196.39 L0.17 201.87 Z" class="st13"/>
				</g>
				<g id="shape134-54" v:mID="134" v:groupContext="shape" transform="translate(0,-24.1096)">
					<title>Feuille.134</title>
					<path d="M54.66 200.5 C56.69 201.34 56.69 202.69 54.66 203.52 L32.03 212.79 C30 213.63 26.7 213.63 24.66 212.79
								 L2.04 203.52 C0 202.69 0 201.34 2.04 200.5 L24.66 191.23 C26.7 190.4 30 190.4 32.04 191.23 L54.66
								 200.5 Z" class="st12"/>
				</g>
			</g>
			<g id="shape135-56" v:mID="135" v:groupContext="shape" transform="translate(9.44474,-32.8294)">
				<title>Feuille.135</title>
				<path d="M11.93 212.48 C9.35 213.63 5.16 213.63 2.58 212.48 C0 211.33 0 209.47 2.58 208.32 C5.16 207.17 9.35 207.17
							 11.93 208.32 C14.51 209.47 14.51 211.33 11.93 212.48 Z" class="st14"/>
			</g>
			<g id="shape136-58" v:mID="136" v:groupContext="shape" transform="translate(19.6244,-26.7063)">
				<title>Feuille.136</title>
				<path d="M0 209.31 L13.25 207.74 L9.7 213.63 L0 209.31 Z" class="st14"/>
			</g>
			<g id="shape137-60" v:mID="137" v:groupContext="shape" transform="translate(32.4609,-32.5009)">
				<title>Feuille.137</title>
				<path d="M7.92 213.63 L0 210.1 L7.92 206.58 L15.85 210.1 L7.92 213.63 Z" class="st13"/>
			</g>
			<g id="shape138-62" v:mID="138" v:groupContext="shape" transform="translate(32.4609,-32.5009)">
				<title>Feuille.138</title>
				<path d="M7.92 213.63 L0 210.1 L7.92 206.58 L7.92 213.63 Z" class="st13"/>
			</g>
			<g id="shape139-64" v:mID="139" v:groupContext="shape" transform="translate(20.6321,-38.0306)">
				<title>Feuille.139</title>
				<path d="M5.17 211.33 L0 210.86 L4.59 209.7 L4 207.37 L7.89 208.96 L12.69 207.98 L10.5 210.12 L14.07 211.85 L8.82
							 211.58 L6.22 213.63 L5.17 211.33 Z" class="st14"/>
			</g>
		</g>
		<g id="shape140-66" v:mID="140" v:groupContext="shape" v:layerMember="0" transform="translate(420.248,-106.602)">
			<title>Lien dynamique.140</title>
			<path d="M0 213.63 L76.94 256.91" class="st1"/>
		</g>
		<g id="shape141-71" v:mID="141" v:groupContext="shape" transform="translate(504.579,-1.7206)">
			<title>Feuille.141</title>
			<desc>Redis Cache</desc>
			<v:textBlock v:margins="rect(4,4,4,4)" v:tabSpace="42.5197"/>
			<v:textRect cx="46.0629" cy="199.455" width="92.13" height="28.3465"/>
			<rect x="0" y="185.282" width="92.1259" height="28.3465" class="st6"/>
			<text x="11.71" y="203.05" class="st7" v:langID="1036"><v:paragraph v:horizAlign="1"/><v:tabList/>Redis Cache</text>		</g>
		<g id="group142-74" transform="translate(215.445,-76.1393)" v:mID="142" v:groupContext="group">
			<title>Azure Service Bus Queues.156</title>
			<g id="shape143-75" v:mID="143" v:groupContext="shape" transform="translate(0,-47.8106)">
				<title>Feuille.143</title>
				<path d="M1.04 199.08 C0.42 199.08 0 199.49 0 200.12 L0 212.59 C0 213.21 0.42 213.63 1.04 213.63 L7.28 213.63 C7.9
							 213.63 8.31 213.21 8.31 212.59 L8.31 207.39 L54.05 207.39 L54.05 212.59 C54.05 213.21 54.46 213.63 55.29
							 213.63 L61.32 213.63 C61.95 213.63 62.36 213.21 62.36 212.59 L62.36 206.35 L62.36 200.12 C62.36 199.49
							 61.95 199.08 61.32 199.08 L1.04 199.08 Z" class="st15"/>
			</g>
			<g id="shape144-77" v:mID="144" v:groupContext="shape">
				<title>Feuille.144</title>
				<path d="M61.32 213.63 C61.95 213.63 62.36 213.21 62.36 212.59 L62.36 200.32 C62.36 199.7 61.95 199.29 61.32 199.29
							 L55.3 199.29 C54.67 199.29 54.26 199.7 54.26 200.32 L54.26 205.31 L8.32 205.31 L8.32 200.12 C8.32 199.49
							 7.9 199.08 7.07 199.08 L1.04 199.08 C0.42 199.08 0 199.49 0 200.32 L0 212.59 C0 213.21 0.42 213.63 1.04
							 213.63 L61.32 213.63 Z" class="st15"/>
			</g>
			<g id="shape145-79" v:mID="145" v:groupContext="shape" transform="translate(0,-22.5265)">
				<title>Feuille.145</title>
				<path d="M15.37 205.86 C14.32 206.91 12.93 207.49 11.45 207.49 C9.96 207.49 8.57 206.91 7.52 205.86 L0 198.34 L0
							 213.63 L22.89 213.63 L22.89 198.34 L15.37 205.86 Z" class="st16"/>
			</g>
			<g id="shape146-81" v:mID="146" v:groupContext="shape" transform="translate(0,-29.7854)">
				<title>Feuille.146</title>
				<path d="M11.45 213.63 C12.63 213.63 13.74 213.17 14.58 212.33 L22.89 204.02 L22.89 203.58 L0 203.58 L0 204.02 L8.31
							 212.33 C9.15 213.17 10.26 213.63 11.45 213.63 Z" class="st16"/>
			</g>
			<g id="shape147-83" v:mID="147" v:groupContext="shape" transform="translate(39.4703,-22.5265)">
				<title>Feuille.147</title>
				<path d="M15.37 205.86 C14.32 206.91 12.93 207.49 11.45 207.49 C9.96 207.49 8.57 206.91 7.52 205.86 L0 198.34 L0
							 213.63 L22.89 213.63 L22.89 198.34 L15.37 205.86 Z" class="st16"/>
			</g>
			<g id="shape148-85" v:mID="148" v:groupContext="shape" transform="translate(39.4703,-29.7854)">
				<title>Feuille.148</title>
				<path d="M11.45 213.63 C12.63 213.63 13.74 213.17 14.58 212.33 L22.89 204.02 L22.89 203.58 L0 203.58 L0 204.02 L8.31
							 212.33 C9.15 213.17 10.26 213.63 11.45 213.63 Z" class="st16"/>
			</g>
			<g id="shape149-87" v:mID="149" v:groupContext="shape" transform="translate(32.1952,-29.6682)">
				<title>Feuille.149</title>
				<rect x="0" y="210.592" width="3.84651" height="3.03579" class="st17"/>
			</g>
			<g id="shape150-89" v:mID="150" v:groupContext="shape" transform="translate(26.2445,-29.6682)">
				<title>Feuille.150</title>
				<rect x="0" y="210.592" width="4.06852" height="3.03579" class="st17"/>
			</g>
		</g>
		<g id="shape151-91" v:mID="151" v:groupContext="shape" transform="translate(215.445,-49.1005)">
			<title>Feuille.151</title>
			<desc>Queue</desc>
			<v:textBlock v:margins="rect(4,4,4,4)" v:tabSpace="42.5197"/>
			<v:textRect cx="31.1811" cy="199.455" width="62.37" height="28.3465"/>
			<rect x="0" y="185.282" width="62.3623" height="28.3465" class="st6"/>
			<text x="13.17" y="203.05" class="st7" v:langID="1036"><v:paragraph v:horizAlign="1"/><v:tabList/>Queue</text>		</g>
		<g id="group152-94" transform="translate(81.8703,-75.7986)" v:mID="152" v:groupContext="group">
			<title>Azure Functions.152</title>
			<g id="shape153-95" v:mID="153" v:groupContext="shape" transform="translate(48.1693,-12.6472)">
				<title>Feuille.153</title>
				<path d="M22 194.27 C22.65 193.61 22.54 192.4 22 191.74 L18.59 188.33 L3.41 173.6 C2.75 172.94 1.76 172.94 0.99 173.6
							 C0.33 174.26 0.11 175.47 0.99 176.13 L16.94 191.74 C17.6 192.4 17.6 193.61 16.94 194.27 L0.66 210.44
							 C0 211.1 0 212.31 0.66 212.97 C1.32 213.63 2.53 213.52 3.08 212.97 L18.15 198.01 C18.15 198.01 18.15
							 198.01 18.26 197.9 L22 194.27 Z" class="st3"/>
			</g>
			<g id="shape154-97" v:mID="154" v:groupContext="shape" transform="translate(0,-12.6472)">
				<title>Feuille.154</title>
				<path d="M0.66 194.27 C0 193.61 0.11 192.4 0.66 191.74 L4.07 188.33 L19.25 173.6 C19.91 172.94 20.9 172.94 21.67
							 173.6 C22.33 174.26 22.54 175.47 21.67 176.13 L6.05 191.74 C5.39 192.4 5.39 193.61 6.05 194.27 L22 210.44
							 C22.65 211.1 22.65 212.31 22 212.97 C21.34 213.63 20.13 213.52 19.58 212.97 L4.18 198.23 C4.18 198.23
							 4.18 198.23 4.07 198.12 L0.66 194.27 Z" class="st3"/>
			</g>
			<g id="shape155-99" v:mID="155" v:groupContext="shape" transform="translate(19.5756,2.84217E-14)">
				<title>Feuille.155</title>
				<path d="M32.99 148.74 L11.55 148.74 L0 181.3 L14.08 181.41 L3.08 213.63 L33.43 170.63 L18.7 170.63 L32.99 148.74
							 Z" class="st4"/>
			</g>
			<g id="shape156-101" v:mID="156" v:groupContext="shape" transform="translate(22.655,2.84217E-14)">
				<title>Feuille.156</title>
				<path d="M15.62 170.63 L29.91 148.74 L18.7 148.74 L6.82 175.8 L20.9 175.91 L0 213.63 L30.35 170.63 L15.62 170.63 Z"
						class="st5"/>
			</g>
		</g>
		<g id="shape157-103" v:mID="157" v:groupContext="shape" transform="translate(79.3821,-51.2794)">
			<title>Feuille.157</title>
			<desc>Function</desc>
			<v:textBlock v:margins="rect(4,4,4,4)" v:tabSpace="42.5197"/>
			<v:textRect cx="37.9003" cy="199.455" width="75.81" height="28.3465"/>
			<rect x="0" y="185.282" width="75.8005" height="28.3465" class="st6"/>
			<text x="14.89" y="203.05" class="st7" v:langID="1036"><v:paragraph v:horizAlign="1"/><v:tabList/>Function</text>		</g>
		<g id="shape158-106" v:mID="158" v:groupContext="shape" v:layerMember="0" transform="translate(284.894,-100.114)">
			<title>Lien dynamique.158</title>
			<path d="M0 206.54 L33.81 206.54" class="st1"/>
		</g>
		<g id="shape159-111" v:mID="159" v:groupContext="shape" v:layerMember="0" transform="translate(159.931,-100.86)">
			<title>Lien dynamique.159</title>
			<path d="M0 206.54 L33.81 206.54" class="st1"/>
		</g>
		<g id="shape160-116" v:mID="160" v:groupContext="shape" v:layerMember="0" transform="translate(27.1501,-103.068)">
			<title>Lien dynamique.160</title>
			<path d="M0 206.54 L33.81 206.54" class="st1"/>
		</g>
		<g id="shape161-121" v:mID="161" v:groupContext="shape" v:layerMember="0" transform="translate(372.768,-152.533)">
			<title>Lien dynamique.161</title>
			<path d="M0 217.74 C-8.5 204.98 -24.16 197.14 -46.37 195.2 C-66.11 193.47 -91.04 196.41 -108.88 211.85 L-109.12 212.12"
					class="st18"/>
		</g>
		<g id="shape162-127" v:mID="162" v:groupContext="shape" transform="translate(34.7365,-102.659)">
			<title>Feuille.162</title>
			<desc>1</desc>
			<v:textBlock v:margins="rect(4,4,4,4)" v:tabSpace="42.5197"/>
			<v:textRect cx="7.44098" cy="206.301" width="14.89" height="14.653"/>
			<ellipse cx="7.44098" cy="206.301" rx="7.44098" ry="7.3265" class="st19"/>
			<text x="4.44" y="209" class="st20" v:langID="1036"><v:paragraph v:horizAlign="1"/><v:tabList/>1</text>		</g>
		<g id="shape163-130" v:mID="163" v:groupContext="shape" transform="translate(450.366,-117.242)">
			<title>Feuille.163</title>
			<desc>5</desc>
			<v:textBlock v:margins="rect(4,4,4,4)" v:tabSpace="42.5197"/>
			<v:textRect cx="7.44098" cy="206.301" width="14.89" height="14.653"/>
			<ellipse cx="7.44098" cy="206.301" rx="7.44098" ry="7.3265" class="st19"/>
			<text x="4.44" y="209" class="st20" v:langID="1036"><v:paragraph v:horizAlign="1"/><v:tabList/>5</text>		</g>
		<g id="shape164-133" v:mID="164" v:groupContext="shape" transform="translate(166.902,-100.915)">
			<title>Feuille.164</title>
			<desc>2</desc>
			<v:textBlock v:margins="rect(4,4,4,4)" v:tabSpace="42.5197"/>
			<v:textRect cx="7.44098" cy="206.301" width="14.89" height="14.653"/>
			<ellipse cx="7.44098" cy="206.301" rx="7.44098" ry="7.3265" class="st19"/>
			<text x="4.44" y="209" class="st20" v:langID="1036"><v:paragraph v:horizAlign="1"/><v:tabList/>2</text>		</g>
		<g id="shape165-136" v:mID="165" v:groupContext="shape" transform="translate(293.398,-99.9939)">
			<title>Feuille.165</title>
			<desc>3</desc>
			<v:textBlock v:margins="rect(4,4,4,4)" v:tabSpace="42.5197"/>
			<v:textRect cx="7.44098" cy="206.301" width="14.89" height="14.653"/>
			<ellipse cx="7.44098" cy="206.301" rx="7.44098" ry="7.3265" class="st19"/>
			<text x="4.44" y="209" class="st20" v:langID="1036"><v:paragraph v:horizAlign="1"/><v:tabList/>3</text>		</g>
		<g id="shape166-139" v:mID="166" v:groupContext="shape" transform="translate(450.366,-75.7986)">
			<title>Feuille.166</title>
			<desc>4</desc>
			<v:textBlock v:margins="rect(4,4,4,4)" v:tabSpace="42.5197"/>
			<v:textRect cx="7.44098" cy="206.301" width="14.89" height="14.653"/>
			<ellipse cx="7.44098" cy="206.301" rx="7.44098" ry="7.3265" class="st19"/>
			<text x="4.44" y="209" class="st20" v:langID="1036"><v:paragraph v:horizAlign="1"/><v:tabList/>4</text>		</g>
		<g id="shape167-142" v:mID="167" v:groupContext="shape" transform="translate(305.799,-160.895)">
			<title>Feuille.167</title>
			<desc>5&#39;</desc>
			<v:textBlock v:margins="rect(4,4,4,4)" v:tabSpace="42.5197"/>
			<v:textRect cx="8.48111" cy="205.277" width="16.97" height="16.7013"/>
			<ellipse cx="8.48111" cy="205.277" rx="8.48111" ry="8.35063" class="st21"/>
			<text x="4.23" y="207.98" class="st20" v:langID="1036"><v:paragraph v:horizAlign="1"/><v:tabList/>5&#39;</text>		</g>
	</g>
</svg>
