<?xml version="1.0" encoding="UTF-8" standalone="no"?>
<!DOCTYPE svg PUBLIC "-//W3C//DTD SVG 1.1//EN" "http://www.w3.org/Graphics/SVG/1.1/DTD/svg11.dtd">
<!-- Généré par Microsoft Visio, SVG Export cosmosdb.partitionkey.svg Page 1 -->
<svg xmlns="http://www.w3.org/2000/svg" xmlns:xlink="http://www.w3.org/1999/xlink" xmlns:ev="http://www.w3.org/2001/xml-events"
		xmlns:v="http://schemas.microsoft.com/visio/2003/SVGExtensions/" width="8.36539in" height="2.93411in"
		viewBox="0 0 602.308 211.256" xml:space="preserve" color-interpolation-filters="sRGB" class="st24">
	<v:documentProperties v:langID="1036" v:metric="true" v:viewMarkup="false"/>

	<style type="text/css">
	<![CDATA[
		.st1 {fill:#ffffff;stroke:#5b9bd5;stroke-linecap:round;stroke-linejoin:round;stroke-width:0.5}
		.st2 {fill:#5b9ad4;font-family:Calibri;font-size:1.00001em}
		.st3 {fill:#59b4d9;stroke:none;stroke-linecap:butt;stroke-width:25.5202}
		.st4 {fill:#ffffff;fill-opacity:0.5;stroke:none;stroke-linecap:butt;stroke-width:25.5202}
		.st5 {fill:#b8d432;stroke:none;stroke-linecap:butt;stroke-width:25.5202}
		.st6 {fill:#000000;stroke:none;stroke-linecap:butt;stroke-width:25.5202}
		.st7 {visibility:visible}
		.st8 {fill:#5b9bd5;fill-opacity:0.098;stroke:#5b9bd5;stroke-linecap:round;stroke-linejoin:round;stroke-opacity:0.098}
		.st9 {fill:#5b9bd5;stroke:#ffffff;stroke-linecap:round;stroke-linejoin:round;stroke-width:0.5}
		.st10 {fill:#feffff;font-family:Calibri;font-size:1.00001em;font-weight:bold}
		.st11 {fill:#ffffff;stroke:#625986;stroke-linecap:round;stroke-linejoin:round;stroke-width:0.5}
		.st12 {fill:#625985;font-family:Calibri;font-size:1.00001em}
		.st13 {font-size:1em}
		.st14 {marker-start:url(#mrkr1-38);stroke:#625986;stroke-dasharray:2.25,4.5;stroke-linecap:round;stroke-linejoin:round;stroke-width:2.25}
		.st15 {fill:#625986;fill-opacity:1;stroke:#625986;stroke-opacity:1;stroke-width:0.47169811320755}
		.st16 {marker-start:url(#mrkr1-44);stroke:#625986;stroke-linecap:round;stroke-linejoin:round;stroke-width:4.5}
		.st17 {fill:#625986;fill-opacity:1;stroke:#625986;stroke-opacity:1;stroke-width:0.64102564102564}
		.st18 {fill:#a5a5a5;fill-opacity:0.098;stroke:#a5a5a5;stroke-linecap:round;stroke-linejoin:round;stroke-opacity:0.098}
		.st19 {fill:#a5a5a5;stroke:#ffffff;stroke-linecap:round;stroke-linejoin:round;stroke-width:0.24}
		.st20 {fill:#a5a5a5;font-family:Calibri;font-size:0.666664em;font-weight:bold}
		.st21 {fill:#ffffff}
		.st22 {stroke:#5b9bd5;stroke-linecap:round;stroke-linejoin:round;stroke-width:0.5}
		.st23 {fill:#5b9ad4;font-family:Calibri;font-size:0.833336em}
		.st24 {fill:none;fill-rule:evenodd;font-size:12px;overflow:visible;stroke-linecap:square;stroke-miterlimit:3}
	]]>
	</style>

	<defs id="Markers">
		<g id="lend1">
			<path d="M 1 -1 L 0 0 L 1 1 " style="stroke-linecap:round;stroke-linejoin:round;fill:none"/>
		</g>
		<marker id="mrkr1-38" class="st15" v:arrowType="1" v:arrowSize="2" orient="auto" markerUnits="strokeWidth"
				overflow="visible">
			<use xlink:href="#lend1" transform="scale(2.12) "/>
		</marker>
		<marker id="mrkr1-44" class="st17" v:arrowType="1" v:arrowSize="2" orient="auto" markerUnits="strokeWidth"
				overflow="visible">
			<use xlink:href="#lend1" transform="scale(1.56) "/>
		</marker>
	</defs>
	<g v:mID="0" v:index="1" v:groupContext="foregroundPage">
		<title>Page 1</title>
		<v:pageProperties v:drawingScale="0.0393701" v:pageScale="0.0393701" v:drawingUnits="24" v:shadowOffsetX="8.50394"
				v:shadowOffsetY="-8.50394"/>
		<v:layer v:name="Lien" v:index="0"/>
		<v:layer v:name="Diagramme de flux" v:index="1"/>
		<v:layer v:name="Légende" v:index="2"/>
		<g id="shape123-1" v:mID="123" v:groupContext="shape" transform="translate(71.0188,-0.25)">
			<title>Feuille.123</title>
			<desc>Database</desc>
			<v:textBlock v:margins="rect(4,4,4,4)" v:tabSpace="42.5197" v:verticalAlign="0"/>
			<v:textRect cx="265.519" cy="148.114" width="531.04" height="126.283"/>
			<rect x="0" y="84.9724" width="531.039" height="126.283" class="st1"/>
			<text x="481.42" y="99.77" class="st2" v:langID="1036"><v:paragraph v:horizAlign="2"/><v:tabList/>Database</text>		</g>
		<g id="group115-4" transform="translate(24.3779,-76.1273)" v:mID="115" v:groupContext="group">
			<title>Feuille.115</title>
			<g id="group116-5" v:mID="116" v:groupContext="group">
				<title> Cosmos_DB_2</title>
				<g id="shape117-6" v:mID="117" v:groupContext="shape" transform="translate(23.7364,-9.73199)">
					<title>Feuille.117</title>
					<path d="M33.95 186.15 A22.7894 22.7894 0 1 1 6.82 169.58 A22.7037 22.7037 0 0 1 33.95 186.15 Z" class="st3"/>
				</g>
				<g id="shape118-8" v:mID="118" v:groupContext="shape" transform="translate(13.7079,-9.70977)">
					<title>Feuille.118</title>
					<path d="M18.85 200.69 A6.03148 6.03148 -180 0 0 12.85 194.69 L11.71 194.69 A5.75447 5.75447 -180 0 0 7.43 187.55
								 L0 187.55 A22.2754 22.2754 -180 0 0 5.43 206.97 L12.85 206.97 A6.28279 6.28279 -180 0 0 18.85 200.69
								 ZM26.27 175.84 L26.27 176.99 L23.7 176.99 A6.28279 6.28279 -180 0 0 23.7 189.55 L44.55 189.55 A21.7727
								 21.7727 -180 0 0 32.84 171.85 L30.27 171.85 A3.9039 3.9039 -180 0 0 26.27 175.84 ZM44.55 193.84
								 L32.27 193.84 A5.12048 5.12048 -180 0 0 27.13 198.98 A8.33898 8.33898 -180 0 0 27.7 201.55 A5.17474
								 5.17474 -180 0 0 24.27 207.83 A4.65783 4.65783 -180 0 0 29.13 211.26 L32.56 211.26 A22.6952 22.6952
								 -180 0 0 44.55 193.84 Z" class="st4"/>
				</g>
				<g id="shape119-10" v:mID="119" v:groupContext="shape" transform="translate(1.14233,-44.5507)">
					<title>Feuille.119</title>
					<path d="M9.14 211.26 a0.614 0.614 0 0 1 -0.571163 -0.571163 A7.99628 7.99628 -180 0 0 0.57 202.69 C0.29 202.97
								 0 202.4 0 202.12 a0.614 0.614 0 0 1 0.571163 -0.571163 A7.99628 7.99628 -180 0 0 8.57 193.55 C8.57
								 192.98 8.85 192.98 9.14 192.98 C9.42 192.98 10 192.98 10 193.55 A7.99628 7.99628 -180 0 0 17.99
								 201.55 a0.571163 0.571163 0 0 1 0 1.14233 A7.99628 7.99628 -180 0 0 10 210.68 C10 210.97 9.71 211.26
								 9.14 211.26 Z" class="st5"/>
				</g>
				<g id="shape120-12" v:mID="120" v:groupContext="shape" transform="translate(53.6893,-1.13687E-13)">
					<title>Feuille.120</title>
					<path d="M5.43 211.26 C5.14 211.26 5.14 211.26 5.14 210.97 A4.75779 4.75779 -180 0 0 0.29 206.4 C0 206.4 0 206.4
								 0 206.12 C0 205.83 0 205.83 0.29 205.83 A4.95484 4.95484 -180 0 0 5.14 201.26 C5.14 200.97 5.14
								 200.97 5.43 200.97 C5.71 200.97 5.71 200.97 5.71 201.26 A4.75779 4.75779 -180 0 0 10.57 205.83 C10.85
								 205.83 10.85 205.83 10.85 206.12 C10.85 206.4 10.85 206.4 10.57 206.4 A4.95484 4.95484 -180 0 0
								 5.71 210.97 C6 211.26 5.71 211.26 5.43 211.26 Z" class="st3"/>
				</g>
				<g id="shape121-14" v:mID="121" v:groupContext="shape" transform="translate(0,-5.99721)">
					<title>Feuille.121</title>
					<path d="M68.83 167.56 C66.54 164.13 61.4 163.28 53.12 165.28 A56.4081 56.4081 -180 0 0 45.69 167.56 A22.381
								 22.381 0 0 1 49.98 170.42 C51.4 170.13 52.83 169.56 53.97 169.28 A25.9279 25.9279 0 0 1 60.54 168.42
								 C63.11 168.42 64.54 168.99 65.11 169.85 C65.97 171.27 65.11 174.7 60.54 180.13 A26.9246 26.9246
								 0 0 1 57.69 182.98 A97.3205 97.3205 0 0 1 40.55 196.12 A79.6772 79.6772 0 0 1 21.13 204.97 C12.85
								 207.54 7.14 207.54 6 205.54 C4.85 203.55 7.14 198.4 13.42 192.41 A31.4682 31.4682 0 0 1 12.85 187.27
								 C3.14 196.12 0 203.83 2.28 207.83 A10.0239 10.0239 -180 0 0 10.85 211.26 A42.9714 42.9714 -180 0
								 0 25.42 208.11 A96.0268 96.0268 -180 0 0 42.55 199.55 A119.57 119.57 -180 0 0 57.97 188.12 A48.6745
								 48.6745 -180 0 0 63.4 182.7 C69.11 176.13 70.82 170.99 68.83 167.56 Z" class="st6"/>
				</g>
			</g>
		</g>
		<g id="shape135-16" v:mID="135" v:groupContext="shape" transform="translate(101.963,-7.62008)">
			<title>Feuille.135</title>
			<desc>Container</desc>
			<v:textBlock v:margins="rect(4,4,4,4)" v:tabSpace="42.5197" v:verticalAlign="0"/>
			<v:textRect cx="244.661" cy="164.909" width="489.33" height="92.6929"/>
			<g id="shadow135-17" v:groupContext="shadow" v:shadowOffsetX="2.12399" v:shadowOffsetY="-2.12399" v:shadowType="1"
					transform="matrix(1,0,0,1,2.12399,2.12399)" class="st7">
				<rect x="0" y="118.563" width="489.323" height="92.6929" class="st8"/>
			</g>
			<rect x="0" y="118.563" width="489.323" height="92.6929" class="st9"/>
			<text x="436.3" y="133.36" class="st10" v:langID="1036"><v:paragraph v:horizAlign="2"/><v:tabList/>Container</text>		</g>
		<g id="shape136-21" v:mID="136" v:groupContext="shape" transform="translate(137.743,-25.1949)">
			<title>Feuille.136</title>
			<desc>Logical Partition Paris</desc>
			<v:textBlock v:margins="rect(4,4,4,4)" v:tabSpace="42.5197" v:verticalAlign="0"/>
			<v:textRect cx="63.4961" cy="191.839" width="127" height="38.8346"/>
			<rect x="0" y="172.421" width="126.992" height="38.8346" class="st11"/>
			<text x="44.62" y="187.22" class="st12" v:langID="1036"><v:paragraph v:horizAlign="2"/><v:tabList/>Logical Partition<v:newlineChar/><tspan
						x="99.41" dy="1.2em" class="st13">Paris</tspan></text>		</g>
		<g id="shape137-25" v:mID="137" v:groupContext="shape" transform="translate(285.995,-25.1949)">
			<title>Feuille.137</title>
			<desc>Logical Partition London</desc>
			<v:textBlock v:margins="rect(4,4,4,4)" v:tabSpace="42.5197" v:verticalAlign="0"/>
			<v:textRect cx="63.4961" cy="191.839" width="127" height="38.8346"/>
			<rect x="0" y="172.421" width="126.992" height="38.8346" class="st11"/>
			<text x="44.62" y="187.22" class="st12" v:langID="1036"><v:paragraph v:horizAlign="2"/><v:tabList/>Logical Partition<v:newlineChar/><tspan
						x="86.38" dy="1.2em" class="st13">London</tspan></text>		</g>
		<g id="shape138-29" v:mID="138" v:groupContext="shape" transform="translate(434.247,-25.1949)">
			<title>Feuille.138</title>
			<desc>Logical Partition Mumbay</desc>
			<v:textBlock v:margins="rect(4,4,4,4)" v:tabSpace="42.5197" v:verticalAlign="0"/>
			<v:textRect cx="63.4961" cy="191.839" width="127" height="38.8346"/>
			<rect x="0" y="172.421" width="126.992" height="38.8346" class="st11"/>
			<text x="44.62" y="187.22" class="st12" v:langID="1036"><v:paragraph v:horizAlign="2"/><v:tabList/>Logical Partition<v:newlineChar/><tspan
						x="79.36" dy="1.2em" class="st13">Mumbay</tspan></text>		</g>
		<g id="shape127-33" v:mID="127" v:groupContext="shape" v:layerMember="0" transform="translate(251.506,-64.0295)">
			<title>Lien dynamique.127</title>
			<path d="M0 211.26 L93.93 174.97" class="st14"/>
		</g>
		<g id="shape124-39" v:mID="124" v:groupContext="shape" v:layerMember="0" transform="translate(346.089,-100.313)">
			<title>Lien dynamique.124</title>
			<path d="M0 211.26 C0.57 175.68 1.42 154.42 -38.27 143.08" class="st16"/>
		</g>
		<g id="group140-45" transform="translate(269.554,-142.974)" v:mID="140" v:groupContext="group" v:layerMember="1">
			<v:custProps>
				<v:cp v:nameU="BpmnId" v:lbl="ID" v:prompt="" v:type="0" v:format="" v:sortKey="" v:invis="true" v:ask="false"
						v:langID="1036" v:cal="0" v:val="VT4()"/>
				<v:cp v:nameU="BpmnCategories" v:lbl="Catégories" v:prompt="" v:type="0" v:format="" v:sortKey="" v:invis="false"
						v:ask="false" v:langID="1036" v:cal="0" v:val="VT4()"/>
				<v:cp v:nameU="BpmnDocumentation" v:lbl="Documentation" v:prompt="" v:type="0" v:format="" v:sortKey=""
						v:invis="false" v:ask="false" v:langID="1036" v:cal="0" v:val="VT4()"/>
				<v:cp v:nameU="BpmnArtifactType" v:lbl="TypeArtefact" v:prompt="" v:type="1"
						v:format="Objet de données;Groupe;Annotation" v:sortKey="" v:invis="true" v:ask="false" v:langID="1036"
						v:cal="0" v:val="VT4(Objet de données)"/>
				<v:cp v:nameU="BpmnName" v:lbl="Nom" v:prompt="" v:type="0" v:format="" v:sortKey="" v:invis="true" v:ask="false"
						v:langID="1036" v:cal="0" v:val="VT4()"/>
				<v:cp v:nameU="BpmnState" v:lbl="État" v:prompt="" v:type="0" v:format="" v:sortKey="" v:invis="false"
						v:ask="false" v:langID="1036" v:cal="0" v:val="VT4()"/>
				<v:cp v:nameU="BpmnText" v:lbl="Texte " v:prompt="" v:type="0" v:format="" v:sortKey="" v:invis="true"
						v:ask="false" v:langID="1036" v:cal="0" v:val="VT4()"/>
				<v:cp v:nameU="BpmnCategoryRef" v:lbl="RéfCatégorie" v:prompt="" v:type="0" v:format="" v:sortKey="" v:invis="true"
						v:ask="false" v:langID="1036" v:cal="0" v:val="VT4()"/>
				<v:cp v:nameU="BpmnElementType" v:lbl="TypeÉlément" v:prompt="" v:type="1"
						v:format="Sous-processus;Événement;Passerelle;Diagramme de processus;Liste de ressources;Allée;Artefact;Objet de liaison"
						v:sortKey="" v:invis="true" v:ask="false" v:langID="1036" v:cal="0" v:val="VT4(Artefact)"/>
				<v:cp v:nameU="BpmnCollection" v:lbl="Collection" v:prompt="" v:type="3" v:format="" v:sortKey="" v:invis="false"
						v:ask="false" v:langID="1036" v:cal="0" v:val="VT0(0):5"/>
				<v:cp v:nameU="BpmnName" v:lbl="" v:prompt="" v:type="0" v:format="" v:sortKey="" v:invis="false" v:ask="false"
						v:langID="0" v:cal="0" v:val="VT4(Data)"/>
				<v:cp v:nameU="BpmnText" v:lbl="" v:prompt="" v:type="0" v:format="" v:sortKey="" v:invis="false" v:ask="false"
						v:langID="0" v:cal="0" v:val="VT4(Data)"/>
				<v:cp v:nameU="BpmnCategoryRef" v:lbl="" v:prompt="" v:type="0" v:format="" v:sortKey="" v:invis="false"
						v:ask="false" v:langID="0" v:cal="0" v:val="VT4(Data)"/>
			</v:custProps>
			<v:userDefs>
				<v:ud v:nameU="msvShapeCategories" v:prompt="" v:val="VT4(Data Object)"/>
				<v:ud v:nameU="visVersion" v:prompt="" v:val="VT0(15):26"/>
			</v:userDefs>
			<title>Objet de données</title>
			<desc>Data</desc>
			<g id="shape141-46" v:mID="141" v:groupContext="shape" v:layerMember="1">
				<title>Feuille.141</title>
				<g id="shadow141-47" v:groupContext="shadow" v:shadowOffsetX="2.12399" v:shadowOffsetY="-2.12399" v:shadowType="1"
						transform="matrix(1,0,0,1,2.12399,2.12399)" class="st7">
					<path d="M38.27 174.93 L24.49 174.93 L24.49 160.23 L0 160.23 L0 211.26 L38.27 211.26 L38.27 174.93 ZM38.27 173.7
								 L24.49 160.23 L24.49 174.93 L38.27 174.93 L38.27 173.7 Z" class="st18"/>
				</g>
				<path d="M38.27 174.93 L24.49 174.93 L24.49 160.23 L0 160.23 L0 211.26 L38.27 211.26 L38.27 174.93 ZM38.27 173.7
							 L24.49 160.23 L24.49 174.93 L38.27 174.93 L38.27 173.7 Z" class="st19"/>
			</g>
			<g id="shape142-50" v:mID="142" v:groupContext="shape" v:layerMember="1" transform="translate(16.7421,-5.68434E-14)">
				<title>Feuille.142</title>
			</g>
			<g id="shape140-52" v:mID="140" v:groupContext="groupContent" v:layerMember="1">
				<v:textBlock v:margins="rect(2,2,2,2)" v:tabSpace="42.5197" v:verticalAlign="0"/>
				<v:textRect cx="19.1339" cy="218.058" width="21.53" height="13.6036"/>
				<text x="11.28" y="220.46" class="st20" v:langID="1036"><v:paragraph v:horizAlign="1"/><v:tabList/>Data</text>			</g>
		</g>
		<g id="shape144-54" v:mID="144" v:groupContext="shape" v:layerMember="2" transform="translate(321.995,-176.99)">
			<title>Rempli</title>
			<desc>Partition key : Paris</desc>
			<v:userDefs>
				<v:ud v:nameU="visVersion" v:prompt="" v:val="VT0(15):26"/>
				<v:ud v:nameU="msvStructureType" v:prompt="" v:val="VT4(Callout)"/>
				<v:ud v:nameU="msvSDTargetIntersection" v:prompt=""/>
				<v:ud v:nameU="msvSDCalloutNoHighlight" v:prompt="" v:val="VT0(0):5"/>
				<v:ud v:nameU="msvShapeCategories" v:prompt="" v:val="VT0(0):26"/>
				<v:ud v:nameU="Side" v:prompt="" v:val="VT0(4):26"/>
				<v:ud v:nameU="LeaderEnd" v:prompt="" v:val="VT7(PNT(6.25MM,-6.4MM)):40"/>
				<v:ud v:nameU="WHBoxIntersection" v:prompt="" v:val="VT7(PNT(10.096153846154MM,0MM)):40"/>
				<v:ud v:nameU="Embellishment" v:prompt="" v:val="VT0(2):26"/>
				<v:ud v:nameU="BackFillColor" v:prompt="" v:val="VT5(#96afcf)"/>
				<v:ud v:nameU="BackLineColor" v:prompt="" v:val="VT5(#1f477d)"/>
				<v:ud v:nameU="DarkerColor" v:prompt="" v:val="VT5(#1f477d)"/>
				<v:ud v:nameU="msvSDTargetIntersection" v:prompt="" v:val="VT7(PNT(-0.19685042574431,-0.019482099203336)):40"/>
				<v:ud v:nameU="Side" v:prompt="" v:val="VT0(3):26"/>
				<v:ud v:nameU="LeaderEnd" v:prompt="" v:val="VT7(PNT(-0.19685042574431,-0.019482099203336)):40"/>
				<v:ud v:nameU="WHBoxIntersection" v:prompt="" v:val="VT7(PNT(0MM,0)):40"/>
				<v:ud v:nameU="BackFillColor" v:prompt="" v:val="VT5(#ffffff)"/>
				<v:ud v:nameU="BackLineColor" v:prompt="" v:val="VT5(#5b9bd5)"/>
				<v:ud v:nameU="DarkerColor" v:prompt="" v:val="VT5(#5b9bd5)"/>
			</v:userDefs>
			<v:textBlock v:margins="rect(4,4,4,4)" v:tabSpace="42.5197"/>
			<v:textRect cx="35.4331" cy="194.248" width="70.87" height="32.0037"/>
			<path d="M0 211.26 L70.87 211.26 L70.87 177.24 L0 177.24 L0 211.26 Z" class="st21"/>
			<path d="M0 211.26 L-14.17 212.66" class="st22"/>
			<path d="M0 211.26 L70.87 211.26 L70.87 177.24 L0 177.24 L0 211.26" class="st22"/>
			<text x="4" y="191.25" class="st23" v:langID="1036"><v:paragraph/><v:tabList/>Partition key : <tspan x="4" dy="1.2em"
						class="st13">Paris</tspan></text>		</g>
	</g>
</svg>
