<?xml version="1.0" encoding="UTF-8" standalone="no"?>
<!DOCTYPE svg PUBLIC "-//W3C//DTD SVG 1.1//EN" "http://www.w3.org/Graphics/SVG/1.1/DTD/svg11.dtd">
<!-- Généré par Microsoft Visio, SVG Export finops.ftps.svg Page 1 -->
<svg xmlns="http://www.w3.org/2000/svg" xmlns:xlink="http://www.w3.org/1999/xlink" xmlns:ev="http://www.w3.org/2001/xml-events"
		xmlns:v="http://schemas.microsoft.com/visio/2003/SVGExtensions/" width="5.52428in" height="1.56827in"
		viewBox="0 0 397.748 112.916" xml:space="preserve" color-interpolation-filters="sRGB" class="st17">
	<v:documentProperties v:langID="1036" v:metric="true" v:viewMarkup="false"/>

	<style type="text/css">
	<![CDATA[
		.st1 {fill:#ff8db2;stroke:none;stroke-linecap:butt;stroke-width:0.998051}
		.st2 {fill:#78ffa9;stroke:none;stroke-linecap:butt;stroke-width:0.998051}
		.st3 {fill:#9bdcff;stroke:none;stroke-linecap:butt;stroke-width:0.998051}
		.st4 {fill:#ffe671;stroke:none;stroke-linecap:butt;stroke-width:0.998051}
		.st5 {fill:#000000;stroke:none;stroke-linecap:butt;stroke-width:0.998051}
		.st6 {fill:none;stroke:none;stroke-linecap:round;stroke-linejoin:round;stroke-width:0.75}
		.st7 {fill:#7f7f7f;font-family:Arial Black;font-size:4.99999em}
		.st8 {fill:#3999c6;stroke:none;stroke-linecap:butt;stroke-width:9.5625}
		.st9 {fill:#fcd116;stroke:none;stroke-linecap:butt;stroke-width:9.5625}
		.st10 {fill:#ff8c00;fill-opacity:0.3;stroke:none;stroke-linecap:butt;stroke-width:9.5625}
		.st11 {fill:#3e3e3e;stroke:none;stroke-linecap:butt;stroke-width:0.75}
		.st12 {fill:#fcd116;fill-opacity:0.9;stroke:none;stroke-linecap:butt;stroke-width:0.75}
		.st13 {fill:#7fba00;stroke:none;stroke-linecap:butt;stroke-width:0.75}
		.st14 {fill:#ffffff;fill-opacity:0.9;stroke:none;stroke-linecap:butt;stroke-width:0.75}
		.st15 {fill:#ffffff;fill-opacity:0.3;stroke:none;stroke-linecap:butt;stroke-width:0.75}
		.st16 {fill:#ffffff;fill-opacity:0.15;stroke:none;stroke-linecap:butt;stroke-width:0.75}
		.st17 {fill:none;fill-rule:evenodd;font-size:12px;overflow:visible;stroke-linecap:square;stroke-miterlimit:3}
	]]>
	</style>

	<g v:mID="0" v:index="1" v:groupContext="foregroundPage">
		<title>Page 1</title>
		<v:pageProperties v:drawingScale="1" v:pageScale="1" v:drawingUnits="19" v:shadowOffsetX="9" v:shadowOffsetY="-9"/>
		<g id="shape1-1" v:mID="1" v:groupContext="shape" transform="translate(9.51235,-57.3689)">
			<title>Feuille.1</title>
			<path d="M22.53 106.51 L22.53 109.93 C22.53 111.58 23.87 112.92 25.52 112.92 L56.6 112.92 L56.6 92.36 C56.6 89.81 54.53
						 87.74 51.98 87.74 L44.3 87.74 L39.31 93.47 C38.24 94.7 36.33 94.7 35.26 93.47 L30.27 87.74 L17.66 87.74
						 L17.66 90.69 C17.66 92.74 16 94.39 13.96 94.39 C11.92 94.39 10.26 92.74 10.26 90.69 L10.26 87.74 L4.62 87.74
						 C2.07 87.74 0 89.81 0 92.36 L0 100.89 L16.91 100.89 C20.02 100.89 22.53 103.41 22.53 106.51 Z" class="st1"/>
		</g>
		<g id="shape2-3" v:mID="2" v:groupContext="shape" transform="translate(12.4247,-75.8922)">
			<title>Feuille.2</title>
			<path d="M11.05 112.92 C13.09 112.92 14.75 111.26 14.75 109.22 L14.75 96.43 C14.75 95.68 15.35 95.07 16.1 95.07 L18.71
						 95.07 C20.92 95.07 22.1 92.48 20.65 90.82 L13.07 82.11 C12 80.88 10.09 80.88 9.02 82.11 L1.45 90.82 C0 92.48
						 1.18 95.07 3.38 95.07 L5.99 95.07 C6.74 95.07 7.35 95.68 7.35 96.43 L7.35 109.22 C7.35 111.26 9.01 112.92
						 11.05 112.92 Z" class="st2"/>
		</g>
		<g id="shape3-5" v:mID="3" v:groupContext="shape" transform="translate(35.7473,-75.5847)">
			<title>Feuille.3</title>
			<path d="M13.07 111.69 L18.06 105.95 L20.65 102.98 C22.1 101.32 20.92 98.73 18.71 98.73 L16.1 98.73 C15.35 98.73 14.75
						 98.12 14.75 97.37 L14.75 84.58 C14.75 82.54 13.09 80.88 11.05 80.88 C9.01 80.88 7.35 82.54 7.35 84.58 L7.35
						 97.37 C7.35 98.12 6.74 98.73 5.99 98.73 L3.38 98.73 C1.18 98.73 0 101.32 1.45 102.98 C2.51 104.2 8.21 110.76
						 9.02 111.69 C10.09 112.92 12 112.92 13.07 111.69 Z" class="st3"/>
		</g>
		<g id="shape4-7" v:mID="4" v:groupContext="shape" transform="translate(52.5104,-36.9587)">
			<title>Feuille.4</title>
			<path d="M2.73 107.1 L0 107.1 L0 112.92 L2.73 112.92 C4.38 112.92 5.21 112 5.21 110.16 L5.21 109.86 C5.21 108.02 4.38
						 107.1 2.73 107.1 Z" class="st4"/>
		</g>
		<g id="shape5-9" v:mID="5" v:groupContext="shape" transform="translate(2.95133,-11.515)">
			<title>Feuille.5</title>
			<path d="M66.41 67.06 L32.08 67.06 C30.43 67.06 29.09 65.73 29.09 64.08 L29.09 60.66 C29.09 57.55 26.58 55.04 23.47 55.04
						 C21.52 55.04 8.37 55.04 5.62 55.04 C2.52 55.04 0 57.55 0 60.66 L0 107.29 C0 110.4 2.52 112.92 5.62 112.92
						 L66.41 112.92 C69.51 112.92 72.03 110.4 72.03 107.29 L72.03 72.68 C72.03 69.58 69.51 67.06 66.41 67.06 ZM24.38
						 81.11 C24.15 81.47 23.84 81.66 23.43 81.66 L16.3 81.66 L16.3 86.31 L20.46 86.31 C20.86 86.31 21.18 86.48
						 21.41 86.81 C21.64 87.14 21.75 87.54 21.75 88 C21.75 88.42 21.64 88.8 21.42 89.13 C21.2 89.46 20.88 89.62
						 20.46 89.62 L16.3 89.62 L16.3 96.73 C16.3 97.16 16.08 97.48 15.66 97.71 C15.24 97.94 14.73 98.06 14.15 98.06
						 C13.56 98.06 13.05 97.94 12.63 97.71 C12.21 97.48 12 97.16 12 96.73 L12 79.23 C12 78.81 12.18 78.48 12.55
						 78.25 C12.91 78.02 13.36 77.91 13.87 77.91 L23.43 77.91 C23.86 77.91 24.18 78.09 24.4 78.46 C24.62 78.83
						 24.73 79.26 24.73 79.76 C24.73 80.29 24.61 80.74 24.38 81.11 ZM41.14 81.11 C40.91 81.47 40.59 81.66 40.19
						 81.66 L36.39 81.66 L36.39 96.72 C36.39 97.15 36.17 97.48 35.75 97.71 C35.33 97.94 34.82 98.06 34.24 98.06
						 C33.65 98.06 33.14 97.94 32.72 97.71 C32.3 97.48 32.09 97.15 32.09 96.72 L32.09 81.66 L28.28 81.66 C27.88
						 81.66 27.56 81.47 27.33 81.11 C27.1 80.74 26.99 80.29 26.99 79.76 C26.99 79.26 27.1 78.82 27.32 78.46 C27.54
						 78.09 27.86 77.91 28.28 77.91 L40.19 77.91 C40.61 77.91 40.93 78.09 41.15 78.46 C41.37 78.82 41.48 79.26
						 41.48 79.76 C41.48 80.29 41.37 80.74 41.14 81.11 ZM59.07 84.39 C59.07 86.57 58.45 88.18 57.21 89.22 C55.97
						 90.26 54.33 90.78 52.29 90.78 L49.56 90.78 L49.56 96.73 C49.56 97.16 49.35 97.48 48.93 97.71 C48.5 97.94
						 48 98.06 47.41 98.06 C46.82 98.06 46.32 97.94 45.89 97.71 C45.47 97.48 45.26 97.16 45.26 96.73 L45.26 79.2
						 C45.26 78.86 45.41 78.55 45.7 78.29 C45.99 78.04 46.38 77.91 46.86 77.91 L52.56 77.91 C54.53 77.91 56.1
						 78.42 57.29 79.44 C58.47 80.46 59.07 82.06 59.07 84.25 L59.07 84.39 Z" class="st4"/>
		</g>
		<g id="shape6-11" v:mID="6" v:groupContext="shape" transform="translate(0.998051,-9.5625)">
			<title>Feuille.6</title>
			<path d="M68.36 63.16 L67.07 63.16 L67.07 44.55 C67.07 40.93 64.12 37.98 60.49 37.98 L57.09 37.98 C58.08 36.65 58.27
						 34.93 57.58 33.4 C56.83 31.77 55.26 30.75 53.46 30.75 L51.45 30.75 L51.45 18.56 C51.45 15.44 48.91 12.91
						 45.8 12.91 C42.68 12.91 40.15 15.44 40.15 18.56 L40.15 30.75 L38.13 30.75 C36.34 30.75 34.76 31.77 34.02
						 33.4 C33.32 34.93 33.51 36.65 34.51 37.98 L28.13 37.98 L28.13 30.7 L30.14 30.7 C31.93 30.7 33.51 29.68 34.25
						 28.05 C35 26.42 34.73 24.56 33.55 23.21 L25.97 14.5 C25.09 13.49 23.82 12.91 22.47 12.91 C21.13 12.91 19.86
						 13.49 18.98 14.5 L11.4 23.21 C10.22 24.56 9.95 26.42 10.69 28.05 C11.44 29.68 13.02 30.7 14.81 30.7 L16.82
						 30.7 L16.82 37.98 L13.14 37.98 C9.51 37.98 6.56 40.93 6.56 44.55 L6.56 51.2 C2.86 51.7 0 54.87 0 58.71 L0
						 105.34 C0 109.52 3.4 112.92 7.58 112.92 L68.36 112.92 C72.54 112.92 75.93 109.52 75.93 105.34 L75.93 70.73
						 C75.93 66.55 72.54 63.16 68.36 63.16 ZM37.57 35.02 C37.65 34.85 37.81 34.66 38.13 34.66 L40.74 34.66 C42.57
						 34.66 44.05 33.17 44.05 31.35 L44.05 18.56 C44.05 17.6 44.84 16.82 45.8 16.82 C46.76 16.82 47.54 17.6 47.54
						 18.56 L47.54 31.35 C47.54 33.17 49.03 34.66 50.85 34.66 L53.46 34.66 C53.79 34.66 53.95 34.85 54.02 35.02
						 C54.1 35.18 54.14 35.43 53.93 35.68 L51.34 38.65 L46.35 44.38 C46.16 44.6 45.92 44.63 45.8 44.63 C45.67
						 44.63 45.44 44.6 45.25 44.38 L37.67 35.68 C37.45 35.43 37.5 35.18 37.57 35.02 ZM14.81 26.79 C14.48 26.79
						 14.33 26.59 14.25 26.43 C14.18 26.27 14.13 26.02 14.35 25.77 L21.92 17.07 C22.11 16.85 22.35 16.82 22.47
						 16.82 C22.6 16.82 22.84 16.85 23.03 17.07 L30.6 25.77 C30.82 26.02 30.77 26.27 30.7 26.43 C30.62 26.59 30.47
						 26.79 30.14 26.79 L27.53 26.79 C25.7 26.79 24.22 28.27 24.22 30.1 L24.22 42.89 C24.22 43.85 23.44 44.63
						 22.47 44.63 C21.51 44.63 20.73 43.85 20.73 42.89 L20.73 30.1 C20.73 28.27 19.25 26.79 17.42 26.79 L14.81
						 26.79 ZM72.03 105.34 C72.03 107.36 70.38 109.01 68.36 109.01 L7.58 109.01 C5.55 109.01 3.91 107.36 3.91
						 105.34 L3.91 58.71 C3.91 56.68 5.55 55.04 7.58 55.04 L25.42 55.04 C27.45 55.04 29.09 56.68 29.09 58.71 L29.09
						 62.12 C29.09 64.85 31.31 67.06 34.03 67.06 L44.28 67.06 C45.36 67.06 46.24 66.19 46.24 65.11 C46.24 64.03
						 45.36 63.16 44.28 63.16 L34.03 63.16 C33.46 63.16 33 62.69 33 62.12 L33 58.71 C33 54.53 29.6 51.13 25.42
						 51.13 L10.47 51.13 L10.47 44.55 C10.47 43.08 11.67 41.89 13.14 41.89 L16.82 41.89 L16.82 42.89 C16.82 43.18
						 16.84 43.47 16.89 43.75 C17.07 44.96 17.65 46.05 18.48 46.88 C19.5 47.91 20.92 48.54 22.47 48.54 C25.3 48.54
						 27.65 46.46 28.06 43.75 C28.1 43.47 28.13 43.18 28.13 42.89 L28.13 41.89 L37.89 41.89 L42.3 46.95 C43.18
						 47.96 44.46 48.54 45.8 48.54 C47.14 48.54 48.41 47.96 49.3 46.95 L53.7 41.89 L60.49 41.89 C61.96 41.89 63.16
						 43.08 63.16 44.55 L63.16 63.16 L59.91 63.16 C58.83 63.16 57.96 64.03 57.96 65.11 C57.96 66.19 58.83 67.06
						 59.91 67.06 L68.36 67.06 C70.38 67.06 72.03 68.71 72.03 70.73 L72.03 105.34 Z" class="st5"/>
		</g>
		<g id="shape7-13" v:mID="7" v:groupContext="shape" transform="translate(14.9472,-26.3752)">
			<title>Feuille.7</title>
			<path d="M11.44 92.77 L1.87 92.77 C1.36 92.77 0.92 92.88 0.55 93.11 C0.18 93.34 0 93.67 0 94.09 L0 111.59 C0 112.02 0.21
						 112.34 0.63 112.57 C1.06 112.8 1.56 112.92 2.15 112.92 C2.74 112.92 3.24 112.8 3.67 112.57 C4.09 112.34
						 4.3 112.02 4.3 111.59 L4.3 104.48 L8.46 104.48 C8.88 104.48 9.2 104.32 9.43 103.99 C9.65 103.66 9.76 103.28
						 9.76 102.86 C9.76 102.4 9.64 102 9.41 101.67 C9.18 101.34 8.86 101.17 8.46 101.17 L4.3 101.17 L4.3 96.52
						 L11.44 96.52 C11.84 96.52 12.16 96.33 12.39 95.97 C12.62 95.6 12.73 95.15 12.73 94.62 C12.73 94.12 12.62
						 93.69 12.4 93.32 C12.18 92.95 11.86 92.77 11.44 92.77 Z" class="st5"/>
		</g>
		<g id="shape8-15" v:mID="8" v:groupContext="shape" transform="translate(29.9393,-26.3752)">
			<title>Feuille.8</title>
			<path d="M13.2 92.77 L1.3 92.77 C0.87 92.77 0.55 92.95 0.33 93.32 C0.11 93.68 0 94.12 0 94.62 C0 95.15 0.11 95.6 0.34
						 95.97 C0.57 96.33 0.89 96.52 1.3 96.52 L5.1 96.52 L5.1 111.58 C5.1 112.01 5.31 112.34 5.73 112.57 C6.16
						 112.8 6.66 112.92 7.25 112.92 C7.84 112.92 8.34 112.8 8.76 112.57 C9.19 112.34 9.4 112.01 9.4 111.58 L9.4
						 96.52 L13.2 96.52 C13.61 96.52 13.92 96.33 14.15 95.97 C14.38 95.6 14.5 95.15 14.5 94.62 C14.5 94.12 14.39
						 93.68 14.17 93.32 C13.95 92.95 13.62 92.77 13.2 92.77 Z" class="st5"/>
		</g>
		<g id="shape9-17" v:mID="9" v:groupContext="shape" transform="translate(48.2116,-26.3752)">
			<title>Feuille.9</title>
			<path d="M12.03 94.3 C10.84 93.28 9.27 92.77 7.3 92.77 L1.6 92.77 C1.12 92.77 0.73 92.9 0.44 93.15 C0.15 93.41 0 93.72
						 0 94.06 L0 111.59 C0 112.02 0.21 112.34 0.63 112.57 C1.06 112.8 1.56 112.92 2.15 112.92 C2.74 112.92 3.24
						 112.8 3.67 112.57 C4.09 112.34 4.3 112.02 4.3 111.59 L4.3 105.64 L7.03 105.64 C9.07 105.64 10.71 105.12
						 11.95 104.08 C13.19 103.04 13.81 101.43 13.81 99.25 L13.81 99.11 C13.81 96.92 13.21 95.32 12.03 94.3 ZM9.51
						 99.58 C9.51 101.41 8.68 102.33 7.03 102.33 L4.3 102.33 L4.3 96.52 L7.03 96.52 C8.68 96.52 9.51 97.44 9.51
						 99.27 L9.51 99.58 Z" class="st5"/>
		</g>
		<g id="shape10-19" v:mID="10" v:groupContext="shape" transform="translate(51.1431,-55.4156)">
			<title>Feuille.10</title>
			<path d="M1.96 112.92 C3.03 112.92 3.91 112.04 3.91 110.96 C3.91 109.88 3.03 109.01 1.96 109.01 L1.95 109.01 C0.87 109.01
						 0 109.88 0 110.96 C0 112.04 0.88 112.92 1.96 112.92 Z" class="st5"/>
		</g>
		<g id="shape12-21" v:mID="12" v:groupContext="shape" transform="translate(81.998,-31.0428)">
			<title>Feuille.12</title>
			<desc>=</desc>
			<v:textBlock v:margins="rect(4,4,4,4)"/>
			<v:textRect cx="28.0526" cy="92.1559" width="56.11" height="41.5197"/>
			<rect x="0" y="71.396" width="56.1053" height="41.5197" class="st6"/>
			<text x="8.25" y="110.16" class="st7" v:langID="1036"><v:paragraph v:horizAlign="1"/><v:tabList/>=</text>		</g>
		<g id="group13-24" transform="translate(141.623,-9.5625)" v:mID="13" v:groupContext="group">
			<title>Feuille.13</title>
			<g id="group14-25" v:mID="14" v:groupContext="group">
				<title>Feuille.14</title>
				<g id="shape15-26" v:mID="15" v:groupContext="shape" transform="translate(69.6277,-18.2812)">
					<title>Feuille.15</title>
					<path d="M31.79 84.94 C32.75 83.98 32.59 82.24 31.79 81.28 L26.87 76.35 L4.93 55.05 C3.97 54.1 2.54 54.1 1.43
								 55.05 C0.48 56.01 0.16 57.75 1.43 58.71 L24.48 81.28 C25.43 82.24 25.43 83.98 24.48 84.94 L0.95
								 108.31 C0 109.26 0 111.01 0.95 111.96 C1.91 112.92 3.66 112.76 4.45 111.96 L26.23 90.34 C26.23 90.34
								 26.23 90.34 26.39 90.18 L31.79 84.94 Z" class="st8"/>
				</g>
				<g id="shape16-28" v:mID="16" v:groupContext="shape" transform="translate(0,-18.2812)">
					<title>Feuille.16</title>
					<path d="M0.95 84.94 C0 83.98 0.16 82.24 0.95 81.28 L5.88 76.35 L27.82 55.05 C28.77 54.1 30.2 54.1 31.32 55.05
								 C32.27 56.01 32.59 57.75 31.32 58.71 L8.74 81.28 C7.79 82.24 7.79 83.98 8.74 84.94 L31.79 108.31
								 C32.75 109.26 32.75 111.01 31.79 111.96 C30.84 112.92 29.09 112.76 28.3 111.96 L6.04 90.66 C6.04
								 90.66 6.04 90.66 5.88 90.5 L0.95 84.94 Z" class="st8"/>
				</g>
				<g id="shape17-30" v:mID="17" v:groupContext="shape" transform="translate(28.2962,0)">
					<title>Feuille.17</title>
					<path d="M47.69 19.12 L16.69 19.12 L0 66.18 L20.35 66.34 L4.45 112.92 L48.33 50.76 L27.02 50.76 L47.69 19.12 Z"
							class="st9"/>
				</g>
				<g id="shape18-32" v:mID="18" v:groupContext="shape" transform="translate(32.7473,0)">
					<title>Feuille.18</title>
					<path d="M22.57 50.76 L43.24 19.12 L27.02 19.12 L9.86 58.23 L30.2 58.39 L0 112.92 L43.87 50.76 L22.57 50.76 Z"
							class="st10"/>
				</g>
			</g>
		</g>
		<g id="shape19-34" v:mID="19" v:groupContext="shape" transform="translate(247.314,-33.8026)">
			<title>Feuille.19</title>
			<desc>+</desc>
			<v:textBlock v:margins="rect(4,4,4,4)"/>
			<v:textRect cx="28.0526" cy="92.1559" width="56.11" height="41.5197"/>
			<rect x="0" y="71.396" width="56.1053" height="41.5197" class="st6"/>
			<text x="8.25" y="110.16" class="st7" v:langID="1036"><v:paragraph v:horizAlign="1"/><v:tabList/>+</text>		</g>
		<g id="group20-37" transform="translate(306.998,-18.5625)" v:mID="20" v:groupContext="group">
			<title>Feuille.20</title>
			<g id="shape21-38" v:mID="21" v:groupContext="shape">
				<title>Feuille.21</title>
				<path d="M79.2 112.92 L10.8 112.92 C4.83 112.92 0 108.08 0 102.12 L0 31.92 L90 31.92 L90 102.12 C90 108.08 85.17
							 112.92 79.2 112.92 Z" class="st11"/>
			</g>
			<g id="shape22-40" v:mID="22" v:groupContext="shape" transform="translate(7.2,-41.4)">
				<title>Feuille.22</title>
				<rect x="0" y="93.1158" width="75.6" height="19.8" class="st12"/>
			</g>
			<g id="shape23-42" v:mID="23" v:groupContext="shape" transform="translate(7.2,-7.2)">
				<title>Feuille.23</title>
				<rect x="0" y="85.9158" width="75.6" height="27" class="st13"/>
			</g>
			<g id="shape24-44" v:mID="24" v:groupContext="shape" transform="translate(7.2,-68.4)">
				<title>Feuille.24</title>
				<rect x="0" y="100.316" width="75.6" height="12.6" class="st14"/>
			</g>
			<g id="shape25-46" v:mID="25" v:groupContext="shape" transform="translate(7.2,-30.6)">
				<title>Feuille.25</title>
				<rect x="0" y="109.316" width="75.6" height="3.6" class="st15"/>
			</g>
			<g id="shape26-48" v:mID="26" v:groupContext="shape" transform="translate(7.2,-57.6)">
				<title>Feuille.26</title>
				<rect x="0" y="109.316" width="75.6" height="3.6" class="st15"/>
			</g>
			<g id="shape27-50" v:mID="27" v:groupContext="shape" transform="translate(0,-0.18)">
				<title>Feuille.27</title>
				<path d="M0 32.1 L0 108.94 C0 111.13 1.77 112.92 3.94 112.92 L14.4 112.92 L72 32.1 L0 32.1 Z" class="st16"/>
			</g>
		</g>
	</g>
</svg>
