<svg width="1040" height="425" xmlns="http://www.w3.org/2000/svg" xmlns:xlink="http://www.w3.org/1999/xlink" xml:space="preserve" overflow="hidden"><defs><clipPath id="clip0"><rect x="667" y="412" width="1040" height="425"/></clipPath><clipPath id="clip1"><rect x="1390" y="492" width="203" height="206"/></clipPath><clipPath id="clip2"><rect x="1390" y="492" width="203" height="206"/></clipPath><clipPath id="clip3"><rect x="1390" y="492" width="203" height="206"/></clipPath><clipPath id="clip4"><rect x="864" y="412" width="427" height="426"/></clipPath><clipPath id="clip5"><rect x="864" y="412" width="427" height="426"/></clipPath><clipPath id="clip6"><rect x="864" y="412" width="427" height="426"/></clipPath><clipPath id="clip7"><rect x="837" y="511" width="169" height="168"/></clipPath><clipPath id="clip8"><rect x="837" y="511" width="169" height="168"/></clipPath><clipPath id="clip9"><rect x="837" y="511" width="169" height="168"/></clipPath></defs><g clip-path="url(#clip0)" transform="translate(-667 -412)"><path d="M667 442.947C667 425.855 680.855 412 697.946 412L1676.05 412C1693.14 412 1707 425.855 1707 442.947L1707 804.054C1707 821.145 1693.14 835 1676.05 835L697.946 835C680.855 835 667 821.145 667 804.054Z" fill="#D6EEF9" fill-rule="evenodd"/><g clip-path="url(#clip1)"><g clip-path="url(#clip2)"><g clip-path="url(#clip3)"><path d="M63.4374 31.7187 69.7812 25.375 95.1562 25.375 101.5 31.7187 101.5 171.281 95.1562 177.625 69.7812 177.625 63.4374 171.281 63.4374 31.7187ZM76.1249 38.0625 76.1249 164.937 88.8124 164.937 88.8124 38.0625 76.1249 38.0625ZM116.357 42.4396 120.151 34.307 144.003 25.6287 152.123 29.4223 199.853 160.56 196.06 168.693 172.22 177.371 164.1 173.578 116.344 42.4396ZM130.44 44.0636 173.831 163.275 185.758 158.949 142.366 39.7245 130.44 44.0636ZM12.6875 31.7187 19.0312 25.375 44.4062 25.375 50.75 31.7187 50.75 171.281 44.4062 177.625 19.0312 177.625 12.6875 171.281 12.6875 31.7187ZM25.375 38.0625 25.375 164.937 38.0625 164.937 38.0625 38.0625 25.375 38.0625Z" fill-rule="evenodd" transform="matrix(1 0 0 1.00493 1390 493)"/></g></g></g><text fill="#051922" font-family="Poppins,Poppins_MSFontService,sans-serif" font-weight="700" font-size="64" transform="matrix(1 0 0 1 1386.19 751)">Library</text><g clip-path="url(#clip4)"><g clip-path="url(#clip5)"><g clip-path="url(#clip6)"><path d="M401.389 94.4444 401.389 324.417 306.944 401.861 160.556 348.5 160.556 401.389 77.6805 293.014 319.222 311.903 319.222 104.833ZM320.875 106.014 185.347 23.6111 185.347 77.6805 60.9166 114.278 23.6111 162.208 23.6111 271.055 76.9722 294.667 76.9722 155.125Z" fill="#FEFEFE" transform="matrix(1 0 0 1 865 412)"/></g></g></g><g clip-path="url(#clip7)"><g clip-path="url(#clip8)"><g clip-path="url(#clip9)"><path d="M125.83 0.066964 40.4166 0.066964C37.1221 0.066964 34.4732 2.71599 34.4732 6.01028L34.4732 25.4704 131.774 25.4704 131.774 6.01028C131.774 2.71599 129.125 0.066964 125.83 0.066964Z" fill="#BC3200" transform="matrix(1 0 0 1 837 511)"/><path d="M135.888 11.9598 30.3691 11.9598C25.6144 11.9598 21.7767 15.7975 21.7767 20.5522L21.7767 27.3106 144.481 27.3106 144.481 20.5522C144.481 15.7975 140.643 11.9598 135.888 11.9598Z" fill="#D13600" transform="matrix(1 0 0 1 837 511)"/><path d="M148.251 24.1473 18.0075 24.1473C13.2528 24.1473 9.41515 27.985 9.41515 32.7396L9.41515 155.07C9.41515 159.825 13.2868 163.697 18.0415 163.697L148.217 163.697C152.972 163.697 156.844 159.825 156.844 155.07L156.844 32.7396C156.844 27.985 153.006 24.1473 148.251 24.1473Z" fill="#E15815" transform="matrix(1 0 0 1 837 511)"/><path d="M52.9185 36.7501C43.885 36.7501 36.5492 44.0855 36.5492 53.1195 36.5492 62.1534 43.885 69.4892 52.9185 69.4892 61.9525 69.4892 69.2882 62.1534 69.2882 53.1195 69.2882 44.0855 61.9525 36.7501 52.9185 36.7501ZM52.9185 63.7158C47.0434 63.7158 42.2886 58.9611 42.2886 53.0855 42.2886 47.2103 47.0434 42.4556 52.9185 42.4556 58.7941 42.4556 63.5488 47.2103 63.5488 53.0855 63.5488 58.9611 58.7941 63.7158 52.9185 63.7158Z" fill="#FFB290" transform="matrix(1 0 0 1 837 511)"/><path d="M59.0663 67.7142 46.9419 67.7142 46.9419 100.895 59.0663 100.895 59.0663 67.7142Z" fill="#FFB290" transform="matrix(1 0 0 1 837 511)"/><path d="M130.664 53.3471C130.664 44.3135 123.328 36.9778 114.294 36.9778 105.26 36.9778 97.9243 44.3135 97.9243 53.3471 97.9243 60.3095 102.271 66.2526 108.418 68.6299L108.418 79.8715 46.9477 100.181 46.8459 100.181 46.8459 120.999C40.8346 123.411 36.5893 129.32 36.5893 136.18 36.5893 145.214 43.9251 152.55 52.959 152.55 61.9926 152.55 69.3283 145.214 69.3283 136.18 69.3283 129.388 65.1849 123.546 59.3097 121.067L59.3097 108.162 120.441 87.9544 120.305 87.7164 120.441 87.7164 120.441 68.4942C126.418 66.0829 130.664 60.2077 130.664 53.3471ZM63.555 136.214C63.555 142.089 58.8003 146.844 52.9247 146.844 47.0495 146.844 42.2948 142.089 42.2948 136.214 42.2948 130.339 47.0495 125.584 52.9247 125.584 58.8003 125.584 63.555 130.339 63.555 136.214ZM114.294 63.9434C108.418 63.9434 103.664 59.1887 103.664 53.3132 103.664 47.438 108.418 42.6832 114.294 42.6832 120.169 42.6832 124.924 47.438 124.924 53.3132 124.924 59.1887 120.135 63.9434 114.294 63.9434Z" fill="#FFDBCA" transform="matrix(1 0 0 1 837 511)"/></g></g></g><text fill="#051922" font-family="Poppins,Poppins_MSFontService,sans-serif" font-weight="700" font-size="64" transform="matrix(1 0 0 1 741.593 755)">Repository</text><rect x="1191" y="524" width="34" height="205" fill="#0070C0"/><rect x="1106" y="609" width="205" height="34.0001" fill="#0070C0"/></g></svg>