<svg width="3005" height="355" xmlns="http://www.w3.org/2000/svg" xmlns:xlink="http://www.w3.org/1999/xlink" xml:space="preserve" overflow="hidden"><defs><clipPath id="clip0"><rect x="503" y="843" width="3005" height="355"/></clipPath></defs><g clip-path="url(#clip0)" transform="translate(-503 -843)"><path d="M505.5 865.5 858.5 865.5 1023.5 1030.5 858.5 1195.5 505.5 1195.5Z" stroke="#6A9838" stroke-width="4.58333" stroke-miterlimit="8" fill="#92D050" fill-rule="evenodd"/><text fill="#FEFEFE" font-family="Poppins,Poppins_MSFontService,sans-serif" font-weight="700" font-size="128" transform="matrix(1 0 0 1 654.981 1000)">CI</text><path d="M915.5 865.5 3338.5 865.5 3503.5 1030.5 3338.5 1195.5 915.5 1195.5 1080.5 1030.5Z" stroke="#0076A7" stroke-width="4.58333" stroke-miterlimit="8" fill="#009DDF" fill-rule="evenodd"/><text fill="#FEFEFE" font-family="Poppins,Poppins_MSFontService,sans-serif" font-weight="700" font-size="128" transform="matrix(1 0 0 1 2113.05 1000)">CD</text><path d="M1116.5 1029.5 1733.5 1029.5 1800.5 1096.5 1733.5 1163.5 1116.5 1163.5Z" stroke="#53CCFF" stroke-width="4.58333" stroke-miterlimit="8" fill="#0076A7" fill-rule="evenodd"/><text fill="#FEFEFE" font-family="Arial,Arial_MSFontService,sans-serif" font-weight="400" font-size="64" transform="matrix(1 0 0 1 1155.01 1120)">Publish<tspan font-size="64" x="228.021" y="0">k</tspan><tspan font-size="64" x="260.104" y="0">eyvault</tspan><tspan font-size="64" x="480.677" y="0">ref</tspan><tspan font-size="64" x="555.156" y="0">.</tspan></text><path d="M1765.5 1029.5 2520.5 1029.5 2587.5 1096.5 2520.5 1163.5 1765.5 1163.5 1832.5 1096.5Z" stroke="#53CCFF" stroke-width="4.58333" stroke-miterlimit="8" fill="#0076A7" fill-rule="evenodd"/><text fill="#FEFEFE" font-family="Arial,Arial_MSFontService,sans-serif" font-weight="400" font-size="64" transform="matrix(1 0 0 1 1870.16 1120)">Publish<tspan font-size="64" x="228.021" y="0">features</tspan><tspan font-size="64" x="476.667" y="0">flag</tspan>s</text><path d="M2555.5 1029.5 3310.5 1029.5 3377.5 1096.5 3310.5 1163.5 2555.5 1163.5 2622.5 1096.5Z" stroke="#53CCFF" stroke-width="4.58333" stroke-miterlimit="8" fill="#0076A7" fill-rule="evenodd"/><text fill="#FEFEFE" font-family="Arial,Arial_MSFontService,sans-serif" font-weight="400" font-size="64" transform="matrix(1 0 0 1 2669.15 1120)">Publish<tspan font-size="64" x="228.021" y="0">configuration</tspan></text></g></svg>