<svg width="2016" height="738" xmlns="http://www.w3.org/2000/svg" xmlns:xlink="http://www.w3.org/1999/xlink" xml:space="preserve" overflow="hidden"><defs><clipPath id="clip0"><rect x="1961" y="1177" width="2016" height="738"/></clipPath><clipPath id="clip1"><rect x="3441" y="1178" width="171" height="169"/></clipPath><clipPath id="clip2"><rect x="3441" y="1178" width="171" height="169"/></clipPath><clipPath id="clip3"><rect x="3441" y="1178" width="171" height="169"/></clipPath><clipPath id="clip4"><rect x="3441" y="1369" width="171" height="169"/></clipPath><clipPath id="clip5"><rect x="3441" y="1369" width="171" height="169"/></clipPath><clipPath id="clip6"><rect x="3441" y="1369" width="171" height="169"/></clipPath><clipPath id="clip7"><rect x="3444" y="1557" width="169" height="169"/></clipPath><clipPath id="clip8"><rect x="3444" y="1557" width="169" height="169"/></clipPath><clipPath id="clip9"><rect x="3444" y="1557" width="169" height="169"/></clipPath><clipPath id="clip10"><rect x="3444" y="1746" width="170" height="170"/></clipPath><clipPath id="clip11"><rect x="3444" y="1746" width="170" height="170"/></clipPath><clipPath id="clip12"><rect x="3444" y="1746" width="170" height="170"/></clipPath></defs><g clip-path="url(#clip0)" transform="translate(-1961 -1177)"><path d="M2329 1605 3375 1605 3375 1576 3433 1634 3375 1692 3375 1663 2329 1663Z" fill="#BEBEBE" fill-rule="evenodd"/><path d="M2332 1795 3377 1795 3377 1766 3435 1824 3377 1882 3377 1853 2332 1853Z" fill="#BEBEBE" fill-rule="evenodd"/><path d="M2329 1418.75 3375.5 1418.75 3375.5 1390 3433 1447.5 3375.5 1505 3375.5 1476.25 2329 1476.25Z" fill="#BEBEBE" fill-rule="evenodd"/><path d="M3314 1225.75 3375.5 1225.75 3375.5 1197 3433 1254.5 3375.5 1312 3375.5 1283.25 3314 1283.25Z" fill="#BEBEBE" fill-rule="evenodd"/><g clip-path="url(#clip1)"><g clip-path="url(#clip2)"><g clip-path="url(#clip3)"><path d="M125.831 0.0669641 40.4167 0.0669641C37.1222 0.0669641 34.4733 2.71599 34.4733 6.01029L34.4733 25.4705 131.774 25.4705 131.774 6.01029C131.774 2.71599 129.125 0.0669641 125.831 0.0669641Z" fill="#BC3200" transform="matrix(1.00595 0 0 1 3442 1178)"/><path d="M135.889 11.9598 30.3692 11.9598C25.6145 11.9598 21.7768 15.7975 21.7768 20.5522L21.7768 27.3106 144.481 27.3106 144.481 20.5522C144.481 15.7975 140.644 11.9598 135.889 11.9598Z" fill="#D13600" transform="matrix(1.00595 0 0 1 3442 1178)"/><path d="M148.252 24.1473 18.0076 24.1473C13.2529 24.1473 9.41517 27.985 9.41517 32.7397L9.41517 155.071C9.41517 159.825 13.2869 163.697 18.0415 163.697L148.218 163.697C152.972 163.697 156.844 159.825 156.844 155.071L156.844 32.7397C156.844 27.985 153.006 24.1473 148.252 24.1473Z" fill="#E15815" transform="matrix(1.00595 0 0 1 3442 1178)"/><path d="M52.9187 36.7502C43.8851 36.7502 36.5493 44.0856 36.5493 53.1196 36.5493 62.1535 43.8851 69.4893 52.9187 69.4893 61.9526 69.4893 69.2884 62.1535 69.2884 53.1196 69.2884 44.0856 61.9526 36.7502 52.9187 36.7502ZM52.9187 63.7159C47.0435 63.7159 42.2887 58.9612 42.2887 53.0856 42.2887 47.2104 47.0435 42.4557 52.9187 42.4557 58.7942 42.4557 63.549 47.2104 63.549 53.0856 63.549 58.9612 58.7942 63.7159 52.9187 63.7159Z" fill="#FFB290" transform="matrix(1.00595 0 0 1 3442 1178)"/><path d="M59.0664 67.7143 46.942 67.7143 46.942 100.895 59.0664 100.895 59.0664 67.7143Z" fill="#FFB290" transform="matrix(1.00595 0 0 1 3442 1178)"/><path d="M130.664 53.3472C130.664 44.3136 123.328 36.9778 114.294 36.9778 105.26 36.9778 97.9245 44.3136 97.9245 53.3472 97.9245 60.3096 102.272 66.2527 108.419 68.6301L108.419 79.8717 46.9478 100.181 46.846 100.181 46.846 120.999C40.8347 123.411 36.5894 129.32 36.5894 136.181 36.5894 145.214 43.9252 152.55 52.9591 152.55 61.9927 152.55 69.3285 145.214 69.3285 136.181 69.3285 129.388 65.1851 123.547 59.3099 121.067L59.3099 108.162 120.441 87.9546 120.306 87.7166 120.441 87.7166 120.441 68.4943C126.419 66.083 130.664 60.2078 130.664 53.3472ZM63.5551 136.214C63.5551 142.09 58.8004 146.844 52.9248 146.844 47.0496 146.844 42.2949 142.09 42.2949 136.214 42.2949 130.339 47.0496 125.584 52.9248 125.584 58.8004 125.584 63.5551 130.339 63.5551 136.214ZM114.294 63.9436C108.419 63.9436 103.664 59.1888 103.664 53.3133 103.664 47.4381 108.419 42.6833 114.294 42.6833 120.169 42.6833 124.924 47.4381 124.924 53.3133 124.924 59.1888 120.135 63.9436 114.294 63.9436Z" fill="#FFDBCA" transform="matrix(1.00595 0 0 1 3442 1178)"/></g></g></g><text fill="#051922" font-family="Poppins,Poppins_MSFontService,sans-serif" font-weight="700" font-size="64" transform="matrix(1 0 0 1 3628.26 1291)">Common</text><g clip-path="url(#clip4)"><g clip-path="url(#clip5)"><g clip-path="url(#clip6)"><path d="M126.579 0.0673626 40.6572 0.0673626C37.3431 0.0673626 34.6784 2.73215 34.6784 6.04605L34.6784 25.622 132.558 25.622 132.558 6.04605C132.558 2.73215 129.894 0.0673626 126.579 0.0673626Z" fill="#BC3200" transform="matrix(1 0 0 1 3442 1369)"/><path d="M136.697 12.031 30.5499 12.031C25.7669 12.031 21.9064 15.8915 21.9064 20.6745L21.9064 27.4731 145.341 27.4731 145.341 20.6745C145.341 15.8915 141.48 12.031 136.697 12.031Z" fill="#D13600" transform="matrix(1 0 0 1 3442 1369)"/><path d="M149.134 24.291 18.1147 24.291C13.3317 24.291 9.4712 28.1516 9.4712 32.9345L9.4712 155.993C9.4712 160.776 13.3659 164.671 18.1489 164.671L149.1 164.671C153.883 164.671 157.777 160.776 157.777 155.993L157.777 32.9345C157.777 28.1516 153.917 24.291 149.134 24.291Z" fill="#E15815" transform="matrix(1 0 0 1 3442 1369)"/><path d="M53.2335 36.9689C44.1462 36.9689 36.7668 44.348 36.7668 53.4357 36.7668 62.5234 44.1462 69.9028 53.2335 69.9028 62.3213 69.9028 69.7007 62.5234 69.7007 53.4357 69.7007 44.348 62.3213 36.9689 53.2335 36.9689ZM53.2335 64.0951C47.3234 64.0951 42.5403 59.312 42.5403 53.4015 42.5403 47.4913 47.3234 42.7083 53.2335 42.7083 59.1441 42.7083 63.9271 47.4913 63.9271 53.4015 63.9271 59.312 59.1441 64.0951 53.2335 64.0951Z" fill="#FFB290" transform="matrix(1 0 0 1 3442 1369)"/><path d="M59.4179 68.1173 47.2213 68.1173 47.2213 101.495 59.4179 101.495 59.4179 68.1173Z" fill="#FFB290" transform="matrix(1 0 0 1 3442 1369)"/><path d="M131.441 53.6647C131.441 44.5773 124.062 37.1979 114.974 37.1979 105.887 37.1979 98.5072 44.5773 98.5072 53.6647 98.5072 60.6685 102.88 66.647 109.064 69.0385L109.064 80.347 47.2272 100.777 47.1247 100.777 47.1247 121.719C41.0776 124.145 36.8071 130.089 36.8071 136.991 36.8071 146.078 44.1865 153.458 53.2742 153.458 62.3616 153.458 69.741 146.078 69.741 136.991 69.741 130.158 65.5729 124.282 59.6628 121.788L59.6628 108.805 121.158 88.4779 121.021 88.2386 121.158 88.2386 121.158 68.9019C127.171 66.4762 131.441 60.5661 131.441 53.6647ZM63.9333 137.025C63.9333 142.935 59.1503 147.718 53.2398 147.718 47.3296 147.718 42.5466 142.935 42.5466 137.025 42.5466 131.115 47.3296 126.331 53.2398 126.331 59.1503 126.331 63.9333 131.115 63.9333 137.025ZM114.974 64.3241C109.064 64.3241 104.281 59.541 104.281 53.6305 104.281 47.7204 109.064 42.9373 114.974 42.9373 120.884 42.9373 125.668 47.7204 125.668 53.6305 125.668 59.541 120.85 64.3241 114.974 64.3241Z" fill="#FFDBCA" transform="matrix(1 0 0 1 3442 1369)"/></g></g></g><text fill="#051922" font-family="Poppins,Poppins_MSFontService,sans-serif" font-weight="700" font-size="64" transform="matrix(1 0 0 1 3629.42 1482)">DEV</text><g clip-path="url(#clip7)"><g clip-path="url(#clip8)"><g clip-path="url(#clip9)"><path d="M3569.83 1558.07 3484.42 1558.07C3481.12 1558.07 3478.47 1560.72 3478.47 1564.01L3478.47 1583.47 3575.77 1583.47 3575.77 1564.01C3575.77 1560.72 3573.13 1558.07 3569.83 1558.07Z" fill="#BC3200"/><path d="M3579.89 1569.96 3474.37 1569.96C3469.61 1569.96 3465.78 1573.8 3465.78 1578.55L3465.78 1585.31 3588.48 1585.31 3588.48 1578.55C3588.48 1573.8 3584.64 1569.96 3579.89 1569.96Z" fill="#D13600"/><path d="M3592.25 1582.15 3462.01 1582.15C3457.25 1582.15 3453.42 1585.98 3453.42 1590.74L3453.42 1713.07C3453.42 1717.82 3457.29 1721.7 3462.04 1721.7L3592.22 1721.7C3596.97 1721.7 3600.84 1717.82 3600.84 1713.07L3600.84 1590.74C3600.84 1585.98 3597.01 1582.15 3592.25 1582.15Z" fill="#E15815"/><path d="M3496.92 1594.75C3487.89 1594.75 3480.55 1602.09 3480.55 1611.12 3480.55 1620.15 3487.89 1627.49 3496.92 1627.49 3505.95 1627.49 3513.29 1620.15 3513.29 1611.12 3513.29 1602.09 3505.95 1594.75 3496.92 1594.75ZM3496.92 1621.72C3491.04 1621.72 3486.29 1616.96 3486.29 1611.09 3486.29 1605.21 3491.04 1600.46 3496.92 1600.46 3502.79 1600.46 3507.55 1605.21 3507.55 1611.09 3507.55 1616.96 3502.79 1621.72 3496.92 1621.72Z" fill="#FFB290"/><path d="M3503.07 1625.71 3490.94 1625.71 3490.94 1658.89 3503.07 1658.89 3503.07 1625.71Z" fill="#FFB290"/><path d="M3574.66 1611.35C3574.66 1602.31 3567.33 1594.98 3558.29 1594.98 3549.26 1594.98 3541.92 1602.31 3541.92 1611.35 3541.92 1618.31 3546.27 1624.25 3552.42 1626.63L3552.42 1637.87 3490.95 1658.18 3490.85 1658.18 3490.85 1679C3484.83 1681.41 3480.59 1687.32 3480.59 1694.18 3480.59 1703.21 3487.93 1710.55 3496.96 1710.55 3505.99 1710.55 3513.33 1703.21 3513.33 1694.18 3513.33 1687.39 3509.19 1681.55 3503.31 1679.07L3503.31 1666.16 3564.44 1645.95 3564.31 1645.72 3564.44 1645.72 3564.44 1626.49C3570.42 1624.08 3574.66 1618.21 3574.66 1611.35ZM3507.56 1694.21C3507.56 1700.09 3502.8 1704.84 3496.92 1704.84 3491.05 1704.84 3486.29 1700.09 3486.29 1694.21 3486.29 1688.34 3491.05 1683.58 3496.92 1683.58 3502.8 1683.58 3507.56 1688.34 3507.56 1694.21ZM3558.29 1621.94C3552.42 1621.94 3547.66 1617.19 3547.66 1611.31 3547.66 1605.44 3552.42 1600.68 3558.29 1600.68 3564.17 1600.68 3568.92 1605.44 3568.92 1611.31 3568.92 1617.19 3564.14 1621.94 3558.29 1621.94Z" fill="#FFDBCA"/></g></g></g><text fill="#051922" font-family="Poppins,Poppins_MSFontService,sans-serif" font-weight="700" font-size="64" transform="matrix(1 0 0 1 3631.07 1671)">UAT</text><g clip-path="url(#clip10)"><g clip-path="url(#clip11)"><g clip-path="url(#clip12)"><path d="M125.831 0.0669641 40.4167 0.0669641C37.1222 0.0669641 34.4733 2.71599 34.4733 6.01029L34.4733 25.4705 131.774 25.4705 131.774 6.01029C131.774 2.71599 129.125 0.0669641 125.831 0.0669641Z" fill="#BC3200" transform="matrix(1.00595 0 0 1 3444 1747)"/><path d="M135.889 11.9598 30.3692 11.9598C25.6145 11.9598 21.7768 15.7975 21.7768 20.5522L21.7768 27.3106 144.481 27.3106 144.481 20.5522C144.481 15.7975 140.644 11.9598 135.889 11.9598Z" fill="#D13600" transform="matrix(1.00595 0 0 1 3444 1747)"/><path d="M148.252 24.1473 18.0076 24.1473C13.2529 24.1473 9.41517 27.985 9.41517 32.7397L9.41517 155.071C9.41517 159.825 13.2869 163.697 18.0415 163.697L148.218 163.697C152.972 163.697 156.844 159.825 156.844 155.071L156.844 32.7397C156.844 27.985 153.006 24.1473 148.252 24.1473Z" fill="#E15815" transform="matrix(1.00595 0 0 1 3444 1747)"/><path d="M52.9187 36.7502C43.8851 36.7502 36.5493 44.0856 36.5493 53.1196 36.5493 62.1535 43.8851 69.4893 52.9187 69.4893 61.9526 69.4893 69.2884 62.1535 69.2884 53.1196 69.2884 44.0856 61.9526 36.7502 52.9187 36.7502ZM52.9187 63.7159C47.0435 63.7159 42.2887 58.9612 42.2887 53.0856 42.2887 47.2104 47.0435 42.4557 52.9187 42.4557 58.7942 42.4557 63.549 47.2104 63.549 53.0856 63.549 58.9612 58.7942 63.7159 52.9187 63.7159Z" fill="#FFB290" transform="matrix(1.00595 0 0 1 3444 1747)"/><path d="M59.0664 67.7143 46.942 67.7143 46.942 100.895 59.0664 100.895 59.0664 67.7143Z" fill="#FFB290" transform="matrix(1.00595 0 0 1 3444 1747)"/><path d="M130.664 53.3472C130.664 44.3136 123.328 36.9778 114.294 36.9778 105.26 36.9778 97.9245 44.3136 97.9245 53.3472 97.9245 60.3096 102.272 66.2527 108.419 68.6301L108.419 79.8717 46.9478 100.181 46.846 100.181 46.846 120.999C40.8347 123.411 36.5894 129.32 36.5894 136.181 36.5894 145.214 43.9252 152.55 52.9591 152.55 61.9927 152.55 69.3285 145.214 69.3285 136.181 69.3285 129.388 65.1851 123.547 59.3099 121.067L59.3099 108.162 120.441 87.9546 120.306 87.7166 120.441 87.7166 120.441 68.4943C126.419 66.083 130.664 60.2078 130.664 53.3472ZM63.5551 136.214C63.5551 142.09 58.8004 146.844 52.9248 146.844 47.0496 146.844 42.2949 142.09 42.2949 136.214 42.2949 130.339 47.0496 125.584 52.9248 125.584 58.8004 125.584 63.5551 130.339 63.5551 136.214ZM114.294 63.9436C108.419 63.9436 103.664 59.1888 103.664 53.3133 103.664 47.4381 108.419 42.6833 114.294 42.6833 120.169 42.6833 124.924 47.4381 124.924 53.3133 124.924 59.1888 120.135 63.9436 114.294 63.9436Z" fill="#FFDBCA" transform="matrix(1.00595 0 0 1 3444 1747)"/></g></g></g><text fill="#051922" font-family="Poppins,Poppins_MSFontService,sans-serif" font-weight="700" font-size="64" transform="matrix(1 0 0 1 3638.14 1851)">PROD</text><path d="M2151.5 1180.5 2513 1180.5 2588.5 1256 2513 1331.5 2151.5 1331.5 2227 1256Z" stroke="#0076A7" stroke-width="4.58333" stroke-miterlimit="8" fill="#009DDF" fill-rule="evenodd"/><text fill="#FEFEFE" font-family="Poppins,Poppins_MSFontService,sans-serif" font-weight="700" font-size="46" transform="matrix(1 0 0 1 2323.95 1238)">DEV</text><path d="M2240.5 1255.5 2309 1255.5 2339.5 1286 2309 1316.5 2240.5 1316.5Z" stroke="#53CCFF" stroke-width="4.58333" stroke-miterlimit="8" fill="#0076A7" fill-rule="evenodd"/><path d="M2316.5 1255.5 2405 1255.5 2435.5 1286 2405 1316.5 2316.5 1316.5 2347 1286Z" stroke="#53CCFF" stroke-width="4.58333" stroke-miterlimit="8" fill="#0076A7" fill-rule="evenodd"/><path d="M2415.5 1255.5 2503 1255.5 2533.5 1286 2503 1316.5 2415.5 1316.5 2446 1286Z" stroke="#53CCFF" stroke-width="4.58333" stroke-miterlimit="8" fill="#0076A7" fill-rule="evenodd"/><path d="M1963.5 1179.5 2125 1179.5 2200.5 1255 2125 1330.5 1963.5 1330.5Z" stroke="#6A9838" stroke-width="4.58333" stroke-miterlimit="8" fill="#92D050" fill-rule="evenodd"/><text fill="#FEFEFE" font-family="Poppins,Poppins_MSFontService,sans-serif" font-weight="700" font-size="46" transform="matrix(1 0 0 1 2038.46 1238)">CI</text><path d="M2531.5 1179.5 2894 1179.5 2969.5 1255 2894 1330.5 2531.5 1330.5 2607 1255Z" stroke="#0076A7" stroke-width="4.58333" stroke-miterlimit="8" fill="#009DDF" fill-rule="evenodd"/><text fill="#FEFEFE" font-family="Poppins,Poppins_MSFontService,sans-serif" font-weight="700" font-size="46" transform="matrix(1 0 0 1 2703.83 1238)">UAT</text><path d="M2621.5 1254.5 2689.5 1254.5 2720.5 1285.5 2689.5 1316.5 2621.5 1316.5Z" stroke="#53CCFF" stroke-width="4.58333" stroke-miterlimit="8" fill="#0076A7" fill-rule="evenodd"/><path d="M2697.5 1254.5 2785.5 1254.5 2816.5 1285.5 2785.5 1316.5 2697.5 1316.5 2728.5 1285.5Z" stroke="#53CCFF" stroke-width="4.58333" stroke-miterlimit="8" fill="#0076A7" fill-rule="evenodd"/><path d="M2795.5 1254.5 2883.5 1254.5 2914.5 1285.5 2883.5 1316.5 2795.5 1316.5 2826.5 1285.5Z" stroke="#53CCFF" stroke-width="4.58333" stroke-miterlimit="8" fill="#0076A7" fill-rule="evenodd"/><path d="M2914.5 1179.5 3261 1179.5 3336.5 1255 3261 1330.5 2914.5 1330.5 2990 1255Z" stroke="#0076A7" stroke-width="4.58333" stroke-miterlimit="8" fill="#009DDF" fill-rule="evenodd"/><text fill="#FEFEFE" font-family="Poppins,Poppins_MSFontService,sans-serif" font-weight="700" font-size="46" transform="matrix(1 0 0 1 3061.04 1238)">PROD</text><path d="M3000.5 1254.5 3068.5 1254.5 3099.5 1285.5 3068.5 1316.5 3000.5 1316.5Z" stroke="#53CCFF" stroke-width="4.58333" stroke-miterlimit="8" fill="#0076A7" fill-rule="evenodd"/><path d="M3076.5 1254.5 3164.5 1254.5 3195.5 1285.5 3164.5 1316.5 3076.5 1316.5 3107.5 1285.5Z" stroke="#53CCFF" stroke-width="4.58333" stroke-miterlimit="8" fill="#0076A7" fill-rule="evenodd"/><path d="M3174.5 1254.5 3262.5 1254.5 3293.5 1285.5 3262.5 1316.5 3174.5 1316.5 3205.5 1285.5Z" stroke="#53CCFF" stroke-width="4.58333" stroke-miterlimit="8" fill="#0076A7" fill-rule="evenodd"/><path d="M2071.5 1370.5 2313 1370.5 2388.5 1446 2313 1521.5 2071.5 1521.5 2147 1446Z" stroke="#0076A7" stroke-width="4.58333" stroke-miterlimit="8" fill="#009DDF" fill-rule="evenodd"/><text fill="#FEFEFE" font-family="Poppins,Poppins_MSFontService,sans-serif" font-weight="700" font-size="50" transform="matrix(1 0 0 1 2179.25 1432)">DEV</text><path d="M2152.5 1445.5 2194 1445.5 2224.5 1476 2194 1506.5 2152.5 1506.5Z" stroke="#53CCFF" stroke-width="4.58333" stroke-miterlimit="8" fill="#0076A7" fill-rule="evenodd"/><path d="M2198.5 1445.5 2254 1445.5 2284.5 1476 2254 1506.5 2198.5 1506.5 2229 1476Z" stroke="#53CCFF" stroke-width="4.58333" stroke-miterlimit="8" fill="#0076A7" fill-rule="evenodd"/><path d="M2258.5 1445.5 2315 1445.5 2345.5 1476 2315 1506.5 2258.5 1506.5 2289 1476Z" stroke="#53CCFF" stroke-width="4.58333" stroke-miterlimit="8" fill="#0076A7" fill-rule="evenodd"/><path d="M1963.5 1369.5 2045 1369.5 2120.5 1445 2045 1520.5 1963.5 1520.5Z" stroke="#6A9838" stroke-width="4.58333" stroke-miterlimit="8" fill="#92D050" fill-rule="evenodd"/><text fill="#FEFEFE" font-family="Poppins,Poppins_MSFontService,sans-serif" font-weight="700" font-size="50" transform="matrix(1 0 0 1 1996.23 1432)">CI</text><path d="M2071.5 1558.5 2313 1558.5 2388.5 1634 2313 1709.5 2071.5 1709.5 2147 1634Z" stroke="#0076A7" stroke-width="4.58333" stroke-miterlimit="8" fill="#009DDF" fill-rule="evenodd"/><text fill="#FEFEFE" font-family="Poppins,Poppins_MSFontService,sans-serif" font-weight="700" font-size="48" transform="matrix(1 0 0 1 2180.68 1619)">UAT</text><path d="M2152.5 1633.5 2194 1633.5 2224.5 1664 2194 1694.5 2152.5 1694.5Z" stroke="#53CCFF" stroke-width="4.58333" stroke-miterlimit="8" fill="#0076A7" fill-rule="evenodd"/><path d="M2198.5 1633.5 2254 1633.5 2284.5 1664 2254 1694.5 2198.5 1694.5 2229 1664Z" stroke="#53CCFF" stroke-width="4.58333" stroke-miterlimit="8" fill="#0076A7" fill-rule="evenodd"/><path d="M2258.5 1633.5 2315 1633.5 2345.5 1664 2315 1694.5 2258.5 1694.5 2289 1664Z" stroke="#53CCFF" stroke-width="4.58333" stroke-miterlimit="8" fill="#0076A7" fill-rule="evenodd"/><path d="M1963.5 1558.5 2045 1558.5 2120.5 1634 2045 1709.5 1963.5 1709.5Z" stroke="#6A9838" stroke-width="4.58333" stroke-miterlimit="8" fill="#92D050" fill-rule="evenodd"/><text fill="#FEFEFE" font-family="Poppins,Poppins_MSFontService,sans-serif" font-weight="700" font-size="50" transform="matrix(1 0 0 1 1996.23 1620)">CI</text><path d="M2071.5 1747.5 2360 1747.5 2435.5 1823 2360 1898.5 2071.5 1898.5 2147 1823Z" stroke="#0076A7" stroke-width="4.58333" stroke-miterlimit="8" fill="#009DDF" fill-rule="evenodd"/><text fill="#FEFEFE" font-family="Poppins,Poppins_MSFontService,sans-serif" font-weight="700" font-size="48" transform="matrix(1 0 0 1 2186.1 1808)">PROD</text><path d="M2152.5 1822.5 2194 1822.5 2224.5 1853 2194 1883.5 2152.5 1883.5Z" stroke="#53CCFF" stroke-width="4.58333" stroke-miterlimit="8" fill="#0076A7" fill-rule="evenodd"/><path d="M2198.5 1822.5 2254 1822.5 2284.5 1853 2254 1883.5 2198.5 1883.5 2229 1853Z" stroke="#53CCFF" stroke-width="4.58333" stroke-miterlimit="8" fill="#0076A7" fill-rule="evenodd"/><path d="M2258.5 1822.5 2315 1822.5 2345.5 1853 2315 1883.5 2258.5 1883.5 2289 1853Z" stroke="#53CCFF" stroke-width="4.58333" stroke-miterlimit="8" fill="#0076A7" fill-rule="evenodd"/><path d="M1963.5 1747.5 2045.5 1747.5 2120.5 1822.5 2045.5 1897.5 1963.5 1897.5Z" stroke="#6A9838" stroke-width="4.58333" stroke-miterlimit="8" fill="#92D050" fill-rule="evenodd"/><text fill="#FEFEFE" font-family="Poppins,Poppins_MSFontService,sans-serif" font-weight="700" font-size="50" transform="matrix(1 0 0 1 1996.23 1809)">CI</text></g></svg>