<svg width="1040" height="426" xmlns="http://www.w3.org/2000/svg" xmlns:xlink="http://www.w3.org/1999/xlink" xml:space="preserve" overflow="hidden"><defs><clipPath id="clip0"><rect x="667" y="934" width="1040" height="426"/></clipPath><clipPath id="clip1"><rect x="864" y="933" width="427" height="426"/></clipPath><clipPath id="clip2"><rect x="864" y="933" width="427" height="426"/></clipPath><clipPath id="clip3"><rect x="864" y="933" width="427" height="426"/></clipPath><clipPath id="clip4"><rect x="837" y="1032" width="169" height="170"/></clipPath><clipPath id="clip5"><rect x="837" y="1032" width="169" height="170"/></clipPath><clipPath id="clip6"><rect x="837" y="1032" width="169" height="170"/></clipPath><clipPath id="clip7"><rect x="1290" y="961" width="124" height="123"/></clipPath><clipPath id="clip8"><rect x="1290" y="961" width="124" height="123"/></clipPath><clipPath id="clip9"><rect x="1290" y="961" width="124" height="123"/></clipPath><clipPath id="clip10"><rect x="1290" y="1086" width="124" height="124"/></clipPath><clipPath id="clip11"><rect x="1290" y="1086" width="124" height="124"/></clipPath><clipPath id="clip12"><rect x="1290" y="1086" width="124" height="124"/></clipPath><clipPath id="clip13"><rect x="1290" y="1215" width="124" height="123"/></clipPath><clipPath id="clip14"><rect x="1290" y="1215" width="124" height="123"/></clipPath><clipPath id="clip15"><rect x="1290" y="1215" width="124" height="123"/></clipPath></defs><g clip-path="url(#clip0)" transform="translate(-667 -934)"><path d="M667 965.02C667 947.888 680.888 934 698.02 934L1675.98 934C1693.11 934 1707 947.888 1707 965.02L1707 1326.98C1707 1344.11 1693.11 1358 1675.98 1358L698.02 1358C680.888 1358 667 1344.11 667 1326.98Z" fill="#D6EEF9" fill-rule="evenodd"/><g clip-path="url(#clip1)"><g clip-path="url(#clip2)"><g clip-path="url(#clip3)"><path d="M401.389 94.4444 401.389 324.417 306.944 401.861 160.556 348.5 160.556 401.389 77.6805 293.014 319.222 311.903 319.222 104.833ZM320.875 106.014 185.347 23.6111 185.347 77.6805 60.9166 114.278 23.6111 162.208 23.6111 271.055 76.9722 294.667 76.9722 155.125Z" fill="#FEFEFE" transform="matrix(1 0 0 1 865 934)"/></g></g></g><g clip-path="url(#clip4)"><g clip-path="url(#clip5)"><g clip-path="url(#clip6)"><path d="M962.831 1033.07 877.417 1033.07C874.122 1033.07 871.473 1035.72 871.473 1039.01L871.473 1058.47 968.774 1058.47 968.774 1039.01C968.774 1035.72 966.125 1033.07 962.831 1033.07Z" fill="#BC3200"/><path d="M972.889 1044.96 867.369 1044.96C862.615 1044.96 858.777 1048.8 858.777 1053.55L858.777 1060.31 981.481 1060.31 981.481 1053.55C981.481 1048.8 977.644 1044.96 972.889 1044.96Z" fill="#D13600"/><path d="M985.252 1057.15 855.008 1057.15C850.253 1057.15 846.415 1060.98 846.415 1065.74L846.415 1188.07C846.415 1192.82 850.287 1196.7 855.042 1196.7L985.218 1196.7C989.972 1196.7 993.844 1192.82 993.844 1188.07L993.844 1065.74C993.844 1060.98 990.006 1057.15 985.252 1057.15Z" fill="#E15815"/><path d="M889.919 1069.75C880.885 1069.75 873.549 1077.09 873.549 1086.12 873.549 1095.15 880.885 1102.49 889.919 1102.49 898.953 1102.49 906.288 1095.15 906.288 1086.12 906.288 1077.09 898.953 1069.75 889.919 1069.75ZM889.919 1096.72C884.044 1096.72 879.289 1091.96 879.289 1086.09 879.289 1080.21 884.044 1075.46 889.919 1075.46 895.794 1075.46 900.549 1080.21 900.549 1086.09 900.549 1091.96 895.794 1096.72 889.919 1096.72Z" fill="#FFB290"/><path d="M896.066 1100.71 883.942 1100.71 883.942 1133.9 896.066 1133.9 896.066 1100.71Z" fill="#FFB290"/><path d="M967.664 1086.35C967.664 1077.31 960.328 1069.98 951.294 1069.98 942.26 1069.98 934.925 1077.31 934.925 1086.35 934.925 1093.31 939.272 1099.25 945.419 1101.63L945.419 1112.87 883.948 1133.18 883.846 1133.18 883.846 1154C877.835 1156.41 873.589 1162.32 873.589 1169.18 873.589 1178.21 880.925 1185.55 889.959 1185.55 898.993 1185.55 906.329 1178.21 906.329 1169.18 906.329 1162.39 902.185 1156.55 896.31 1154.07L896.31 1141.16 957.441 1120.95 957.306 1120.72 957.441 1120.72 957.441 1101.49C963.419 1099.08 967.664 1093.21 967.664 1086.35ZM900.555 1169.21C900.555 1175.09 895.8 1179.84 889.925 1179.84 884.05 1179.84 879.295 1175.09 879.295 1169.21 879.295 1163.34 884.05 1158.58 889.925 1158.58 895.8 1158.58 900.555 1163.34 900.555 1169.21ZM951.294 1096.94C945.419 1096.94 940.664 1092.19 940.664 1086.31 940.664 1080.44 945.419 1075.68 951.294 1075.68 957.169 1075.68 961.924 1080.44 961.924 1086.31 961.924 1092.19 957.136 1096.94 951.294 1096.94Z" fill="#FFDBCA"/></g></g></g><text fill="#051922" font-family="Poppins,Poppins_MSFontService,sans-serif" font-weight="700" font-size="64" transform="matrix(1 0 0 1 741.593 1277)">Repository</text><g clip-path="url(#clip7)"><g clip-path="url(#clip8)"><g clip-path="url(#clip9)"><path d="M97.4402 110.431 3.2919 110.431C1.12535 110.431-0.450138 108.374 0.11569 106.281L21.4993 47.6557C21.8864 46.2212 23.1884 45.2242 24.6756 45.2242L118.824 45.2242C120.99 45.2242 122 47.2939 122 49.3743L100.616 107.999C100.229 109.434 98.9273 110.431 97.4402 110.431Z" fill="#EFCE4A" transform="matrix(1.0082 0 0 1 1290 961)"/><path d="M105.736 26.2931 52.5862 26.2931 42.069 11.569 3.64317 11.569C1.63228 11.569 0 13.1991 0 15.2121L0 105.088C0.145138 105.093 0.290276 105.101 0.431207 105.109L21.4972 47.6557C21.8843 46.2191 23.1863 45.2242 24.6735 45.2242L109.379 45.2242 109.379 29.9363C109.379 27.9233 107.747 26.2931 105.736 26.2931Z" fill="#EBBA16" transform="matrix(1.0082 0 0 1 1290 961)"/></g></g></g><g clip-path="url(#clip10)"><g clip-path="url(#clip11)"><g clip-path="url(#clip12)"><path d="M1388.24 1198.34 1293.32 1198.34C1291.13 1198.34 1289.55 1196.26 1290.12 1194.15L1311.68 1135.05C1312.07 1133.6 1313.38 1132.59 1314.88 1132.59L1409.8 1132.59C1411.98 1132.59 1413 1134.68 1413 1136.78L1391.44 1195.88C1391.05 1197.33 1389.74 1198.34 1388.24 1198.34Z" fill="#EFCE4A"/><path d="M1396.6 1113.51 1343.02 1113.51 1332.41 1098.66 1293.67 1098.66C1291.65 1098.66 1290 1100.31 1290 1102.34L1290 1192.95C1290.15 1192.95 1290.29 1192.96 1290.43 1192.97L1311.67 1135.05C1312.06 1133.6 1313.38 1132.59 1314.88 1132.59L1400.28 1132.59 1400.28 1117.18C1400.28 1115.15 1398.63 1113.51 1396.6 1113.51Z" fill="#EBBA16"/></g></g></g><g clip-path="url(#clip13)"><g clip-path="url(#clip14)"><g clip-path="url(#clip15)"><path d="M98.2386 111.336 3.31887 111.336C1.13457 111.336-0.453827 109.262 0.116638 107.152L21.6755 48.0462C22.0657 46.5999 23.3784 45.5947 24.8778 45.5947L119.797 45.5947C121.982 45.5947 123 47.6815 123 49.7788L101.441 108.884C101.051 110.331 99.7379 111.336 98.2386 111.336Z" fill="#EFCE4A" transform="matrix(1 0 0 1 1290 1215)"/><path d="M106.603 26.5086 53.0171 26.5086 42.4137 11.6638 3.67303 11.6638C1.64565 11.6638 0 13.3073 0 15.3368L0 105.949C0.146327 105.954 0.292654 105.962 0.43474 105.971L21.6734 48.0462C22.0636 46.5978 23.3763 45.5947 24.8756 45.5947L110.276 45.5947 110.276 30.1816C110.276 28.1521 108.63 26.5086 106.603 26.5086Z" fill="#EBBA16" transform="matrix(1 0 0 1 1290 1215)"/></g></g></g><path d="M0 0 142.522 0 142.522 95.246 285.044 95.246" stroke="#BB650B" stroke-width="11.4583" stroke-linecap="round" stroke-linejoin="round" stroke-miterlimit="10" fill="none" fill-rule="evenodd" transform="matrix(1 0 0 -1 1005.5 1117.75)"/><path d="M1005.5 1117.5 1148.02 1117.5 1148.02 1148.95 1290.54 1148.95" stroke="#BB650B" stroke-width="11.4583" stroke-linecap="round" stroke-linejoin="round" stroke-miterlimit="10" fill="none" fill-rule="evenodd"/><path d="M1005.5 1117.5 1148.02 1117.5 1148.02 1276.84 1290.54 1276.84" stroke="#BB650B" stroke-width="11.4583" stroke-linecap="round" stroke-linejoin="round" stroke-miterlimit="10" fill="none" fill-rule="evenodd"/><text fill="#051922" font-family="Poppins,Poppins_MSFontService,sans-serif" font-style="italic" font-weight="700" font-size="64" transform="matrix(1 0 0 1 1433.45 1050)">DEV<tspan font-size="64" x="-3.57459" y="128">UA</tspan><tspan font-size="64" x="89.2379" y="128">T</tspan><tspan font-size="64" x="-3.57495" y="253">PROD</tspan></text></g></svg>