<svg width="3005" height="355" xmlns="http://www.w3.org/2000/svg" xmlns:xlink="http://www.w3.org/1999/xlink" xml:space="preserve" overflow="hidden"><defs><clipPath id="clip0"><rect x="503" y="328" width="3005" height="355"/></clipPath></defs><g clip-path="url(#clip0)" transform="translate(-503 -328)"><path d="M505.5 350.5 2703.5 350.5 2868.5 515.5 2703.5 680.5 505.5 680.5Z" stroke="#6A9838" stroke-width="4.58333" stroke-miterlimit="8" fill="#92D050" fill-rule="evenodd"/><text fill="#FEFEFE" font-family="Poppins,Poppins_MSFontService,sans-serif" font-weight="700" font-size="128" transform="matrix(1 0 0 1 1577.27 485)">CI</text><path d="M2763.5 350.5 3338.5 350.5 3503.5 515.5 3338.5 680.5 2763.5 680.5 2928.5 515.5Z" stroke="#0076A7" stroke-width="4.58333" stroke-miterlimit="8" fill="#009DDF" fill-rule="evenodd"/><text fill="#FEFEFE" font-family="Poppins,Poppins_MSFontService,sans-serif" font-weight="700" font-size="128" transform="matrix(1 0 0 1 3037.05 485)">CD</text><path d="M539.5 514.5 1230 514.5 1297.5 582 1230 649.5 539.5 649.5Z" stroke="#BEE396" stroke-width="4.58333" stroke-miterlimit="8" fill="#6EAA2E" fill-rule="evenodd"/><text fill="#FEFEFE" font-family="Arial,Arial_MSFontService,sans-serif" font-weight="400" font-size="83" transform="matrix(1 0 0 1 637.984 612)">Define<tspan font-size="83" x="261.25" y="0">version</tspan></text><path d="M1261.5 514.5 1952 514.5 2019.5 582 1952 649.5 1261.5 649.5 1329 582Z" stroke="#BEE396" stroke-width="4.58333" stroke-miterlimit="8" fill="#6EAA2E" fill-rule="evenodd"/><text fill="#FEFEFE" font-family="Arial,Arial_MSFontService,sans-serif" font-weight="400" font-size="83" transform="matrix(1 0 0 1 1424.72 612)">Set <tspan font-size="83" x="146.667" y="0">sentinel</tspan></text><path d="M1981.5 514.5 2672 514.5 2739.5 582 2672 649.5 1981.5 649.5 2049 582Z" stroke="#BEE396" stroke-width="4.58333" stroke-miterlimit="8" fill="#6EAA2E" fill-rule="evenodd"/><text fill="#FEFEFE" font-family="Arial,Arial_MSFontService,sans-serif" font-weight="400" font-size="83" transform="matrix(1 0 0 1 2101.11 612)">Create<tspan font-size="83" x="270.417" y="0">a</tspan><tspan font-size="83" x="316.25" y="0">rtifact</tspan></text></g></svg>