<svg width="4115" height="1625" xmlns="http://www.w3.org/2000/svg" xmlns:xlink="http://www.w3.org/1999/xlink" xml:space="preserve" overflow="hidden"><defs><clipPath id="clip0"><rect x="143" y="574" width="4115" height="1625"/></clipPath></defs><g clip-path="url(#clip0)" transform="translate(-143 -574)"><path d="M814 1351.5C814 1167.31 1138.82 1018 1539.5 1018 1940.18 1018 2265 1167.31 2265 1351.5 2265 1535.69 1940.18 1685 1539.5 1685 1138.82 1685 814 1535.69 814 1351.5Z" fill="#0090CE" fill-rule="evenodd" fill-opacity="0.501961"/><text fill="#FEFEFE" font-family="Poppins,Poppins_MSFontService,sans-serif" font-weight="700" font-size="128" transform="matrix(1 0 0 1 1205.77 1316)">Related<tspan font-size="128" x="532.812" y="0">to </tspan><tspan font-size="128" x="-70.4688" y="154">deployment</tspan><tspan fill="#3F3F3F" font-weight="400" font-size="110" x="-834.12" y="-608">Internal</tspan><tspan fill="#3F3F3F" font-weight="400" font-size="110" x="-386.099" y="-608">access</tspan><tspan fill="#3F3F3F" font-weight="400" font-size="110" x="34.4218" y="-608">keys</tspan><tspan fill="#3F3F3F" font-weight="400" font-size="110" x="-996.264" y="-354">Internal</tspan><tspan fill="#3F3F3F" font-weight="400" font-size="110" x="-548.243" y="-354">Endpoints</tspan><tspan fill="#3F3F3F" font-weight="400" font-size="110" x="-925.393" y="543">Functional</tspan><tspan fill="#3F3F3F" font-weight="400" font-size="110" x="-323.258" y="543">param.</tspan><tspan fill="#3F3F3F" font-weight="400" font-size="110" x="-618.796" y="785">Technical</tspan><tspan fill="#3F3F3F" font-weight="400" font-size="110" x="-58.4839" y="785">param</tspan><tspan fill="#3F3F3F" font-weight="400" font-size="110" x="319.641" y="785">.</tspan><tspan fill="#3F3F3F" font-weight="400" font-size="110" x="1647.84" y="-608">Certificates</tspan><tspan fill="#3F3F3F" font-weight="400" font-size="110" x="1809.1" y="-359">External</tspan><tspan fill="#3F3F3F" font-weight="400" font-size="110" x="2268.58" y="-359">access</tspan><tspan fill="#3F3F3F" font-weight="400" font-size="110" x="2689.1" y="-359">keys</tspan><tspan fill="#3F3F3F" font-weight="400" font-size="110" x="1985.77" y="460">External</tspan><tspan fill="#3F3F3F" font-weight="400" font-size="110" x="2445.25" y="460">Endpoints</tspan><tspan fill="#3F3F3F" font-weight="400" font-size="110" x="1748.77" y="702">Feature</tspan><tspan fill="#3F3F3F" font-weight="400" font-size="110" x="2196.22" y="702">flags</tspan></text><path d="M1400 969.5C1400 785.313 1725.04 636 2126 636 2526.96 636 2852 785.313 2852 969.5 2852 1153.69 2526.96 1303 2126 1303 1725.04 1303 1400 1153.69 1400 969.5Z" fill="#0090CE" fill-rule="evenodd" fill-opacity="0.501961"/><text fill="#FEFEFE" font-family="Poppins,Poppins_MSFontService,sans-serif" font-weight="700" font-size="128" transform="matrix(1 0 0 1 1785.67 1011)">Dedicated</text><path d="M1429 1758.5C1429 1574.31 1753.82 1425 2154.5 1425 2555.18 1425 2880 1574.31 2880 1758.5 2880 1942.69 2555.18 2092 2154.5 2092 1753.82 2092 1429 1942.69 1429 1758.5Z" fill="#BF0000" fill-rule="evenodd" fill-opacity="0.501961"/><text fill="#FEFEFE" font-family="Poppins,Poppins_MSFontService,sans-serif" font-weight="700" font-size="128" transform="matrix(1 0 0 1 1844.53 1800)">Common</text><path d="M1987 1351.5C1987 1167.31 2311.82 1018 2712.5 1018 3113.18 1018 3438 1167.31 3438 1351.5 3438 1535.69 3113.18 1685 2712.5 1685 2311.82 1685 1987 1535.69 1987 1351.5Z" fill="#BF0000" fill-rule="evenodd" fill-opacity="0.501961"/><text fill="#FEFEFE" font-family="Poppins,Poppins_MSFontService,sans-serif" font-weight="700" font-size="128" transform="matrix(1 0 0 1 2265.03 1316)">Not <tspan font-size="128" x="257.24" y="0">related</tspan><tspan font-size="128" x="761.406" y="0">to</tspan><tspan font-size="128" x="43.8167" y="154">deployment</tspan></text></g></svg>